G75*
G70*
%OFA0B0*%
%FSLAX25Y25*%
%IPPOS*%
%LPD*%
%AMOC8*
5,1,8,0,0,1.08239X$1,22.5*
%
%AMM1*
21,1,0.035430,0.030320,0.000000,0.000000,90.000000*
21,1,0.028350,0.037400,0.000000,0.000000,90.000000*
1,1,0.007090,0.015160,0.014170*
1,1,0.007090,0.015160,-0.014170*
1,1,0.007090,-0.015160,-0.014170*
1,1,0.007090,-0.015160,0.014170*
%
%AMM10*
21,1,0.025590,0.026380,0.000000,0.000000,90.000000*
21,1,0.020470,0.031500,0.000000,0.000000,90.000000*
1,1,0.005120,0.013190,0.010240*
1,1,0.005120,0.013190,-0.010240*
1,1,0.005120,-0.013190,-0.010240*
1,1,0.005120,-0.013190,0.010240*
%
%AMM11*
21,1,0.017720,0.027950,0.000000,0.000000,90.000000*
21,1,0.014170,0.031500,0.000000,0.000000,90.000000*
1,1,0.003540,0.013980,0.007090*
1,1,0.003540,0.013980,-0.007090*
1,1,0.003540,-0.013980,-0.007090*
1,1,0.003540,-0.013980,0.007090*
%
%AMM13*
21,1,0.012600,0.028980,0.000000,0.000000,90.000000*
21,1,0.010080,0.031500,0.000000,0.000000,90.000000*
1,1,0.002520,0.014490,0.005040*
1,1,0.002520,0.014490,-0.005040*
1,1,0.002520,-0.014490,-0.005040*
1,1,0.002520,-0.014490,0.005040*
%
%AMM16*
21,1,0.027560,0.018900,0.000000,0.000000,90.000000*
21,1,0.022840,0.023620,0.000000,0.000000,90.000000*
1,1,0.004720,0.009450,0.011420*
1,1,0.004720,0.009450,-0.011420*
1,1,0.004720,-0.009450,-0.011420*
1,1,0.004720,-0.009450,0.011420*
%
%AMM33*
21,1,0.033470,0.026770,0.000000,0.000000,180.000000*
21,1,0.026770,0.033470,0.000000,0.000000,180.000000*
1,1,0.006690,-0.013390,0.013390*
1,1,0.006690,0.013390,0.013390*
1,1,0.006690,0.013390,-0.013390*
1,1,0.006690,-0.013390,-0.013390*
%
%AMM34*
21,1,0.035430,0.030320,0.000000,0.000000,180.000000*
21,1,0.028350,0.037400,0.000000,0.000000,180.000000*
1,1,0.007090,-0.014170,0.015160*
1,1,0.007090,0.014170,0.015160*
1,1,0.007090,0.014170,-0.015160*
1,1,0.007090,-0.014170,-0.015160*
%
%AMM35*
21,1,0.035830,0.026770,0.000000,0.000000,0.000000*
21,1,0.029130,0.033470,0.000000,0.000000,0.000000*
1,1,0.006690,0.014570,-0.013390*
1,1,0.006690,-0.014570,-0.013390*
1,1,0.006690,-0.014570,0.013390*
1,1,0.006690,0.014570,0.013390*
%
%AMM36*
21,1,0.070870,0.036220,0.000000,0.000000,0.000000*
21,1,0.061810,0.045280,0.000000,0.000000,0.000000*
1,1,0.009060,0.030910,-0.018110*
1,1,0.009060,-0.030910,-0.018110*
1,1,0.009060,-0.030910,0.018110*
1,1,0.009060,0.030910,0.018110*
%
%AMM37*
21,1,0.059060,0.020470,0.000000,0.000000,90.000000*
21,1,0.053940,0.025590,0.000000,0.000000,90.000000*
1,1,0.005120,0.010240,0.026970*
1,1,0.005120,0.010240,-0.026970*
1,1,0.005120,-0.010240,-0.026970*
1,1,0.005120,-0.010240,0.026970*
%
%AMM38*
21,1,0.078740,0.045670,0.000000,0.000000,90.000000*
21,1,0.067320,0.057090,0.000000,0.000000,90.000000*
1,1,0.011420,0.022840,0.033660*
1,1,0.011420,0.022840,-0.033660*
1,1,0.011420,-0.022840,-0.033660*
1,1,0.011420,-0.022840,0.033660*
%
%AMM39*
21,1,0.025590,0.026380,0.000000,0.000000,0.000000*
21,1,0.020470,0.031500,0.000000,0.000000,0.000000*
1,1,0.005120,0.010240,-0.013190*
1,1,0.005120,-0.010240,-0.013190*
1,1,0.005120,-0.010240,0.013190*
1,1,0.005120,0.010240,0.013190*
%
%AMM40*
21,1,0.017720,0.027950,0.000000,0.000000,0.000000*
21,1,0.014170,0.031500,0.000000,0.000000,0.000000*
1,1,0.003540,0.007090,-0.013980*
1,1,0.003540,-0.007090,-0.013980*
1,1,0.003540,-0.007090,0.013980*
1,1,0.003540,0.007090,0.013980*
%
%AMM41*
21,1,0.027560,0.030710,0.000000,0.000000,90.000000*
21,1,0.022050,0.036220,0.000000,0.000000,90.000000*
1,1,0.005510,0.015350,0.011020*
1,1,0.005510,0.015350,-0.011020*
1,1,0.005510,-0.015350,-0.011020*
1,1,0.005510,-0.015350,0.011020*
%
%AMM42*
21,1,0.027560,0.049610,0.000000,0.000000,270.000000*
21,1,0.022050,0.055120,0.000000,0.000000,270.000000*
1,1,0.005510,-0.024800,-0.011020*
1,1,0.005510,-0.024800,0.011020*
1,1,0.005510,0.024800,0.011020*
1,1,0.005510,0.024800,-0.011020*
%
%AMM43*
21,1,0.027560,0.030710,0.000000,0.000000,0.000000*
21,1,0.022050,0.036220,0.000000,0.000000,0.000000*
1,1,0.005510,0.011020,-0.015350*
1,1,0.005510,-0.011020,-0.015350*
1,1,0.005510,-0.011020,0.015350*
1,1,0.005510,0.011020,0.015350*
%
%AMM44*
21,1,0.070870,0.036220,0.000000,0.000000,90.000000*
21,1,0.061810,0.045280,0.000000,0.000000,90.000000*
1,1,0.009060,0.018110,0.030910*
1,1,0.009060,0.018110,-0.030910*
1,1,0.009060,-0.018110,-0.030910*
1,1,0.009060,-0.018110,0.030910*
%
%AMM7*
21,1,0.027560,0.018900,0.000000,0.000000,180.000000*
21,1,0.022840,0.023620,0.000000,0.000000,180.000000*
1,1,0.004720,-0.011420,0.009450*
1,1,0.004720,0.011420,0.009450*
1,1,0.004720,0.011420,-0.009450*
1,1,0.004720,-0.011420,-0.009450*
%
%ADD100M40*%
%ADD101M41*%
%ADD102M42*%
%ADD103M43*%
%ADD104M44*%
%ADD105O,0.04961X0.00984*%
%ADD106R,0.00984X0.01378*%
%ADD107R,0.01378X0.00984*%
%ADD11R,0.00787X0.09055*%
%ADD12R,0.00787X0.21260*%
%ADD13R,0.00787X0.33858*%
%ADD14R,0.00787X0.19685*%
%ADD15R,0.05512X0.00787*%
%ADD16R,0.19685X0.00787*%
%ADD17R,0.26772X0.00787*%
%ADD18R,0.17717X0.00787*%
%ADD19R,0.00787X0.06299*%
%ADD20R,0.00787X0.22441*%
%ADD21R,0.00787X0.07874*%
%ADD27M1*%
%ADD33M7*%
%ADD37M10*%
%ADD38M11*%
%ADD42M13*%
%ADD48M16*%
%ADD90M33*%
%ADD91M34*%
%ADD92M35*%
%ADD93R,0.03937X0.04331*%
%ADD94M36*%
%ADD95M37*%
%ADD96M38*%
%ADD98R,0.09449X0.06693*%
%ADD99M39*%
X0000000Y0000000D02*
%LPD*%
G01*
X0029528Y0307874D02*
G01*
G75*
D12*
X0029922Y0335433D02*
D03*
D11*
X0029922Y0312402D02*
D03*
D14*
X0029922Y0359842D02*
D03*
D21*
X0195670Y0311811D02*
D03*
D16*
X0042520Y0465354D02*
D03*
D17*
X0075985Y0465354D02*
D03*
D18*
X0114764Y0465354D02*
D03*
D20*
X0195670Y0334055D02*
D03*
D19*
X0195670Y0459449D02*
D03*
D15*
X0037008Y0308268D02*
D03*
D13*
X0029922Y0445669D02*
D03*
D27*
X0041143Y0409116D02*
D03*
X0050395Y0412856D02*
D03*
D27*
X0041143Y0416597D02*
D03*
D33*
X0177510Y0404331D02*
D03*
X0177510Y0400394D02*
D03*
X0061221Y0359842D02*
D03*
X0061221Y0363779D02*
D03*
X0181890Y0402756D02*
D03*
X0181890Y0398819D02*
D03*
X0058170Y0462008D02*
D03*
X0058170Y0458071D02*
D03*
X0091353Y0384646D02*
D03*
X0091353Y0380709D02*
D03*
X0108258Y0384574D02*
D03*
X0108258Y0388511D02*
D03*
X0086221Y0381102D02*
D03*
X0086221Y0385039D02*
D03*
X0035027Y0364690D02*
D03*
X0035027Y0360753D02*
D03*
X0052756Y0433858D02*
D03*
X0052756Y0429921D02*
D03*
X0032284Y0452953D02*
D03*
X0032284Y0456890D02*
D03*
X0164174Y0377165D02*
D03*
X0164174Y0373228D02*
D03*
X0090552Y0441732D02*
D03*
X0090552Y0445669D02*
D03*
X0120769Y0375295D02*
D03*
X0120769Y0379232D02*
D03*
X0109744Y0456595D02*
D03*
X0109744Y0460531D02*
D03*
X0162599Y0388976D02*
D03*
X0162599Y0385039D02*
D03*
X0166536Y0388976D02*
D03*
X0166536Y0385039D02*
D03*
X0036418Y0452953D02*
D03*
X0036418Y0456890D02*
D03*
X0173426Y0404331D02*
D03*
X0173426Y0400394D02*
D03*
X0173229Y0426772D02*
D03*
X0173229Y0422835D02*
D03*
X0125099Y0375295D02*
D03*
X0125099Y0379232D02*
D03*
X0128741Y0461811D02*
D03*
X0128741Y0457874D02*
D03*
X0090552Y0412205D02*
D03*
X0090552Y0416142D02*
D03*
X0090552Y0408661D02*
D03*
X0090552Y0404724D02*
D03*
X0077166Y0332283D02*
D03*
X0077166Y0328346D02*
D03*
X0081890Y0332283D02*
D03*
X0081890Y0328346D02*
D03*
X0086615Y0332283D02*
D03*
X0086615Y0328346D02*
D03*
X0091339Y0332283D02*
D03*
X0091339Y0328346D02*
D03*
X0175985Y0312992D02*
D03*
X0175985Y0316929D02*
D03*
X0180709Y0316929D02*
D03*
X0180709Y0312992D02*
D03*
X0185433Y0312992D02*
D03*
X0185433Y0316929D02*
D03*
X0190158Y0312992D02*
D03*
X0190158Y0316929D02*
D03*
X0057284Y0359842D02*
D03*
X0057284Y0363779D02*
D03*
X0085237Y0359842D02*
D03*
X0085237Y0363779D02*
D03*
X0053544Y0332283D02*
D03*
X0053544Y0328346D02*
D03*
X0048820Y0332283D02*
D03*
X0048820Y0328346D02*
D03*
X0044095Y0332283D02*
D03*
X0044095Y0328346D02*
D03*
X0039371Y0332283D02*
D03*
X0039371Y0328346D02*
D03*
X0072442Y0332283D02*
D03*
X0072442Y0328346D02*
D03*
X0067717Y0332283D02*
D03*
X0067717Y0328346D02*
D03*
X0062993Y0332283D02*
D03*
X0062993Y0328346D02*
D03*
X0058268Y0332283D02*
D03*
X0058268Y0328346D02*
D03*
X0110237Y0332283D02*
D03*
X0110237Y0328346D02*
D03*
X0105513Y0332283D02*
D03*
X0105513Y0328346D02*
D03*
X0100788Y0332283D02*
D03*
X0100788Y0328346D02*
D03*
X0096064Y0332283D02*
D03*
X0096064Y0328346D02*
D03*
X0129135Y0328346D02*
D03*
X0129135Y0332283D02*
D03*
X0124410Y0332283D02*
D03*
X0124410Y0328346D02*
D03*
X0119686Y0332283D02*
D03*
X0119686Y0328346D02*
D03*
X0114961Y0332283D02*
D03*
X0114961Y0328346D02*
D03*
X0148032Y0332283D02*
D03*
X0148032Y0328346D02*
D03*
X0143308Y0332283D02*
D03*
X0143308Y0328346D02*
D03*
X0138583Y0332283D02*
D03*
X0138583Y0328346D02*
D03*
X0133859Y0332283D02*
D03*
X0133859Y0328346D02*
D03*
X0162205Y0332283D02*
D03*
X0162205Y0328346D02*
D03*
X0157481Y0332283D02*
D03*
X0157481Y0328346D02*
D03*
X0152756Y0332283D02*
D03*
X0152756Y0328346D02*
D03*
X0034252Y0323031D02*
D03*
X0034252Y0326968D02*
D03*
X0171261Y0316929D02*
D03*
X0171261Y0312992D02*
D03*
X0085237Y0349606D02*
D03*
X0085237Y0353543D02*
D03*
X0172835Y0328346D02*
D03*
X0172835Y0332283D02*
D03*
X0034252Y0315354D02*
D03*
X0034252Y0319291D02*
D03*
X0172835Y0324409D02*
D03*
X0172835Y0320472D02*
D03*
X0177953Y0454724D02*
D03*
X0177953Y0450787D02*
D03*
X0166930Y0332283D02*
D03*
X0166930Y0328346D02*
D03*
D37*
X0066930Y0424705D02*
D03*
X0074016Y0424705D02*
D03*
X0074016Y0414665D02*
D03*
X0066930Y0414665D02*
D03*
X0081497Y0376476D02*
D03*
X0074410Y0376476D02*
D03*
X0074410Y0386516D02*
D03*
X0081497Y0386516D02*
D03*
X0081497Y0392618D02*
D03*
X0074410Y0392618D02*
D03*
X0074410Y0402658D02*
D03*
X0081497Y0402658D02*
D03*
X0176969Y0356791D02*
D03*
X0169882Y0356791D02*
D03*
X0169882Y0346752D02*
D03*
X0176969Y0346752D02*
D03*
X0158465Y0346752D02*
D03*
X0165552Y0346752D02*
D03*
X0165552Y0356791D02*
D03*
X0158465Y0356791D02*
D03*
X0108465Y0356791D02*
D03*
X0101379Y0356791D02*
D03*
X0101379Y0346752D02*
D03*
X0108465Y0346752D02*
D03*
X0089961Y0346752D02*
D03*
X0097048Y0346752D02*
D03*
X0097048Y0356791D02*
D03*
X0089961Y0356791D02*
D03*
X0131300Y0356791D02*
D03*
X0124213Y0356791D02*
D03*
X0124213Y0346752D02*
D03*
X0131300Y0346752D02*
D03*
X0112796Y0346752D02*
D03*
X0119883Y0346752D02*
D03*
X0119883Y0356791D02*
D03*
X0112796Y0356791D02*
D03*
X0154135Y0356791D02*
D03*
X0147048Y0356791D02*
D03*
X0147048Y0346752D02*
D03*
X0154135Y0346752D02*
D03*
X0135631Y0346752D02*
D03*
X0142717Y0346752D02*
D03*
X0142717Y0356791D02*
D03*
X0135631Y0356791D02*
D03*
D38*
X0074016Y0418110D02*
D03*
X0074016Y0421260D02*
D03*
X0066930Y0421260D02*
D03*
X0066930Y0418110D02*
D03*
X0074410Y0383071D02*
D03*
X0074410Y0379921D02*
D03*
X0081497Y0379921D02*
D03*
X0081497Y0383071D02*
D03*
X0074410Y0399213D02*
D03*
X0074410Y0396063D02*
D03*
X0081497Y0396063D02*
D03*
X0081497Y0399213D02*
D03*
X0176969Y0353346D02*
D03*
X0176969Y0350197D02*
D03*
X0169882Y0350197D02*
D03*
X0169882Y0353346D02*
D03*
X0158465Y0350197D02*
D03*
X0158465Y0353346D02*
D03*
X0165552Y0353346D02*
D03*
X0165552Y0350197D02*
D03*
X0108465Y0353346D02*
D03*
X0108465Y0350197D02*
D03*
X0101379Y0350197D02*
D03*
X0101379Y0353346D02*
D03*
X0089961Y0350197D02*
D03*
X0089961Y0353346D02*
D03*
X0097048Y0353346D02*
D03*
X0097048Y0350197D02*
D03*
X0131300Y0353346D02*
D03*
X0131300Y0350197D02*
D03*
X0124213Y0350197D02*
D03*
X0124213Y0353346D02*
D03*
X0112796Y0350197D02*
D03*
X0112796Y0353346D02*
D03*
X0119883Y0353346D02*
D03*
X0119883Y0350197D02*
D03*
X0154135Y0353346D02*
D03*
X0154135Y0350197D02*
D03*
X0147048Y0350197D02*
D03*
X0147048Y0353346D02*
D03*
X0135631Y0350197D02*
D03*
X0135631Y0353346D02*
D03*
X0142717Y0353346D02*
D03*
X0142717Y0350197D02*
D03*
D42*
X0054922Y0418701D02*
D03*
X0054922Y0421260D02*
D03*
X0054922Y0423819D02*
D03*
X0062402Y0423819D02*
D03*
X0062402Y0418701D02*
D03*
D48*
X0073229Y0459252D02*
D03*
X0069292Y0459252D02*
D03*
X0189371Y0443504D02*
D03*
X0185433Y0443504D02*
D03*
X0048271Y0438683D02*
D03*
X0052208Y0438683D02*
D03*
X0074016Y0432677D02*
D03*
X0070079Y0432677D02*
D03*
X0062205Y0432677D02*
D03*
X0066142Y0432677D02*
D03*
X0170867Y0377953D02*
D03*
X0174804Y0377953D02*
D03*
X0101575Y0459843D02*
D03*
X0105512Y0459843D02*
D03*
X0170276Y0447638D02*
D03*
X0174213Y0447638D02*
D03*
X0142914Y0458661D02*
D03*
X0146851Y0458661D02*
D03*
X0098438Y0371852D02*
D03*
X0094501Y0371852D02*
D03*
X0089174Y0394488D02*
D03*
X0093111Y0394488D02*
D03*
X0099213Y0392913D02*
D03*
X0103150Y0392913D02*
D03*
X0098426Y0421260D02*
D03*
X0102363Y0421260D02*
D03*
X0193701Y0461417D02*
D03*
X0189764Y0461417D02*
D03*
X0080512Y0460433D02*
D03*
X0076575Y0460433D02*
D03*
X0062599Y0446063D02*
D03*
X0066536Y0446063D02*
D03*
X0173623Y0384252D02*
D03*
X0177560Y0384252D02*
D03*
X0173623Y0388189D02*
D03*
X0177560Y0388189D02*
D03*
X0174213Y0451575D02*
D03*
X0170276Y0451575D02*
D03*
X0147146Y0375689D02*
D03*
X0143209Y0375689D02*
D03*
X0090552Y0420866D02*
D03*
X0094489Y0420866D02*
D03*
X0090552Y0389173D02*
D03*
X0094489Y0389173D02*
D03*
X0098819Y0444488D02*
D03*
X0102756Y0444488D02*
D03*
X0098032Y0429134D02*
D03*
X0101969Y0429134D02*
D03*
X0112894Y0375295D02*
D03*
X0116831Y0375295D02*
D03*
X0167127Y0362992D02*
D03*
X0163190Y0362992D02*
D03*
X0098623Y0362992D02*
D03*
X0094686Y0362992D02*
D03*
X0121457Y0362992D02*
D03*
X0117520Y0362992D02*
D03*
X0144292Y0362992D02*
D03*
X0140355Y0362992D02*
D03*
X0105119Y0338976D02*
D03*
X0101182Y0338976D02*
D03*
X0050067Y0342520D02*
D03*
X0054004Y0342520D02*
D03*
X0040878Y0342520D02*
D03*
X0036941Y0342520D02*
D03*
X0074871Y0342520D02*
D03*
X0078808Y0342520D02*
D03*
X0065682Y0342520D02*
D03*
X0061745Y0342520D02*
D03*
X0038780Y0424409D02*
D03*
X0034843Y0424409D02*
D03*
X0043308Y0424409D02*
D03*
X0047245Y0424409D02*
D03*
X0080316Y0336220D02*
D03*
X0076379Y0336220D02*
D03*
X0033465Y0374016D02*
D03*
X0037402Y0374016D02*
D03*
X0033465Y0386417D02*
D03*
X0037402Y0386417D02*
D03*
X0033465Y0390551D02*
D03*
X0037402Y0390551D02*
D03*
X0033465Y0398819D02*
D03*
X0037402Y0398819D02*
D03*
X0033465Y0394685D02*
D03*
X0037402Y0394685D02*
D03*
X0033465Y0402953D02*
D03*
X0037402Y0402953D02*
D03*
X0033465Y0382284D02*
D03*
X0037402Y0382284D02*
D03*
X0033465Y0378150D02*
D03*
X0037402Y0378150D02*
D03*
D90*
X0083505Y0425394D02*
D03*
X0089725Y0425394D02*
D03*
D91*
X0186108Y0435745D02*
D03*
X0189848Y0426493D02*
D03*
X0103679Y0377994D02*
D03*
X0099939Y0387246D02*
D03*
X0040158Y0438858D02*
D03*
X0036418Y0448110D02*
D03*
X0045867Y0452283D02*
D03*
X0049607Y0443032D02*
D03*
X0182481Y0343898D02*
D03*
X0186221Y0334646D02*
D03*
X0186221Y0349541D02*
D03*
X0182481Y0358793D02*
D03*
X0182481Y0373688D02*
D03*
X0186221Y0364436D02*
D03*
X0181694Y0388583D02*
D03*
X0185434Y0379331D02*
D03*
D91*
X0182368Y0426493D02*
D03*
X0096199Y0377994D02*
D03*
X0032678Y0438858D02*
D03*
X0053347Y0452284D02*
D03*
X0189961Y0343898D02*
D03*
X0189961Y0358793D02*
D03*
X0189961Y0373688D02*
D03*
X0189174Y0388583D02*
D03*
D92*
X0033859Y0431496D02*
D03*
X0046851Y0431496D02*
D03*
X0071260Y0441732D02*
D03*
X0084253Y0441732D02*
D03*
D93*
X0066339Y0440157D02*
D03*
X0059646Y0440157D02*
D03*
D94*
X0188583Y0402362D02*
D03*
X0188583Y0413779D02*
D03*
D95*
X0126654Y0413398D02*
D03*
X0130985Y0413398D02*
D03*
X0135316Y0413398D02*
D03*
X0139646Y0413398D02*
D03*
X0143977Y0413398D02*
D03*
X0148308Y0413398D02*
D03*
X0152639Y0413398D02*
D03*
X0156969Y0413398D02*
D03*
D96*
X0166339Y0403162D02*
D03*
X0166339Y0435839D02*
D03*
X0112206Y0435839D02*
D03*
X0112206Y0403162D02*
D03*
D98*
X0101576Y0414370D02*
D03*
X0101576Y0399803D02*
D03*
D99*
X0148131Y0390551D02*
D03*
X0148131Y0383465D02*
D03*
X0158170Y0383465D02*
D03*
X0158170Y0390551D02*
D03*
X0079233Y0315551D02*
D03*
X0079233Y0322638D02*
D03*
X0089272Y0322638D02*
D03*
X0089272Y0315551D02*
D03*
X0051083Y0350000D02*
D03*
X0051083Y0357087D02*
D03*
X0041044Y0357087D02*
D03*
X0041044Y0350000D02*
D03*
X0041044Y0368504D02*
D03*
X0041044Y0361417D02*
D03*
X0051083Y0361417D02*
D03*
X0051083Y0368504D02*
D03*
X0079036Y0350000D02*
D03*
X0079036Y0357087D02*
D03*
X0068997Y0357087D02*
D03*
X0068997Y0350000D02*
D03*
X0068997Y0368504D02*
D03*
X0068997Y0361417D02*
D03*
X0079036Y0361417D02*
D03*
X0079036Y0368504D02*
D03*
X0041438Y0315551D02*
D03*
X0041438Y0322638D02*
D03*
X0051477Y0322638D02*
D03*
X0051477Y0315551D02*
D03*
X0060335Y0315551D02*
D03*
X0060335Y0322638D02*
D03*
X0070374Y0322638D02*
D03*
X0070374Y0315551D02*
D03*
X0098130Y0315551D02*
D03*
X0098130Y0322638D02*
D03*
X0108170Y0322638D02*
D03*
X0108170Y0315551D02*
D03*
X0117028Y0315551D02*
D03*
X0117028Y0322638D02*
D03*
X0127068Y0322638D02*
D03*
X0127068Y0315551D02*
D03*
X0135926Y0315551D02*
D03*
X0135926Y0322638D02*
D03*
X0145965Y0322638D02*
D03*
X0145965Y0315551D02*
D03*
X0154823Y0315551D02*
D03*
X0154823Y0322638D02*
D03*
X0164863Y0322638D02*
D03*
X0164863Y0315551D02*
D03*
X0188091Y0321260D02*
D03*
X0188091Y0328346D02*
D03*
X0178052Y0328346D02*
D03*
X0178052Y0321260D02*
D03*
D100*
X0151575Y0390551D02*
D03*
X0154725Y0390551D02*
D03*
X0154725Y0383465D02*
D03*
X0151575Y0383465D02*
D03*
X0085827Y0322638D02*
D03*
X0082678Y0322638D02*
D03*
X0082678Y0315551D02*
D03*
X0085827Y0315551D02*
D03*
X0047638Y0350000D02*
D03*
X0044489Y0350000D02*
D03*
X0044489Y0357087D02*
D03*
X0047638Y0357087D02*
D03*
X0044489Y0368504D02*
D03*
X0047638Y0368504D02*
D03*
X0047638Y0361417D02*
D03*
X0044489Y0361417D02*
D03*
X0075591Y0350000D02*
D03*
X0072441Y0350000D02*
D03*
X0072441Y0357087D02*
D03*
X0075591Y0357087D02*
D03*
X0072442Y0368504D02*
D03*
X0075591Y0368504D02*
D03*
X0075591Y0361417D02*
D03*
X0072442Y0361417D02*
D03*
X0048032Y0322638D02*
D03*
X0044883Y0322638D02*
D03*
X0044883Y0315551D02*
D03*
X0048032Y0315551D02*
D03*
X0066930Y0322638D02*
D03*
X0063780Y0322638D02*
D03*
X0063780Y0315551D02*
D03*
X0066930Y0315551D02*
D03*
X0104725Y0322638D02*
D03*
X0101575Y0322638D02*
D03*
X0101575Y0315551D02*
D03*
X0104725Y0315551D02*
D03*
X0123623Y0322638D02*
D03*
X0120473Y0322638D02*
D03*
X0120473Y0315551D02*
D03*
X0123623Y0315551D02*
D03*
X0142520Y0322638D02*
D03*
X0139371Y0322638D02*
D03*
X0139371Y0315551D02*
D03*
X0142520Y0315551D02*
D03*
X0161418Y0322638D02*
D03*
X0158268Y0322638D02*
D03*
X0158268Y0315551D02*
D03*
X0161418Y0315551D02*
D03*
X0184646Y0321260D02*
D03*
X0181497Y0321260D02*
D03*
X0181497Y0328346D02*
D03*
X0184646Y0328346D02*
D03*
D101*
X0173229Y0418110D02*
D03*
X0173229Y0411811D02*
D03*
X0119587Y0453839D02*
D03*
X0119587Y0460138D02*
D03*
X0034253Y0420079D02*
D03*
X0034253Y0413779D02*
D03*
X0178741Y0410630D02*
D03*
X0178741Y0416929D02*
D03*
D102*
X0098819Y0439567D02*
D03*
X0098819Y0433661D02*
D03*
D103*
X0089765Y0434646D02*
D03*
X0083465Y0434646D02*
D03*
X0089765Y0430020D02*
D03*
X0083465Y0430020D02*
D03*
D104*
X0041339Y0459252D02*
D03*
X0052756Y0459252D02*
D03*
D105*
X0043150Y0375000D02*
D03*
X0043150Y0377559D02*
D03*
X0043150Y0380118D02*
D03*
X0043150Y0382677D02*
D03*
X0043150Y0385236D02*
D03*
X0043150Y0387795D02*
D03*
X0043150Y0390354D02*
D03*
X0043150Y0392913D02*
D03*
X0043150Y0395472D02*
D03*
X0043150Y0398032D02*
D03*
X0043150Y0400590D02*
D03*
X0043150Y0403150D02*
D03*
X0066143Y0375000D02*
D03*
X0066143Y0377559D02*
D03*
X0066143Y0380118D02*
D03*
X0066143Y0382677D02*
D03*
X0066143Y0385236D02*
D03*
X0066143Y0387795D02*
D03*
X0066143Y0390354D02*
D03*
X0066143Y0392913D02*
D03*
X0066143Y0395472D02*
D03*
X0066143Y0398032D02*
D03*
X0066143Y0400590D02*
D03*
X0066143Y0403150D02*
D03*
D106*
X0186418Y0451181D02*
D03*
X0184450Y0451181D02*
D03*
X0184450Y0457480D02*
D03*
X0186418Y0457480D02*
D03*
D107*
X0182284Y0451378D02*
D03*
X0182284Y0453347D02*
D03*
X0182284Y0455315D02*
D03*
X0182284Y0457283D02*
D03*
X0188584Y0451378D02*
D03*
X0188584Y0457283D02*
D03*
X0188584Y0453347D02*
D03*
X0188584Y0455315D02*
D03*
M02*
