M48
INCH,TZ
T01C0.011800
T02C0.031500
T03C0.039200
%
T01
X3071Y32283
X3071Y31890
X3071Y42677
X3071Y42283
X3071Y41890
X3071Y41496
X3071Y41102
X3071Y40709
X3071Y37165
X3071Y46457
X3071Y40315
X3071Y39921
X3071Y39528
X3071Y39134
X3071Y38740
X3071Y38346
X3071Y37953
X3071Y37559
X3071Y34803
X3228Y30906
X4173Y30906
X4646Y30906
X5118Y30906
X5433Y46457
X5591Y30906
X5748Y46457
X6063Y46457
X6063Y30906
X6535Y30906
X7008Y30906
X7480Y30906
X7953Y30906
X8425Y30906
X8898Y30906
X9134Y46457
X9370Y30906
X9449Y46457
X9764Y46457
X9843Y30906
X10079Y46457
X10315Y30906
X10394Y46457
X10787Y30906
X11260Y30906
X11732Y30906
X12205Y30906
X12559Y46457
X12677Y30906
X12874Y46457
X13150Y30906
X13189Y46457
X13504Y46457
X13622Y30906
X13819Y46457
X14094Y30906
X14134Y46457
X14449Y46457
X14567Y30906
X14764Y46457
X15039Y30906
X15079Y46457
X15394Y46457
X15512Y30906
X15709Y46457
X15984Y30906
X16024Y46457
X16339Y46457
X16457Y30906
X16654Y46457
X16929Y30906
X16969Y46457
X17283Y46457
X17362Y30906
X17598Y46457
X17835Y30906
X17913Y46457
X18228Y46457
X18307Y30906
X18543Y46457
X18780Y30906
X18858Y46457
X19173Y46457
X19252Y30906
X19488Y43858
X19488Y43543
X19488Y41969
X19488Y41654
X19488Y41339
X19488Y40079
X19488Y39764
X19488Y36299
X19488Y32087
X19488Y46457
X19488Y45433
X19488Y45118
X19488Y44803
X19488Y44488
X19488Y44173
X19488Y43228
X19488Y42913
X19488Y42598
X19488Y42283
X19488Y41024
X19488Y40709
X19488Y40394
X19488Y39449
X19488Y39134
X19488Y38819
X19488Y38504
X19488Y38189
X19488Y37874
X19488Y37559
X19488Y37244
X19488Y36929
X19488Y36614
X19488Y35984
X19488Y35669
X19488Y35354
X19488Y35039
X19488Y34724
X19488Y31772
X3229Y30905
X3152Y31304
X3071Y31889
X3071Y32283
X3829Y32543
X4543Y32559
X4827Y32582
X5433Y32401
X5748Y32401
X6314Y32589
X6740Y32589
X7323Y32401
X7638Y32401
X8207Y32571
X8492Y32580
X9180Y32379
X9564Y32379
X10075Y32605
X10517Y32589
X11103Y32401
X11418Y32401
X11998Y32498
X12382Y32559
X12992Y32401
X13307Y32401
X13937Y32559
X14252Y32559
X14882Y32401
X15197Y32401
X15827Y32559
X16142Y32559
X16772Y32401
X17008Y32637
X17284Y33504
X17599Y33385
X17796Y33110
X18150Y33110
X18238Y34035
X17736Y34055
X17799Y34333
X17697Y35177
X18071Y35315
X18175Y35590
X18278Y35078
X17999Y36404
X17991Y36901
X17677Y36929
X17717Y37322
X17599Y38110
X17004Y38186
X16614Y38228
X16280Y38239
X16536Y37952
X16788Y37792
X16951Y38656
X16967Y39043
X16722Y39203
X17108Y39448
X17018Y40156
X17087Y40433
X16969Y41299
X16772Y41653
X16999Y42214
X17020Y42598
X17821Y42302
X18144Y42081
X18527Y42057
X18106Y43517
X18057Y44167
X18276Y44350
X17714Y44765
X16990Y44958
X16614Y44645
X16370Y44793
X16221Y45472
X15945Y45354
X17167Y45561
X17445Y45435
X17589Y45954
X17904Y46055
X18527Y45499
X14618Y45489
X14320Y45539
X14374Y44900
X14713Y44690
X15310Y44015
X15118Y43779
X14882Y43543
X14055Y43307
X13436Y43203
X13465Y43543
X13155Y43115
X12953Y42913
X13110Y41968
X13544Y41944
X14370Y42204
X14685Y42204
X14829Y41788
X15473Y41889
X15512Y42598
X15740Y42769
X16063Y42126
X16063Y41181
X15118Y40866
X14803Y40866
X14882Y40299
X14803Y39330
X15197Y39330
X15475Y39807
X16189Y39916
X16053Y39159
X16067Y38782
X15000Y38700
X15079Y37981
X15394Y37992
X14506Y37907
X14725Y37126
X15040Y37047
X15670Y37165
X15916Y37020
X16210Y36772
X15847Y36299
X15453Y36299
X14803Y35984
X14488Y35987
X14173Y35984
X13544Y36120
X13277Y36309
X13386Y36850
X13599Y37086
X13749Y36681
X12756Y36850
X12835Y37126
X11969Y37165
X11890Y36811
X11890Y35984
X12205Y35987
X12520Y36023
X12796Y35590
X12796Y35275
X12805Y34990
X13032Y34448
X13622Y34448
X13996Y34685
X13996Y35315
X13563Y35177
X15020Y35039
X15015Y35329
X15847Y35177
X16280Y35315
X16280Y34685
X15906Y34448
X15315Y34448
X14744Y33700
X14237Y33602
X13952Y33602
X12348Y33602
X12062Y33602
X11789Y33686
X11713Y34685
X11339Y34448
X10788Y34448
X10453Y35039
X10448Y35329
X10257Y35999
X9922Y35987
X9607Y35984
X9429Y35315
X8996Y35177
X9095Y34448
X9429Y34685
X9667Y33718
X10172Y33563
X10458Y33602
X8925Y33958
X8568Y33602
X8283Y33602
X8268Y34252
X8218Y34953
X8199Y35630
X8212Y35925
X8199Y36284
X8189Y36771
X8229Y37204
X7849Y37332
X7564Y37352
X7402Y36850
X7540Y36417
X7042Y36528
X6622Y36628
X6597Y36913
X6103Y36929
X5766Y36812
X5367Y37095
X5689Y37441
X6181Y37527
X6248Y38010
X6214Y38346
X6260Y38730
X6260Y39015
X6260Y39567
X6221Y40315
X6418Y40826
X6339Y41102
X6363Y41564
X6327Y42144
X6299Y42913
X5906Y43011
X5896Y43351
X5040Y43582
X5059Y42992
X5113Y42244
X4725Y42165
X4331Y42161
X3681Y42157
X3071Y42283
X3071Y41889
X3071Y41496
X3071Y41102
X3071Y40708
X3071Y40315
X3071Y39921
X3071Y39527
X3071Y39133
X3071Y38740
X3071Y38346
X3071Y37952
X3071Y37559
X3071Y37165
X3307Y36929
X3847Y37096
X3839Y36614
X4114Y36476
X4476Y36516
X4744Y36415
X5404Y36210
X5417Y35925
X5404Y35630
X5433Y35275
X4952Y35418
X4450Y35425
X4607Y35000
X4490Y34674
X4878Y34646
X4547Y34252
X4508Y33700
X4789Y33602
X5551Y33671
X6024Y33671
X6393Y33602
X6678Y33602
X7087Y33661
X7441Y33622
X7028Y34252
X7087Y34685
X7402Y35000
X7264Y35393
X7894Y35393
X7768Y34560
X6024Y34685
X5788Y34252
X6564Y35282
X6605Y35565
X6536Y36141
X7067Y37598
X7138Y38843
X7097Y39448
X7075Y39862
X7107Y40374
X7097Y40944
X7097Y41653
X7097Y42283
X7038Y42947
X7941Y43056
X7965Y43670
X8169Y43871
X8612Y43799
X8662Y43385
X8662Y43100
X8662Y42279
X8648Y41890
X8125Y41889
X8125Y41604
X8411Y41585
X8622Y41338
X8544Y40984
X8657Y40531
X9563Y40538
X9846Y40647
X9725Y40905
X9476Y41222
X9488Y40118
X9636Y39336
X9725Y38937
X9538Y38592
X9252Y37677
X8723Y37661
X8580Y37917
X8544Y36919
X8898Y36626
X8978Y36316
X9646Y36850
X10131Y36864
X10118Y37149
X10279Y38130
X10687Y38173
X10748Y37894
X11024Y38189
X11673Y38213
X11664Y37928
X12107Y38287
X12338Y38071
X12825Y38604
X11932Y38897
X11449Y38901
X11713Y39261
X12047Y39763
X12520Y40236
X11614Y40275
X11142Y41456
X10827Y41417
X10548Y40919
X10079Y40482
X10551Y39291
X8701Y39488
X8465Y38897
X8150Y38956
X7740Y39020
X7864Y38405
X7953Y41004
X9478Y42471
X9488Y42913
X9410Y43543
X9418Y43828
X9550Y44302
X9478Y44579
X9607Y45078
X9154Y45663
X9922Y46218
X10718Y46331
X11043Y46286
X11331Y46328
X11650Y46325
X11964Y46319
X11575Y45433
X10955Y45462
X10669Y45462
X10384Y45472
X10529Y44467
X10591Y44173
X10246Y43661
X10394Y42913
X10236Y42401
X11142Y42322
X11497Y42234
X11772Y41968
X11575Y43110
X11122Y42834
X12284Y43543
X11811Y44015
X11811Y44953
X12205Y45157
X12545Y45556
X13494Y45474
X12677Y44212
X12992Y40759
X13504Y40877
X13726Y40696
X13946Y40877
X14124Y40654
X13977Y39488
X13465Y39291
X13347Y40000
X11262Y37077
X11024Y36732
X10886Y36299
X11181Y36299
X11280Y35177
X11713Y35315
X11496Y31102
X11733Y30905
X11969Y31102
X12205Y30905
X12441Y31102
X12677Y30905
X12914Y31102
X13150Y30905
X13386Y31102
X13622Y30905
X13859Y31102
X14095Y30905
X14331Y31102
X14567Y30905
X14803Y31102
X15040Y30905
X15276Y31102
X15512Y30905
X15748Y31102
X15985Y30905
X16221Y31102
X16457Y30905
X16693Y31102
X16929Y30905
X17362Y30905
X17599Y31102
X17835Y30905
X18071Y31102
X18307Y30905
X18544Y31102
X18240Y31809
X17767Y31809
X16733Y33661
X16127Y33602
X15842Y33602
X16457Y35984
X16772Y35987
X17087Y35984
X17373Y35929
X18475Y38946
X16181Y43307
X16222Y43589
X8741Y44176
X8417Y44507
X8492Y44783
X8168Y44648
X7776Y45098
X7508Y44982
X7218Y44821
X6918Y44808
X6969Y44527
X7205Y43897
X7580Y43632
X7709Y45482
X7038Y45326
X6286Y45019
X5917Y45174
X5898Y44879
X6048Y44475
X5719Y44488
X5225Y44687
X4362Y44485
X3953Y44394
X4016Y44960
X3170Y45039
X3150Y44645
X3740Y45925
X3780Y46378
X4862Y46378
X5502Y45581
X6242Y45678
X7262Y46220
X8268Y46102
X4223Y43542
X4055Y43307
X3880Y42729
X3484Y42716
X3071Y42677
X4197Y41284
X4469Y40944
X4637Y40183
X5443Y40157
X5443Y39448
X5443Y38740
X5443Y38031
X5008Y37647
X4693Y37878
X4193Y37342
X3199Y36250
X3809Y35630
X3484Y34960
X3071Y34803
X3307Y34252
X3110Y33661
X3662Y33464
X3425Y32982
X4061Y33797
X3937Y34586
X3662Y31496
X3705Y30936
X3937Y31102
X4173Y30905
X4410Y31102
X4646Y30905
X4882Y31102
X5118Y30905
X5355Y31102
X5591Y30905
X5827Y31102
X6063Y30905
X6299Y31102
X6536Y30905
X6772Y31102
X7008Y30905
X7244Y31102
X7481Y30905
X7717Y31102
X7953Y30905
X8189Y31102
X8425Y30905
X8662Y31102
X8898Y30905
X9134Y31102
X9370Y30905
X9607Y31102
X9843Y30905
X10079Y31102
X10315Y30905
X10551Y31102
X10788Y30905
X11024Y31102
X11260Y30905
X4922Y41476
X18622Y41633
X18809Y41849
X19488Y41968
X19488Y42283
X19488Y42598
X19488Y42913
X19488Y43228
X19488Y43543
X19488Y43858
X19488Y44173
X19488Y44488
X19488Y44803
X19488Y45118
X19488Y45433
X19410Y45748
X19087Y45433
X19215Y44603
X19250Y43385
X19250Y42441
X18633Y42783
X18660Y40868
X19488Y41023
X19488Y41338
X19488Y41653
X19488Y40708
X19488Y40393
X19488Y40078
X19488Y39763
X19488Y39448
X19488Y39133
X19488Y38818
X19488Y38504
X19488Y38189
X19488Y37874
X19488Y37559
X19488Y37244
X19488Y36929
X19488Y36614
X19488Y36299
X19488Y35984
X19488Y35669
X19488Y35354
X19488Y35039
X19488Y34724
X18660Y34599
X18662Y33897
X18977Y33740
X19122Y33986
X19095Y33425
X19213Y33110
X19292Y32834
X19292Y32441
X19488Y32086
X19488Y31771
X19144Y31801
X18682Y31802
X18780Y30905
X19016Y31102
X19252Y30905
X19449Y31220
X18977Y35275
X18637Y35330
X19205Y38224
X18878Y39813
X18583Y39813
X18859Y46456
X19173Y46456
X19488Y46456
X18544Y46456
X18229Y46456
X17914Y46456
X17599Y46456
X17284Y46456
X16969Y46456
X16654Y46456
X16339Y46456
X16024Y46456
X15709Y46456
X15394Y46456
X15079Y46456
X14764Y46456
X14449Y46456
X14134Y46456
X13819Y46456
X13504Y46456
X13189Y46456
X12874Y46456
X12559Y46456
X10394Y46456
X10079Y46456
X9764Y46456
X9449Y46456
X9134Y46456
X6998Y46430
X6063Y46456
X5748Y46456
X5433Y46456
X3071Y46456
T02
X8937Y37007
X10630Y36889
X12362Y36929
X14252Y36889
X15394Y36889
X16575Y36889
X17087Y37362
T03
X3386Y46141
X6528Y45381
X6528Y46181
X8528Y45781
M30
