G75*
G70*
%OFA0B0*%
%FSLAX25Y25*%
%IPPOS*%
%LPD*%
%AMOC8*
5,1,8,0,0,1.08239X$1,22.5*
%
%AMM1*
21,1,0.035430,0.030320,0.000000,0.000000,90.000000*
21,1,0.028350,0.037400,0.000000,0.000000,90.000000*
1,1,0.007090,0.015160,0.014170*
1,1,0.007090,0.015160,-0.014170*
1,1,0.007090,-0.015160,-0.014170*
1,1,0.007090,-0.015160,0.014170*
%
%AMM10*
21,1,0.025590,0.026380,0.000000,0.000000,90.000000*
21,1,0.020470,0.031500,0.000000,0.000000,90.000000*
1,1,0.005120,0.013190,0.010240*
1,1,0.005120,0.013190,-0.010240*
1,1,0.005120,-0.013190,-0.010240*
1,1,0.005120,-0.013190,0.010240*
%
%AMM11*
21,1,0.017720,0.027950,0.000000,0.000000,90.000000*
21,1,0.014170,0.031500,0.000000,0.000000,90.000000*
1,1,0.003540,0.013980,0.007090*
1,1,0.003540,0.013980,-0.007090*
1,1,0.003540,-0.013980,-0.007090*
1,1,0.003540,-0.013980,0.007090*
%
%AMM12*
21,1,0.031500,0.072440,0.000000,0.000000,90.000000*
21,1,0.025200,0.078740,0.000000,0.000000,90.000000*
1,1,0.006300,0.036220,0.012600*
1,1,0.006300,0.036220,-0.012600*
1,1,0.006300,-0.036220,-0.012600*
1,1,0.006300,-0.036220,0.012600*
%
%AMM13*
21,1,0.012600,0.028980,0.000000,0.000000,90.000000*
21,1,0.010080,0.031500,0.000000,0.000000,90.000000*
1,1,0.002520,0.014490,0.005040*
1,1,0.002520,0.014490,-0.005040*
1,1,0.002520,-0.014490,-0.005040*
1,1,0.002520,-0.014490,0.005040*
%
%AMM14*
21,1,0.012600,0.028980,0.000000,0.000000,180.000000*
21,1,0.010080,0.031500,0.000000,0.000000,180.000000*
1,1,0.002520,-0.005040,0.014490*
1,1,0.002520,0.005040,0.014490*
1,1,0.002520,0.005040,-0.014490*
1,1,0.002520,-0.005040,-0.014490*
%
%AMM15*
21,1,0.039370,0.035430,0.000000,0.000000,270.000000*
21,1,0.031500,0.043310,0.000000,0.000000,270.000000*
1,1,0.007870,-0.017720,-0.015750*
1,1,0.007870,-0.017720,0.015750*
1,1,0.007870,0.017720,0.015750*
1,1,0.007870,0.017720,-0.015750*
%
%AMM16*
21,1,0.027560,0.018900,0.000000,0.000000,90.000000*
21,1,0.022840,0.023620,0.000000,0.000000,90.000000*
1,1,0.004720,0.009450,0.011420*
1,1,0.004720,0.009450,-0.011420*
1,1,0.004720,-0.009450,-0.011420*
1,1,0.004720,-0.009450,0.011420*
%
%AMM2*
21,1,0.043310,0.075980,0.000000,0.000000,0.000000*
21,1,0.034650,0.084650,0.000000,0.000000,0.000000*
1,1,0.008660,0.017320,-0.037990*
1,1,0.008660,-0.017320,-0.037990*
1,1,0.008660,-0.017320,0.037990*
1,1,0.008660,0.017320,0.037990*
%
%AMM3*
21,1,0.043310,0.075990,0.000000,0.000000,0.000000*
21,1,0.034650,0.084650,0.000000,0.000000,0.000000*
1,1,0.008660,0.017320,-0.037990*
1,1,0.008660,-0.017320,-0.037990*
1,1,0.008660,-0.017320,0.037990*
1,1,0.008660,0.017320,0.037990*
%
%AMM4*
21,1,0.137800,0.067720,0.000000,0.000000,0.000000*
21,1,0.120870,0.084650,0.000000,0.000000,0.000000*
1,1,0.016930,0.060430,-0.033860*
1,1,0.016930,-0.060430,-0.033860*
1,1,0.016930,-0.060430,0.033860*
1,1,0.016930,0.060430,0.033860*
%
%AMM5*
21,1,0.039370,0.035430,0.000000,0.000000,0.000000*
21,1,0.031500,0.043310,0.000000,0.000000,0.000000*
1,1,0.007870,0.015750,-0.017720*
1,1,0.007870,-0.015750,-0.017720*
1,1,0.007870,-0.015750,0.017720*
1,1,0.007870,0.015750,0.017720*
%
%AMM6*
21,1,0.023620,0.030710,0.000000,0.000000,180.000000*
21,1,0.018900,0.035430,0.000000,0.000000,180.000000*
1,1,0.004720,-0.009450,0.015350*
1,1,0.004720,0.009450,0.015350*
1,1,0.004720,0.009450,-0.015350*
1,1,0.004720,-0.009450,-0.015350*
%
%AMM7*
21,1,0.027560,0.018900,0.000000,0.000000,180.000000*
21,1,0.022840,0.023620,0.000000,0.000000,180.000000*
1,1,0.004720,-0.011420,0.009450*
1,1,0.004720,0.011420,0.009450*
1,1,0.004720,0.011420,-0.009450*
1,1,0.004720,-0.011420,-0.009450*
%
%AMM8*
21,1,0.023620,0.030710,0.000000,0.000000,270.000000*
21,1,0.018900,0.035430,0.000000,0.000000,270.000000*
1,1,0.004720,-0.015350,-0.009450*
1,1,0.004720,-0.015350,0.009450*
1,1,0.004720,0.015350,0.009450*
1,1,0.004720,0.015350,-0.009450*
%
%AMM9*
21,1,0.086610,0.073230,0.000000,0.000000,90.000000*
21,1,0.069290,0.090550,0.000000,0.000000,90.000000*
1,1,0.017320,0.036610,0.034650*
1,1,0.017320,0.036610,-0.034650*
1,1,0.017320,-0.036610,-0.034650*
1,1,0.017320,-0.036610,0.034650*
%
%ADD11R,0.00787X0.09055*%
%ADD12R,0.00787X0.21260*%
%ADD13R,0.00787X0.33858*%
%ADD14R,0.00787X0.19685*%
%ADD15R,0.05512X0.00787*%
%ADD16R,0.19685X0.00787*%
%ADD17R,0.26772X0.00787*%
%ADD18R,0.17717X0.00787*%
%ADD19R,0.00787X0.06299*%
%ADD20R,0.00787X0.22441*%
%ADD21R,0.00787X0.07874*%
%ADD25O,0.00866X0.05118*%
%ADD26O,0.05118X0.00866*%
%ADD27M1*%
%ADD28M2*%
%ADD29M3*%
%ADD30M4*%
%ADD31M5*%
%ADD32M6*%
%ADD33M7*%
%ADD34M8*%
%ADD35M9*%
%ADD36C,0.03150*%
%ADD37M10*%
%ADD38M11*%
%ADD39M12*%
%ADD40O,0.01181X0.04331*%
%ADD41O,0.04331X0.01181*%
%ADD42M13*%
%ADD43O,0.08661X0.02362*%
%ADD44M14*%
%ADD45R,0.01476X0.01378*%
%ADD46R,0.01378X0.01476*%
%ADD47M15*%
%ADD48M16*%
X0000000Y0000000D02*
%LPD*%
G01*
X0029528Y0307874D02*
G01*
G75*
D12*
X0029922Y0335433D02*
D03*
D11*
X0029922Y0312402D02*
D03*
D14*
X0029922Y0359842D02*
D03*
D21*
X0195670Y0311811D02*
D03*
D16*
X0042520Y0465354D02*
D03*
D17*
X0075985Y0465354D02*
D03*
D18*
X0114764Y0465354D02*
D03*
D20*
X0195670Y0334055D02*
D03*
D19*
X0195670Y0459449D02*
D03*
D15*
X0037008Y0308268D02*
D03*
D13*
X0029922Y0445669D02*
D03*
D25*
X0097933Y0458957D02*
D03*
X0099902Y0458957D02*
D03*
X0101870Y0458957D02*
D03*
X0103839Y0458957D02*
D03*
X0105807Y0458957D02*
D03*
X0107776Y0458957D02*
D03*
X0109744Y0458957D02*
D03*
X0111713Y0458957D02*
D03*
X0113681Y0458957D02*
D03*
X0115650Y0458957D02*
D03*
X0117618Y0458957D02*
D03*
X0119587Y0458957D02*
D03*
X0121556Y0458957D02*
D03*
X0123524Y0458957D02*
D03*
X0125493Y0458957D02*
D03*
X0127461Y0458957D02*
D03*
X0129430Y0458957D02*
D03*
X0131398Y0458957D02*
D03*
X0133367Y0458957D02*
D03*
X0135335Y0458957D02*
D03*
X0137304Y0458957D02*
D03*
X0139272Y0458957D02*
D03*
X0141241Y0458957D02*
D03*
X0143209Y0458957D02*
D03*
X0145178Y0458957D02*
D03*
X0147146Y0458957D02*
D03*
X0149115Y0458957D02*
D03*
X0151083Y0458957D02*
D03*
X0153052Y0458957D02*
D03*
X0155020Y0458957D02*
D03*
X0156989Y0458957D02*
D03*
X0158957Y0458957D02*
D03*
X0160926Y0458957D02*
D03*
X0162894Y0458957D02*
D03*
X0164863Y0458957D02*
D03*
X0166831Y0458957D02*
D03*
X0166831Y0375295D02*
D03*
X0164863Y0375295D02*
D03*
X0162894Y0375295D02*
D03*
X0160926Y0375295D02*
D03*
X0158957Y0375295D02*
D03*
X0156989Y0375295D02*
D03*
X0155020Y0375295D02*
D03*
X0153052Y0375295D02*
D03*
X0151083Y0375295D02*
D03*
X0149115Y0375295D02*
D03*
X0147146Y0375295D02*
D03*
X0145178Y0375295D02*
D03*
X0143209Y0375295D02*
D03*
X0141241Y0375295D02*
D03*
X0139272Y0375295D02*
D03*
X0137304Y0375295D02*
D03*
X0135335Y0375295D02*
D03*
X0133367Y0375295D02*
D03*
X0131398Y0375295D02*
D03*
X0129430Y0375295D02*
D03*
X0127461Y0375295D02*
D03*
X0125493Y0375295D02*
D03*
X0123524Y0375295D02*
D03*
X0121556Y0375295D02*
D03*
X0119587Y0375295D02*
D03*
X0117618Y0375295D02*
D03*
X0115650Y0375295D02*
D03*
X0113681Y0375295D02*
D03*
X0111713Y0375295D02*
D03*
X0109744Y0375295D02*
D03*
X0107776Y0375295D02*
D03*
X0105807Y0375295D02*
D03*
X0103839Y0375295D02*
D03*
X0101870Y0375295D02*
D03*
X0099902Y0375295D02*
D03*
X0097933Y0375295D02*
D03*
D26*
X0174213Y0451575D02*
D03*
X0174213Y0449606D02*
D03*
X0174213Y0447638D02*
D03*
X0174213Y0445669D02*
D03*
X0174213Y0443701D02*
D03*
X0174213Y0441732D02*
D03*
X0174213Y0439764D02*
D03*
X0174213Y0437795D02*
D03*
X0174213Y0435827D02*
D03*
X0174213Y0433858D02*
D03*
X0174213Y0431890D02*
D03*
X0174213Y0429921D02*
D03*
X0174213Y0427953D02*
D03*
X0174213Y0425984D02*
D03*
X0174213Y0424016D02*
D03*
X0174213Y0422047D02*
D03*
X0174213Y0420079D02*
D03*
X0174213Y0418110D02*
D03*
X0174213Y0416142D02*
D03*
X0174213Y0414173D02*
D03*
X0174213Y0412205D02*
D03*
X0174213Y0410236D02*
D03*
X0174213Y0408268D02*
D03*
X0174213Y0406299D02*
D03*
X0174213Y0404331D02*
D03*
X0174213Y0402362D02*
D03*
X0174213Y0400394D02*
D03*
X0174213Y0398425D02*
D03*
X0174213Y0396457D02*
D03*
X0174213Y0394488D02*
D03*
X0174213Y0392520D02*
D03*
X0174213Y0390551D02*
D03*
X0174213Y0388583D02*
D03*
X0174213Y0386614D02*
D03*
X0174213Y0384646D02*
D03*
X0174213Y0382677D02*
D03*
X0090552Y0382677D02*
D03*
X0090552Y0384646D02*
D03*
X0090552Y0386614D02*
D03*
X0090552Y0388583D02*
D03*
X0090552Y0390551D02*
D03*
X0090552Y0392520D02*
D03*
X0090552Y0394488D02*
D03*
X0090552Y0396457D02*
D03*
X0090552Y0398425D02*
D03*
X0090552Y0400394D02*
D03*
X0090552Y0402362D02*
D03*
X0090552Y0404331D02*
D03*
X0090552Y0406299D02*
D03*
X0090552Y0408268D02*
D03*
X0090552Y0410236D02*
D03*
X0090552Y0412205D02*
D03*
X0090552Y0414173D02*
D03*
X0090552Y0416142D02*
D03*
X0090552Y0418110D02*
D03*
X0090552Y0420079D02*
D03*
X0090552Y0422047D02*
D03*
X0090552Y0424016D02*
D03*
X0090552Y0425984D02*
D03*
X0090552Y0427953D02*
D03*
X0090552Y0429921D02*
D03*
X0090552Y0431890D02*
D03*
X0090552Y0433858D02*
D03*
X0090552Y0435827D02*
D03*
X0090552Y0437795D02*
D03*
X0090552Y0439764D02*
D03*
X0090552Y0441732D02*
D03*
X0090552Y0443701D02*
D03*
X0090552Y0445669D02*
D03*
X0090552Y0447638D02*
D03*
X0090552Y0449606D02*
D03*
X0090552Y0451575D02*
D03*
D27*
X0190558Y0435386D02*
D03*
X0181306Y0439126D02*
D03*
D27*
X0190558Y0442866D02*
D03*
D28*
X0037008Y0433071D02*
D03*
X0055119Y0433071D02*
D03*
D29*
X0046063Y0433071D02*
D03*
D30*
X0046063Y0457480D02*
D03*
D31*
X0067323Y0409055D02*
D03*
X0074016Y0409055D02*
D03*
X0074016Y0416142D02*
D03*
X0067323Y0416142D02*
D03*
X0067323Y0423228D02*
D03*
X0074016Y0423228D02*
D03*
X0074016Y0430315D02*
D03*
X0067323Y0430315D02*
D03*
X0057481Y0401575D02*
D03*
X0050788Y0401575D02*
D03*
X0074016Y0401575D02*
D03*
X0067323Y0401575D02*
D03*
X0057481Y0394488D02*
D03*
X0050788Y0394488D02*
D03*
X0074016Y0394488D02*
D03*
X0067323Y0394488D02*
D03*
X0057481Y0387402D02*
D03*
X0050788Y0387402D02*
D03*
X0074016Y0387402D02*
D03*
X0067323Y0387402D02*
D03*
X0050788Y0380315D02*
D03*
X0057481Y0380315D02*
D03*
X0074016Y0380315D02*
D03*
X0067323Y0380315D02*
D03*
D32*
X0189959Y0460013D02*
D03*
X0186219Y0460013D02*
D03*
X0182478Y0460013D02*
D03*
X0182478Y0450564D02*
D03*
X0186219Y0450564D02*
D03*
X0189959Y0450564D02*
D03*
D33*
X0034252Y0315354D02*
D03*
X0034252Y0319291D02*
D03*
X0180709Y0328346D02*
D03*
X0180709Y0324409D02*
D03*
X0077166Y0316929D02*
D03*
X0077166Y0312992D02*
D03*
X0091339Y0316929D02*
D03*
X0091339Y0312992D02*
D03*
X0110237Y0320866D02*
D03*
X0110237Y0316929D02*
D03*
X0110237Y0312992D02*
D03*
X0110237Y0316929D02*
D03*
X0119686Y0316929D02*
D03*
X0119686Y0320866D02*
D03*
X0119686Y0316929D02*
D03*
X0119686Y0312992D02*
D03*
X0143308Y0320866D02*
D03*
X0143308Y0316929D02*
D03*
X0166930Y0316929D02*
D03*
X0166930Y0320866D02*
D03*
X0166930Y0316929D02*
D03*
X0166930Y0312992D02*
D03*
X0083564Y0430709D02*
D03*
X0083564Y0434646D02*
D03*
X0171654Y0320472D02*
D03*
X0171654Y0324409D02*
D03*
X0034252Y0336024D02*
D03*
X0034252Y0332087D02*
D03*
X0045670Y0372047D02*
D03*
X0045670Y0375984D02*
D03*
X0190158Y0324409D02*
D03*
X0190158Y0328346D02*
D03*
X0185433Y0324409D02*
D03*
X0185433Y0328346D02*
D03*
X0175985Y0324409D02*
D03*
X0175985Y0328346D02*
D03*
X0039371Y0316929D02*
D03*
X0039371Y0320866D02*
D03*
X0044095Y0316929D02*
D03*
X0044095Y0320866D02*
D03*
X0048819Y0316929D02*
D03*
X0048819Y0320866D02*
D03*
X0053544Y0316929D02*
D03*
X0053544Y0320866D02*
D03*
X0039371Y0316929D02*
D03*
X0039371Y0312992D02*
D03*
X0044095Y0316929D02*
D03*
X0044095Y0312992D02*
D03*
X0048819Y0316929D02*
D03*
X0048819Y0312992D02*
D03*
X0053544Y0316929D02*
D03*
X0053544Y0312992D02*
D03*
X0058268Y0316929D02*
D03*
X0058268Y0320866D02*
D03*
X0062993Y0316929D02*
D03*
X0062993Y0320866D02*
D03*
X0067717Y0316929D02*
D03*
X0067717Y0320866D02*
D03*
X0072559Y0316929D02*
D03*
X0072559Y0320866D02*
D03*
X0058268Y0316929D02*
D03*
X0058268Y0312992D02*
D03*
X0062993Y0316929D02*
D03*
X0062993Y0312992D02*
D03*
X0067717Y0316929D02*
D03*
X0067717Y0312992D02*
D03*
X0072441Y0316929D02*
D03*
X0072441Y0312992D02*
D03*
X0077166Y0316929D02*
D03*
X0077166Y0320866D02*
D03*
X0081890Y0316929D02*
D03*
X0081890Y0320866D02*
D03*
X0086615Y0316929D02*
D03*
X0086615Y0320866D02*
D03*
X0091339Y0316929D02*
D03*
X0091339Y0320866D02*
D03*
X0081890Y0316929D02*
D03*
X0081890Y0312992D02*
D03*
X0086615Y0316929D02*
D03*
X0086615Y0312992D02*
D03*
X0096064Y0320866D02*
D03*
X0096064Y0316929D02*
D03*
X0100788Y0320866D02*
D03*
X0100788Y0316929D02*
D03*
X0105512Y0320866D02*
D03*
X0105512Y0316929D02*
D03*
X0096064Y0312992D02*
D03*
X0096064Y0316929D02*
D03*
X0100788Y0312992D02*
D03*
X0100788Y0316929D02*
D03*
X0105512Y0312992D02*
D03*
X0105512Y0316929D02*
D03*
X0114961Y0316929D02*
D03*
X0114961Y0320866D02*
D03*
X0124410Y0316929D02*
D03*
X0124410Y0320866D02*
D03*
X0129134Y0316929D02*
D03*
X0129134Y0320866D02*
D03*
X0114961Y0316929D02*
D03*
X0114961Y0312992D02*
D03*
X0124410Y0316929D02*
D03*
X0124410Y0312992D02*
D03*
X0129134Y0316929D02*
D03*
X0129134Y0312992D02*
D03*
X0133859Y0320866D02*
D03*
X0133859Y0316929D02*
D03*
X0138583Y0320866D02*
D03*
X0138583Y0316929D02*
D03*
X0148032Y0320866D02*
D03*
X0148032Y0316929D02*
D03*
X0133859Y0312992D02*
D03*
X0133859Y0316929D02*
D03*
X0138583Y0312992D02*
D03*
X0138583Y0316929D02*
D03*
X0143308Y0312992D02*
D03*
X0143308Y0316929D02*
D03*
X0148032Y0312992D02*
D03*
X0148032Y0316929D02*
D03*
X0152756Y0316929D02*
D03*
X0152756Y0320866D02*
D03*
X0157481Y0316929D02*
D03*
X0157481Y0320866D02*
D03*
X0162205Y0316929D02*
D03*
X0162205Y0320866D02*
D03*
X0152756Y0316929D02*
D03*
X0152756Y0312992D02*
D03*
X0157481Y0316929D02*
D03*
X0157481Y0312992D02*
D03*
X0162205Y0316929D02*
D03*
X0162205Y0312992D02*
D03*
X0175985Y0320866D02*
D03*
X0175985Y0316929D02*
D03*
X0180709Y0320866D02*
D03*
X0180709Y0316929D02*
D03*
X0185433Y0320866D02*
D03*
X0185433Y0316929D02*
D03*
X0190158Y0320866D02*
D03*
X0190158Y0316929D02*
D03*
X0175985Y0312992D02*
D03*
X0175985Y0316929D02*
D03*
X0180709Y0312992D02*
D03*
X0180709Y0316929D02*
D03*
X0185433Y0312992D02*
D03*
X0185433Y0316929D02*
D03*
X0190158Y0312992D02*
D03*
X0190158Y0316929D02*
D03*
X0034252Y0326968D02*
D03*
X0034252Y0323031D02*
D03*
X0069685Y0439764D02*
D03*
X0069685Y0443701D02*
D03*
D34*
X0088977Y0333661D02*
D03*
X0088977Y0329921D02*
D03*
X0088977Y0326181D02*
D03*
X0079528Y0326181D02*
D03*
X0079528Y0329921D02*
D03*
X0079528Y0333661D02*
D03*
X0051182Y0333661D02*
D03*
X0051182Y0329921D02*
D03*
X0051182Y0326181D02*
D03*
X0041733Y0326181D02*
D03*
X0041733Y0329921D02*
D03*
X0041733Y0333661D02*
D03*
X0070079Y0333661D02*
D03*
X0070079Y0329921D02*
D03*
X0070079Y0326181D02*
D03*
X0060630Y0326181D02*
D03*
X0060630Y0329921D02*
D03*
X0060630Y0333661D02*
D03*
X0107875Y0333661D02*
D03*
X0107875Y0329921D02*
D03*
X0107875Y0326181D02*
D03*
X0098426Y0326181D02*
D03*
X0098426Y0329921D02*
D03*
X0098426Y0333661D02*
D03*
X0126772Y0333661D02*
D03*
X0126772Y0329921D02*
D03*
X0126772Y0326181D02*
D03*
X0117323Y0326181D02*
D03*
X0117323Y0329921D02*
D03*
X0117323Y0333661D02*
D03*
X0145670Y0333661D02*
D03*
X0145670Y0329921D02*
D03*
X0145670Y0326181D02*
D03*
X0136221Y0326181D02*
D03*
X0136221Y0329921D02*
D03*
X0136221Y0333661D02*
D03*
X0164567Y0333661D02*
D03*
X0164567Y0329921D02*
D03*
X0164567Y0326181D02*
D03*
X0155119Y0326181D02*
D03*
X0155119Y0329921D02*
D03*
X0155119Y0333661D02*
D03*
D35*
X0186221Y0363779D02*
D03*
X0186221Y0381496D02*
D03*
D36*
X0171930Y0312992D02*
D03*
X0034252Y0311024D02*
D03*
D37*
X0040552Y0386516D02*
D03*
X0033465Y0386516D02*
D03*
X0033465Y0376476D02*
D03*
X0040552Y0376476D02*
D03*
X0040552Y0392618D02*
D03*
X0033465Y0392618D02*
D03*
X0033465Y0402658D02*
D03*
X0040552Y0402658D02*
D03*
D38*
X0033465Y0379921D02*
D03*
X0033465Y0383071D02*
D03*
X0040552Y0383071D02*
D03*
X0040552Y0379921D02*
D03*
X0040552Y0396063D02*
D03*
X0040552Y0399213D02*
D03*
X0033465Y0399213D02*
D03*
X0033465Y0396063D02*
D03*
D39*
X0188189Y0429527D02*
D03*
X0188189Y0412992D02*
D03*
X0188189Y0390158D02*
D03*
X0188189Y0406693D02*
D03*
D40*
X0175394Y0362992D02*
D03*
X0172835Y0362992D02*
D03*
X0170276Y0362992D02*
D03*
X0167717Y0362992D02*
D03*
X0165158Y0362992D02*
D03*
X0162599Y0362992D02*
D03*
X0160040Y0362992D02*
D03*
X0175394Y0340551D02*
D03*
X0172835Y0340551D02*
D03*
X0170276Y0340551D02*
D03*
X0167717Y0340551D02*
D03*
X0165158Y0340551D02*
D03*
X0162599Y0340551D02*
D03*
X0160040Y0340551D02*
D03*
X0106890Y0362992D02*
D03*
X0104331Y0362992D02*
D03*
X0101772Y0362992D02*
D03*
X0099213Y0362992D02*
D03*
X0096654Y0362992D02*
D03*
X0094095Y0362992D02*
D03*
X0091536Y0362992D02*
D03*
X0106890Y0340551D02*
D03*
X0104331Y0340551D02*
D03*
X0101772Y0340551D02*
D03*
X0099213Y0340551D02*
D03*
X0096654Y0340551D02*
D03*
X0094095Y0340551D02*
D03*
X0091536Y0340551D02*
D03*
X0129725Y0362992D02*
D03*
X0127166Y0362992D02*
D03*
X0124607Y0362992D02*
D03*
X0122048Y0362992D02*
D03*
X0119489Y0362992D02*
D03*
X0116930Y0362992D02*
D03*
X0114371Y0362992D02*
D03*
X0129725Y0340551D02*
D03*
X0127166Y0340551D02*
D03*
X0124607Y0340551D02*
D03*
X0122048Y0340551D02*
D03*
X0119489Y0340551D02*
D03*
X0116930Y0340551D02*
D03*
X0114371Y0340551D02*
D03*
X0152559Y0362992D02*
D03*
X0150000Y0362992D02*
D03*
X0147441Y0362992D02*
D03*
X0144882Y0362992D02*
D03*
X0142323Y0362992D02*
D03*
X0139764Y0362992D02*
D03*
X0137205Y0362992D02*
D03*
X0152559Y0340551D02*
D03*
X0150000Y0340551D02*
D03*
X0147441Y0340551D02*
D03*
X0144882Y0340551D02*
D03*
X0142323Y0340551D02*
D03*
X0139764Y0340551D02*
D03*
X0137205Y0340551D02*
D03*
D41*
X0085237Y0351575D02*
D03*
X0085237Y0354134D02*
D03*
X0085237Y0356693D02*
D03*
X0085237Y0359252D02*
D03*
X0085237Y0361811D02*
D03*
X0085237Y0364370D02*
D03*
X0085237Y0366929D02*
D03*
X0062796Y0351575D02*
D03*
X0062796Y0354134D02*
D03*
X0062796Y0356693D02*
D03*
X0062796Y0359252D02*
D03*
X0062796Y0361811D02*
D03*
X0062796Y0364370D02*
D03*
X0062796Y0366929D02*
D03*
X0057284Y0351575D02*
D03*
X0057284Y0354134D02*
D03*
X0057284Y0356693D02*
D03*
X0057284Y0359252D02*
D03*
X0057284Y0361811D02*
D03*
X0057284Y0364370D02*
D03*
X0057284Y0366929D02*
D03*
X0034843Y0351575D02*
D03*
X0034843Y0354134D02*
D03*
X0034843Y0356693D02*
D03*
X0034843Y0359252D02*
D03*
X0034843Y0361811D02*
D03*
X0034843Y0364370D02*
D03*
X0034843Y0366929D02*
D03*
D42*
X0067914Y0339961D02*
D03*
X0067914Y0342520D02*
D03*
X0067914Y0345079D02*
D03*
X0060434Y0339961D02*
D03*
X0060434Y0342520D02*
D03*
X0060434Y0345079D02*
D03*
X0047835Y0345079D02*
D03*
X0047835Y0342520D02*
D03*
X0047835Y0339961D02*
D03*
X0055315Y0345079D02*
D03*
X0055315Y0342520D02*
D03*
X0055315Y0339961D02*
D03*
X0043111Y0339961D02*
D03*
X0043111Y0342520D02*
D03*
X0043111Y0345079D02*
D03*
X0035630Y0339961D02*
D03*
X0035630Y0342520D02*
D03*
X0035630Y0345079D02*
D03*
X0072638Y0345079D02*
D03*
X0072638Y0342520D02*
D03*
X0072638Y0339961D02*
D03*
X0080119Y0345079D02*
D03*
X0080119Y0342520D02*
D03*
X0080119Y0339961D02*
D03*
D43*
X0036812Y0424431D02*
D03*
X0036812Y0419431D02*
D03*
X0036812Y0414431D02*
D03*
X0036812Y0409431D02*
D03*
X0055710Y0424431D02*
D03*
X0055710Y0419431D02*
D03*
X0055710Y0414431D02*
D03*
X0055710Y0409431D02*
D03*
D44*
X0189174Y0356890D02*
D03*
X0186615Y0356890D02*
D03*
X0184056Y0356890D02*
D03*
X0189174Y0349409D02*
D03*
X0186615Y0349409D02*
D03*
X0184056Y0349409D02*
D03*
X0189174Y0341535D02*
D03*
X0186615Y0341535D02*
D03*
X0184056Y0341535D02*
D03*
X0189174Y0334055D02*
D03*
X0186615Y0334055D02*
D03*
X0184056Y0334055D02*
D03*
D45*
X0075345Y0440551D02*
D03*
X0075345Y0442520D02*
D03*
X0075345Y0444488D02*
D03*
X0081349Y0444488D02*
D03*
X0081349Y0442520D02*
D03*
X0081349Y0440551D02*
D03*
D46*
X0077363Y0445522D02*
D03*
X0079331Y0445522D02*
D03*
X0079331Y0439518D02*
D03*
X0077363Y0439518D02*
D03*
D47*
X0064469Y0438583D02*
D03*
X0064469Y0445276D02*
D03*
D48*
X0073229Y0373622D02*
D03*
X0069292Y0373622D02*
D03*
M02*
