G75*
G70*
%OFA0B0*%
%FSLAX25Y25*%
%IPPOS*%
%LPD*%
%AMOC8*
5,1,8,0,0,1.08239X$1,22.5*
%
%AMM17*
21,1,0.039370,0.030320,0.000000,0.000000,90.000000*
21,1,0.028350,0.041340,0.000000,0.000000,90.000000*
1,1,0.011020,0.015160,0.014170*
1,1,0.011020,0.015160,-0.014170*
1,1,0.011020,-0.015160,-0.014170*
1,1,0.011020,-0.015160,0.014170*
%
%AMM23*
21,1,0.031500,0.018900,0.000000,0.000000,180.000000*
21,1,0.022840,0.027560,0.000000,0.000000,180.000000*
1,1,0.008660,-0.011420,0.009450*
1,1,0.008660,0.011420,0.009450*
1,1,0.008660,0.011420,-0.009450*
1,1,0.008660,-0.011420,-0.009450*
%
%AMM26*
21,1,0.029530,0.026380,0.000000,0.000000,90.000000*
21,1,0.020470,0.035430,0.000000,0.000000,90.000000*
1,1,0.009060,0.013190,0.010240*
1,1,0.009060,0.013190,-0.010240*
1,1,0.009060,-0.013190,-0.010240*
1,1,0.009060,-0.013190,0.010240*
%
%AMM27*
21,1,0.021650,0.027950,0.000000,0.000000,90.000000*
21,1,0.014170,0.035430,0.000000,0.000000,90.000000*
1,1,0.007480,0.013980,0.007090*
1,1,0.007480,0.013980,-0.007090*
1,1,0.007480,-0.013980,-0.007090*
1,1,0.007480,-0.013980,0.007090*
%
%AMM29*
21,1,0.016540,0.028980,0.000000,0.000000,90.000000*
21,1,0.010080,0.035430,0.000000,0.000000,90.000000*
1,1,0.006460,0.014490,0.005040*
1,1,0.006460,0.014490,-0.005040*
1,1,0.006460,-0.014490,-0.005040*
1,1,0.006460,-0.014490,0.005040*
%
%AMM32*
21,1,0.031500,0.018900,0.000000,0.000000,90.000000*
21,1,0.022840,0.027560,0.000000,0.000000,90.000000*
1,1,0.008660,0.009450,0.011420*
1,1,0.008660,0.009450,-0.011420*
1,1,0.008660,-0.009450,-0.011420*
1,1,0.008660,-0.009450,0.011420*
%
%AMM45*
21,1,0.037400,0.026770,0.000000,0.000000,180.000000*
21,1,0.026770,0.037400,0.000000,0.000000,180.000000*
1,1,0.010630,-0.013390,0.013390*
1,1,0.010630,0.013390,0.013390*
1,1,0.010630,0.013390,-0.013390*
1,1,0.010630,-0.013390,-0.013390*
%
%AMM46*
21,1,0.039370,0.030320,0.000000,0.000000,180.000000*
21,1,0.028350,0.041340,0.000000,0.000000,180.000000*
1,1,0.011020,-0.014170,0.015160*
1,1,0.011020,0.014170,0.015160*
1,1,0.011020,0.014170,-0.015160*
1,1,0.011020,-0.014170,-0.015160*
%
%AMM47*
21,1,0.039760,0.026770,0.000000,0.000000,0.000000*
21,1,0.029130,0.037400,0.000000,0.000000,0.000000*
1,1,0.010630,0.014570,-0.013390*
1,1,0.010630,-0.014570,-0.013390*
1,1,0.010630,-0.014570,0.013390*
1,1,0.010630,0.014570,0.013390*
%
%AMM48*
21,1,0.074800,0.036220,0.000000,0.000000,0.000000*
21,1,0.061810,0.049210,0.000000,0.000000,0.000000*
1,1,0.012990,0.030910,-0.018110*
1,1,0.012990,-0.030910,-0.018110*
1,1,0.012990,-0.030910,0.018110*
1,1,0.012990,0.030910,0.018110*
%
%AMM49*
21,1,0.062990,0.020470,0.000000,0.000000,90.000000*
21,1,0.053940,0.029530,0.000000,0.000000,90.000000*
1,1,0.009060,0.010240,0.026970*
1,1,0.009060,0.010240,-0.026970*
1,1,0.009060,-0.010240,-0.026970*
1,1,0.009060,-0.010240,0.026970*
%
%AMM50*
21,1,0.082680,0.045670,0.000000,0.000000,90.000000*
21,1,0.067320,0.061020,0.000000,0.000000,90.000000*
1,1,0.015350,0.022840,0.033660*
1,1,0.015350,0.022840,-0.033660*
1,1,0.015350,-0.022840,-0.033660*
1,1,0.015350,-0.022840,0.033660*
%
%AMM51*
21,1,0.029530,0.026380,0.000000,0.000000,0.000000*
21,1,0.020470,0.035430,0.000000,0.000000,0.000000*
1,1,0.009060,0.010240,-0.013190*
1,1,0.009060,-0.010240,-0.013190*
1,1,0.009060,-0.010240,0.013190*
1,1,0.009060,0.010240,0.013190*
%
%AMM52*
21,1,0.021650,0.027950,0.000000,0.000000,0.000000*
21,1,0.014170,0.035430,0.000000,0.000000,0.000000*
1,1,0.007480,0.007090,-0.013980*
1,1,0.007480,-0.007090,-0.013980*
1,1,0.007480,-0.007090,0.013980*
1,1,0.007480,0.007090,0.013980*
%
%AMM53*
21,1,0.031500,0.030710,0.000000,0.000000,90.000000*
21,1,0.022050,0.040160,0.000000,0.000000,90.000000*
1,1,0.009450,0.015350,0.011020*
1,1,0.009450,0.015350,-0.011020*
1,1,0.009450,-0.015350,-0.011020*
1,1,0.009450,-0.015350,0.011020*
%
%AMM54*
21,1,0.031500,0.049610,0.000000,0.000000,270.000000*
21,1,0.022050,0.059060,0.000000,0.000000,270.000000*
1,1,0.009450,-0.024800,-0.011020*
1,1,0.009450,-0.024800,0.011020*
1,1,0.009450,0.024800,0.011020*
1,1,0.009450,0.024800,-0.011020*
%
%AMM55*
21,1,0.031500,0.030710,0.000000,0.000000,0.000000*
21,1,0.022050,0.040160,0.000000,0.000000,0.000000*
1,1,0.009450,0.011020,-0.015350*
1,1,0.009450,-0.011020,-0.015350*
1,1,0.009450,-0.011020,0.015350*
1,1,0.009450,0.011020,0.015350*
%
%AMM56*
21,1,0.074800,0.036220,0.000000,0.000000,90.000000*
21,1,0.061810,0.049210,0.000000,0.000000,90.000000*
1,1,0.012990,0.018110,0.030910*
1,1,0.012990,0.018110,-0.030910*
1,1,0.012990,-0.018110,-0.030910*
1,1,0.012990,-0.018110,0.030910*
%
%ADD109M45*%
%ADD110M46*%
%ADD111M47*%
%ADD112R,0.04331X0.04724*%
%ADD113M48*%
%ADD114M49*%
%ADD115M50*%
%ADD116R,0.09843X0.07087*%
%ADD117M51*%
%ADD118M52*%
%ADD119M53*%
%ADD120M54*%
%ADD121M55*%
%ADD122M56*%
%ADD123O,0.05354X0.01378*%
%ADD124R,0.01378X0.01772*%
%ADD125R,0.01772X0.01378*%
%ADD58M17*%
%ADD65M23*%
%ADD69M26*%
%ADD70M27*%
%ADD74M29*%
%ADD80M32*%
%ADD81C,0.04294*%
%ADD82C,0.04724*%
%ADD83C,0.05906*%
X0000000Y0000000D02*
%LPD*%
G01*
X0011319Y0012894D02*
G01*
G75*
D58*
X0022934Y0114136D02*
D03*
X0032186Y0117876D02*
D03*
D58*
X0022934Y0121617D02*
D03*
D65*
X0159301Y0109351D02*
D03*
X0159301Y0105414D02*
D03*
X0043012Y0064862D02*
D03*
X0043012Y0068799D02*
D03*
X0163681Y0107776D02*
D03*
X0163681Y0103839D02*
D03*
X0039961Y0167028D02*
D03*
X0039961Y0163091D02*
D03*
X0073144Y0089666D02*
D03*
X0073144Y0085729D02*
D03*
X0090049Y0089594D02*
D03*
X0090049Y0093531D02*
D03*
X0068012Y0086122D02*
D03*
X0068012Y0090059D02*
D03*
X0016818Y0069710D02*
D03*
X0016818Y0065773D02*
D03*
X0034547Y0138878D02*
D03*
X0034547Y0134941D02*
D03*
X0014075Y0157973D02*
D03*
X0014075Y0161910D02*
D03*
X0145965Y0082185D02*
D03*
X0145965Y0078248D02*
D03*
X0072343Y0146752D02*
D03*
X0072343Y0150689D02*
D03*
X0102560Y0080315D02*
D03*
X0102560Y0084252D02*
D03*
X0091535Y0161615D02*
D03*
X0091535Y0165551D02*
D03*
X0144390Y0093996D02*
D03*
X0144390Y0090059D02*
D03*
X0148327Y0093996D02*
D03*
X0148327Y0090059D02*
D03*
X0018209Y0157973D02*
D03*
X0018209Y0161910D02*
D03*
X0155217Y0109351D02*
D03*
X0155217Y0105414D02*
D03*
X0155020Y0131792D02*
D03*
X0155020Y0127855D02*
D03*
X0106890Y0080315D02*
D03*
X0106890Y0084252D02*
D03*
X0110532Y0166831D02*
D03*
X0110532Y0162894D02*
D03*
X0072343Y0117225D02*
D03*
X0072343Y0121162D02*
D03*
X0072343Y0113681D02*
D03*
X0072343Y0109744D02*
D03*
X0058957Y0037303D02*
D03*
X0058957Y0033366D02*
D03*
X0063681Y0037303D02*
D03*
X0063681Y0033366D02*
D03*
X0068406Y0037303D02*
D03*
X0068406Y0033366D02*
D03*
X0073130Y0037303D02*
D03*
X0073130Y0033366D02*
D03*
X0157776Y0018012D02*
D03*
X0157776Y0021949D02*
D03*
X0162500Y0021949D02*
D03*
X0162500Y0018012D02*
D03*
X0167224Y0018012D02*
D03*
X0167224Y0021949D02*
D03*
X0171949Y0018012D02*
D03*
X0171949Y0021949D02*
D03*
X0039075Y0064862D02*
D03*
X0039075Y0068799D02*
D03*
X0067028Y0064862D02*
D03*
X0067028Y0068799D02*
D03*
X0035335Y0037303D02*
D03*
X0035335Y0033366D02*
D03*
X0030611Y0037303D02*
D03*
X0030611Y0033366D02*
D03*
X0025886Y0037303D02*
D03*
X0025886Y0033366D02*
D03*
X0021162Y0037303D02*
D03*
X0021162Y0033366D02*
D03*
X0054233Y0037303D02*
D03*
X0054233Y0033366D02*
D03*
X0049508Y0037303D02*
D03*
X0049508Y0033366D02*
D03*
X0044784Y0037303D02*
D03*
X0044784Y0033366D02*
D03*
X0040059Y0037303D02*
D03*
X0040059Y0033366D02*
D03*
X0092028Y0037303D02*
D03*
X0092028Y0033366D02*
D03*
X0087304Y0037303D02*
D03*
X0087304Y0033366D02*
D03*
X0082579Y0037303D02*
D03*
X0082579Y0033366D02*
D03*
X0077855Y0037303D02*
D03*
X0077855Y0033366D02*
D03*
X0110926Y0033366D02*
D03*
X0110926Y0037303D02*
D03*
X0106201Y0037303D02*
D03*
X0106201Y0033366D02*
D03*
X0101477Y0037303D02*
D03*
X0101477Y0033366D02*
D03*
X0096752Y0037303D02*
D03*
X0096752Y0033366D02*
D03*
X0129823Y0037303D02*
D03*
X0129823Y0033366D02*
D03*
X0125099Y0037303D02*
D03*
X0125099Y0033366D02*
D03*
X0120374Y0037303D02*
D03*
X0120374Y0033366D02*
D03*
X0115650Y0037303D02*
D03*
X0115650Y0033366D02*
D03*
X0143996Y0037303D02*
D03*
X0143996Y0033366D02*
D03*
X0139272Y0037303D02*
D03*
X0139272Y0033366D02*
D03*
X0134547Y0037303D02*
D03*
X0134547Y0033366D02*
D03*
X0016043Y0028051D02*
D03*
X0016043Y0031988D02*
D03*
X0153052Y0021949D02*
D03*
X0153052Y0018012D02*
D03*
X0067028Y0054626D02*
D03*
X0067028Y0058563D02*
D03*
X0154626Y0033366D02*
D03*
X0154626Y0037303D02*
D03*
X0016043Y0020374D02*
D03*
X0016043Y0024311D02*
D03*
X0154626Y0029429D02*
D03*
X0154626Y0025492D02*
D03*
X0159744Y0159744D02*
D03*
X0159744Y0155807D02*
D03*
X0148721Y0037303D02*
D03*
X0148721Y0033366D02*
D03*
D69*
X0048721Y0129725D02*
D03*
X0055807Y0129725D02*
D03*
X0055807Y0119685D02*
D03*
X0048721Y0119685D02*
D03*
X0063288Y0081496D02*
D03*
X0056201Y0081496D02*
D03*
X0056201Y0091536D02*
D03*
X0063288Y0091536D02*
D03*
X0063288Y0097638D02*
D03*
X0056201Y0097638D02*
D03*
X0056201Y0107678D02*
D03*
X0063288Y0107678D02*
D03*
X0158760Y0061811D02*
D03*
X0151673Y0061811D02*
D03*
X0151673Y0051772D02*
D03*
X0158760Y0051772D02*
D03*
X0140256Y0051772D02*
D03*
X0147343Y0051772D02*
D03*
X0147343Y0061811D02*
D03*
X0140256Y0061811D02*
D03*
X0090256Y0061811D02*
D03*
X0083170Y0061811D02*
D03*
X0083170Y0051772D02*
D03*
X0090256Y0051772D02*
D03*
X0071752Y0051772D02*
D03*
X0078839Y0051772D02*
D03*
X0078839Y0061811D02*
D03*
X0071752Y0061811D02*
D03*
X0113091Y0061811D02*
D03*
X0106004Y0061811D02*
D03*
X0106004Y0051772D02*
D03*
X0113091Y0051772D02*
D03*
X0094587Y0051772D02*
D03*
X0101674Y0051772D02*
D03*
X0101674Y0061811D02*
D03*
X0094587Y0061811D02*
D03*
X0135926Y0061811D02*
D03*
X0128839Y0061811D02*
D03*
X0128839Y0051772D02*
D03*
X0135926Y0051772D02*
D03*
X0117422Y0051772D02*
D03*
X0124508Y0051772D02*
D03*
X0124508Y0061811D02*
D03*
X0117422Y0061811D02*
D03*
D70*
X0055807Y0123130D02*
D03*
X0055807Y0126280D02*
D03*
X0048721Y0126280D02*
D03*
X0048721Y0123130D02*
D03*
X0056201Y0088091D02*
D03*
X0056201Y0084941D02*
D03*
X0063288Y0084941D02*
D03*
X0063288Y0088091D02*
D03*
X0056201Y0104233D02*
D03*
X0056201Y0101083D02*
D03*
X0063288Y0101083D02*
D03*
X0063288Y0104233D02*
D03*
X0158760Y0058366D02*
D03*
X0158760Y0055217D02*
D03*
X0151673Y0055217D02*
D03*
X0151673Y0058366D02*
D03*
X0140256Y0055217D02*
D03*
X0140256Y0058366D02*
D03*
X0147343Y0058366D02*
D03*
X0147343Y0055217D02*
D03*
X0090256Y0058366D02*
D03*
X0090256Y0055217D02*
D03*
X0083170Y0055217D02*
D03*
X0083170Y0058366D02*
D03*
X0071752Y0055217D02*
D03*
X0071752Y0058366D02*
D03*
X0078839Y0058366D02*
D03*
X0078839Y0055217D02*
D03*
X0113091Y0058366D02*
D03*
X0113091Y0055217D02*
D03*
X0106004Y0055217D02*
D03*
X0106004Y0058366D02*
D03*
X0094587Y0055217D02*
D03*
X0094587Y0058366D02*
D03*
X0101674Y0058366D02*
D03*
X0101674Y0055217D02*
D03*
X0135926Y0058366D02*
D03*
X0135926Y0055217D02*
D03*
X0128839Y0055217D02*
D03*
X0128839Y0058366D02*
D03*
X0117422Y0055217D02*
D03*
X0117422Y0058366D02*
D03*
X0124508Y0058366D02*
D03*
X0124508Y0055217D02*
D03*
D74*
X0036713Y0123721D02*
D03*
X0036713Y0126280D02*
D03*
X0036713Y0128839D02*
D03*
X0044193Y0128839D02*
D03*
X0044193Y0123721D02*
D03*
D80*
X0055020Y0164272D02*
D03*
X0051083Y0164272D02*
D03*
X0171162Y0148524D02*
D03*
X0167224Y0148524D02*
D03*
X0030062Y0143703D02*
D03*
X0033999Y0143703D02*
D03*
X0055807Y0137697D02*
D03*
X0051870Y0137697D02*
D03*
X0043996Y0137697D02*
D03*
X0047933Y0137697D02*
D03*
X0152658Y0082973D02*
D03*
X0156595Y0082973D02*
D03*
X0083366Y0164863D02*
D03*
X0087303Y0164863D02*
D03*
X0152067Y0152658D02*
D03*
X0156004Y0152658D02*
D03*
X0124705Y0163681D02*
D03*
X0128642Y0163681D02*
D03*
X0080229Y0076872D02*
D03*
X0076292Y0076872D02*
D03*
X0070965Y0099508D02*
D03*
X0074902Y0099508D02*
D03*
X0081004Y0097933D02*
D03*
X0084941Y0097933D02*
D03*
X0080217Y0126280D02*
D03*
X0084154Y0126280D02*
D03*
X0175492Y0166437D02*
D03*
X0171555Y0166437D02*
D03*
X0062303Y0165453D02*
D03*
X0058366Y0165453D02*
D03*
X0044390Y0151083D02*
D03*
X0048327Y0151083D02*
D03*
X0155414Y0089272D02*
D03*
X0159351Y0089272D02*
D03*
X0155414Y0093209D02*
D03*
X0159351Y0093209D02*
D03*
X0156004Y0156595D02*
D03*
X0152067Y0156595D02*
D03*
X0128937Y0080709D02*
D03*
X0125000Y0080709D02*
D03*
X0072343Y0125886D02*
D03*
X0076280Y0125886D02*
D03*
X0072343Y0094193D02*
D03*
X0076280Y0094193D02*
D03*
X0080610Y0149508D02*
D03*
X0084547Y0149508D02*
D03*
X0079823Y0134154D02*
D03*
X0083760Y0134154D02*
D03*
X0094685Y0080315D02*
D03*
X0098622Y0080315D02*
D03*
X0148918Y0068012D02*
D03*
X0144981Y0068012D02*
D03*
X0080414Y0068012D02*
D03*
X0076477Y0068012D02*
D03*
X0103248Y0068012D02*
D03*
X0099311Y0068012D02*
D03*
X0126083Y0068012D02*
D03*
X0122146Y0068012D02*
D03*
X0086910Y0043996D02*
D03*
X0082973Y0043996D02*
D03*
X0031858Y0047540D02*
D03*
X0035795Y0047540D02*
D03*
X0022669Y0047540D02*
D03*
X0018732Y0047540D02*
D03*
X0056662Y0047540D02*
D03*
X0060599Y0047540D02*
D03*
X0047473Y0047540D02*
D03*
X0043536Y0047540D02*
D03*
X0020571Y0129429D02*
D03*
X0016634Y0129429D02*
D03*
X0025099Y0129429D02*
D03*
X0029036Y0129429D02*
D03*
X0062107Y0041240D02*
D03*
X0058170Y0041240D02*
D03*
X0015256Y0079036D02*
D03*
X0019193Y0079036D02*
D03*
X0015256Y0091437D02*
D03*
X0019193Y0091437D02*
D03*
X0015256Y0095571D02*
D03*
X0019193Y0095571D02*
D03*
X0015256Y0103839D02*
D03*
X0019193Y0103839D02*
D03*
X0015256Y0099705D02*
D03*
X0019193Y0099705D02*
D03*
X0015256Y0107973D02*
D03*
X0019193Y0107973D02*
D03*
X0015256Y0087304D02*
D03*
X0019193Y0087304D02*
D03*
X0015256Y0083170D02*
D03*
X0019193Y0083170D02*
D03*
D81*
X0067067Y0162835D02*
D03*
X0047067Y0158835D02*
D03*
X0047067Y0166835D02*
D03*
D82*
X0105414Y0074311D02*
D03*
X0152658Y0078642D02*
D03*
X0147540Y0073918D02*
D03*
X0135728Y0073918D02*
D03*
X0124311Y0073918D02*
D03*
X0088091Y0073918D02*
D03*
X0071161Y0075099D02*
D03*
D83*
X0015650Y0166437D02*
D03*
D109*
X0065296Y0130414D02*
D03*
X0071516Y0130414D02*
D03*
D110*
X0167899Y0140765D02*
D03*
X0171639Y0131513D02*
D03*
X0085470Y0083014D02*
D03*
X0081730Y0092266D02*
D03*
X0021949Y0143878D02*
D03*
X0018209Y0153130D02*
D03*
X0027658Y0157303D02*
D03*
X0031398Y0148052D02*
D03*
X0164272Y0048918D02*
D03*
X0168012Y0039666D02*
D03*
X0168012Y0054561D02*
D03*
X0164272Y0063813D02*
D03*
X0164272Y0078708D02*
D03*
X0168012Y0069456D02*
D03*
X0163485Y0093603D02*
D03*
X0167225Y0084351D02*
D03*
D110*
X0164159Y0131513D02*
D03*
X0077990Y0083014D02*
D03*
X0014469Y0143878D02*
D03*
X0035138Y0157304D02*
D03*
X0171752Y0048918D02*
D03*
X0171752Y0063813D02*
D03*
X0171752Y0078708D02*
D03*
X0170965Y0093603D02*
D03*
D111*
X0015650Y0136516D02*
D03*
X0028642Y0136516D02*
D03*
X0053051Y0146752D02*
D03*
X0066044Y0146752D02*
D03*
D112*
X0048130Y0145177D02*
D03*
X0041437Y0145177D02*
D03*
D113*
X0170374Y0107382D02*
D03*
X0170374Y0118799D02*
D03*
D114*
X0108445Y0118418D02*
D03*
X0112776Y0118418D02*
D03*
X0117107Y0118418D02*
D03*
X0121437Y0118418D02*
D03*
X0125768Y0118418D02*
D03*
X0130099Y0118418D02*
D03*
X0134430Y0118418D02*
D03*
X0138760Y0118418D02*
D03*
D115*
X0148130Y0108182D02*
D03*
X0148130Y0140859D02*
D03*
X0093997Y0140859D02*
D03*
X0093997Y0108182D02*
D03*
D116*
X0083367Y0119390D02*
D03*
X0083367Y0104823D02*
D03*
D117*
X0129922Y0095571D02*
D03*
X0129922Y0088485D02*
D03*
X0139961Y0088485D02*
D03*
X0139961Y0095571D02*
D03*
X0061024Y0020571D02*
D03*
X0061024Y0027658D02*
D03*
X0071063Y0027658D02*
D03*
X0071063Y0020571D02*
D03*
X0032874Y0055020D02*
D03*
X0032874Y0062107D02*
D03*
X0022835Y0062107D02*
D03*
X0022835Y0055020D02*
D03*
X0022835Y0073524D02*
D03*
X0022835Y0066437D02*
D03*
X0032874Y0066437D02*
D03*
X0032874Y0073524D02*
D03*
X0060827Y0055020D02*
D03*
X0060827Y0062107D02*
D03*
X0050788Y0062107D02*
D03*
X0050788Y0055020D02*
D03*
X0050788Y0073524D02*
D03*
X0050788Y0066437D02*
D03*
X0060827Y0066437D02*
D03*
X0060827Y0073524D02*
D03*
X0023229Y0020571D02*
D03*
X0023229Y0027658D02*
D03*
X0033268Y0027658D02*
D03*
X0033268Y0020571D02*
D03*
X0042126Y0020571D02*
D03*
X0042126Y0027658D02*
D03*
X0052165Y0027658D02*
D03*
X0052165Y0020571D02*
D03*
X0079921Y0020571D02*
D03*
X0079921Y0027658D02*
D03*
X0089961Y0027658D02*
D03*
X0089961Y0020571D02*
D03*
X0098819Y0020571D02*
D03*
X0098819Y0027658D02*
D03*
X0108859Y0027658D02*
D03*
X0108859Y0020571D02*
D03*
X0117717Y0020571D02*
D03*
X0117717Y0027658D02*
D03*
X0127756Y0027658D02*
D03*
X0127756Y0020571D02*
D03*
X0136614Y0020571D02*
D03*
X0136614Y0027658D02*
D03*
X0146654Y0027658D02*
D03*
X0146654Y0020571D02*
D03*
X0169882Y0026280D02*
D03*
X0169882Y0033366D02*
D03*
X0159843Y0033366D02*
D03*
X0159843Y0026280D02*
D03*
D118*
X0133366Y0095571D02*
D03*
X0136516Y0095571D02*
D03*
X0136516Y0088485D02*
D03*
X0133366Y0088485D02*
D03*
X0067618Y0027658D02*
D03*
X0064469Y0027658D02*
D03*
X0064469Y0020571D02*
D03*
X0067618Y0020571D02*
D03*
X0029429Y0055020D02*
D03*
X0026280Y0055020D02*
D03*
X0026280Y0062107D02*
D03*
X0029429Y0062107D02*
D03*
X0026280Y0073524D02*
D03*
X0029429Y0073524D02*
D03*
X0029429Y0066437D02*
D03*
X0026280Y0066437D02*
D03*
X0057382Y0055020D02*
D03*
X0054232Y0055020D02*
D03*
X0054232Y0062107D02*
D03*
X0057382Y0062107D02*
D03*
X0054233Y0073524D02*
D03*
X0057382Y0073524D02*
D03*
X0057382Y0066437D02*
D03*
X0054233Y0066437D02*
D03*
X0029823Y0027658D02*
D03*
X0026674Y0027658D02*
D03*
X0026674Y0020571D02*
D03*
X0029823Y0020571D02*
D03*
X0048721Y0027658D02*
D03*
X0045571Y0027658D02*
D03*
X0045571Y0020571D02*
D03*
X0048721Y0020571D02*
D03*
X0086516Y0027658D02*
D03*
X0083366Y0027658D02*
D03*
X0083366Y0020571D02*
D03*
X0086516Y0020571D02*
D03*
X0105414Y0027658D02*
D03*
X0102264Y0027658D02*
D03*
X0102264Y0020571D02*
D03*
X0105414Y0020571D02*
D03*
X0124311Y0027658D02*
D03*
X0121162Y0027658D02*
D03*
X0121162Y0020571D02*
D03*
X0124311Y0020571D02*
D03*
X0143209Y0027658D02*
D03*
X0140059Y0027658D02*
D03*
X0140059Y0020571D02*
D03*
X0143209Y0020571D02*
D03*
X0166437Y0026280D02*
D03*
X0163288Y0026280D02*
D03*
X0163288Y0033366D02*
D03*
X0166437Y0033366D02*
D03*
D119*
X0155020Y0123130D02*
D03*
X0155020Y0116831D02*
D03*
X0101378Y0158859D02*
D03*
X0101378Y0165158D02*
D03*
X0016044Y0125099D02*
D03*
X0016044Y0118799D02*
D03*
X0160532Y0115650D02*
D03*
X0160532Y0121949D02*
D03*
D120*
X0080610Y0144587D02*
D03*
X0080610Y0138681D02*
D03*
D121*
X0071556Y0139666D02*
D03*
X0065256Y0139666D02*
D03*
X0071556Y0135040D02*
D03*
X0065256Y0135040D02*
D03*
D122*
X0023130Y0164272D02*
D03*
X0034547Y0164272D02*
D03*
D123*
X0024941Y0080020D02*
D03*
X0024941Y0082579D02*
D03*
X0024941Y0085138D02*
D03*
X0024941Y0087697D02*
D03*
X0024941Y0090256D02*
D03*
X0024941Y0092815D02*
D03*
X0024941Y0095374D02*
D03*
X0024941Y0097933D02*
D03*
X0024941Y0100492D02*
D03*
X0024941Y0103052D02*
D03*
X0024941Y0105610D02*
D03*
X0024941Y0108170D02*
D03*
X0047934Y0080020D02*
D03*
X0047934Y0082579D02*
D03*
X0047934Y0085138D02*
D03*
X0047934Y0087697D02*
D03*
X0047934Y0090256D02*
D03*
X0047934Y0092815D02*
D03*
X0047934Y0095374D02*
D03*
X0047934Y0097933D02*
D03*
X0047934Y0100492D02*
D03*
X0047934Y0103052D02*
D03*
X0047934Y0105610D02*
D03*
X0047934Y0108170D02*
D03*
D124*
X0168209Y0156201D02*
D03*
X0166241Y0156201D02*
D03*
X0166241Y0162500D02*
D03*
X0168209Y0162500D02*
D03*
D125*
X0164075Y0156398D02*
D03*
X0164075Y0158367D02*
D03*
X0164075Y0160335D02*
D03*
X0164075Y0162303D02*
D03*
X0170375Y0156398D02*
D03*
X0170375Y0162303D02*
D03*
X0170375Y0158367D02*
D03*
X0170375Y0160335D02*
D03*
M02*
