G75*
G70*
%OFA0B0*%
%FSLAX25Y25*%
%IPPOS*%
%LPD*%
%AMOC8*
5,1,8,0,0,1.08239X$1,22.5*
%
%ADD10C,0.02362*%
%ADD11R,0.00787X0.09055*%
%ADD12R,0.00787X0.21260*%
%ADD13R,0.00787X0.33858*%
%ADD14R,0.00787X0.19685*%
%ADD15R,0.05512X0.00787*%
%ADD16R,0.19685X0.00787*%
%ADD17R,0.26772X0.00787*%
%ADD18R,0.17717X0.00787*%
%ADD19R,0.00787X0.06299*%
%ADD20R,0.00787X0.22441*%
%ADD21R,0.00787X0.07874*%
X0011319Y0012894D02*
G01*
G75*
G36*
X0105628Y0169981D02*
X0105610Y0169939D01*
X0105610Y0169235D01*
X0105880Y0168583D01*
X0106379Y0168085D01*
X0107030Y0167815D01*
X0107734Y0167815D01*
X0108386Y0168085D01*
X0108442Y0168142D01*
X0108957Y0168529D01*
X0109471Y0168142D01*
X0109528Y0168085D01*
X0110179Y0167815D01*
X0110884Y0167815D01*
X0111535Y0168085D01*
X0111592Y0168142D01*
X0112106Y0168529D01*
X0112621Y0168142D01*
X0112678Y0168085D01*
X0113329Y0167815D01*
X0114034Y0167815D01*
X0114685Y0168085D01*
X0114742Y0168142D01*
X0115256Y0168529D01*
X0115770Y0168142D01*
X0115827Y0168085D01*
X0116478Y0167815D01*
X0117183Y0167815D01*
X0117834Y0168085D01*
X0117891Y0168142D01*
X0118406Y0168529D01*
X0118920Y0168142D01*
X0118977Y0168085D01*
X0119628Y0167815D01*
X0120333Y0167815D01*
X0120984Y0168085D01*
X0121041Y0168142D01*
X0121555Y0168529D01*
X0122070Y0168142D01*
X0122127Y0168085D01*
X0122778Y0167815D01*
X0123482Y0167815D01*
X0124134Y0168085D01*
X0124191Y0168142D01*
X0124705Y0168529D01*
X0125219Y0168142D01*
X0125276Y0168085D01*
X0125927Y0167815D01*
X0126632Y0167815D01*
X0127283Y0168085D01*
X0127340Y0168142D01*
X0127854Y0168529D01*
X0128369Y0168142D01*
X0128426Y0168085D01*
X0129077Y0167815D01*
X0129782Y0167815D01*
X0130433Y0168085D01*
X0130490Y0168142D01*
X0131004Y0168529D01*
X0131519Y0168142D01*
X0131575Y0168085D01*
X0132226Y0167815D01*
X0132931Y0167815D01*
X0133582Y0168085D01*
X0133639Y0168142D01*
X0134154Y0168529D01*
X0134668Y0168142D01*
X0134725Y0168085D01*
X0135376Y0167815D01*
X0136081Y0167815D01*
X0136732Y0168085D01*
X0136789Y0168142D01*
X0137303Y0168529D01*
X0137818Y0168142D01*
X0137875Y0168085D01*
X0138526Y0167815D01*
X0139230Y0167815D01*
X0139882Y0168085D01*
X0139939Y0168142D01*
X0140453Y0168529D01*
X0140967Y0168142D01*
X0141024Y0168085D01*
X0141675Y0167815D01*
X0142380Y0167815D01*
X0143031Y0168085D01*
X0143088Y0168142D01*
X0143602Y0168529D01*
X0144117Y0168142D01*
X0144174Y0168085D01*
X0144825Y0167815D01*
X0145530Y0167815D01*
X0146181Y0168085D01*
X0146238Y0168142D01*
X0146752Y0168529D01*
X0147267Y0168142D01*
X0147323Y0168085D01*
X0147974Y0167815D01*
X0148679Y0167815D01*
X0149331Y0168085D01*
X0149387Y0168142D01*
X0149902Y0168529D01*
X0150416Y0168142D01*
X0150473Y0168085D01*
X0151124Y0167815D01*
X0151829Y0167815D01*
X0152480Y0168085D01*
X0152537Y0168142D01*
X0153051Y0168529D01*
X0153566Y0168142D01*
X0153623Y0168085D01*
X0154274Y0167815D01*
X0154978Y0167815D01*
X0155630Y0168085D01*
X0155687Y0168142D01*
X0156201Y0168529D01*
X0156715Y0168142D01*
X0156772Y0168085D01*
X0157423Y0167815D01*
X0158128Y0167815D01*
X0158779Y0168085D01*
X0158836Y0168142D01*
X0159350Y0168529D01*
X0159865Y0168142D01*
X0159922Y0168085D01*
X0160061Y0168027D01*
X0160061Y0167175D01*
X0159831Y0167080D01*
X0159332Y0166582D01*
X0159317Y0166545D01*
X0158687Y0166075D01*
X0158383Y0166192D01*
X0158029Y0166339D01*
X0157324Y0166339D01*
X0156672Y0166069D01*
X0156174Y0165571D01*
X0155904Y0164920D01*
X0155904Y0164215D01*
X0156174Y0163564D01*
X0156672Y0163065D01*
X0157324Y0162796D01*
X0158029Y0162796D01*
X0158680Y0163065D01*
X0159178Y0163564D01*
X0159193Y0163600D01*
X0159823Y0164070D01*
X0160127Y0163953D01*
X0160482Y0163806D01*
X0161186Y0163806D01*
X0161838Y0164076D01*
X0162336Y0164574D01*
X0162606Y0165226D01*
X0162606Y0165930D01*
X0162336Y0166582D01*
X0161838Y0167080D01*
X0161699Y0167137D01*
X0161699Y0167990D01*
X0161929Y0168085D01*
X0161986Y0168142D01*
X0162500Y0168529D01*
X0163015Y0168142D01*
X0163071Y0168085D01*
X0163722Y0167815D01*
X0164427Y0167815D01*
X0165079Y0168085D01*
X0165135Y0168142D01*
X0165650Y0168529D01*
X0166164Y0168142D01*
X0166221Y0168085D01*
X0166872Y0167815D01*
X0167577Y0167815D01*
X0168228Y0168085D01*
X0168285Y0168142D01*
X0168799Y0168529D01*
X0169314Y0168142D01*
X0169371Y0168085D01*
X0170022Y0167815D01*
X0170726Y0167815D01*
X0171378Y0168085D01*
X0171435Y0168142D01*
X0171949Y0168529D01*
X0172463Y0168142D01*
X0172520Y0168085D01*
X0173171Y0167815D01*
X0173876Y0167815D01*
X0174527Y0168085D01*
X0174584Y0168142D01*
X0175098Y0168529D01*
X0175613Y0168142D01*
X0175670Y0168085D01*
X0176321Y0167815D01*
X0177026Y0167815D01*
X0177067Y0167832D01*
X0177854Y0167306D01*
X0177854Y0161631D01*
X0177067Y0161105D01*
X0177026Y0161122D01*
X0176321Y0161122D01*
X0175670Y0160853D01*
X0175171Y0160354D01*
X0175094Y0160168D01*
X0174242Y0160168D01*
X0174165Y0160354D01*
X0173666Y0160853D01*
X0173015Y0161122D01*
X0172310Y0161122D01*
X0171659Y0160853D01*
X0171161Y0160354D01*
X0170891Y0159703D01*
X0170891Y0158998D01*
X0171161Y0158347D01*
X0171659Y0157849D01*
X0172310Y0157579D01*
X0173015Y0157579D01*
X0173666Y0157849D01*
X0174165Y0158347D01*
X0174242Y0158534D01*
X0175094Y0158534D01*
X0175171Y0158347D01*
X0175228Y0158290D01*
X0175615Y0157776D01*
X0175228Y0157262D01*
X0175171Y0157205D01*
X0174902Y0156553D01*
X0174902Y0155849D01*
X0175171Y0155198D01*
X0175228Y0155141D01*
X0175615Y0154626D01*
X0175228Y0154112D01*
X0175171Y0154055D01*
X0174902Y0153404D01*
X0174902Y0152699D01*
X0175171Y0152048D01*
X0175228Y0151991D01*
X0175615Y0151477D01*
X0175228Y0150962D01*
X0175171Y0150905D01*
X0174902Y0150254D01*
X0174902Y0149549D01*
X0175171Y0148898D01*
X0175228Y0148842D01*
X0175615Y0148327D01*
X0175228Y0147813D01*
X0175171Y0147756D01*
X0174902Y0147105D01*
X0174902Y0146400D01*
X0175171Y0145749D01*
X0175228Y0145692D01*
X0175615Y0145177D01*
X0175228Y0144663D01*
X0175171Y0144606D01*
X0174902Y0143955D01*
X0174902Y0143250D01*
X0175171Y0142599D01*
X0175228Y0142542D01*
X0175615Y0142028D01*
X0175228Y0141514D01*
X0175171Y0141457D01*
X0174902Y0140805D01*
X0174660Y0140644D01*
X0174645Y0140650D01*
X0173940Y0140650D01*
X0173289Y0140380D01*
X0172791Y0139882D01*
X0172521Y0139231D01*
X0172521Y0138526D01*
X0172791Y0137875D01*
X0173289Y0137376D01*
X0173940Y0137107D01*
X0174645Y0137107D01*
X0174660Y0137113D01*
X0174902Y0136951D01*
X0175171Y0136300D01*
X0175228Y0136243D01*
X0175615Y0135729D01*
X0175228Y0135214D01*
X0175171Y0135157D01*
X0174902Y0134506D01*
X0174902Y0133801D01*
X0175171Y0133150D01*
X0175228Y0133094D01*
X0175615Y0132579D01*
X0175228Y0132065D01*
X0175171Y0132008D01*
X0175085Y0131799D01*
X0174645Y0131201D01*
X0173940Y0131201D01*
X0173289Y0130931D01*
X0172791Y0130433D01*
X0172521Y0129782D01*
X0172521Y0129077D01*
X0172791Y0128426D01*
X0173289Y0127927D01*
X0173940Y0127658D01*
X0174645Y0127658D01*
X0174660Y0127664D01*
X0174902Y0127502D01*
X0175171Y0126851D01*
X0175228Y0126794D01*
X0175615Y0126280D01*
X0175228Y0125766D01*
X0175171Y0125709D01*
X0174902Y0125057D01*
X0174902Y0124353D01*
X0175171Y0123702D01*
X0175228Y0123645D01*
X0175615Y0123130D01*
X0175228Y0122616D01*
X0175171Y0122559D01*
X0174902Y0121908D01*
X0174902Y0121203D01*
X0175171Y0120552D01*
X0175228Y0120495D01*
X0175615Y0119981D01*
X0175228Y0119466D01*
X0175171Y0119409D01*
X0174902Y0118758D01*
X0174902Y0118053D01*
X0175171Y0117402D01*
X0175228Y0117345D01*
X0175615Y0116831D01*
X0175228Y0116317D01*
X0175171Y0116260D01*
X0174902Y0115609D01*
X0174902Y0114904D01*
X0175171Y0114253D01*
X0175228Y0114196D01*
X0175615Y0113681D01*
X0175228Y0113167D01*
X0175171Y0113110D01*
X0174902Y0112459D01*
X0174902Y0111754D01*
X0175171Y0111103D01*
X0175228Y0111046D01*
X0175615Y0110532D01*
X0175228Y0110017D01*
X0175171Y0109961D01*
X0174902Y0109309D01*
X0174902Y0108605D01*
X0175171Y0107954D01*
X0175228Y0107897D01*
X0175615Y0107382D01*
X0175228Y0106868D01*
X0175171Y0106811D01*
X0174902Y0106160D01*
X0174902Y0105455D01*
X0175171Y0104804D01*
X0175228Y0104747D01*
X0175615Y0104233D01*
X0175228Y0103718D01*
X0175171Y0103661D01*
X0174902Y0103010D01*
X0174902Y0102305D01*
X0175171Y0101654D01*
X0175228Y0101597D01*
X0175615Y0101083D01*
X0175228Y0100569D01*
X0175171Y0100512D01*
X0174902Y0099861D01*
X0174902Y0099156D01*
X0175171Y0098505D01*
X0175228Y0098448D01*
X0175615Y0097933D01*
X0175228Y0097419D01*
X0175171Y0097362D01*
X0174902Y0096711D01*
X0174902Y0096006D01*
X0175171Y0095355D01*
X0175228Y0095298D01*
X0175615Y0094784D01*
X0175228Y0094269D01*
X0175171Y0094212D01*
X0174902Y0093561D01*
X0174902Y0092857D01*
X0175171Y0092205D01*
X0175228Y0092149D01*
X0175615Y0091634D01*
X0175228Y0091120D01*
X0175171Y0091063D01*
X0174902Y0090412D01*
X0174902Y0089707D01*
X0174960Y0089566D01*
X0174358Y0088963D01*
X0174193Y0089031D01*
X0173488Y0089031D01*
X0172837Y0088761D01*
X0172339Y0088263D01*
X0172069Y0087612D01*
X0172069Y0086907D01*
X0172339Y0086256D01*
X0172837Y0085758D01*
X0173488Y0085488D01*
X0174193Y0085488D01*
X0175155Y0085039D01*
X0175190Y0084936D01*
X0175182Y0084774D01*
X0175171Y0084764D01*
X0174902Y0084113D01*
X0174902Y0083408D01*
X0175171Y0082757D01*
X0175228Y0082700D01*
X0175615Y0082185D01*
X0175228Y0081671D01*
X0175171Y0081614D01*
X0174902Y0080963D01*
X0174902Y0080258D01*
X0175171Y0079607D01*
X0175228Y0079550D01*
X0175615Y0079036D01*
X0175228Y0078521D01*
X0175171Y0078464D01*
X0174902Y0077813D01*
X0174902Y0077108D01*
X0175171Y0076457D01*
X0175228Y0076401D01*
X0175615Y0075886D01*
X0175228Y0075372D01*
X0175171Y0075315D01*
X0174902Y0074664D01*
X0174902Y0073959D01*
X0175171Y0073308D01*
X0175228Y0073251D01*
X0175615Y0072736D01*
X0175228Y0072222D01*
X0175171Y0072165D01*
X0174902Y0071514D01*
X0174902Y0070809D01*
X0175171Y0070158D01*
X0175228Y0070101D01*
X0175615Y0069587D01*
X0175228Y0069072D01*
X0175171Y0069016D01*
X0174902Y0068365D01*
X0174902Y0067660D01*
X0175171Y0067009D01*
X0175228Y0066952D01*
X0175615Y0066437D01*
X0175228Y0065923D01*
X0175171Y0065866D01*
X0174902Y0065215D01*
X0174902Y0064510D01*
X0175171Y0063859D01*
X0175228Y0063802D01*
X0175615Y0063288D01*
X0175228Y0062773D01*
X0175171Y0062717D01*
X0174902Y0062065D01*
X0174902Y0061361D01*
X0175171Y0060709D01*
X0175228Y0060652D01*
X0175615Y0060138D01*
X0175228Y0059624D01*
X0175171Y0059567D01*
X0174902Y0058916D01*
X0174902Y0058211D01*
X0175171Y0057560D01*
X0175228Y0057503D01*
X0175615Y0056988D01*
X0175228Y0056474D01*
X0175171Y0056417D01*
X0174902Y0055766D01*
X0174902Y0055061D01*
X0175171Y0054410D01*
X0175228Y0054353D01*
X0175615Y0053839D01*
X0175228Y0053325D01*
X0175171Y0053268D01*
X0174902Y0052616D01*
X0174902Y0051912D01*
X0175171Y0051260D01*
X0175670Y0050762D01*
X0176321Y0050492D01*
X0177026Y0050492D01*
X0177067Y0050509D01*
X0177854Y0049983D01*
X0177854Y0028167D01*
X0177067Y0027641D01*
X0177026Y0027658D01*
X0176321Y0027658D01*
X0175670Y0027388D01*
X0175171Y0026890D01*
X0174902Y0026239D01*
X0174902Y0025534D01*
X0175171Y0024883D01*
X0175178Y0024876D01*
X0175169Y0024735D01*
X0175126Y0024695D01*
X0174237Y0024539D01*
X0173586Y0024809D01*
X0172881Y0024809D01*
X0172230Y0024539D01*
X0171732Y0024041D01*
X0171462Y0023390D01*
X0171462Y0022685D01*
X0171732Y0022034D01*
X0172230Y0021535D01*
X0172881Y0021265D01*
X0173586Y0021265D01*
X0174237Y0021535D01*
X0174353Y0021651D01*
X0175132Y0021729D01*
X0175318Y0021587D01*
X0175670Y0021235D01*
X0176321Y0020965D01*
X0177026Y0020965D01*
X0177067Y0020982D01*
X0177854Y0020456D01*
X0177854Y0014863D01*
X0175903Y0014863D01*
X0175813Y0015079D01*
X0175315Y0015577D01*
X0174664Y0015847D01*
X0173959Y0015847D01*
X0173308Y0015577D01*
X0172809Y0015079D01*
X0172720Y0014863D01*
X0171178Y0014863D01*
X0171089Y0015079D01*
X0170590Y0015577D01*
X0169939Y0015847D01*
X0169234Y0015847D01*
X0168583Y0015577D01*
X0168085Y0015079D01*
X0167995Y0014863D01*
X0166454Y0014863D01*
X0166364Y0015079D01*
X0165866Y0015577D01*
X0165215Y0015847D01*
X0164510Y0015847D01*
X0163859Y0015577D01*
X0163360Y0015079D01*
X0163271Y0014863D01*
X0161729Y0014863D01*
X0161640Y0015079D01*
X0161141Y0015577D01*
X0160490Y0015847D01*
X0159786Y0015847D01*
X0159134Y0015577D01*
X0158636Y0015079D01*
X0158547Y0014863D01*
X0157005Y0014863D01*
X0156915Y0015079D01*
X0156417Y0015577D01*
X0155766Y0015847D01*
X0155061Y0015847D01*
X0154410Y0015577D01*
X0153912Y0015079D01*
X0153822Y0014863D01*
X0152674Y0014863D01*
X0152585Y0015079D01*
X0152086Y0015577D01*
X0151435Y0015847D01*
X0150730Y0015847D01*
X0150492Y0016006D01*
X0150492Y0016396D01*
X0150223Y0017047D01*
X0149724Y0017545D01*
X0149073Y0017815D01*
X0148368Y0017815D01*
X0147717Y0017545D01*
X0147219Y0017047D01*
X0146949Y0016396D01*
X0146949Y0016006D01*
X0146711Y0015847D01*
X0146006Y0015847D01*
X0145768Y0016006D01*
X0145768Y0016396D01*
X0145498Y0017047D01*
X0145000Y0017545D01*
X0144349Y0017815D01*
X0143644Y0017815D01*
X0142993Y0017545D01*
X0142494Y0017047D01*
X0142297Y0016571D01*
X0142009Y0015898D01*
X0141260Y0015898D01*
X0140971Y0016571D01*
X0140774Y0017047D01*
X0140275Y0017545D01*
X0139624Y0017815D01*
X0138919Y0017815D01*
X0138268Y0017545D01*
X0137770Y0017047D01*
X0137500Y0016396D01*
X0137500Y0016006D01*
X0137262Y0015847D01*
X0136557Y0015847D01*
X0136319Y0016006D01*
X0136319Y0016396D01*
X0136049Y0017047D01*
X0135551Y0017545D01*
X0134900Y0017815D01*
X0134195Y0017815D01*
X0133544Y0017545D01*
X0133046Y0017047D01*
X0132776Y0016396D01*
X0132776Y0016006D01*
X0132538Y0015847D01*
X0131833Y0015847D01*
X0131595Y0016006D01*
X0131595Y0016396D01*
X0131325Y0017047D01*
X0130827Y0017545D01*
X0130175Y0017815D01*
X0129471Y0017815D01*
X0128819Y0017545D01*
X0128321Y0017047D01*
X0128124Y0016571D01*
X0127835Y0015898D01*
X0127086Y0015898D01*
X0126798Y0016571D01*
X0126600Y0017047D01*
X0126102Y0017545D01*
X0125451Y0017815D01*
X0124746Y0017815D01*
X0124095Y0017545D01*
X0123597Y0017047D01*
X0123327Y0016396D01*
X0123327Y0016006D01*
X0123089Y0015847D01*
X0122384Y0015847D01*
X0122146Y0016006D01*
X0122146Y0016396D01*
X0121876Y0017047D01*
X0121378Y0017545D01*
X0120727Y0017815D01*
X0120022Y0017815D01*
X0119371Y0017545D01*
X0118872Y0017047D01*
X0118602Y0016396D01*
X0118602Y0016006D01*
X0118364Y0015847D01*
X0117660Y0015847D01*
X0117421Y0016006D01*
X0117421Y0016396D01*
X0117152Y0017047D01*
X0116653Y0017545D01*
X0116002Y0017815D01*
X0115297Y0017815D01*
X0114646Y0017545D01*
X0114148Y0017047D01*
X0113878Y0016396D01*
X0113878Y0016006D01*
X0113640Y0015847D01*
X0112935Y0015847D01*
X0112697Y0016006D01*
X0112697Y0016396D01*
X0112427Y0017047D01*
X0111929Y0017545D01*
X0111278Y0017815D01*
X0110573Y0017815D01*
X0109922Y0017545D01*
X0109423Y0017047D01*
X0109154Y0016396D01*
X0109154Y0016006D01*
X0108916Y0015847D01*
X0108211Y0015847D01*
X0107973Y0016006D01*
X0107973Y0016396D01*
X0107703Y0017047D01*
X0107204Y0017545D01*
X0106553Y0017815D01*
X0105848Y0017815D01*
X0105197Y0017545D01*
X0104699Y0017047D01*
X0104429Y0016396D01*
X0104429Y0016006D01*
X0104191Y0015847D01*
X0103486Y0015847D01*
X0103248Y0016006D01*
X0103248Y0016396D01*
X0102978Y0017047D01*
X0102480Y0017545D01*
X0101829Y0017815D01*
X0101124Y0017815D01*
X0100473Y0017545D01*
X0099975Y0017047D01*
X0099705Y0016396D01*
X0099705Y0016006D01*
X0099467Y0015847D01*
X0098762Y0015847D01*
X0098524Y0016006D01*
X0098524Y0016396D01*
X0098254Y0017047D01*
X0097756Y0017545D01*
X0097105Y0017815D01*
X0096400Y0017815D01*
X0095749Y0017545D01*
X0095250Y0017047D01*
X0094981Y0016396D01*
X0094981Y0016006D01*
X0094742Y0015847D01*
X0094037Y0015847D01*
X0093799Y0016006D01*
X0093799Y0016396D01*
X0093530Y0017047D01*
X0093031Y0017545D01*
X0092380Y0017815D01*
X0091675Y0017815D01*
X0091024Y0017545D01*
X0090526Y0017047D01*
X0090256Y0016396D01*
X0090256Y0016006D01*
X0090018Y0015847D01*
X0089313Y0015847D01*
X0089075Y0016006D01*
X0089075Y0016396D01*
X0088805Y0017047D01*
X0088307Y0017545D01*
X0087656Y0017815D01*
X0086951Y0017815D01*
X0086300Y0017545D01*
X0085801Y0017047D01*
X0085604Y0016571D01*
X0085316Y0015898D01*
X0084567Y0015898D01*
X0084278Y0016571D01*
X0084081Y0017047D01*
X0083582Y0017545D01*
X0082931Y0017815D01*
X0082226Y0017815D01*
X0081575Y0017545D01*
X0081077Y0017047D01*
X0080807Y0016396D01*
X0080807Y0016006D01*
X0080569Y0015847D01*
X0079864Y0015847D01*
X0079626Y0016006D01*
X0079626Y0016396D01*
X0079356Y0017047D01*
X0078858Y0017545D01*
X0078207Y0017815D01*
X0077502Y0017815D01*
X0076851Y0017545D01*
X0076353Y0017047D01*
X0076155Y0016571D01*
X0075867Y0015898D01*
X0075118Y0015898D01*
X0074830Y0016571D01*
X0074632Y0017047D01*
X0074134Y0017545D01*
X0073483Y0017815D01*
X0072778Y0017815D01*
X0072127Y0017545D01*
X0071628Y0017047D01*
X0071358Y0016396D01*
X0071358Y0016006D01*
X0071120Y0015847D01*
X0070415Y0015847D01*
X0070177Y0016006D01*
X0070177Y0016396D01*
X0069908Y0017047D01*
X0069409Y0017545D01*
X0068758Y0017815D01*
X0068053Y0017815D01*
X0067402Y0017545D01*
X0066904Y0017047D01*
X0066634Y0016396D01*
X0066634Y0016006D01*
X0066396Y0015847D01*
X0065691Y0015847D01*
X0065453Y0016006D01*
X0065453Y0016396D01*
X0065183Y0017047D01*
X0064685Y0017545D01*
X0064034Y0017815D01*
X0063329Y0017815D01*
X0062678Y0017545D01*
X0062179Y0017047D01*
X0061982Y0016571D01*
X0061694Y0015898D01*
X0060945Y0015898D01*
X0060656Y0016571D01*
X0060459Y0017047D01*
X0059960Y0017545D01*
X0059309Y0017815D01*
X0058604Y0017815D01*
X0057953Y0017545D01*
X0057455Y0017047D01*
X0057185Y0016396D01*
X0057185Y0016006D01*
X0056947Y0015847D01*
X0056242Y0015847D01*
X0056004Y0016006D01*
X0056004Y0016396D01*
X0055734Y0017047D01*
X0055236Y0017545D01*
X0054585Y0017815D01*
X0053880Y0017815D01*
X0053229Y0017545D01*
X0052731Y0017047D01*
X0052461Y0016396D01*
X0052461Y0016006D01*
X0052223Y0015847D01*
X0051518Y0015847D01*
X0051280Y0016006D01*
X0051280Y0016396D01*
X0051010Y0017047D01*
X0050512Y0017545D01*
X0049860Y0017815D01*
X0049156Y0017815D01*
X0048504Y0017545D01*
X0048006Y0017047D01*
X0047736Y0016396D01*
X0047736Y0016006D01*
X0047498Y0015847D01*
X0046793Y0015847D01*
X0046555Y0016006D01*
X0046555Y0016396D01*
X0046285Y0017047D01*
X0045787Y0017545D01*
X0045136Y0017815D01*
X0044431Y0017815D01*
X0043780Y0017545D01*
X0043282Y0017047D01*
X0043012Y0016396D01*
X0043012Y0016006D01*
X0042774Y0015847D01*
X0042069Y0015847D01*
X0041831Y0016006D01*
X0041831Y0016396D01*
X0041561Y0017047D01*
X0041063Y0017545D01*
X0040412Y0017815D01*
X0039707Y0017815D01*
X0039056Y0017545D01*
X0038557Y0017047D01*
X0038288Y0016396D01*
X0038288Y0016006D01*
X0038049Y0015847D01*
X0037345Y0015847D01*
X0037106Y0016006D01*
X0037106Y0016396D01*
X0036837Y0017047D01*
X0036338Y0017545D01*
X0035687Y0017815D01*
X0034982Y0017815D01*
X0034331Y0017545D01*
X0033833Y0017047D01*
X0033563Y0016396D01*
X0033279Y0016180D01*
X0032383Y0016399D01*
X0032310Y0016571D01*
X0032112Y0017047D01*
X0031614Y0017545D01*
X0030963Y0017815D01*
X0030258Y0017815D01*
X0029607Y0017545D01*
X0029108Y0017047D01*
X0028911Y0016571D01*
X0028667Y0016002D01*
X0028426Y0015959D01*
X0027658Y0016396D01*
X0027388Y0017047D01*
X0026890Y0017545D01*
X0026238Y0017815D01*
X0025533Y0017815D01*
X0024882Y0017545D01*
X0024384Y0017047D01*
X0024114Y0016396D01*
X0024114Y0016006D01*
X0023876Y0015847D01*
X0023171Y0015847D01*
X0022933Y0016006D01*
X0022933Y0016396D01*
X0022663Y0017047D01*
X0022165Y0017545D01*
X0021514Y0017815D01*
X0020809Y0017815D01*
X0020158Y0017545D01*
X0019660Y0017047D01*
X0019390Y0016396D01*
X0019390Y0015691D01*
X0019660Y0015040D01*
X0020158Y0014542D01*
X0020809Y0014272D01*
X0021514Y0014272D01*
X0021555Y0014244D01*
X0021555Y0012894D01*
X0016356Y0012894D01*
X0015829Y0013682D01*
X0015847Y0013723D01*
X0015847Y0014428D01*
X0015577Y0015079D01*
X0015079Y0015577D01*
X0014427Y0015847D01*
X0013722Y0015847D01*
X0013071Y0015577D01*
X0012573Y0015079D01*
X0012303Y0014428D01*
X0012303Y0014124D01*
X0011628Y0013537D01*
X0011576Y0013522D01*
X0011319Y0013600D01*
X0011319Y0021637D01*
X0012106Y0022163D01*
X0012148Y0022146D01*
X0012853Y0022146D01*
X0013504Y0022416D01*
X0014002Y0022914D01*
X0014272Y0023565D01*
X0014272Y0024270D01*
X0014002Y0024921D01*
X0013504Y0025420D01*
X0013406Y0025460D01*
X0013406Y0026312D01*
X0013504Y0026353D01*
X0014002Y0026851D01*
X0014272Y0027502D01*
X0014272Y0028207D01*
X0014002Y0028858D01*
X0013504Y0029357D01*
X0012853Y0029626D01*
X0012148Y0029626D01*
X0012106Y0029609D01*
X0011319Y0030135D01*
X0011319Y0050771D01*
X0012106Y0051297D01*
X0012148Y0051280D01*
X0012853Y0051280D01*
X0013504Y0051550D01*
X0014002Y0052048D01*
X0014272Y0052699D01*
X0014272Y0053404D01*
X0014002Y0054055D01*
X0013504Y0054553D01*
X0012853Y0054823D01*
X0012148Y0054823D01*
X0012106Y0054806D01*
X0011319Y0055332D01*
X0011319Y0066776D01*
X0012106Y0066933D01*
X0012278Y0066519D01*
X0012776Y0066021D01*
X0013427Y0065751D01*
X0014132Y0065751D01*
X0014783Y0066021D01*
X0015282Y0066519D01*
X0015551Y0067170D01*
X0015551Y0067875D01*
X0015282Y0068526D01*
X0014783Y0069024D01*
X0014132Y0069294D01*
X0013427Y0069294D01*
X0012776Y0069024D01*
X0012278Y0068526D01*
X0012106Y0068113D01*
X0011319Y0068269D01*
X0011319Y0074393D01*
X0012106Y0074919D01*
X0012148Y0074902D01*
X0012853Y0074902D01*
X0013504Y0075172D01*
X0014002Y0075670D01*
X0014272Y0076321D01*
X0014272Y0077026D01*
X0014002Y0077677D01*
X0013504Y0078175D01*
X0013406Y0078216D01*
X0013406Y0079068D01*
X0013504Y0079109D01*
X0014002Y0079607D01*
X0014272Y0080258D01*
X0014272Y0080963D01*
X0014002Y0081614D01*
X0013504Y0082112D01*
X0013406Y0082153D01*
X0013406Y0083005D01*
X0013504Y0083046D01*
X0014002Y0083544D01*
X0014272Y0084195D01*
X0014272Y0084900D01*
X0014002Y0085551D01*
X0013504Y0086049D01*
X0013406Y0086090D01*
X0013406Y0086942D01*
X0013504Y0086983D01*
X0014002Y0087481D01*
X0014272Y0088132D01*
X0014272Y0088837D01*
X0014002Y0089488D01*
X0013504Y0089986D01*
X0013406Y0090027D01*
X0013406Y0090879D01*
X0013504Y0090920D01*
X0014002Y0091418D01*
X0014272Y0092069D01*
X0014272Y0092774D01*
X0014002Y0093425D01*
X0013504Y0093923D01*
X0013406Y0093964D01*
X0013406Y0094816D01*
X0013504Y0094857D01*
X0014002Y0095355D01*
X0014272Y0096006D01*
X0014272Y0096711D01*
X0014002Y0097362D01*
X0013504Y0097860D01*
X0013406Y0097901D01*
X0013406Y0098753D01*
X0013504Y0098794D01*
X0014002Y0099292D01*
X0014272Y0099943D01*
X0014272Y0100648D01*
X0014002Y0101299D01*
X0013504Y0101797D01*
X0013406Y0101838D01*
X0013406Y0102690D01*
X0013504Y0102731D01*
X0014002Y0103229D01*
X0014272Y0103880D01*
X0014272Y0104585D01*
X0014002Y0105236D01*
X0013504Y0105734D01*
X0013406Y0105775D01*
X0013406Y0106627D01*
X0013504Y0106668D01*
X0014002Y0107166D01*
X0014272Y0107817D01*
X0014272Y0108522D01*
X0014002Y0109173D01*
X0013504Y0109671D01*
X0013406Y0109712D01*
X0013406Y0110564D01*
X0013504Y0110605D01*
X0014002Y0111103D01*
X0014272Y0111754D01*
X0014272Y0112459D01*
X0014002Y0113110D01*
X0013504Y0113609D01*
X0013406Y0113649D01*
X0013406Y0114501D01*
X0013504Y0114542D01*
X0014002Y0115040D01*
X0014272Y0115691D01*
X0014272Y0116396D01*
X0014002Y0117047D01*
X0013504Y0117545D01*
X0013406Y0117586D01*
X0013406Y0118438D01*
X0013504Y0118479D01*
X0014002Y0118977D01*
X0014272Y0119628D01*
X0014272Y0120333D01*
X0014002Y0120984D01*
X0013504Y0121483D01*
X0013406Y0121523D01*
X0013406Y0122375D01*
X0013504Y0122416D01*
X0014002Y0122914D01*
X0014272Y0123565D01*
X0014272Y0124270D01*
X0014002Y0124921D01*
X0013504Y0125419D01*
X0013406Y0125460D01*
X0013406Y0126312D01*
X0013504Y0126353D01*
X0014002Y0126851D01*
X0014272Y0127502D01*
X0014272Y0128207D01*
X0014002Y0128858D01*
X0013504Y0129357D01*
X0013406Y0129397D01*
X0013406Y0130249D01*
X0013504Y0130290D01*
X0014002Y0130788D01*
X0014223Y0131320D01*
X0014645Y0131419D01*
X0015042Y0131399D01*
X0015132Y0131182D01*
X0015630Y0130683D01*
X0016282Y0130414D01*
X0016986Y0130414D01*
X0017637Y0130683D01*
X0018136Y0131182D01*
X0018406Y0131833D01*
X0018406Y0132538D01*
X0018136Y0133189D01*
X0017637Y0133687D01*
X0016986Y0133957D01*
X0016282Y0133957D01*
X0015630Y0133687D01*
X0015132Y0133189D01*
X0014912Y0132657D01*
X0014489Y0132558D01*
X0014092Y0132579D01*
X0014002Y0132795D01*
X0013504Y0133293D01*
X0012853Y0133563D01*
X0012148Y0133563D01*
X0012106Y0133546D01*
X0011319Y0134072D01*
X0011319Y0166592D01*
X0012106Y0167132D01*
X0012340Y0167042D01*
X0012344Y0167028D01*
X0012303Y0166878D01*
X0012303Y0165997D01*
X0012531Y0165146D01*
X0012972Y0164383D01*
X0013595Y0163759D01*
X0014358Y0163319D01*
X0015209Y0163091D01*
X0016090Y0163091D01*
X0016941Y0163319D01*
X0017164Y0163447D01*
X0017691Y0163268D01*
X0018189Y0162770D01*
X0018841Y0162500D01*
X0019545Y0162500D01*
X0020197Y0162770D01*
X0020695Y0163268D01*
X0020965Y0163919D01*
X0020965Y0164624D01*
X0020695Y0165276D01*
X0020197Y0165774D01*
X0019545Y0166044D01*
X0018996Y0166044D01*
X0018996Y0166878D01*
X0018768Y0167729D01*
X0018328Y0168492D01*
X0017704Y0169115D01*
X0016941Y0169556D01*
X0016090Y0169784D01*
X0015209Y0169784D01*
X0015059Y0169744D01*
X0015045Y0169747D01*
X0014955Y0169981D01*
X0015495Y0170768D01*
X0033842Y0170768D01*
X0034368Y0169981D01*
X0034350Y0169939D01*
X0034350Y0169235D01*
X0034620Y0168583D01*
X0035119Y0168085D01*
X0035770Y0167815D01*
X0036475Y0167815D01*
X0037126Y0168085D01*
X0037183Y0168142D01*
X0037697Y0168529D01*
X0038211Y0168142D01*
X0038268Y0168085D01*
X0038919Y0167815D01*
X0039624Y0167815D01*
X0040275Y0168085D01*
X0040332Y0168142D01*
X0040847Y0168529D01*
X0041361Y0168142D01*
X0041418Y0168085D01*
X0042069Y0167815D01*
X0042774Y0167815D01*
X0043425Y0168085D01*
X0043545Y0168057D01*
X0044133Y0167221D01*
X0044133Y0166449D01*
X0044333Y0165702D01*
X0044719Y0165033D01*
X0045265Y0164487D01*
X0045934Y0164101D01*
X0046681Y0163901D01*
X0047453Y0163901D01*
X0048200Y0164101D01*
X0048869Y0164487D01*
X0049415Y0165033D01*
X0049801Y0165702D01*
X0050001Y0166449D01*
X0050001Y0167221D01*
X0049801Y0167967D01*
X0049415Y0168637D01*
X0048869Y0169183D01*
X0048200Y0169569D01*
X0047453Y0169769D01*
X0046681Y0169769D01*
X0045934Y0169569D01*
X0045265Y0169183D01*
X0044853Y0168771D01*
X0044186Y0169217D01*
X0044193Y0169235D01*
X0044193Y0169939D01*
X0044176Y0169981D01*
X0044702Y0170768D01*
X0070849Y0170768D01*
X0071376Y0169981D01*
X0071358Y0169939D01*
X0071358Y0169235D01*
X0071628Y0168583D01*
X0072127Y0168085D01*
X0072778Y0167815D01*
X0073483Y0167815D01*
X0074134Y0168085D01*
X0074190Y0168142D01*
X0074705Y0168529D01*
X0075219Y0168142D01*
X0075276Y0168085D01*
X0075927Y0167815D01*
X0076632Y0167815D01*
X0077283Y0168085D01*
X0077340Y0168142D01*
X0077855Y0168529D01*
X0078369Y0168142D01*
X0078426Y0168085D01*
X0079077Y0167815D01*
X0079238Y0167573D01*
X0079232Y0167559D01*
X0079232Y0166854D01*
X0079502Y0166203D01*
X0080001Y0165704D01*
X0080652Y0165435D01*
X0081357Y0165435D01*
X0082008Y0165704D01*
X0082506Y0166203D01*
X0082776Y0166854D01*
X0082776Y0167559D01*
X0083373Y0167998D01*
X0083582Y0168085D01*
X0083639Y0168142D01*
X0084154Y0168529D01*
X0084668Y0168142D01*
X0084725Y0168085D01*
X0085376Y0167815D01*
X0086081Y0167815D01*
X0086732Y0168085D01*
X0087230Y0168583D01*
X0087500Y0169235D01*
X0087500Y0169939D01*
X0087483Y0169981D01*
X0088009Y0170768D01*
X0094356Y0170768D01*
X0094512Y0169981D01*
X0094099Y0169809D01*
X0093600Y0169311D01*
X0093344Y0169260D01*
X0093219Y0169385D01*
X0092567Y0169655D01*
X0091863Y0169655D01*
X0091212Y0169385D01*
X0090713Y0168887D01*
X0090443Y0168235D01*
X0090443Y0167531D01*
X0090713Y0166880D01*
X0091212Y0166381D01*
X0091863Y0166111D01*
X0092567Y0166111D01*
X0093219Y0166381D01*
X0093717Y0166880D01*
X0093974Y0166930D01*
X0094099Y0166805D01*
X0094750Y0166536D01*
X0095455Y0166536D01*
X0096106Y0166805D01*
X0096604Y0167304D01*
X0096874Y0167955D01*
X0096874Y0168660D01*
X0096604Y0169311D01*
X0096106Y0169809D01*
X0095692Y0169981D01*
X0095849Y0170768D01*
X0101064Y0170768D01*
X0101072Y0169984D01*
X0101004Y0169956D01*
X0100421Y0169714D01*
X0099922Y0169216D01*
X0099653Y0168565D01*
X0099653Y0167860D01*
X0099922Y0167209D01*
X0100421Y0166710D01*
X0101072Y0166441D01*
X0101777Y0166441D01*
X0102428Y0166710D01*
X0102926Y0167209D01*
X0103196Y0167860D01*
X0103196Y0168565D01*
X0102926Y0169216D01*
X0102428Y0169714D01*
X0101845Y0169956D01*
X0101777Y0169984D01*
X0101785Y0170768D01*
X0105101Y0170768D01*
X0105628Y0169981D01*
D02*
G37*
%LPC*%
G36*
X0064821Y0167815D02*
X0064116Y0167815D01*
X0063465Y0167546D01*
X0062967Y0167047D01*
X0062697Y0166396D01*
X0062697Y0165691D01*
X0062967Y0165040D01*
X0063465Y0164542D01*
X0063699Y0164445D01*
X0064133Y0164118D01*
X0064203Y0163485D01*
X0064133Y0163221D01*
X0064133Y0162449D01*
X0064333Y0161702D01*
X0064719Y0161033D01*
X0065265Y0160487D01*
X0065934Y0160101D01*
X0066681Y0159901D01*
X0067453Y0159901D01*
X0068200Y0160101D01*
X0068869Y0160487D01*
X0069415Y0161033D01*
X0069801Y0161702D01*
X0070001Y0162449D01*
X0070001Y0163221D01*
X0069801Y0163968D01*
X0069415Y0164637D01*
X0068869Y0165183D01*
X0068200Y0165569D01*
X0067453Y0165769D01*
X0066968Y0165769D01*
X0066681Y0165769D01*
X0066240Y0166396D01*
X0065970Y0167047D01*
X0065472Y0167546D01*
X0064821Y0167815D01*
D02*
G37*
G36*
X0073679Y0163425D02*
X0072974Y0163425D01*
X0072323Y0163156D01*
X0071825Y0162657D01*
X0071555Y0162006D01*
X0071555Y0161301D01*
X0071825Y0160650D01*
X0072323Y0160152D01*
X0072974Y0159882D01*
X0073679Y0159882D01*
X0074330Y0160152D01*
X0074829Y0160650D01*
X0075098Y0161301D01*
X0075098Y0162006D01*
X0074829Y0162657D01*
X0074330Y0163156D01*
X0073679Y0163425D01*
D02*
G37*
G36*
X0037159Y0162603D02*
X0036455Y0162603D01*
X0035804Y0162333D01*
X0035305Y0161835D01*
X0035036Y0161184D01*
X0035036Y0160479D01*
X0035305Y0159827D01*
X0035804Y0159329D01*
X0036455Y0159059D01*
X0037159Y0159059D01*
X0037811Y0159329D01*
X0038309Y0159827D01*
X0038579Y0160479D01*
X0038579Y0161184D01*
X0038309Y0161835D01*
X0037811Y0162333D01*
X0037159Y0162603D01*
D02*
G37*
G36*
X0125337Y0162190D02*
X0124633Y0162190D01*
X0123981Y0161920D01*
X0123483Y0161422D01*
X0123213Y0160771D01*
X0123213Y0160066D01*
X0123483Y0159415D01*
X0123981Y0158916D01*
X0124633Y0158647D01*
X0125337Y0158647D01*
X0125989Y0158916D01*
X0126487Y0159415D01*
X0126757Y0160066D01*
X0126757Y0160771D01*
X0126487Y0161422D01*
X0125989Y0161920D01*
X0125337Y0162190D01*
D02*
G37*
G36*
X0117083Y0161533D02*
X0116378Y0161533D01*
X0115727Y0161263D01*
X0115229Y0160765D01*
X0114959Y0160113D01*
X0114959Y0159409D01*
X0115229Y0158757D01*
X0115727Y0158259D01*
X0116378Y0157989D01*
X0117083Y0157989D01*
X0117734Y0158259D01*
X0118232Y0158757D01*
X0118502Y0159409D01*
X0118502Y0160113D01*
X0118232Y0160765D01*
X0117734Y0161263D01*
X0117083Y0161533D01*
D02*
G37*
G36*
X0085983Y0161516D02*
X0085279Y0161516D01*
X0084627Y0161246D01*
X0084129Y0160748D01*
X0083859Y0160097D01*
X0083859Y0159392D01*
X0084129Y0158741D01*
X0084627Y0158243D01*
X0085279Y0157973D01*
X0085983Y0157973D01*
X0086635Y0158243D01*
X0087008Y0158616D01*
X0087480Y0158144D01*
X0088131Y0157874D01*
X0088836Y0157874D01*
X0089487Y0158144D01*
X0089986Y0158642D01*
X0090255Y0159294D01*
X0090255Y0159998D01*
X0089986Y0160650D01*
X0089487Y0161148D01*
X0088836Y0161418D01*
X0088131Y0161418D01*
X0087480Y0161148D01*
X0087107Y0160774D01*
X0086635Y0161246D01*
X0085983Y0161516D01*
D02*
G37*
G36*
X0153814Y0162401D02*
X0153109Y0162401D01*
X0152458Y0162132D01*
X0151959Y0161633D01*
X0151690Y0160982D01*
X0151690Y0160277D01*
X0151959Y0159626D01*
X0152458Y0159128D01*
X0153109Y0158858D01*
X0153814Y0158858D01*
X0154471Y0159025D01*
X0154741Y0158373D01*
X0155239Y0157875D01*
X0155891Y0157605D01*
X0156595Y0157605D01*
X0157247Y0157875D01*
X0157745Y0158373D01*
X0158015Y0159025D01*
X0158015Y0159729D01*
X0157745Y0160381D01*
X0157247Y0160879D01*
X0156595Y0161149D01*
X0155891Y0161149D01*
X0155233Y0160982D01*
X0154963Y0161633D01*
X0154465Y0162132D01*
X0153814Y0162401D01*
D02*
G37*
G36*
X0097892Y0161122D02*
X0097187Y0161122D01*
X0096536Y0160853D01*
X0096038Y0160354D01*
X0095768Y0159703D01*
X0095768Y0158998D01*
X0096038Y0158347D01*
X0096536Y0157849D01*
X0097187Y0157579D01*
X0097892Y0157579D01*
X0098543Y0157849D01*
X0099041Y0158347D01*
X0099311Y0158998D01*
X0099311Y0159703D01*
X0099041Y0160354D01*
X0098543Y0160853D01*
X0097892Y0161122D01*
D02*
G37*
G36*
X0144349Y0161516D02*
X0143644Y0161516D01*
X0142993Y0161246D01*
X0142494Y0160748D01*
X0141593Y0160335D01*
X0140888Y0160335D01*
X0140237Y0160065D01*
X0139738Y0159567D01*
X0139469Y0158916D01*
X0139469Y0158211D01*
X0139738Y0157560D01*
X0140237Y0157061D01*
X0140888Y0156792D01*
X0141593Y0156792D01*
X0142244Y0157061D01*
X0142742Y0157560D01*
X0143644Y0157973D01*
X0144349Y0157973D01*
X0145000Y0158243D01*
X0145498Y0158741D01*
X0145768Y0159392D01*
X0145768Y0160097D01*
X0145498Y0160748D01*
X0145000Y0161246D01*
X0144349Y0161516D01*
D02*
G37*
G36*
X0044566Y0163572D02*
X0043861Y0163572D01*
X0043210Y0163302D01*
X0042712Y0162804D01*
X0042442Y0162153D01*
X0042442Y0161448D01*
X0042712Y0160797D01*
X0043210Y0160298D01*
X0043620Y0160128D01*
X0043861Y0160029D01*
X0044138Y0159241D01*
X0044133Y0159221D01*
X0044133Y0158449D01*
X0044313Y0157776D01*
X0044310Y0157655D01*
X0043924Y0156835D01*
X0043644Y0156719D01*
X0043145Y0156220D01*
X0042876Y0155569D01*
X0042876Y0155248D01*
X0042088Y0154996D01*
X0041768Y0155315D01*
X0041117Y0155585D01*
X0040412Y0155585D01*
X0039761Y0155315D01*
X0039263Y0154817D01*
X0038993Y0154166D01*
X0038993Y0153461D01*
X0039263Y0152810D01*
X0039641Y0152432D01*
X0039761Y0152312D01*
X0039412Y0151665D01*
X0039340Y0151672D01*
X0039329Y0151673D01*
X0039277Y0151673D01*
X0038624Y0151673D01*
X0037973Y0151404D01*
X0037474Y0150905D01*
X0037205Y0150254D01*
X0037205Y0149549D01*
X0037474Y0148898D01*
X0037973Y0148400D01*
X0038624Y0148130D01*
X0039329Y0148130D01*
X0039980Y0148400D01*
X0040046Y0148466D01*
X0040692Y0148744D01*
X0041074Y0148466D01*
X0041263Y0148277D01*
X0041914Y0148007D01*
X0042619Y0148007D01*
X0043270Y0148277D01*
X0043769Y0148775D01*
X0044038Y0149426D01*
X0044038Y0150131D01*
X0043769Y0150782D01*
X0043270Y0151281D01*
X0042619Y0151550D01*
X0042096Y0151550D01*
X0041914Y0151550D01*
X0041696Y0152247D01*
X0041761Y0152305D01*
X0041768Y0152312D01*
X0041807Y0152350D01*
X0042267Y0152810D01*
X0042537Y0153461D01*
X0042537Y0153783D01*
X0043324Y0154035D01*
X0043644Y0153715D01*
X0044295Y0153445D01*
X0045000Y0153445D01*
X0045651Y0153715D01*
X0046149Y0154213D01*
X0046419Y0154865D01*
X0046419Y0155156D01*
X0046593Y0155650D01*
X0047134Y0155901D01*
X0047453Y0155901D01*
X0048200Y0156101D01*
X0048869Y0156487D01*
X0049415Y0157033D01*
X0049707Y0157539D01*
X0050252Y0157595D01*
X0050567Y0157519D01*
X0050665Y0157284D01*
X0051163Y0156786D01*
X0051814Y0156516D01*
X0052519Y0156516D01*
X0053170Y0156786D01*
X0053669Y0157284D01*
X0053938Y0157935D01*
X0053938Y0158640D01*
X0053669Y0159291D01*
X0053170Y0159790D01*
X0052519Y0160059D01*
X0051814Y0160059D01*
X0051163Y0159790D01*
X0050756Y0159383D01*
X0050280Y0159420D01*
X0049916Y0159541D01*
X0049801Y0159967D01*
X0049415Y0160637D01*
X0048869Y0161183D01*
X0048200Y0161569D01*
X0047453Y0161769D01*
X0046681Y0161769D01*
X0046536Y0161730D01*
X0045985Y0162153D01*
X0045715Y0162804D01*
X0045217Y0163302D01*
X0044566Y0163572D01*
D02*
G37*
G36*
X0059234Y0161615D02*
X0058529Y0161615D01*
X0057878Y0161345D01*
X0057380Y0160846D01*
X0057110Y0160195D01*
X0057110Y0159490D01*
X0057380Y0158839D01*
X0057878Y0158341D01*
X0058212Y0158203D01*
X0058286Y0158047D01*
X0058381Y0157344D01*
X0058045Y0157008D01*
X0057787Y0156385D01*
X0057221Y0156620D01*
X0056516Y0156620D01*
X0055865Y0156350D01*
X0055366Y0155851D01*
X0055096Y0155200D01*
X0054320Y0155001D01*
X0053615Y0155001D01*
X0052964Y0154732D01*
X0052943Y0154711D01*
X0051972Y0154603D01*
X0051321Y0154872D01*
X0050616Y0154872D01*
X0049965Y0154603D01*
X0049466Y0154104D01*
X0049197Y0153453D01*
X0049197Y0152748D01*
X0049466Y0152097D01*
X0049965Y0151599D01*
X0050616Y0151329D01*
X0051321Y0151329D01*
X0051972Y0151599D01*
X0052470Y0152097D01*
X0052574Y0152118D01*
X0052964Y0151728D01*
X0053615Y0151458D01*
X0054320Y0151458D01*
X0054971Y0151728D01*
X0055470Y0152226D01*
X0055739Y0152877D01*
X0056516Y0153076D01*
X0057221Y0153076D01*
X0057872Y0153346D01*
X0058370Y0153844D01*
X0058628Y0154467D01*
X0059195Y0154233D01*
X0059900Y0154233D01*
X0060551Y0154502D01*
X0061049Y0155001D01*
X0061319Y0155652D01*
X0061319Y0156357D01*
X0061049Y0157008D01*
X0060551Y0157506D01*
X0060217Y0157644D01*
X0060143Y0157800D01*
X0060048Y0158503D01*
X0060384Y0158839D01*
X0060653Y0159490D01*
X0060653Y0160195D01*
X0060384Y0160846D01*
X0059885Y0161345D01*
X0059234Y0161615D01*
D02*
G37*
G36*
X0104191Y0158366D02*
X0103486Y0158366D01*
X0102835Y0158097D01*
X0102337Y0157598D01*
X0102067Y0156947D01*
X0102067Y0156242D01*
X0102337Y0155591D01*
X0102835Y0155093D01*
X0103486Y0154823D01*
X0104191Y0154823D01*
X0104842Y0155093D01*
X0105341Y0155591D01*
X0105610Y0156242D01*
X0105610Y0156947D01*
X0105341Y0157598D01*
X0104842Y0158097D01*
X0104191Y0158366D01*
D02*
G37*
G36*
X0078207Y0157579D02*
X0077502Y0157579D01*
X0076851Y0157309D01*
X0076353Y0156811D01*
X0076083Y0156160D01*
X0076083Y0155455D01*
X0076353Y0154804D01*
X0076851Y0154305D01*
X0077502Y0154036D01*
X0078207Y0154036D01*
X0078858Y0154305D01*
X0079356Y0154804D01*
X0079626Y0155455D01*
X0079626Y0156160D01*
X0079356Y0156811D01*
X0078858Y0157309D01*
X0078207Y0157579D01*
D02*
G37*
G36*
X0100251Y0156329D02*
X0099546Y0156329D01*
X0098895Y0156060D01*
X0098397Y0155561D01*
X0098127Y0154910D01*
X0098127Y0154205D01*
X0098397Y0153554D01*
X0098895Y0153056D01*
X0099546Y0152786D01*
X0100251Y0152786D01*
X0100902Y0153056D01*
X0101401Y0153554D01*
X0101670Y0154205D01*
X0101670Y0154910D01*
X0101401Y0155561D01*
X0100902Y0156060D01*
X0100251Y0156329D01*
D02*
G37*
G36*
X0159279Y0154448D02*
X0158574Y0154448D01*
X0157923Y0154178D01*
X0157425Y0153680D01*
X0157155Y0153029D01*
X0157155Y0152324D01*
X0157425Y0151673D01*
X0157923Y0151174D01*
X0158574Y0150905D01*
X0159279Y0150905D01*
X0159930Y0151174D01*
X0160428Y0151673D01*
X0160698Y0152324D01*
X0160698Y0153029D01*
X0160428Y0153680D01*
X0159930Y0154178D01*
X0159279Y0154448D01*
D02*
G37*
G36*
X0125879Y0155796D02*
X0125174Y0155796D01*
X0124523Y0155526D01*
X0124025Y0155028D01*
X0123755Y0154377D01*
X0123755Y0153672D01*
X0124025Y0153021D01*
X0124523Y0152523D01*
X0125174Y0152253D01*
X0125879Y0152253D01*
X0126419Y0152476D01*
X0126528Y0152446D01*
X0126826Y0152284D01*
X0127146Y0152025D01*
X0127146Y0151567D01*
X0127416Y0150916D01*
X0127914Y0150418D01*
X0128565Y0150148D01*
X0129270Y0150148D01*
X0129921Y0150418D01*
X0130420Y0150916D01*
X0130689Y0151567D01*
X0130689Y0152272D01*
X0130420Y0152923D01*
X0129921Y0153421D01*
X0129270Y0153691D01*
X0128565Y0153691D01*
X0128026Y0153468D01*
X0127917Y0153498D01*
X0127619Y0153660D01*
X0127298Y0153919D01*
X0127298Y0154377D01*
X0127028Y0155028D01*
X0126530Y0155526D01*
X0125879Y0155796D01*
D02*
G37*
G36*
X0034396Y0153666D02*
X0033691Y0153666D01*
X0033040Y0153396D01*
X0032542Y0152898D01*
X0032272Y0152247D01*
X0032272Y0151542D01*
X0032542Y0150891D01*
X0033040Y0150393D01*
X0033691Y0150123D01*
X0034396Y0150123D01*
X0035047Y0150393D01*
X0035546Y0150891D01*
X0035815Y0151542D01*
X0035815Y0152247D01*
X0035546Y0152898D01*
X0035047Y0153396D01*
X0034396Y0153666D01*
D02*
G37*
G36*
X0025758Y0151645D02*
X0025053Y0151645D01*
X0024402Y0151375D01*
X0023904Y0150877D01*
X0023634Y0150226D01*
X0023634Y0150050D01*
X0022847Y0149893D01*
X0022817Y0149965D01*
X0022319Y0150463D01*
X0021668Y0150733D01*
X0020963Y0150733D01*
X0020311Y0150463D01*
X0019813Y0149965D01*
X0019543Y0149313D01*
X0019543Y0148609D01*
X0019813Y0147958D01*
X0020311Y0147459D01*
X0020963Y0147189D01*
X0021668Y0147189D01*
X0022319Y0147459D01*
X0022817Y0147958D01*
X0023087Y0148609D01*
X0023087Y0148784D01*
X0023874Y0148941D01*
X0023904Y0148870D01*
X0024402Y0148371D01*
X0025053Y0148101D01*
X0025758Y0148101D01*
X0026409Y0148371D01*
X0026908Y0148870D01*
X0027177Y0149521D01*
X0027177Y0150226D01*
X0026908Y0150877D01*
X0026409Y0151375D01*
X0025758Y0151645D01*
D02*
G37*
G36*
X0145843Y0154725D02*
X0145138Y0154725D01*
X0144487Y0154455D01*
X0143988Y0153957D01*
X0143719Y0153305D01*
X0143719Y0152601D01*
X0143988Y0151950D01*
X0144487Y0151451D01*
X0145138Y0151181D01*
X0145843Y0151181D01*
X0146396Y0150558D01*
X0146431Y0150473D01*
X0146930Y0149975D01*
X0147581Y0149705D01*
X0148286Y0149705D01*
X0148937Y0149975D01*
X0149435Y0150473D01*
X0149705Y0151124D01*
X0149705Y0151829D01*
X0149435Y0152480D01*
X0148937Y0152979D01*
X0148286Y0153248D01*
X0147581Y0153248D01*
X0147027Y0153872D01*
X0146992Y0153957D01*
X0146494Y0154455D01*
X0145843Y0154725D01*
D02*
G37*
G36*
X0067057Y0154625D02*
X0066352Y0154625D01*
X0065701Y0154355D01*
X0065202Y0153857D01*
X0064933Y0153206D01*
X0064933Y0152501D01*
X0064952Y0152453D01*
X0064952Y0151601D01*
X0064454Y0151102D01*
X0064184Y0150451D01*
X0064184Y0149746D01*
X0064454Y0149095D01*
X0064952Y0148597D01*
X0065603Y0148327D01*
X0066308Y0148327D01*
X0066959Y0148597D01*
X0067458Y0149095D01*
X0067728Y0149746D01*
X0067728Y0150451D01*
X0067708Y0150499D01*
X0067708Y0151351D01*
X0068206Y0151850D01*
X0068476Y0152501D01*
X0068476Y0153206D01*
X0068206Y0153857D01*
X0067708Y0154355D01*
X0067057Y0154625D01*
D02*
G37*
G36*
X0077637Y0149820D02*
X0076933Y0149820D01*
X0076281Y0149551D01*
X0075783Y0149052D01*
X0075513Y0148401D01*
X0075513Y0147696D01*
X0075783Y0147045D01*
X0076281Y0146547D01*
X0076933Y0146277D01*
X0077637Y0146277D01*
X0078289Y0146547D01*
X0078787Y0147045D01*
X0079057Y0147696D01*
X0079057Y0148401D01*
X0078787Y0149052D01*
X0078289Y0149551D01*
X0077637Y0149820D01*
D02*
G37*
G36*
X0108916Y0148918D02*
X0108211Y0148918D01*
X0107560Y0148648D01*
X0107061Y0148150D01*
X0106792Y0147498D01*
X0106792Y0146794D01*
X0107061Y0146142D01*
X0107560Y0145644D01*
X0108211Y0145374D01*
X0108916Y0145374D01*
X0109567Y0145644D01*
X0110065Y0146142D01*
X0110335Y0146794D01*
X0110335Y0147498D01*
X0110065Y0148150D01*
X0109567Y0148648D01*
X0108916Y0148918D01*
D02*
G37*
G36*
X0069555Y0148558D02*
X0068850Y0148558D01*
X0068199Y0148288D01*
X0067700Y0147790D01*
X0067430Y0147139D01*
X0067430Y0146434D01*
X0067700Y0145783D01*
X0068199Y0145284D01*
X0068850Y0145015D01*
X0069555Y0145015D01*
X0070206Y0145284D01*
X0070704Y0145783D01*
X0070974Y0146434D01*
X0070974Y0147139D01*
X0070704Y0147790D01*
X0070206Y0148288D01*
X0069555Y0148558D01*
D02*
G37*
G36*
X0088049Y0148524D02*
X0087345Y0148524D01*
X0086693Y0148254D01*
X0086195Y0147756D01*
X0085925Y0147105D01*
X0085925Y0146400D01*
X0086195Y0145749D01*
X0086693Y0145250D01*
X0087345Y0144981D01*
X0088049Y0144981D01*
X0088700Y0145250D01*
X0089199Y0145749D01*
X0089469Y0146400D01*
X0089469Y0147105D01*
X0089199Y0147756D01*
X0088700Y0148254D01*
X0088049Y0148524D01*
D02*
G37*
G36*
X0164901Y0150296D02*
X0164196Y0150296D01*
X0163545Y0150026D01*
X0163047Y0149528D01*
X0162777Y0148876D01*
X0162777Y0148513D01*
X0162709Y0148467D01*
X0162004Y0148467D01*
X0161353Y0148198D01*
X0160855Y0147699D01*
X0160585Y0147048D01*
X0160585Y0146343D01*
X0160855Y0145692D01*
X0161353Y0145194D01*
X0162004Y0144924D01*
X0162709Y0144924D01*
X0163360Y0145194D01*
X0163859Y0145692D01*
X0164128Y0146343D01*
X0164128Y0146707D01*
X0164196Y0146752D01*
X0164901Y0146752D01*
X0165552Y0147022D01*
X0166051Y0147520D01*
X0166320Y0148171D01*
X0166320Y0148876D01*
X0166051Y0149528D01*
X0165552Y0150026D01*
X0164901Y0150296D01*
D02*
G37*
G36*
X0061789Y0143497D02*
X0061084Y0143497D01*
X0060433Y0143227D01*
X0059934Y0142729D01*
X0059860Y0142550D01*
X0059555Y0142470D01*
X0058973Y0142466D01*
X0058593Y0142846D01*
X0057942Y0143116D01*
X0057237Y0143116D01*
X0056586Y0142846D01*
X0056088Y0142348D01*
X0055818Y0141697D01*
X0055818Y0140992D01*
X0056088Y0140341D01*
X0056586Y0139842D01*
X0057237Y0139573D01*
X0057942Y0139573D01*
X0058593Y0139842D01*
X0059091Y0140341D01*
X0059166Y0140520D01*
X0059470Y0140600D01*
X0060053Y0140604D01*
X0060433Y0140224D01*
X0061084Y0139954D01*
X0061789Y0139954D01*
X0062440Y0140224D01*
X0062938Y0140722D01*
X0063208Y0141373D01*
X0063208Y0142078D01*
X0062938Y0142729D01*
X0062440Y0143227D01*
X0061789Y0143497D01*
D02*
G37*
G36*
X0054191Y0145768D02*
X0053486Y0145768D01*
X0052835Y0145498D01*
X0052337Y0145000D01*
X0052067Y0144349D01*
X0052067Y0143644D01*
X0052337Y0142993D01*
X0052835Y0142494D01*
X0053486Y0142225D01*
X0054191Y0142225D01*
X0054842Y0142494D01*
X0055341Y0142993D01*
X0055610Y0143644D01*
X0055610Y0144349D01*
X0055341Y0145000D01*
X0054842Y0145498D01*
X0054191Y0145768D01*
D02*
G37*
G36*
X0135244Y0146949D02*
X0134539Y0146949D01*
X0133888Y0146679D01*
X0133390Y0146181D01*
X0133120Y0145530D01*
X0133120Y0144825D01*
X0132404Y0144497D01*
X0131969Y0144317D01*
X0131471Y0143819D01*
X0131201Y0143168D01*
X0131201Y0142463D01*
X0131471Y0141812D01*
X0131969Y0141313D01*
X0132620Y0141044D01*
X0133325Y0141044D01*
X0133976Y0141313D01*
X0134474Y0141812D01*
X0134744Y0142463D01*
X0134744Y0143168D01*
X0135461Y0143496D01*
X0135895Y0143676D01*
X0136394Y0144174D01*
X0136664Y0144825D01*
X0136664Y0145530D01*
X0136394Y0146181D01*
X0135895Y0146679D01*
X0135244Y0146949D01*
D02*
G37*
G36*
X0032537Y0142618D02*
X0031833Y0142618D01*
X0031182Y0142349D01*
X0030683Y0141850D01*
X0030413Y0141199D01*
X0030413Y0140494D01*
X0030683Y0139843D01*
X0031182Y0139345D01*
X0031833Y0139075D01*
X0032537Y0139075D01*
X0033189Y0139345D01*
X0033687Y0139843D01*
X0033957Y0140494D01*
X0033957Y0141199D01*
X0033687Y0141850D01*
X0033189Y0142349D01*
X0032537Y0142618D01*
D02*
G37*
G36*
X0076322Y0145078D02*
X0075617Y0145078D01*
X0074966Y0144808D01*
X0074468Y0144310D01*
X0074198Y0143659D01*
X0074198Y0142954D01*
X0074468Y0142303D01*
X0074849Y0141921D01*
X0074384Y0141457D01*
X0074114Y0140805D01*
X0074114Y0140101D01*
X0074384Y0139450D01*
X0074882Y0138951D01*
X0075533Y0138681D01*
X0076238Y0138681D01*
X0076889Y0138951D01*
X0077388Y0139450D01*
X0077658Y0140101D01*
X0077658Y0140805D01*
X0077388Y0141457D01*
X0077007Y0141838D01*
X0077472Y0142303D01*
X0077741Y0142954D01*
X0077741Y0143659D01*
X0077472Y0144310D01*
X0076973Y0144808D01*
X0076322Y0145078D01*
D02*
G37*
G36*
X0024368Y0142214D02*
X0023663Y0142214D01*
X0023012Y0141944D01*
X0022514Y0141445D01*
X0022244Y0140794D01*
X0022244Y0140089D01*
X0022514Y0139438D01*
X0023012Y0138940D01*
X0023663Y0138670D01*
X0024368Y0138670D01*
X0025019Y0138940D01*
X0025518Y0139438D01*
X0025788Y0140089D01*
X0025788Y0140794D01*
X0025518Y0141445D01*
X0025019Y0141944D01*
X0024368Y0142214D01*
D02*
G37*
G36*
X0163199Y0141966D02*
X0162494Y0141966D01*
X0161843Y0141697D01*
X0161345Y0141198D01*
X0161075Y0140547D01*
X0161075Y0139842D01*
X0161345Y0139191D01*
X0161843Y0138693D01*
X0162494Y0138423D01*
X0163199Y0138423D01*
X0163851Y0138693D01*
X0164349Y0139191D01*
X0164619Y0139842D01*
X0164619Y0140547D01*
X0164349Y0141198D01*
X0163851Y0141697D01*
X0163199Y0141966D01*
D02*
G37*
G36*
X0116499Y0138829D02*
X0115794Y0138829D01*
X0115143Y0138559D01*
X0114645Y0138061D01*
X0114498Y0137705D01*
X0114341Y0137674D01*
X0113690Y0137944D01*
X0112985Y0137944D01*
X0112334Y0137674D01*
X0111835Y0137176D01*
X0111566Y0136525D01*
X0111566Y0135925D01*
X0110967Y0135925D01*
X0110316Y0135656D01*
X0109817Y0135157D01*
X0109547Y0134506D01*
X0109547Y0133801D01*
X0109817Y0133150D01*
X0110316Y0132652D01*
X0110967Y0132382D01*
X0111671Y0132382D01*
X0112323Y0132652D01*
X0112821Y0133150D01*
X0113091Y0133801D01*
X0113091Y0134401D01*
X0113690Y0134401D01*
X0114341Y0134670D01*
X0114839Y0135169D01*
X0114987Y0135524D01*
X0115143Y0135555D01*
X0115794Y0135286D01*
X0116499Y0135286D01*
X0117151Y0135555D01*
X0117649Y0136054D01*
X0117919Y0136705D01*
X0117919Y0137410D01*
X0117649Y0138061D01*
X0117151Y0138559D01*
X0116499Y0138829D01*
D02*
G37*
G36*
X0143955Y0139863D02*
X0143250Y0139863D01*
X0142599Y0139593D01*
X0142100Y0139094D01*
X0141831Y0138443D01*
X0141831Y0137739D01*
X0142100Y0137087D01*
X0142599Y0136589D01*
X0143250Y0136319D01*
X0143955Y0136319D01*
X0144606Y0136589D01*
X0145104Y0137087D01*
X0145374Y0137739D01*
X0145374Y0138443D01*
X0145104Y0139094D01*
X0144606Y0139593D01*
X0143955Y0139863D01*
D02*
G37*
G36*
X0068758Y0140650D02*
X0068053Y0140650D01*
X0067402Y0140380D01*
X0066904Y0139882D01*
X0066634Y0139231D01*
X0066634Y0138526D01*
X0066904Y0137875D01*
X0067327Y0137451D01*
X0066904Y0137028D01*
X0066634Y0136376D01*
X0066634Y0135672D01*
X0066904Y0135020D01*
X0067402Y0134522D01*
X0068053Y0134252D01*
X0068758Y0134252D01*
X0069409Y0134522D01*
X0069908Y0135020D01*
X0070177Y0135672D01*
X0070177Y0136376D01*
X0069908Y0137028D01*
X0069484Y0137451D01*
X0069908Y0137875D01*
X0070177Y0138526D01*
X0070177Y0139231D01*
X0069908Y0139882D01*
X0069409Y0140380D01*
X0068758Y0140650D01*
D02*
G37*
G36*
X0061554Y0137356D02*
X0060850Y0137356D01*
X0060199Y0137086D01*
X0059700Y0136588D01*
X0059431Y0135937D01*
X0059431Y0135232D01*
X0059700Y0134581D01*
X0060199Y0134082D01*
X0060850Y0133813D01*
X0061554Y0133813D01*
X0062206Y0134082D01*
X0062704Y0134581D01*
X0062974Y0135232D01*
X0062974Y0135937D01*
X0062704Y0136588D01*
X0062206Y0137086D01*
X0061554Y0137356D01*
D02*
G37*
G36*
X0052518Y0136262D02*
X0051813Y0136262D01*
X0051162Y0135993D01*
X0050663Y0135494D01*
X0050394Y0134843D01*
X0050394Y0134138D01*
X0050663Y0133487D01*
X0051162Y0132989D01*
X0051813Y0132719D01*
X0052518Y0132719D01*
X0053169Y0132989D01*
X0053667Y0133487D01*
X0053937Y0134138D01*
X0053937Y0134843D01*
X0053667Y0135494D01*
X0053169Y0135993D01*
X0052518Y0136262D01*
D02*
G37*
G36*
X0041101Y0140302D02*
X0040396Y0140302D01*
X0039745Y0140032D01*
X0039246Y0139533D01*
X0038976Y0138882D01*
X0038976Y0138178D01*
X0039246Y0137526D01*
X0039473Y0137299D01*
X0039699Y0136897D01*
X0039486Y0136283D01*
X0039345Y0136142D01*
X0039075Y0135491D01*
X0039075Y0134786D01*
X0039345Y0134134D01*
X0039843Y0133636D01*
X0040494Y0133366D01*
X0041199Y0133366D01*
X0041850Y0133636D01*
X0042225Y0134011D01*
X0042843Y0133873D01*
X0043021Y0133779D01*
X0043282Y0133150D01*
X0043780Y0132652D01*
X0044431Y0132382D01*
X0045136Y0132382D01*
X0045787Y0132652D01*
X0046285Y0133150D01*
X0046555Y0133801D01*
X0046555Y0134506D01*
X0046285Y0135157D01*
X0045787Y0135656D01*
X0045136Y0135925D01*
X0044431Y0135925D01*
X0043780Y0135656D01*
X0043406Y0135281D01*
X0042787Y0135419D01*
X0042609Y0135513D01*
X0042348Y0136142D01*
X0042121Y0136369D01*
X0041896Y0136771D01*
X0042109Y0137385D01*
X0042250Y0137526D01*
X0042520Y0138178D01*
X0042520Y0138882D01*
X0042250Y0139533D01*
X0041752Y0140032D01*
X0041101Y0140302D01*
D02*
G37*
G36*
X0093364Y0135138D02*
X0092659Y0135138D01*
X0092008Y0134868D01*
X0091510Y0134370D01*
X0091240Y0133719D01*
X0091240Y0133014D01*
X0091510Y0132363D01*
X0092008Y0131865D01*
X0092659Y0131595D01*
X0093364Y0131595D01*
X0094015Y0131865D01*
X0094514Y0132363D01*
X0094784Y0133014D01*
X0094784Y0133719D01*
X0094514Y0134370D01*
X0094015Y0134868D01*
X0093364Y0135138D01*
D02*
G37*
G36*
X0168467Y0134627D02*
X0167762Y0134627D01*
X0167111Y0134358D01*
X0166613Y0133859D01*
X0166343Y0133208D01*
X0166343Y0132503D01*
X0166613Y0131852D01*
X0167111Y0131354D01*
X0167762Y0131084D01*
X0168467Y0131084D01*
X0169118Y0131354D01*
X0169616Y0131852D01*
X0169886Y0132503D01*
X0169886Y0133208D01*
X0169616Y0133859D01*
X0169118Y0134358D01*
X0168467Y0134627D01*
D02*
G37*
G36*
X0152343Y0132776D02*
X0151638Y0132776D01*
X0150987Y0132506D01*
X0150489Y0132008D01*
X0150219Y0131357D01*
X0150219Y0130652D01*
X0150489Y0130001D01*
X0150987Y0129502D01*
X0151638Y0129233D01*
X0152343Y0129233D01*
X0152994Y0129502D01*
X0153493Y0130001D01*
X0153762Y0130652D01*
X0153762Y0131357D01*
X0153493Y0132008D01*
X0152994Y0132506D01*
X0152343Y0132776D01*
D02*
G37*
G36*
X0139545Y0134489D02*
X0138841Y0134489D01*
X0138190Y0134219D01*
X0137691Y0133720D01*
X0137421Y0133069D01*
X0137421Y0132883D01*
X0137262Y0132776D01*
X0136557Y0132776D01*
X0135906Y0132506D01*
X0135408Y0132008D01*
X0135138Y0131357D01*
X0135138Y0130652D01*
X0135408Y0130001D01*
X0135906Y0129502D01*
X0136557Y0129233D01*
X0137262Y0129233D01*
X0137913Y0129502D01*
X0138412Y0130001D01*
X0138681Y0130652D01*
X0138681Y0130839D01*
X0138841Y0130945D01*
X0139545Y0130945D01*
X0140197Y0131215D01*
X0140695Y0131713D01*
X0140965Y0132365D01*
X0140965Y0133069D01*
X0140695Y0133720D01*
X0140197Y0134219D01*
X0139545Y0134489D01*
D02*
G37*
G36*
X0128994Y0128839D02*
X0128290Y0128839D01*
X0127638Y0128569D01*
X0127581Y0128512D01*
X0127067Y0128126D01*
X0126553Y0128512D01*
X0126496Y0128569D01*
X0125845Y0128839D01*
X0125140Y0128839D01*
X0124489Y0128569D01*
X0123990Y0128071D01*
X0123721Y0127420D01*
X0123721Y0126715D01*
X0123990Y0126064D01*
X0124489Y0125565D01*
X0125140Y0125296D01*
X0125845Y0125296D01*
X0126496Y0125565D01*
X0126553Y0125622D01*
X0127067Y0126009D01*
X0127581Y0125622D01*
X0127638Y0125565D01*
X0128290Y0125296D01*
X0128994Y0125296D01*
X0129645Y0125565D01*
X0130144Y0126064D01*
X0130414Y0126715D01*
X0130414Y0127420D01*
X0130144Y0128071D01*
X0129645Y0128569D01*
X0128994Y0128839D01*
D02*
G37*
G36*
X0033276Y0129233D02*
X0032571Y0129233D01*
X0031920Y0128963D01*
X0031421Y0128464D01*
X0031233Y0128010D01*
X0031044Y0127920D01*
X0030620Y0127831D01*
X0030375Y0127839D01*
X0030039Y0128175D01*
X0029388Y0128445D01*
X0028683Y0128445D01*
X0028032Y0128175D01*
X0027534Y0127677D01*
X0027264Y0127026D01*
X0027264Y0126321D01*
X0027534Y0125670D01*
X0028032Y0125172D01*
X0028683Y0124902D01*
X0029388Y0124902D01*
X0030039Y0125172D01*
X0030537Y0125670D01*
X0030726Y0126124D01*
X0030915Y0126215D01*
X0031339Y0126303D01*
X0031584Y0126295D01*
X0031920Y0125959D01*
X0032571Y0125689D01*
X0033276Y0125689D01*
X0033927Y0125959D01*
X0034425Y0126457D01*
X0034695Y0127109D01*
X0034695Y0127813D01*
X0034425Y0128464D01*
X0033927Y0128963D01*
X0033276Y0129233D01*
D02*
G37*
G36*
X0053108Y0129624D02*
X0052404Y0129624D01*
X0051752Y0129354D01*
X0051254Y0128856D01*
X0050984Y0128205D01*
X0050984Y0127500D01*
X0051254Y0126849D01*
X0051752Y0126350D01*
X0052404Y0126081D01*
X0053108Y0126081D01*
X0053760Y0126350D01*
X0054258Y0126849D01*
X0054528Y0127500D01*
X0054528Y0128205D01*
X0054258Y0128856D01*
X0053760Y0129354D01*
X0053108Y0129624D01*
D02*
G37*
G36*
X0093561Y0130020D02*
X0092856Y0130020D01*
X0092205Y0129750D01*
X0091707Y0129252D01*
X0091437Y0128601D01*
X0091437Y0127896D01*
X0091707Y0127245D01*
X0092205Y0126746D01*
X0092856Y0126477D01*
X0093561Y0126477D01*
X0094212Y0126746D01*
X0094257Y0126791D01*
X0095162Y0126583D01*
X0095254Y0126362D01*
X0095752Y0125863D01*
X0096403Y0125594D01*
X0097108Y0125594D01*
X0097759Y0125863D01*
X0098258Y0126362D01*
X0098527Y0127013D01*
X0098527Y0127718D01*
X0098258Y0128369D01*
X0097759Y0128867D01*
X0097108Y0129137D01*
X0096403Y0129137D01*
X0095752Y0128867D01*
X0095708Y0128823D01*
X0094802Y0129031D01*
X0094711Y0129252D01*
X0094212Y0129750D01*
X0093561Y0130020D01*
D02*
G37*
G36*
X0018955Y0128369D02*
X0018250Y0128369D01*
X0017599Y0128099D01*
X0017101Y0127601D01*
X0016831Y0126949D01*
X0016831Y0126244D01*
X0017101Y0125593D01*
X0017599Y0125095D01*
X0018250Y0124825D01*
X0018955Y0124825D01*
X0019606Y0125095D01*
X0020104Y0125593D01*
X0020374Y0126244D01*
X0020374Y0126949D01*
X0020104Y0127601D01*
X0019606Y0128099D01*
X0018955Y0128369D01*
D02*
G37*
G36*
X0045415Y0128232D02*
X0044710Y0128232D01*
X0044059Y0127962D01*
X0043560Y0127464D01*
X0043291Y0126813D01*
X0043291Y0126108D01*
X0043560Y0125457D01*
X0044059Y0124958D01*
X0044710Y0124689D01*
X0045415Y0124689D01*
X0046066Y0124958D01*
X0046564Y0125457D01*
X0046834Y0126108D01*
X0046834Y0126813D01*
X0046564Y0127464D01*
X0046066Y0127962D01*
X0045415Y0128232D01*
D02*
G37*
G36*
X0113246Y0126477D02*
X0112541Y0126477D01*
X0111890Y0126207D01*
X0111392Y0125709D01*
X0111122Y0125057D01*
X0111122Y0124353D01*
X0111392Y0123702D01*
X0111890Y0123203D01*
X0112541Y0122933D01*
X0113246Y0122933D01*
X0113897Y0123203D01*
X0114396Y0123702D01*
X0114666Y0124353D01*
X0114666Y0125057D01*
X0114396Y0125709D01*
X0113897Y0126207D01*
X0113246Y0126477D01*
D02*
G37*
G36*
X0117577Y0126231D02*
X0116872Y0126231D01*
X0116221Y0125961D01*
X0115723Y0125463D01*
X0115453Y0124811D01*
X0115453Y0124107D01*
X0115723Y0123455D01*
X0116221Y0122957D01*
X0116872Y0122687D01*
X0117577Y0122687D01*
X0118228Y0122957D01*
X0118726Y0123455D01*
X0118996Y0124107D01*
X0118996Y0124811D01*
X0118726Y0125463D01*
X0118228Y0125961D01*
X0117577Y0126231D01*
D02*
G37*
G36*
X0068619Y0125698D02*
X0067914Y0125698D01*
X0067263Y0125428D01*
X0066764Y0124930D01*
X0066495Y0124278D01*
X0066495Y0123574D01*
X0066586Y0123353D01*
X0066475Y0123121D01*
X0066029Y0122641D01*
X0065542Y0122641D01*
X0065151Y0122479D01*
X0065084Y0122528D01*
X0064626Y0123115D01*
X0064813Y0123565D01*
X0064813Y0124270D01*
X0064543Y0124921D01*
X0064045Y0125419D01*
X0063394Y0125689D01*
X0062689Y0125689D01*
X0062038Y0125419D01*
X0061540Y0124921D01*
X0061270Y0124270D01*
X0061270Y0123565D01*
X0061540Y0122914D01*
X0061963Y0122491D01*
X0061540Y0122067D01*
X0061270Y0121416D01*
X0061270Y0120711D01*
X0061540Y0120060D01*
X0062038Y0119561D01*
X0062689Y0119292D01*
X0063394Y0119292D01*
X0064045Y0119561D01*
X0064882Y0119376D01*
X0064890Y0119368D01*
X0065531Y0119103D01*
X0065558Y0119090D01*
X0066240Y0118758D01*
X0066240Y0118053D01*
X0066510Y0117402D01*
X0066557Y0117356D01*
X0066372Y0116427D01*
X0066221Y0116365D01*
X0065723Y0115866D01*
X0065453Y0115215D01*
X0065453Y0114510D01*
X0065723Y0113859D01*
X0066221Y0113361D01*
X0066872Y0113091D01*
X0067577Y0113091D01*
X0068228Y0113361D01*
X0068726Y0113859D01*
X0068996Y0114510D01*
X0068996Y0115215D01*
X0068726Y0115866D01*
X0068680Y0115913D01*
X0068865Y0116841D01*
X0069015Y0116904D01*
X0069514Y0117402D01*
X0069784Y0118053D01*
X0069784Y0118758D01*
X0069514Y0119409D01*
X0069015Y0119908D01*
X0068375Y0120173D01*
X0068348Y0120186D01*
X0067666Y0120517D01*
X0067666Y0121222D01*
X0067574Y0121443D01*
X0067685Y0121675D01*
X0068132Y0122154D01*
X0068619Y0122154D01*
X0069270Y0122424D01*
X0069768Y0122922D01*
X0070038Y0123574D01*
X0070038Y0124278D01*
X0069768Y0124930D01*
X0069270Y0125428D01*
X0068619Y0125698D01*
D02*
G37*
G36*
X0093561Y0121359D02*
X0092856Y0121359D01*
X0092205Y0121089D01*
X0091707Y0120590D01*
X0090922Y0120754D01*
X0090412Y0120965D01*
X0089707Y0120965D01*
X0089056Y0120695D01*
X0088557Y0120197D01*
X0088287Y0119546D01*
X0088287Y0118841D01*
X0088557Y0118190D01*
X0089056Y0117691D01*
X0089707Y0117422D01*
X0090412Y0117422D01*
X0091063Y0117691D01*
X0091561Y0118190D01*
X0092346Y0118027D01*
X0092856Y0117815D01*
X0093561Y0117815D01*
X0094212Y0118085D01*
X0094711Y0118583D01*
X0094980Y0119235D01*
X0094980Y0119939D01*
X0094711Y0120590D01*
X0094212Y0121089D01*
X0093561Y0121359D01*
D02*
G37*
G36*
X0053108Y0123329D02*
X0052404Y0123329D01*
X0051752Y0123059D01*
X0051254Y0122561D01*
X0050984Y0121910D01*
X0050984Y0121205D01*
X0051254Y0120554D01*
X0051752Y0120056D01*
X0052404Y0119786D01*
X0053108Y0119786D01*
X0053760Y0120056D01*
X0054258Y0120554D01*
X0054528Y0121205D01*
X0054528Y0121910D01*
X0054258Y0122561D01*
X0053760Y0123059D01*
X0053108Y0123329D01*
D02*
G37*
G36*
X0163577Y0127609D02*
X0162872Y0127609D01*
X0162221Y0127339D01*
X0161723Y0126841D01*
X0161453Y0126190D01*
X0161453Y0125485D01*
X0161723Y0124834D01*
X0162221Y0124335D01*
X0162872Y0124065D01*
X0163577Y0124065D01*
X0164228Y0124335D01*
X0164642Y0124749D01*
X0165132Y0124760D01*
X0165519Y0124689D01*
X0165561Y0124587D01*
X0166060Y0124089D01*
X0166711Y0123819D01*
X0167416Y0123819D01*
X0167567Y0123092D01*
X0167008Y0122861D01*
X0166510Y0122362D01*
X0166240Y0121711D01*
X0166240Y0121006D01*
X0166510Y0120355D01*
X0167008Y0119857D01*
X0167660Y0119587D01*
X0168364Y0119587D01*
X0169015Y0119857D01*
X0169514Y0120355D01*
X0169784Y0121006D01*
X0169784Y0121711D01*
X0169805Y0121743D01*
X0170234Y0121743D01*
X0170885Y0122013D01*
X0171384Y0122511D01*
X0171654Y0123163D01*
X0171654Y0123867D01*
X0171384Y0124519D01*
X0170885Y0125017D01*
X0170234Y0125287D01*
X0169530Y0125287D01*
X0168835Y0125851D01*
X0168835Y0125943D01*
X0168565Y0126594D01*
X0168067Y0127093D01*
X0167416Y0127363D01*
X0166711Y0127363D01*
X0166060Y0127093D01*
X0165646Y0126679D01*
X0165156Y0126668D01*
X0164769Y0126739D01*
X0164727Y0126841D01*
X0164228Y0127339D01*
X0163577Y0127609D01*
D02*
G37*
G36*
X0045768Y0122435D02*
X0045063Y0122435D01*
X0044412Y0122166D01*
X0043913Y0121667D01*
X0043644Y0121016D01*
X0043644Y0120311D01*
X0043913Y0119660D01*
X0044412Y0119162D01*
X0045063Y0118892D01*
X0045768Y0118892D01*
X0046419Y0119162D01*
X0046917Y0119660D01*
X0047187Y0120311D01*
X0047187Y0121016D01*
X0046917Y0121667D01*
X0046419Y0122166D01*
X0045768Y0122435D01*
D02*
G37*
G36*
X0149860Y0123327D02*
X0149156Y0123327D01*
X0148504Y0123057D01*
X0148006Y0122559D01*
X0147736Y0121908D01*
X0147736Y0121203D01*
X0148006Y0120552D01*
X0148504Y0120053D01*
X0149156Y0119784D01*
X0149629Y0119784D01*
X0150008Y0119089D01*
X0150015Y0119056D01*
X0149975Y0119016D01*
X0149705Y0118365D01*
X0149705Y0117660D01*
X0149975Y0117009D01*
X0150473Y0116510D01*
X0151124Y0116241D01*
X0151829Y0116241D01*
X0152480Y0116510D01*
X0152978Y0117009D01*
X0153248Y0117660D01*
X0153248Y0118365D01*
X0152978Y0119016D01*
X0152480Y0119514D01*
X0151829Y0119784D01*
X0151355Y0119784D01*
X0150976Y0120478D01*
X0150969Y0120511D01*
X0151010Y0120552D01*
X0151280Y0121203D01*
X0151280Y0121908D01*
X0151010Y0122559D01*
X0150511Y0123057D01*
X0149860Y0123327D01*
D02*
G37*
G36*
X0024110Y0119632D02*
X0023405Y0119632D01*
X0022754Y0119362D01*
X0022255Y0118864D01*
X0021986Y0118213D01*
X0021986Y0117508D01*
X0022255Y0116857D01*
X0022754Y0116359D01*
X0023405Y0116089D01*
X0024110Y0116089D01*
X0024761Y0116359D01*
X0025259Y0116857D01*
X0025529Y0117508D01*
X0025529Y0118213D01*
X0025259Y0118864D01*
X0024761Y0119362D01*
X0024110Y0119632D01*
D02*
G37*
G36*
X0133325Y0115453D02*
X0132620Y0115453D01*
X0131969Y0115183D01*
X0131912Y0115127D01*
X0131398Y0114740D01*
X0130883Y0115127D01*
X0130827Y0115183D01*
X0130175Y0115453D01*
X0129470Y0115453D01*
X0128819Y0115183D01*
X0128321Y0114685D01*
X0128051Y0114034D01*
X0128051Y0113329D01*
X0128321Y0112678D01*
X0128819Y0112180D01*
X0129470Y0111910D01*
X0130175Y0111910D01*
X0130827Y0112180D01*
X0130883Y0112236D01*
X0131398Y0112623D01*
X0131912Y0112236D01*
X0131969Y0112180D01*
X0132620Y0111910D01*
X0133325Y0111910D01*
X0133976Y0112180D01*
X0134474Y0112678D01*
X0134744Y0113329D01*
X0134744Y0114034D01*
X0134474Y0114685D01*
X0133976Y0115183D01*
X0133325Y0115453D01*
D02*
G37*
G36*
X0121605Y0115563D02*
X0120900Y0115563D01*
X0120249Y0115294D01*
X0119751Y0114795D01*
X0119481Y0114144D01*
X0119481Y0113809D01*
X0119398Y0113753D01*
X0118693Y0113753D01*
X0118602Y0113814D01*
X0118602Y0114144D01*
X0118333Y0114795D01*
X0117834Y0115294D01*
X0117183Y0115563D01*
X0116478Y0115563D01*
X0115827Y0115294D01*
X0115329Y0114795D01*
X0115059Y0114144D01*
X0115059Y0113439D01*
X0115329Y0112788D01*
X0115827Y0112290D01*
X0116478Y0112020D01*
X0117183Y0112020D01*
X0117274Y0111960D01*
X0117274Y0111629D01*
X0117544Y0110978D01*
X0118042Y0110480D01*
X0118693Y0110210D01*
X0119398Y0110210D01*
X0120049Y0110480D01*
X0120547Y0110978D01*
X0121377Y0110924D01*
X0121530Y0110556D01*
X0122028Y0110058D01*
X0122679Y0109788D01*
X0123384Y0109788D01*
X0124035Y0110058D01*
X0124534Y0110556D01*
X0124803Y0111207D01*
X0124803Y0111912D01*
X0124534Y0112563D01*
X0124035Y0113062D01*
X0123384Y0113331D01*
X0123326Y0113331D01*
X0123024Y0113439D01*
X0123024Y0114144D01*
X0122754Y0114795D01*
X0122256Y0115294D01*
X0121605Y0115563D01*
D02*
G37*
G36*
X0061671Y0116831D02*
X0060967Y0116831D01*
X0060315Y0116561D01*
X0059817Y0116063D01*
X0059547Y0115412D01*
X0059547Y0114707D01*
X0059817Y0114056D01*
X0060315Y0113557D01*
X0060967Y0113288D01*
X0061671Y0113288D01*
X0062323Y0113557D01*
X0062821Y0114056D01*
X0063091Y0114707D01*
X0063091Y0115412D01*
X0062821Y0116063D01*
X0062323Y0116561D01*
X0061671Y0116831D01*
D02*
G37*
G36*
X0053108Y0116241D02*
X0052404Y0116241D01*
X0051752Y0115971D01*
X0051254Y0115472D01*
X0050984Y0114821D01*
X0050984Y0114116D01*
X0051254Y0113465D01*
X0051752Y0112967D01*
X0052404Y0112697D01*
X0053108Y0112697D01*
X0053760Y0112967D01*
X0054258Y0113465D01*
X0054528Y0114116D01*
X0054528Y0114821D01*
X0054258Y0115472D01*
X0053760Y0115971D01*
X0053108Y0116241D01*
D02*
G37*
G36*
X0087620Y0115990D02*
X0086915Y0115990D01*
X0086264Y0115721D01*
X0085765Y0115222D01*
X0085495Y0114571D01*
X0085495Y0113866D01*
X0085765Y0113215D01*
X0086264Y0112717D01*
X0086915Y0112447D01*
X0087620Y0112447D01*
X0088271Y0112717D01*
X0088769Y0113215D01*
X0089039Y0113866D01*
X0089039Y0114571D01*
X0088769Y0115222D01*
X0088271Y0115721D01*
X0087620Y0115990D01*
D02*
G37*
G36*
X0168738Y0115473D02*
X0168033Y0115473D01*
X0167382Y0115204D01*
X0166883Y0114705D01*
X0166614Y0114054D01*
X0166614Y0113349D01*
X0166883Y0112698D01*
X0167382Y0112200D01*
X0168033Y0111930D01*
X0168738Y0111930D01*
X0169389Y0112200D01*
X0169887Y0112698D01*
X0170157Y0113349D01*
X0170157Y0114054D01*
X0169887Y0114705D01*
X0169389Y0115204D01*
X0168738Y0115473D01*
D02*
G37*
G36*
X0045530Y0117815D02*
X0044825Y0117815D01*
X0044174Y0117545D01*
X0043675Y0117047D01*
X0043406Y0116396D01*
X0043406Y0115691D01*
X0043675Y0115040D01*
X0044174Y0114542D01*
X0044208Y0113675D01*
X0044193Y0113640D01*
X0044193Y0112935D01*
X0044463Y0112284D01*
X0044961Y0111786D01*
X0045612Y0111516D01*
X0046317Y0111516D01*
X0046968Y0111786D01*
X0047467Y0112284D01*
X0047736Y0112935D01*
X0047736Y0113640D01*
X0047467Y0114291D01*
X0046968Y0114790D01*
X0046934Y0115656D01*
X0046949Y0115691D01*
X0046949Y0116396D01*
X0046679Y0117047D01*
X0046181Y0117545D01*
X0045530Y0117815D01*
D02*
G37*
G36*
X0112065Y0114382D02*
X0111360Y0114382D01*
X0110709Y0114112D01*
X0110211Y0113614D01*
X0109941Y0112963D01*
X0109941Y0112258D01*
X0110211Y0111607D01*
X0110709Y0111109D01*
X0111360Y0110839D01*
X0112065Y0110839D01*
X0112716Y0111109D01*
X0113215Y0111607D01*
X0113484Y0112258D01*
X0113484Y0112963D01*
X0113215Y0113614D01*
X0112716Y0114112D01*
X0112065Y0114382D01*
D02*
G37*
G36*
X0076902Y0119011D02*
X0076197Y0119011D01*
X0075546Y0118742D01*
X0075047Y0118243D01*
X0074778Y0117592D01*
X0074778Y0116887D01*
X0075047Y0116236D01*
X0075546Y0115738D01*
X0076197Y0115468D01*
X0076902Y0115468D01*
X0077433Y0114836D01*
X0077264Y0114428D01*
X0077264Y0113723D01*
X0077534Y0113072D01*
X0077638Y0112968D01*
X0077311Y0112180D01*
X0077067Y0112180D01*
X0076415Y0111910D01*
X0075917Y0111412D01*
X0075647Y0110761D01*
X0075647Y0110056D01*
X0075917Y0109405D01*
X0076415Y0108907D01*
X0076707Y0108786D01*
X0076769Y0108760D01*
X0076612Y0107973D01*
X0076557Y0107973D01*
X0076321Y0107973D01*
X0075670Y0107703D01*
X0075171Y0107205D01*
X0074902Y0106554D01*
X0074902Y0105849D01*
X0075171Y0105198D01*
X0075670Y0104699D01*
X0076321Y0104430D01*
X0077026Y0104430D01*
X0077677Y0104699D01*
X0078175Y0105198D01*
X0078445Y0105849D01*
X0078445Y0106554D01*
X0078175Y0107205D01*
X0077677Y0107703D01*
X0077385Y0107824D01*
X0077324Y0107849D01*
X0077480Y0108637D01*
X0077535Y0108637D01*
X0077771Y0108637D01*
X0078423Y0108907D01*
X0078921Y0109405D01*
X0079156Y0109972D01*
X0079245Y0109990D01*
X0079896Y0109720D01*
X0080601Y0109720D01*
X0080997Y0109032D01*
X0081077Y0108839D01*
X0081575Y0108341D01*
X0082226Y0108071D01*
X0082931Y0108071D01*
X0083582Y0108341D01*
X0084081Y0108839D01*
X0084351Y0109490D01*
X0084351Y0110195D01*
X0084081Y0110846D01*
X0083582Y0111345D01*
X0082931Y0111615D01*
X0082226Y0111615D01*
X0081830Y0112303D01*
X0081751Y0112495D01*
X0081252Y0112993D01*
X0080615Y0113258D01*
X0080807Y0113723D01*
X0080807Y0114428D01*
X0080537Y0115079D01*
X0080039Y0115577D01*
X0079388Y0115847D01*
X0078683Y0115847D01*
X0078152Y0116479D01*
X0078321Y0116887D01*
X0078321Y0117592D01*
X0078051Y0118243D01*
X0077553Y0118742D01*
X0076902Y0119011D01*
D02*
G37*
G36*
X0153011Y0111123D02*
X0152306Y0111123D01*
X0151655Y0110853D01*
X0151156Y0110355D01*
X0150886Y0109704D01*
X0150886Y0108999D01*
X0151156Y0108348D01*
X0151655Y0107849D01*
X0152306Y0107580D01*
X0153011Y0107580D01*
X0153662Y0107849D01*
X0154160Y0108348D01*
X0154430Y0108999D01*
X0154430Y0109704D01*
X0154160Y0110355D01*
X0153662Y0110853D01*
X0153011Y0111123D01*
D02*
G37*
G36*
X0144035Y0105959D02*
X0143331Y0105959D01*
X0142679Y0105689D01*
X0142181Y0105191D01*
X0141911Y0104539D01*
X0141911Y0103835D01*
X0142181Y0103183D01*
X0142679Y0102685D01*
X0143331Y0102415D01*
X0144035Y0102415D01*
X0144687Y0102685D01*
X0145185Y0103183D01*
X0145455Y0103835D01*
X0145455Y0104539D01*
X0145185Y0105191D01*
X0144687Y0105689D01*
X0144035Y0105959D01*
D02*
G37*
G36*
X0052889Y0105414D02*
X0052184Y0105414D01*
X0051533Y0105144D01*
X0051034Y0104646D01*
X0050764Y0103994D01*
X0050764Y0103290D01*
X0051034Y0102639D01*
X0051533Y0102140D01*
X0052184Y0101870D01*
X0052889Y0101870D01*
X0053540Y0102140D01*
X0054038Y0102639D01*
X0054308Y0103290D01*
X0054308Y0103994D01*
X0054038Y0104646D01*
X0053540Y0105144D01*
X0052889Y0105414D01*
D02*
G37*
G36*
X0170923Y0104922D02*
X0170219Y0104922D01*
X0169567Y0104652D01*
X0169069Y0104153D01*
X0168799Y0103502D01*
X0168799Y0102797D01*
X0169069Y0102146D01*
X0169567Y0101648D01*
X0170219Y0101378D01*
X0170923Y0101378D01*
X0171575Y0101648D01*
X0172073Y0102146D01*
X0172343Y0102797D01*
X0172343Y0103502D01*
X0172073Y0104153D01*
X0171575Y0104652D01*
X0170923Y0104922D01*
D02*
G37*
G36*
X0136894Y0104869D02*
X0136189Y0104869D01*
X0135538Y0104599D01*
X0135039Y0104101D01*
X0134770Y0103450D01*
X0134770Y0102745D01*
X0135039Y0102094D01*
X0135538Y0101595D01*
X0136189Y0101326D01*
X0136894Y0101326D01*
X0137545Y0101595D01*
X0138043Y0102094D01*
X0138313Y0102745D01*
X0138313Y0103450D01*
X0138043Y0104101D01*
X0137545Y0104599D01*
X0136894Y0104869D01*
D02*
G37*
G36*
X0134112Y0100099D02*
X0133408Y0100099D01*
X0132756Y0099829D01*
X0132258Y0099331D01*
X0132218Y0099233D01*
X0131365Y0099233D01*
X0131325Y0099331D01*
X0130827Y0099829D01*
X0130175Y0100099D01*
X0129470Y0100099D01*
X0128819Y0099829D01*
X0128321Y0099331D01*
X0128051Y0098680D01*
X0128051Y0097975D01*
X0128321Y0097324D01*
X0128819Y0096825D01*
X0129470Y0096556D01*
X0130175Y0096556D01*
X0130827Y0096825D01*
X0131325Y0097324D01*
X0131365Y0097421D01*
X0132218Y0097421D01*
X0132258Y0097324D01*
X0132756Y0096825D01*
X0133408Y0096556D01*
X0134112Y0096556D01*
X0134763Y0096825D01*
X0135262Y0097324D01*
X0135532Y0097975D01*
X0135532Y0098680D01*
X0135262Y0099331D01*
X0134763Y0099829D01*
X0134112Y0100099D01*
D02*
G37*
G36*
X0044742Y0102461D02*
X0044038Y0102461D01*
X0043386Y0102191D01*
X0042888Y0101693D01*
X0042618Y0101042D01*
X0042618Y0100337D01*
X0042888Y0099686D01*
X0043386Y0099187D01*
X0044038Y0098918D01*
X0044742Y0098918D01*
X0045393Y0099187D01*
X0045892Y0099686D01*
X0046162Y0100337D01*
X0046162Y0101042D01*
X0045892Y0101693D01*
X0045393Y0102191D01*
X0044742Y0102461D01*
D02*
G37*
G36*
X0121908Y0101673D02*
X0121203Y0101673D01*
X0120552Y0101404D01*
X0120053Y0100905D01*
X0119784Y0100254D01*
X0119784Y0099549D01*
X0120053Y0098898D01*
X0120552Y0098400D01*
X0121203Y0098130D01*
X0121908Y0098130D01*
X0122559Y0098400D01*
X0123057Y0098898D01*
X0123327Y0099549D01*
X0123327Y0100254D01*
X0123057Y0100905D01*
X0122559Y0101404D01*
X0121908Y0101673D01*
D02*
G37*
G36*
X0069152Y0101673D02*
X0068447Y0101673D01*
X0067796Y0101404D01*
X0067297Y0100905D01*
X0067028Y0100254D01*
X0067028Y0099549D01*
X0067297Y0098898D01*
X0067796Y0098400D01*
X0068447Y0098130D01*
X0069152Y0098130D01*
X0069803Y0098400D01*
X0070301Y0098898D01*
X0070571Y0099549D01*
X0070571Y0100254D01*
X0070301Y0100905D01*
X0069803Y0101404D01*
X0069152Y0101673D01*
D02*
G37*
G36*
X0153217Y0101280D02*
X0152512Y0101280D01*
X0151861Y0101010D01*
X0151362Y0100512D01*
X0151093Y0099861D01*
X0151093Y0099156D01*
X0151362Y0098505D01*
X0151751Y0098116D01*
X0151703Y0097711D01*
X0151488Y0097310D01*
X0151064Y0097281D01*
X0150589Y0097869D01*
X0150511Y0098058D01*
X0150013Y0098556D01*
X0149361Y0098826D01*
X0148657Y0098826D01*
X0148006Y0098556D01*
X0147507Y0098058D01*
X0147237Y0097407D01*
X0147237Y0096702D01*
X0147507Y0096051D01*
X0148006Y0095552D01*
X0148657Y0095283D01*
X0149361Y0095283D01*
X0149877Y0094644D01*
X0149956Y0094455D01*
X0150454Y0093957D01*
X0150394Y0093129D01*
X0150292Y0093087D01*
X0149794Y0092588D01*
X0149524Y0091937D01*
X0149524Y0091232D01*
X0149794Y0090581D01*
X0150292Y0090083D01*
X0150943Y0089813D01*
X0151648Y0089813D01*
X0152299Y0090083D01*
X0152797Y0090581D01*
X0153067Y0091232D01*
X0153067Y0091937D01*
X0152797Y0092588D01*
X0152299Y0093087D01*
X0152359Y0093914D01*
X0152461Y0093957D01*
X0152959Y0094455D01*
X0153229Y0095106D01*
X0153229Y0095811D01*
X0152959Y0096462D01*
X0152490Y0096931D01*
X0152462Y0096960D01*
X0152461Y0096960D01*
X0152421Y0096987D01*
X0152546Y0097736D01*
X0152735Y0097736D01*
X0153217Y0097736D01*
X0153868Y0098006D01*
X0154366Y0098505D01*
X0154636Y0099156D01*
X0154636Y0099861D01*
X0154366Y0100512D01*
X0153868Y0101010D01*
X0153217Y0101280D01*
D02*
G37*
G36*
X0059538Y0096997D02*
X0058834Y0096997D01*
X0058182Y0096727D01*
X0057684Y0096229D01*
X0057414Y0095578D01*
X0057414Y0094873D01*
X0057684Y0094222D01*
X0058182Y0093724D01*
X0058834Y0093454D01*
X0059538Y0093454D01*
X0060190Y0093724D01*
X0060688Y0094222D01*
X0060958Y0094873D01*
X0060958Y0095578D01*
X0060688Y0096229D01*
X0060190Y0096727D01*
X0059538Y0096997D01*
D02*
G37*
G36*
X0096629Y0095808D02*
X0095924Y0095808D01*
X0095273Y0095539D01*
X0094775Y0095040D01*
X0094505Y0094389D01*
X0094505Y0093684D01*
X0094775Y0093033D01*
X0095273Y0092535D01*
X0095924Y0092265D01*
X0096629Y0092265D01*
X0097281Y0092535D01*
X0097779Y0093033D01*
X0098049Y0093684D01*
X0098049Y0094389D01*
X0097779Y0095040D01*
X0097281Y0095539D01*
X0096629Y0095808D01*
D02*
G37*
G36*
X0099270Y0099410D02*
X0098565Y0099410D01*
X0097914Y0099140D01*
X0097416Y0098642D01*
X0097146Y0097991D01*
X0097146Y0097286D01*
X0097416Y0096635D01*
X0097914Y0096136D01*
X0098565Y0095866D01*
X0099270Y0095866D01*
X0099430Y0095933D01*
X0099875Y0095265D01*
X0099610Y0095000D01*
X0099341Y0094349D01*
X0099341Y0093644D01*
X0099610Y0092993D01*
X0100109Y0092495D01*
X0100760Y0092225D01*
X0101465Y0092225D01*
X0102116Y0092495D01*
X0102614Y0092993D01*
X0102884Y0093644D01*
X0102884Y0094349D01*
X0102614Y0095000D01*
X0102116Y0095498D01*
X0101465Y0095768D01*
X0100760Y0095768D01*
X0100600Y0095702D01*
X0100154Y0096370D01*
X0100419Y0096635D01*
X0100689Y0097286D01*
X0100689Y0097991D01*
X0100419Y0098642D01*
X0099921Y0099140D01*
X0099270Y0099410D01*
D02*
G37*
G36*
X0066790Y0095768D02*
X0066085Y0095768D01*
X0065434Y0095498D01*
X0064935Y0095000D01*
X0064666Y0094349D01*
X0064666Y0093644D01*
X0064935Y0092993D01*
X0065434Y0092495D01*
X0066085Y0092225D01*
X0066790Y0092225D01*
X0067441Y0092495D01*
X0067939Y0092993D01*
X0068209Y0093644D01*
X0068209Y0094349D01*
X0067939Y0095000D01*
X0067441Y0095498D01*
X0066790Y0095768D01*
D02*
G37*
G36*
X0142672Y0098381D02*
X0141967Y0098381D01*
X0141316Y0098111D01*
X0140818Y0097613D01*
X0140548Y0096962D01*
X0140548Y0096257D01*
X0140818Y0095606D01*
X0141316Y0095108D01*
X0141352Y0094907D01*
X0141349Y0094242D01*
X0140956Y0093848D01*
X0140686Y0093197D01*
X0140686Y0092492D01*
X0140956Y0091841D01*
X0141454Y0091343D01*
X0142105Y0091073D01*
X0142810Y0091073D01*
X0143461Y0091343D01*
X0143959Y0091841D01*
X0144229Y0092492D01*
X0144229Y0093197D01*
X0143959Y0093848D01*
X0143461Y0094346D01*
X0143425Y0094547D01*
X0143428Y0095212D01*
X0143822Y0095606D01*
X0144091Y0096257D01*
X0144091Y0096962D01*
X0143822Y0097613D01*
X0143323Y0098111D01*
X0142672Y0098381D01*
D02*
G37*
G36*
X0132144Y0093800D02*
X0131439Y0093800D01*
X0130788Y0093530D01*
X0130290Y0093031D01*
X0130020Y0092380D01*
X0130020Y0091675D01*
X0130290Y0091024D01*
X0130788Y0090526D01*
X0131439Y0090256D01*
X0132144Y0090256D01*
X0132795Y0090526D01*
X0133293Y0091024D01*
X0133563Y0091675D01*
X0133563Y0092380D01*
X0133293Y0093031D01*
X0132795Y0093530D01*
X0132144Y0093800D01*
D02*
G37*
G36*
X0110388Y0092838D02*
X0109683Y0092838D01*
X0109032Y0092568D01*
X0108533Y0092070D01*
X0108264Y0091419D01*
X0108264Y0090714D01*
X0108533Y0090063D01*
X0109032Y0089564D01*
X0109683Y0089295D01*
X0110388Y0089295D01*
X0111039Y0089564D01*
X0111537Y0090063D01*
X0111807Y0090714D01*
X0111807Y0091419D01*
X0111537Y0092070D01*
X0111039Y0092568D01*
X0110388Y0092838D01*
D02*
G37*
G36*
X0079388Y0096162D02*
X0078683Y0096162D01*
X0078032Y0095892D01*
X0077534Y0095394D01*
X0077264Y0094743D01*
X0077264Y0094038D01*
X0077485Y0093504D01*
X0077299Y0093032D01*
X0077090Y0092717D01*
X0076813Y0092717D01*
X0076162Y0092447D01*
X0075664Y0091949D01*
X0075394Y0091298D01*
X0075394Y0090593D01*
X0075664Y0089942D01*
X0076162Y0089443D01*
X0076813Y0089173D01*
X0077518Y0089173D01*
X0078169Y0089443D01*
X0078667Y0089942D01*
X0078937Y0090593D01*
X0078937Y0091298D01*
X0078716Y0091831D01*
X0078902Y0092303D01*
X0079111Y0092619D01*
X0079388Y0092619D01*
X0080039Y0092888D01*
X0080537Y0093387D01*
X0080807Y0094038D01*
X0080807Y0094743D01*
X0080537Y0095394D01*
X0080039Y0095892D01*
X0079388Y0096162D01*
D02*
G37*
G36*
X0092380Y0088681D02*
X0091675Y0088681D01*
X0091024Y0088412D01*
X0090780Y0088168D01*
X0090437Y0087941D01*
X0089771Y0088148D01*
X0089662Y0088257D01*
X0089011Y0088527D01*
X0088306Y0088527D01*
X0087655Y0088257D01*
X0087156Y0087759D01*
X0086954Y0087270D01*
X0086362Y0087166D01*
X0086134Y0087192D01*
X0086080Y0087323D01*
X0085581Y0087821D01*
X0084930Y0088091D01*
X0084225Y0088091D01*
X0083574Y0087821D01*
X0083076Y0087323D01*
X0082806Y0086672D01*
X0082806Y0085967D01*
X0083076Y0085316D01*
X0083574Y0084817D01*
X0084225Y0084547D01*
X0084930Y0084547D01*
X0085581Y0084817D01*
X0086080Y0085316D01*
X0086282Y0085805D01*
X0086874Y0085908D01*
X0087102Y0085883D01*
X0087156Y0085752D01*
X0087655Y0085254D01*
X0087551Y0084444D01*
X0087499Y0084320D01*
X0087499Y0083615D01*
X0087769Y0082964D01*
X0088267Y0082466D01*
X0088918Y0082196D01*
X0089623Y0082196D01*
X0090274Y0082466D01*
X0090773Y0082964D01*
X0091042Y0083615D01*
X0091042Y0084320D01*
X0090928Y0084595D01*
X0091531Y0085198D01*
X0091675Y0085138D01*
X0092380Y0085138D01*
X0093031Y0085408D01*
X0093530Y0085906D01*
X0093799Y0086557D01*
X0093799Y0087262D01*
X0093530Y0087913D01*
X0093031Y0088412D01*
X0092380Y0088681D01*
D02*
G37*
G36*
X0044742Y0096949D02*
X0044038Y0096949D01*
X0043386Y0096679D01*
X0042888Y0096181D01*
X0042618Y0095530D01*
X0042618Y0094825D01*
X0042888Y0094174D01*
X0043312Y0093750D01*
X0042888Y0093327D01*
X0042618Y0092676D01*
X0042618Y0091971D01*
X0042888Y0091320D01*
X0043239Y0090969D01*
X0043219Y0090325D01*
X0043134Y0090073D01*
X0042924Y0089986D01*
X0042426Y0089488D01*
X0042156Y0088837D01*
X0042156Y0088132D01*
X0042426Y0087481D01*
X0042924Y0086983D01*
X0043575Y0086713D01*
X0044280Y0086713D01*
X0044931Y0086983D01*
X0045430Y0087481D01*
X0045699Y0088132D01*
X0045699Y0088837D01*
X0045430Y0089488D01*
X0045079Y0089839D01*
X0045099Y0090482D01*
X0045184Y0090734D01*
X0045393Y0090821D01*
X0045892Y0091320D01*
X0046162Y0091971D01*
X0046162Y0092676D01*
X0045892Y0093327D01*
X0045468Y0093750D01*
X0045892Y0094174D01*
X0046162Y0094825D01*
X0046162Y0095530D01*
X0045892Y0096181D01*
X0045393Y0096679D01*
X0044742Y0096949D01*
D02*
G37*
G36*
X0103207Y0089666D02*
X0102502Y0089666D01*
X0101851Y0089396D01*
X0101353Y0088898D01*
X0101083Y0088246D01*
X0101083Y0087542D01*
X0101353Y0086890D01*
X0101851Y0086392D01*
X0102502Y0086122D01*
X0103207Y0086122D01*
X0103858Y0086392D01*
X0104356Y0086890D01*
X0104626Y0087542D01*
X0104626Y0088246D01*
X0104356Y0088898D01*
X0103858Y0089396D01*
X0103207Y0089666D01*
D02*
G37*
G36*
X0136081Y0086713D02*
X0135376Y0086713D01*
X0134725Y0086443D01*
X0134614Y0086333D01*
X0134208Y0085956D01*
X0133585Y0086333D01*
X0133582Y0086336D01*
X0132931Y0086606D01*
X0132226Y0086606D01*
X0131575Y0086336D01*
X0131077Y0085837D01*
X0130807Y0085186D01*
X0130807Y0084481D01*
X0131077Y0083830D01*
X0131575Y0083332D01*
X0132226Y0083062D01*
X0132931Y0083062D01*
X0133582Y0083332D01*
X0133693Y0083442D01*
X0134099Y0083819D01*
X0134722Y0083442D01*
X0134725Y0083439D01*
X0135376Y0083170D01*
X0136081Y0083170D01*
X0136732Y0083439D01*
X0137230Y0083938D01*
X0137500Y0084589D01*
X0137500Y0085294D01*
X0137230Y0085945D01*
X0136732Y0086443D01*
X0136081Y0086713D01*
D02*
G37*
G36*
X0144941Y0089191D02*
X0144236Y0089191D01*
X0143585Y0088921D01*
X0143087Y0088422D01*
X0142817Y0087771D01*
X0142817Y0087067D01*
X0143087Y0086415D01*
X0143585Y0085917D01*
X0144236Y0085647D01*
X0144831Y0085647D01*
X0145170Y0085327D01*
X0145411Y0084990D01*
X0145374Y0084900D01*
X0145374Y0084195D01*
X0145644Y0083544D01*
X0146142Y0083046D01*
X0146793Y0082776D01*
X0147498Y0082776D01*
X0147572Y0082806D01*
X0147898Y0082589D01*
X0148167Y0081938D01*
X0148666Y0081439D01*
X0149317Y0081170D01*
X0150022Y0081170D01*
X0150282Y0081277D01*
X0150728Y0080610D01*
X0150452Y0080334D01*
X0150089Y0079706D01*
X0149902Y0079005D01*
X0149902Y0078279D01*
X0150089Y0077578D01*
X0150452Y0076950D01*
X0150965Y0076437D01*
X0151594Y0076074D01*
X0152295Y0075886D01*
X0153020Y0075886D01*
X0153721Y0076074D01*
X0154350Y0076437D01*
X0154863Y0076950D01*
X0155226Y0077578D01*
X0155414Y0078279D01*
X0155414Y0079005D01*
X0155226Y0079706D01*
X0154863Y0080334D01*
X0154350Y0080847D01*
X0153721Y0081210D01*
X0153020Y0081398D01*
X0152295Y0081398D01*
X0151594Y0081210D01*
X0151507Y0081160D01*
X0151024Y0081790D01*
X0151171Y0081938D01*
X0151441Y0082589D01*
X0151441Y0083294D01*
X0151171Y0083945D01*
X0150673Y0084443D01*
X0150022Y0084713D01*
X0149317Y0084713D01*
X0149243Y0084682D01*
X0148917Y0084900D01*
X0148648Y0085551D01*
X0148676Y0085694D01*
X0148937Y0085802D01*
X0149339Y0086204D01*
X0149864Y0086210D01*
X0150219Y0086136D01*
X0150324Y0085884D01*
X0150822Y0085386D01*
X0151473Y0085116D01*
X0152178Y0085116D01*
X0152829Y0085386D01*
X0153327Y0085884D01*
X0153597Y0086535D01*
X0153597Y0087240D01*
X0153327Y0087891D01*
X0152829Y0088389D01*
X0152178Y0088659D01*
X0151473Y0088659D01*
X0150822Y0088389D01*
X0150420Y0087987D01*
X0149894Y0087981D01*
X0149539Y0088055D01*
X0149435Y0088307D01*
X0148937Y0088805D01*
X0148286Y0089075D01*
X0147581Y0089075D01*
X0146930Y0088805D01*
X0146827Y0088703D01*
X0146191Y0088461D01*
X0145804Y0088709D01*
X0145592Y0088921D01*
X0144941Y0089191D01*
D02*
G37*
G36*
X0158128Y0087894D02*
X0157423Y0087894D01*
X0156772Y0087624D01*
X0156274Y0087126D01*
X0156004Y0086475D01*
X0156004Y0085770D01*
X0156274Y0085119D01*
X0156772Y0084621D01*
X0157423Y0084351D01*
X0158128Y0084351D01*
X0158779Y0084621D01*
X0159278Y0085119D01*
X0159547Y0085770D01*
X0159547Y0086475D01*
X0159278Y0087126D01*
X0158779Y0087624D01*
X0158128Y0087894D01*
D02*
G37*
G36*
X0098876Y0088928D02*
X0098171Y0088928D01*
X0097520Y0088658D01*
X0097022Y0088160D01*
X0096752Y0087509D01*
X0096752Y0086804D01*
X0097022Y0086153D01*
X0097395Y0085779D01*
X0096923Y0085307D01*
X0096654Y0084656D01*
X0096654Y0083951D01*
X0096923Y0083300D01*
X0097422Y0082801D01*
X0098073Y0082532D01*
X0098778Y0082532D01*
X0099429Y0082801D01*
X0099927Y0083300D01*
X0100197Y0083951D01*
X0100197Y0084656D01*
X0099927Y0085307D01*
X0099554Y0085680D01*
X0100026Y0086153D01*
X0100295Y0086804D01*
X0100295Y0087509D01*
X0100026Y0088160D01*
X0099527Y0088658D01*
X0098876Y0088928D01*
D02*
G37*
G36*
X0074664Y0083563D02*
X0073959Y0083563D01*
X0073308Y0083294D01*
X0072809Y0082795D01*
X0072540Y0082144D01*
X0072540Y0081439D01*
X0072809Y0080788D01*
X0073308Y0080290D01*
X0073959Y0080020D01*
X0074664Y0080020D01*
X0075315Y0080290D01*
X0075813Y0080788D01*
X0076083Y0081439D01*
X0076083Y0082144D01*
X0075813Y0082795D01*
X0075315Y0083294D01*
X0074664Y0083563D01*
D02*
G37*
G36*
X0067946Y0085968D02*
X0067241Y0085968D01*
X0066590Y0085698D01*
X0066092Y0085200D01*
X0065822Y0084548D01*
X0065822Y0083844D01*
X0066092Y0083192D01*
X0066590Y0082694D01*
X0066675Y0082659D01*
X0067249Y0081986D01*
X0067249Y0081281D01*
X0067519Y0080630D01*
X0068017Y0080132D01*
X0068668Y0079862D01*
X0069373Y0079862D01*
X0070024Y0080132D01*
X0070522Y0080630D01*
X0070792Y0081281D01*
X0070792Y0081986D01*
X0070522Y0082637D01*
X0070024Y0083136D01*
X0069939Y0083171D01*
X0069365Y0083844D01*
X0069365Y0084548D01*
X0069095Y0085200D01*
X0068597Y0085698D01*
X0067946Y0085968D01*
D02*
G37*
G36*
X0032224Y0083268D02*
X0031519Y0083268D01*
X0030868Y0082998D01*
X0030370Y0082500D01*
X0030100Y0081849D01*
X0030100Y0081144D01*
X0030370Y0080493D01*
X0030868Y0079994D01*
X0031519Y0079725D01*
X0032224Y0079725D01*
X0032875Y0079994D01*
X0033374Y0080493D01*
X0033643Y0081144D01*
X0033643Y0081849D01*
X0033374Y0082500D01*
X0032875Y0082998D01*
X0032224Y0083268D01*
D02*
G37*
G36*
X0052813Y0082776D02*
X0052108Y0082776D01*
X0051457Y0082506D01*
X0050959Y0082008D01*
X0050689Y0081357D01*
X0050689Y0080652D01*
X0050959Y0080001D01*
X0051457Y0079502D01*
X0052108Y0079233D01*
X0052813Y0079233D01*
X0053464Y0079502D01*
X0053963Y0080001D01*
X0054232Y0080652D01*
X0054232Y0081357D01*
X0053963Y0082008D01*
X0053464Y0082506D01*
X0052813Y0082776D01*
D02*
G37*
G36*
X0043955Y0082069D02*
X0043250Y0082069D01*
X0042599Y0081800D01*
X0042100Y0081301D01*
X0041831Y0080650D01*
X0041831Y0079945D01*
X0042100Y0079294D01*
X0042599Y0078796D01*
X0043250Y0078526D01*
X0043955Y0078526D01*
X0044606Y0078796D01*
X0045104Y0079294D01*
X0045374Y0079945D01*
X0045374Y0080650D01*
X0045104Y0081301D01*
X0044606Y0081800D01*
X0043955Y0082069D01*
D02*
G37*
G36*
X0039034Y0081201D02*
X0038329Y0081201D01*
X0037678Y0080931D01*
X0037179Y0080433D01*
X0036910Y0079782D01*
X0036910Y0079077D01*
X0037179Y0078426D01*
X0037678Y0077928D01*
X0038329Y0077658D01*
X0039034Y0077658D01*
X0039685Y0077928D01*
X0040183Y0078426D01*
X0040453Y0079077D01*
X0040453Y0079782D01*
X0040183Y0080433D01*
X0039685Y0080931D01*
X0039034Y0081201D01*
D02*
G37*
G36*
X0024073Y0080217D02*
X0023368Y0080217D01*
X0022717Y0079947D01*
X0022219Y0079449D01*
X0021949Y0078798D01*
X0021949Y0078093D01*
X0022073Y0077794D01*
X0021405Y0077348D01*
X0021263Y0077490D01*
X0020611Y0077760D01*
X0019907Y0077760D01*
X0019256Y0077490D01*
X0018757Y0076992D01*
X0018487Y0076341D01*
X0018487Y0075636D01*
X0018757Y0074985D01*
X0019256Y0074487D01*
X0019907Y0074217D01*
X0020611Y0074217D01*
X0021263Y0074487D01*
X0021761Y0074985D01*
X0022031Y0075636D01*
X0022031Y0076341D01*
X0021907Y0076640D01*
X0022574Y0077086D01*
X0022717Y0076943D01*
X0023368Y0076673D01*
X0024073Y0076673D01*
X0024724Y0076943D01*
X0025223Y0077442D01*
X0025492Y0078093D01*
X0025492Y0078798D01*
X0025223Y0079449D01*
X0024724Y0079947D01*
X0024073Y0080217D01*
D02*
G37*
G36*
X0138837Y0078445D02*
X0138132Y0078445D01*
X0137481Y0078175D01*
X0136982Y0077677D01*
X0136713Y0077026D01*
X0136211Y0076641D01*
X0136091Y0076673D01*
X0135366Y0076673D01*
X0134665Y0076486D01*
X0134567Y0076429D01*
X0133687Y0076496D01*
X0133189Y0076994D01*
X0132538Y0077264D01*
X0131833Y0077264D01*
X0131406Y0077087D01*
X0131182Y0076994D01*
X0130538Y0077283D01*
X0130039Y0077782D01*
X0129388Y0078052D01*
X0128683Y0078052D01*
X0128032Y0077782D01*
X0127534Y0077283D01*
X0127264Y0076632D01*
X0127264Y0075927D01*
X0127319Y0075795D01*
X0126623Y0075452D01*
X0126571Y0075516D01*
X0126516Y0075610D01*
X0126003Y0076123D01*
X0125375Y0076486D01*
X0124674Y0076674D01*
X0123948Y0076674D01*
X0123247Y0076486D01*
X0122619Y0076123D01*
X0122106Y0075610D01*
X0121743Y0074981D01*
X0121555Y0074281D01*
X0121555Y0073555D01*
X0121743Y0072854D01*
X0122106Y0072226D01*
X0122619Y0071712D01*
X0123247Y0071350D01*
X0123948Y0071162D01*
X0124674Y0071162D01*
X0125375Y0071350D01*
X0126003Y0071712D01*
X0126516Y0072226D01*
X0126879Y0072854D01*
X0127067Y0073555D01*
X0127067Y0074281D01*
X0126944Y0074738D01*
X0126908Y0074873D01*
X0127033Y0074953D01*
X0127645Y0075165D01*
X0127693Y0075117D01*
X0128032Y0074778D01*
X0128683Y0074508D01*
X0129388Y0074508D01*
X0129815Y0074685D01*
X0130039Y0074778D01*
X0130683Y0074489D01*
X0131182Y0073991D01*
X0131833Y0073721D01*
X0132538Y0073721D01*
X0133095Y0073099D01*
X0133160Y0072854D01*
X0133523Y0072226D01*
X0134036Y0071712D01*
X0134665Y0071349D01*
X0135366Y0071162D01*
X0136091Y0071162D01*
X0136792Y0071349D01*
X0137421Y0071712D01*
X0137934Y0072226D01*
X0138297Y0072854D01*
X0138484Y0073555D01*
X0138484Y0074128D01*
X0138688Y0074262D01*
X0139443Y0074224D01*
X0139941Y0073725D01*
X0140593Y0073455D01*
X0141297Y0073455D01*
X0141949Y0073725D01*
X0142447Y0074224D01*
X0142717Y0074875D01*
X0142717Y0075579D01*
X0142447Y0076231D01*
X0141949Y0076729D01*
X0141297Y0076999D01*
X0140593Y0076999D01*
X0140014Y0077611D01*
X0139986Y0077677D01*
X0139488Y0078175D01*
X0138837Y0078445D01*
D02*
G37*
G36*
X0043167Y0076083D02*
X0042463Y0076083D01*
X0041811Y0075813D01*
X0041313Y0075315D01*
X0041193Y0075025D01*
X0040555Y0074701D01*
X0040280Y0074722D01*
X0039803Y0074919D01*
X0039099Y0074919D01*
X0038447Y0074650D01*
X0037949Y0074151D01*
X0037679Y0073500D01*
X0037679Y0072795D01*
X0037949Y0072144D01*
X0038447Y0071646D01*
X0039099Y0071376D01*
X0039803Y0071376D01*
X0040455Y0071646D01*
X0040953Y0072144D01*
X0041073Y0072434D01*
X0041711Y0072758D01*
X0041986Y0072737D01*
X0042463Y0072540D01*
X0043167Y0072540D01*
X0043819Y0072809D01*
X0044317Y0073308D01*
X0044587Y0073959D01*
X0044587Y0074664D01*
X0044317Y0075315D01*
X0043819Y0075813D01*
X0043167Y0076083D01*
D02*
G37*
G36*
X0060629Y0080119D02*
X0059924Y0080119D01*
X0059273Y0079849D01*
X0058774Y0079350D01*
X0058505Y0078699D01*
X0058505Y0077994D01*
X0058774Y0077343D01*
X0059273Y0076845D01*
X0059924Y0076575D01*
X0060629Y0076575D01*
X0061280Y0076845D01*
X0061516Y0077081D01*
X0062303Y0076755D01*
X0062303Y0076715D01*
X0062573Y0076064D01*
X0063071Y0075565D01*
X0063722Y0075296D01*
X0064427Y0075296D01*
X0064556Y0075349D01*
X0065222Y0074773D01*
X0065214Y0074738D01*
X0064412Y0074352D01*
X0064034Y0074508D01*
X0063329Y0074508D01*
X0062678Y0074238D01*
X0062179Y0073740D01*
X0061910Y0073089D01*
X0061910Y0072384D01*
X0062179Y0071733D01*
X0062678Y0071235D01*
X0063329Y0070965D01*
X0064034Y0070965D01*
X0064685Y0071235D01*
X0065183Y0071733D01*
X0065453Y0072384D01*
X0066221Y0072711D01*
X0066872Y0072441D01*
X0067577Y0072441D01*
X0068228Y0072711D01*
X0068270Y0072753D01*
X0068797Y0072719D01*
X0069178Y0072534D01*
X0069216Y0072422D01*
X0069221Y0072181D01*
X0068994Y0071633D01*
X0068994Y0070928D01*
X0069263Y0070277D01*
X0069762Y0069779D01*
X0069931Y0068857D01*
X0069797Y0068533D01*
X0069797Y0067829D01*
X0070067Y0067177D01*
X0070565Y0066679D01*
X0071216Y0066409D01*
X0071921Y0066409D01*
X0072572Y0066679D01*
X0073070Y0067177D01*
X0073340Y0067829D01*
X0073340Y0068533D01*
X0073070Y0069185D01*
X0072572Y0069683D01*
X0072403Y0070605D01*
X0072537Y0070928D01*
X0072537Y0071633D01*
X0072468Y0071800D01*
X0072297Y0072316D01*
X0072802Y0072863D01*
X0072854Y0072894D01*
X0073367Y0073407D01*
X0073730Y0074035D01*
X0073917Y0074736D01*
X0073917Y0075462D01*
X0073730Y0076163D01*
X0073367Y0076791D01*
X0072854Y0077304D01*
X0072225Y0077667D01*
X0071524Y0077855D01*
X0070799Y0077855D01*
X0070098Y0077667D01*
X0069469Y0077304D01*
X0068956Y0076791D01*
X0068681Y0076314D01*
X0068559Y0076153D01*
X0067715Y0075927D01*
X0067577Y0075984D01*
X0066872Y0075984D01*
X0066282Y0075740D01*
X0066081Y0075854D01*
X0065662Y0076270D01*
X0065847Y0076715D01*
X0065847Y0077420D01*
X0065577Y0078071D01*
X0065078Y0078569D01*
X0064427Y0078839D01*
X0063722Y0078839D01*
X0063071Y0078569D01*
X0062835Y0078333D01*
X0062048Y0078659D01*
X0062048Y0078699D01*
X0061778Y0079350D01*
X0061280Y0079849D01*
X0060629Y0080119D01*
D02*
G37*
G36*
X0035811Y0077748D02*
X0035106Y0077748D01*
X0034455Y0077478D01*
X0033957Y0076980D01*
X0033687Y0076329D01*
X0033687Y0075624D01*
X0033957Y0074973D01*
X0034455Y0074474D01*
X0035106Y0074205D01*
X0035811Y0074205D01*
X0036462Y0074474D01*
X0036961Y0074973D01*
X0037231Y0075624D01*
X0037231Y0076329D01*
X0036961Y0076980D01*
X0036462Y0077478D01*
X0035811Y0077748D01*
D02*
G37*
G36*
X0083325Y0078288D02*
X0082620Y0078288D01*
X0081969Y0078018D01*
X0081471Y0077520D01*
X0081201Y0076869D01*
X0081201Y0076164D01*
X0081471Y0075513D01*
X0081959Y0075024D01*
X0081601Y0074665D01*
X0081331Y0074014D01*
X0081331Y0073309D01*
X0081601Y0072658D01*
X0082099Y0072160D01*
X0082751Y0071890D01*
X0083455Y0071890D01*
X0084106Y0072160D01*
X0084605Y0072658D01*
X0084699Y0072885D01*
X0085464Y0072856D01*
X0085532Y0072838D01*
X0085885Y0072226D01*
X0086399Y0071712D01*
X0087027Y0071349D01*
X0087728Y0071162D01*
X0088454Y0071162D01*
X0089154Y0071349D01*
X0089570Y0071589D01*
X0090263Y0071472D01*
X0090525Y0071341D01*
X0090526Y0071339D01*
X0091024Y0070841D01*
X0091675Y0070571D01*
X0092380Y0070571D01*
X0093031Y0070841D01*
X0093530Y0071339D01*
X0093799Y0071990D01*
X0093799Y0072695D01*
X0093530Y0073346D01*
X0093453Y0073423D01*
X0093899Y0074090D01*
X0094061Y0074023D01*
X0094766Y0074023D01*
X0095417Y0074293D01*
X0095916Y0074791D01*
X0096185Y0075442D01*
X0096185Y0076147D01*
X0095916Y0076798D01*
X0095417Y0077297D01*
X0094766Y0077566D01*
X0094061Y0077566D01*
X0093410Y0077297D01*
X0092912Y0076798D01*
X0092642Y0076147D01*
X0092642Y0075442D01*
X0092912Y0074791D01*
X0092988Y0074715D01*
X0092542Y0074047D01*
X0092380Y0074115D01*
X0091675Y0074115D01*
X0091634Y0074097D01*
X0091430Y0074145D01*
X0090764Y0074589D01*
X0090659Y0074981D01*
X0090296Y0075610D01*
X0089783Y0076123D01*
X0089154Y0076486D01*
X0088454Y0076673D01*
X0087728Y0076673D01*
X0087027Y0076486D01*
X0086399Y0076123D01*
X0085885Y0075610D01*
X0085523Y0074981D01*
X0085456Y0074734D01*
X0084717Y0074651D01*
X0084214Y0075252D01*
X0084474Y0075513D01*
X0084744Y0076164D01*
X0084744Y0076869D01*
X0084474Y0077520D01*
X0083976Y0078018D01*
X0083325Y0078288D01*
D02*
G37*
G36*
X0158916Y0076083D02*
X0158211Y0076083D01*
X0157560Y0075813D01*
X0157061Y0075315D01*
X0156792Y0074664D01*
X0156792Y0073959D01*
X0157061Y0073308D01*
X0157560Y0072809D01*
X0158211Y0072540D01*
X0158916Y0072540D01*
X0159457Y0072764D01*
X0160197Y0073034D01*
X0160696Y0072536D01*
X0161347Y0072266D01*
X0162052Y0072266D01*
X0162703Y0072536D01*
X0163201Y0073034D01*
X0163471Y0073685D01*
X0163471Y0074390D01*
X0163201Y0075041D01*
X0162703Y0075540D01*
X0162052Y0075809D01*
X0161347Y0075809D01*
X0160805Y0075585D01*
X0160065Y0075315D01*
X0159567Y0075813D01*
X0158916Y0076083D01*
D02*
G37*
G36*
X0101829Y0078445D02*
X0101124Y0078445D01*
X0100473Y0078175D01*
X0099975Y0077677D01*
X0099705Y0077026D01*
X0099705Y0076321D01*
X0099975Y0075670D01*
X0100021Y0075624D01*
X0099836Y0074695D01*
X0099686Y0074632D01*
X0099187Y0074134D01*
X0098918Y0073483D01*
X0098918Y0072778D01*
X0099187Y0072127D01*
X0099686Y0071628D01*
X0100337Y0071359D01*
X0101042Y0071359D01*
X0101693Y0071628D01*
X0102191Y0072127D01*
X0102355Y0072522D01*
X0103165Y0072650D01*
X0103193Y0072645D01*
X0103208Y0072619D01*
X0103721Y0072106D01*
X0104350Y0071743D01*
X0105051Y0071555D01*
X0105776Y0071555D01*
X0106477Y0071743D01*
X0107106Y0072106D01*
X0107170Y0072170D01*
X0107787Y0072488D01*
X0108212Y0072157D01*
X0108347Y0072022D01*
X0108998Y0071752D01*
X0109703Y0071752D01*
X0110354Y0072022D01*
X0110852Y0072520D01*
X0111122Y0073172D01*
X0111122Y0073876D01*
X0110852Y0074527D01*
X0110881Y0074670D01*
X0111141Y0074778D01*
X0111640Y0075276D01*
X0111910Y0075927D01*
X0111910Y0076632D01*
X0111640Y0077283D01*
X0111141Y0077782D01*
X0110490Y0078052D01*
X0109785Y0078052D01*
X0109134Y0077782D01*
X0108636Y0077283D01*
X0108366Y0076632D01*
X0108366Y0076284D01*
X0107760Y0076056D01*
X0107579Y0076043D01*
X0107106Y0076517D01*
X0106477Y0076879D01*
X0105776Y0077067D01*
X0105051Y0077067D01*
X0104350Y0076879D01*
X0104035Y0076698D01*
X0103322Y0076995D01*
X0103269Y0077039D01*
X0103219Y0077096D01*
X0102978Y0077677D01*
X0102480Y0078175D01*
X0101829Y0078445D01*
D02*
G37*
G36*
X0056160Y0075296D02*
X0055455Y0075296D01*
X0054804Y0075026D01*
X0054305Y0074527D01*
X0054036Y0073876D01*
X0054036Y0073171D01*
X0054305Y0072520D01*
X0054804Y0072022D01*
X0055455Y0071752D01*
X0056160Y0071752D01*
X0056811Y0072022D01*
X0057309Y0072520D01*
X0057579Y0073171D01*
X0057579Y0073876D01*
X0057309Y0074527D01*
X0056811Y0075026D01*
X0056160Y0075296D01*
D02*
G37*
G36*
X0147902Y0076673D02*
X0147177Y0076673D01*
X0146476Y0076486D01*
X0145847Y0076123D01*
X0145334Y0075610D01*
X0144971Y0074981D01*
X0144784Y0074280D01*
X0144784Y0073555D01*
X0144971Y0072854D01*
X0145334Y0072226D01*
X0145847Y0071712D01*
X0146476Y0071349D01*
X0147177Y0071162D01*
X0147902Y0071162D01*
X0148603Y0071349D01*
X0149232Y0071712D01*
X0149745Y0072226D01*
X0150108Y0072854D01*
X0150295Y0073555D01*
X0150295Y0074280D01*
X0150108Y0074981D01*
X0149745Y0075610D01*
X0149232Y0076123D01*
X0148603Y0076486D01*
X0147902Y0076673D01*
D02*
G37*
G36*
X0118131Y0077658D02*
X0117426Y0077658D01*
X0116775Y0077388D01*
X0116276Y0076890D01*
X0116007Y0076239D01*
X0116007Y0076023D01*
X0116004Y0075533D01*
X0115297Y0075296D01*
X0114646Y0075026D01*
X0114148Y0074527D01*
X0113878Y0073876D01*
X0113878Y0073172D01*
X0114148Y0072520D01*
X0114646Y0072022D01*
X0115297Y0071752D01*
X0116002Y0071752D01*
X0116653Y0072022D01*
X0116718Y0072087D01*
X0117505Y0071761D01*
X0117505Y0071481D01*
X0117775Y0070830D01*
X0118273Y0070331D01*
X0118925Y0070062D01*
X0119629Y0070062D01*
X0120280Y0070331D01*
X0120779Y0070830D01*
X0121049Y0071481D01*
X0121049Y0072186D01*
X0120779Y0072837D01*
X0120280Y0073335D01*
X0119629Y0073605D01*
X0118925Y0073605D01*
X0118657Y0074332D01*
X0118782Y0074384D01*
X0119280Y0074883D01*
X0119550Y0075534D01*
X0119550Y0076239D01*
X0119280Y0076890D01*
X0118782Y0077388D01*
X0118131Y0077658D01*
D02*
G37*
G36*
X0093955Y0069784D02*
X0093250Y0069784D01*
X0092599Y0069514D01*
X0092126Y0069041D01*
X0091653Y0069514D01*
X0091002Y0069784D01*
X0090297Y0069784D01*
X0089646Y0069514D01*
X0089148Y0069016D01*
X0088878Y0068365D01*
X0088878Y0067660D01*
X0089148Y0067009D01*
X0089646Y0066510D01*
X0090297Y0066241D01*
X0091002Y0066241D01*
X0091653Y0066510D01*
X0092126Y0066983D01*
X0092599Y0066510D01*
X0093250Y0066241D01*
X0093955Y0066241D01*
X0094606Y0066510D01*
X0095104Y0067009D01*
X0095374Y0067660D01*
X0095374Y0068365D01*
X0095104Y0069016D01*
X0094606Y0069514D01*
X0093955Y0069784D01*
D02*
G37*
G36*
X0048109Y0075923D02*
X0047404Y0075923D01*
X0046753Y0075653D01*
X0046255Y0075155D01*
X0045985Y0074503D01*
X0045985Y0073799D01*
X0046255Y0073147D01*
X0046753Y0072649D01*
X0046770Y0072567D01*
X0046508Y0072305D01*
X0046239Y0071654D01*
X0046239Y0070949D01*
X0046508Y0070298D01*
X0047007Y0069800D01*
X0047658Y0069530D01*
X0048363Y0069530D01*
X0049014Y0069800D01*
X0049512Y0070298D01*
X0049654Y0070642D01*
X0050442Y0070485D01*
X0050442Y0069952D01*
X0050712Y0069301D01*
X0051210Y0068803D01*
X0051861Y0068533D01*
X0052566Y0068533D01*
X0053217Y0068803D01*
X0053715Y0069301D01*
X0053985Y0069952D01*
X0053985Y0070657D01*
X0053715Y0071308D01*
X0053217Y0071807D01*
X0052566Y0072076D01*
X0051861Y0072076D01*
X0051210Y0071807D01*
X0050712Y0071308D01*
X0050569Y0070965D01*
X0049782Y0071122D01*
X0049782Y0071654D01*
X0049512Y0072305D01*
X0049014Y0072804D01*
X0048997Y0072886D01*
X0049259Y0073147D01*
X0049528Y0073799D01*
X0049528Y0074503D01*
X0049259Y0075155D01*
X0048760Y0075653D01*
X0048109Y0075923D01*
D02*
G37*
G36*
X0057538Y0070965D02*
X0056833Y0070965D01*
X0056182Y0070695D01*
X0055683Y0070197D01*
X0055413Y0069546D01*
X0055413Y0068841D01*
X0055683Y0068190D01*
X0056182Y0067691D01*
X0056833Y0067422D01*
X0057538Y0067422D01*
X0058189Y0067691D01*
X0058687Y0068190D01*
X0058957Y0068841D01*
X0058957Y0069546D01*
X0058687Y0070197D01*
X0058189Y0070695D01*
X0057538Y0070965D01*
D02*
G37*
G36*
X0020530Y0072933D02*
X0019825Y0072933D01*
X0019174Y0072664D01*
X0018675Y0072165D01*
X0018406Y0071514D01*
X0018406Y0070809D01*
X0018675Y0070158D01*
X0019174Y0069660D01*
X0019825Y0069390D01*
X0020530Y0069390D01*
X0020958Y0069567D01*
X0021162Y0069431D01*
X0021431Y0068780D01*
X0021930Y0068282D01*
X0022581Y0068012D01*
X0023286Y0068012D01*
X0023937Y0068282D01*
X0024428Y0068773D01*
X0024440Y0068781D01*
X0025335Y0068895D01*
X0025547Y0068684D01*
X0026198Y0068414D01*
X0026903Y0068414D01*
X0027522Y0068671D01*
X0027730Y0068168D01*
X0028229Y0067670D01*
X0028880Y0067400D01*
X0029585Y0067400D01*
X0030236Y0067670D01*
X0030734Y0068168D01*
X0031004Y0068820D01*
X0031004Y0069524D01*
X0030734Y0070176D01*
X0030236Y0070674D01*
X0029585Y0070944D01*
X0028880Y0070944D01*
X0028260Y0070687D01*
X0028052Y0071189D01*
X0027554Y0071687D01*
X0026903Y0071957D01*
X0026198Y0071957D01*
X0025547Y0071687D01*
X0025055Y0071196D01*
X0025044Y0071188D01*
X0024148Y0071074D01*
X0023937Y0071286D01*
X0023286Y0071555D01*
X0022581Y0071555D01*
X0022153Y0071378D01*
X0021949Y0071514D01*
X0021679Y0072165D01*
X0021181Y0072664D01*
X0020530Y0072933D01*
D02*
G37*
G36*
X0162133Y0070833D02*
X0161428Y0070833D01*
X0160777Y0070563D01*
X0160278Y0070065D01*
X0160009Y0069414D01*
X0160009Y0068709D01*
X0160278Y0068058D01*
X0160777Y0067559D01*
X0161428Y0067290D01*
X0162133Y0067290D01*
X0162784Y0067559D01*
X0163282Y0068058D01*
X0163552Y0068709D01*
X0163552Y0069414D01*
X0163282Y0070065D01*
X0162784Y0070563D01*
X0162133Y0070833D01*
D02*
G37*
G36*
X0107341Y0067028D02*
X0106636Y0067028D01*
X0105985Y0066758D01*
X0105486Y0066260D01*
X0104712Y0066448D01*
X0104191Y0066664D01*
X0103486Y0066664D01*
X0102835Y0066394D01*
X0102764Y0066322D01*
X0102279Y0065936D01*
X0101735Y0066322D01*
X0101693Y0066364D01*
X0101042Y0066634D01*
X0100337Y0066634D01*
X0099686Y0066364D01*
X0099187Y0065866D01*
X0098918Y0065215D01*
X0098918Y0064510D01*
X0099187Y0063859D01*
X0099686Y0063361D01*
X0100337Y0063091D01*
X0101042Y0063091D01*
X0101693Y0063361D01*
X0101764Y0063432D01*
X0102249Y0063818D01*
X0102793Y0063432D01*
X0102835Y0063390D01*
X0103486Y0063120D01*
X0104191Y0063120D01*
X0104842Y0063390D01*
X0105341Y0063888D01*
X0106115Y0063700D01*
X0106636Y0063485D01*
X0107341Y0063485D01*
X0107992Y0063754D01*
X0108490Y0064253D01*
X0108760Y0064904D01*
X0108760Y0065609D01*
X0108490Y0066260D01*
X0107992Y0066758D01*
X0107341Y0067028D01*
D02*
G37*
G36*
X0136671Y0069784D02*
X0135967Y0069784D01*
X0135315Y0069514D01*
X0134817Y0069016D01*
X0134547Y0068365D01*
X0134547Y0067660D01*
X0134817Y0067009D01*
X0135315Y0066510D01*
X0135967Y0066241D01*
X0136671Y0066241D01*
X0137323Y0066510D01*
X0137821Y0067009D01*
X0137861Y0067106D01*
X0138714Y0067106D01*
X0138754Y0067009D01*
X0139253Y0066510D01*
X0139904Y0066241D01*
X0140608Y0066241D01*
X0141260Y0066510D01*
X0141758Y0067009D01*
X0142028Y0067660D01*
X0142028Y0068365D01*
X0141758Y0069016D01*
X0141260Y0069514D01*
X0140608Y0069784D01*
X0139904Y0069784D01*
X0139253Y0069514D01*
X0138754Y0069016D01*
X0138714Y0068918D01*
X0137861Y0068918D01*
X0137821Y0069016D01*
X0137323Y0069514D01*
X0136671Y0069784D01*
D02*
G37*
G36*
X0084714Y0066786D02*
X0084009Y0066786D01*
X0083358Y0066517D01*
X0083136Y0066295D01*
X0082757Y0066055D01*
X0082117Y0066284D01*
X0082008Y0066394D01*
X0081357Y0066664D01*
X0080652Y0066664D01*
X0080001Y0066394D01*
X0079929Y0066322D01*
X0079445Y0065936D01*
X0078900Y0066322D01*
X0078858Y0066364D01*
X0078207Y0066634D01*
X0077502Y0066634D01*
X0076851Y0066364D01*
X0076353Y0065866D01*
X0076083Y0065215D01*
X0076083Y0064510D01*
X0076353Y0063859D01*
X0076851Y0063361D01*
X0077502Y0063091D01*
X0078207Y0063091D01*
X0078858Y0063361D01*
X0078930Y0063432D01*
X0079414Y0063818D01*
X0079958Y0063432D01*
X0080001Y0063390D01*
X0080652Y0063120D01*
X0081357Y0063120D01*
X0082008Y0063390D01*
X0082230Y0063612D01*
X0082608Y0063852D01*
X0083248Y0063622D01*
X0083358Y0063513D01*
X0084009Y0063243D01*
X0084714Y0063243D01*
X0085365Y0063513D01*
X0085863Y0064011D01*
X0086133Y0064662D01*
X0086133Y0065367D01*
X0085863Y0066018D01*
X0085365Y0066517D01*
X0084714Y0066786D01*
D02*
G37*
G36*
X0149860Y0066664D02*
X0149156Y0066664D01*
X0148504Y0066394D01*
X0148433Y0066322D01*
X0147948Y0065936D01*
X0147404Y0066322D01*
X0147362Y0066364D01*
X0146711Y0066634D01*
X0146006Y0066634D01*
X0145355Y0066364D01*
X0144856Y0065866D01*
X0144587Y0065215D01*
X0144587Y0064510D01*
X0144856Y0063859D01*
X0145355Y0063361D01*
X0146006Y0063091D01*
X0146711Y0063091D01*
X0147362Y0063361D01*
X0147434Y0063432D01*
X0147918Y0063818D01*
X0148462Y0063432D01*
X0148504Y0063390D01*
X0149156Y0063120D01*
X0149860Y0063120D01*
X0150512Y0063390D01*
X0150554Y0063432D01*
X0151098Y0063818D01*
X0151582Y0063432D01*
X0151654Y0063361D01*
X0152305Y0063091D01*
X0153010Y0063091D01*
X0153217Y0063177D01*
X0154015Y0063306D01*
X0154513Y0062808D01*
X0155165Y0062538D01*
X0155870Y0062538D01*
X0156521Y0062808D01*
X0157019Y0063306D01*
X0157289Y0063958D01*
X0157289Y0064662D01*
X0157019Y0065314D01*
X0156521Y0065812D01*
X0155870Y0066082D01*
X0155165Y0066082D01*
X0154958Y0065996D01*
X0154160Y0065866D01*
X0153661Y0066364D01*
X0153010Y0066634D01*
X0152305Y0066634D01*
X0151654Y0066364D01*
X0151612Y0066322D01*
X0151068Y0065936D01*
X0150583Y0066322D01*
X0150512Y0066394D01*
X0149860Y0066664D01*
D02*
G37*
G36*
X0127026Y0066664D02*
X0126321Y0066664D01*
X0125670Y0066394D01*
X0125598Y0066322D01*
X0125114Y0065936D01*
X0124569Y0066322D01*
X0124527Y0066364D01*
X0123876Y0066634D01*
X0123171Y0066634D01*
X0122520Y0066364D01*
X0122022Y0065866D01*
X0121752Y0065215D01*
X0121752Y0064510D01*
X0122022Y0063859D01*
X0122520Y0063361D01*
X0123171Y0063091D01*
X0123876Y0063091D01*
X0124527Y0063361D01*
X0124599Y0063432D01*
X0125083Y0063818D01*
X0125628Y0063432D01*
X0125670Y0063390D01*
X0126321Y0063120D01*
X0127026Y0063120D01*
X0127677Y0063390D01*
X0127719Y0063432D01*
X0128264Y0063818D01*
X0128748Y0063432D01*
X0128819Y0063361D01*
X0129470Y0063091D01*
X0130175Y0063091D01*
X0130827Y0063361D01*
X0131325Y0063859D01*
X0131595Y0064510D01*
X0131595Y0065215D01*
X0131325Y0065866D01*
X0130827Y0066364D01*
X0130175Y0066634D01*
X0129470Y0066634D01*
X0128819Y0066364D01*
X0128777Y0066322D01*
X0128233Y0065936D01*
X0127748Y0066322D01*
X0127677Y0066394D01*
X0127026Y0066664D01*
D02*
G37*
G36*
X0047498Y0068209D02*
X0046793Y0068209D01*
X0046142Y0067939D01*
X0045644Y0067441D01*
X0045374Y0066790D01*
X0045374Y0066085D01*
X0045644Y0065434D01*
X0046142Y0064935D01*
X0046793Y0064666D01*
X0047498Y0064666D01*
X0048149Y0064935D01*
X0048648Y0065434D01*
X0048917Y0066085D01*
X0048917Y0066790D01*
X0048648Y0067441D01*
X0048149Y0067939D01*
X0047498Y0068209D01*
D02*
G37*
G36*
X0114912Y0069884D02*
X0114207Y0069884D01*
X0113556Y0069614D01*
X0113058Y0069116D01*
X0112788Y0068465D01*
X0112788Y0067760D01*
X0113058Y0067109D01*
X0113556Y0066610D01*
X0114207Y0066341D01*
X0114912Y0066341D01*
X0115462Y0065973D01*
X0115462Y0065876D01*
X0115732Y0065225D01*
X0116230Y0064727D01*
X0116881Y0064457D01*
X0117586Y0064457D01*
X0118237Y0064727D01*
X0118736Y0065225D01*
X0119005Y0065876D01*
X0119005Y0066581D01*
X0118736Y0067232D01*
X0118237Y0067731D01*
X0117586Y0068000D01*
X0116881Y0068000D01*
X0116331Y0068368D01*
X0116331Y0068465D01*
X0116062Y0069116D01*
X0115563Y0069614D01*
X0114912Y0069884D01*
D02*
G37*
G36*
X0064129Y0069641D02*
X0063424Y0069641D01*
X0062773Y0069371D01*
X0062274Y0068873D01*
X0062005Y0068221D01*
X0062005Y0067517D01*
X0062274Y0066865D01*
X0062628Y0066512D01*
X0062752Y0066180D01*
X0062682Y0065552D01*
X0062406Y0065275D01*
X0062136Y0064624D01*
X0062136Y0063920D01*
X0062406Y0063268D01*
X0062789Y0062885D01*
X0062776Y0062821D01*
X0062278Y0062323D01*
X0062008Y0061672D01*
X0062008Y0061197D01*
X0061514Y0060743D01*
X0061290Y0060642D01*
X0061081Y0060729D01*
X0060376Y0060729D01*
X0059725Y0060459D01*
X0059227Y0059961D01*
X0058957Y0059309D01*
X0058957Y0058605D01*
X0059227Y0057953D01*
X0059725Y0057455D01*
X0060376Y0057185D01*
X0061081Y0057185D01*
X0061732Y0057455D01*
X0062230Y0057953D01*
X0062500Y0058605D01*
X0062500Y0059079D01*
X0062994Y0059533D01*
X0063218Y0059634D01*
X0063427Y0059548D01*
X0064132Y0059548D01*
X0064783Y0059817D01*
X0065282Y0060316D01*
X0065551Y0060967D01*
X0065551Y0061672D01*
X0065282Y0062323D01*
X0064898Y0062706D01*
X0064911Y0062770D01*
X0065409Y0063268D01*
X0065679Y0063920D01*
X0065679Y0064624D01*
X0065409Y0065275D01*
X0065056Y0065629D01*
X0064932Y0065961D01*
X0065002Y0066589D01*
X0065278Y0066865D01*
X0065548Y0067517D01*
X0065548Y0068221D01*
X0065278Y0068873D01*
X0064780Y0069371D01*
X0064129Y0069641D01*
D02*
G37*
G36*
X0020234Y0063091D02*
X0019530Y0063091D01*
X0018878Y0062821D01*
X0018380Y0062323D01*
X0018110Y0061672D01*
X0018110Y0060967D01*
X0018380Y0060316D01*
X0018878Y0059817D01*
X0019530Y0059548D01*
X0020234Y0059548D01*
X0020886Y0059817D01*
X0021384Y0060316D01*
X0021654Y0060967D01*
X0021654Y0061672D01*
X0021384Y0062323D01*
X0020886Y0062821D01*
X0020234Y0063091D01*
D02*
G37*
G36*
X0162852Y0059941D02*
X0162148Y0059941D01*
X0161497Y0059672D01*
X0160998Y0059173D01*
X0160728Y0058522D01*
X0160728Y0058442D01*
X0159941Y0058116D01*
X0159764Y0058294D01*
X0159112Y0058563D01*
X0158408Y0058563D01*
X0157756Y0058294D01*
X0157258Y0057795D01*
X0156988Y0057144D01*
X0156988Y0056439D01*
X0157258Y0055788D01*
X0157756Y0055290D01*
X0158408Y0055020D01*
X0159112Y0055020D01*
X0159764Y0055290D01*
X0160262Y0055788D01*
X0160532Y0056439D01*
X0160532Y0056519D01*
X0161319Y0056845D01*
X0161497Y0056668D01*
X0162148Y0056398D01*
X0162795Y0056160D01*
X0162795Y0055455D01*
X0163065Y0054804D01*
X0163563Y0054306D01*
X0164215Y0054036D01*
X0164919Y0054036D01*
X0165571Y0054306D01*
X0166069Y0054804D01*
X0166339Y0055455D01*
X0166339Y0056160D01*
X0166069Y0056811D01*
X0165571Y0057309D01*
X0164919Y0057579D01*
X0164272Y0057817D01*
X0164272Y0058522D01*
X0164002Y0059173D01*
X0163504Y0059672D01*
X0162852Y0059941D01*
D02*
G37*
G36*
X0026646Y0061050D02*
X0025941Y0061050D01*
X0025290Y0060780D01*
X0024791Y0060282D01*
X0024522Y0059631D01*
X0024522Y0058926D01*
X0024791Y0058275D01*
X0025290Y0057777D01*
X0025941Y0057507D01*
X0026646Y0057507D01*
X0027297Y0057777D01*
X0027795Y0058275D01*
X0028065Y0058926D01*
X0028065Y0059631D01*
X0027795Y0060282D01*
X0027297Y0060780D01*
X0026646Y0061050D01*
D02*
G37*
G36*
X0031659Y0060980D02*
X0030954Y0060980D01*
X0030303Y0060710D01*
X0029804Y0060212D01*
X0029535Y0059561D01*
X0029535Y0058856D01*
X0029804Y0058205D01*
X0030303Y0057707D01*
X0030954Y0057437D01*
X0031659Y0057437D01*
X0032310Y0057707D01*
X0032808Y0058205D01*
X0033078Y0058856D01*
X0033078Y0059561D01*
X0032808Y0060212D01*
X0032310Y0060710D01*
X0031659Y0060980D01*
D02*
G37*
G36*
X0076435Y0059941D02*
X0075730Y0059941D01*
X0075079Y0059671D01*
X0074581Y0059173D01*
X0074311Y0058522D01*
X0074311Y0057817D01*
X0074581Y0057166D01*
X0075079Y0056668D01*
X0075730Y0056398D01*
X0076435Y0056398D01*
X0077086Y0056668D01*
X0077585Y0057166D01*
X0077855Y0057817D01*
X0077855Y0058522D01*
X0077585Y0059173D01*
X0077086Y0059671D01*
X0076435Y0059941D01*
D02*
G37*
G36*
X0144939Y0059941D02*
X0144234Y0059941D01*
X0143583Y0059671D01*
X0143085Y0059173D01*
X0142815Y0058522D01*
X0142815Y0057817D01*
X0143085Y0057166D01*
X0143583Y0056668D01*
X0144234Y0056398D01*
X0144939Y0056398D01*
X0145590Y0056668D01*
X0146089Y0057166D01*
X0146358Y0057817D01*
X0146358Y0058522D01*
X0146089Y0059173D01*
X0145590Y0059671D01*
X0144939Y0059941D01*
D02*
G37*
G36*
X0122104Y0059941D02*
X0121400Y0059941D01*
X0120749Y0059671D01*
X0120250Y0059173D01*
X0119980Y0058522D01*
X0119980Y0057817D01*
X0120250Y0057166D01*
X0120749Y0056668D01*
X0121400Y0056398D01*
X0122104Y0056398D01*
X0122756Y0056668D01*
X0123254Y0057166D01*
X0123524Y0057817D01*
X0123524Y0058522D01*
X0123254Y0059173D01*
X0122756Y0059671D01*
X0122104Y0059941D01*
D02*
G37*
G36*
X0099270Y0059941D02*
X0098565Y0059941D01*
X0097914Y0059671D01*
X0097416Y0059173D01*
X0097146Y0058522D01*
X0097146Y0057817D01*
X0097416Y0057166D01*
X0097914Y0056668D01*
X0098565Y0056398D01*
X0099270Y0056398D01*
X0099921Y0056668D01*
X0100419Y0057166D01*
X0100689Y0057817D01*
X0100689Y0058522D01*
X0100419Y0059173D01*
X0099921Y0059671D01*
X0099270Y0059941D01*
D02*
G37*
G36*
X0048190Y0062447D02*
X0047486Y0062447D01*
X0046834Y0062177D01*
X0046336Y0061679D01*
X0046066Y0061028D01*
X0046066Y0060323D01*
X0046162Y0060092D01*
X0046421Y0059347D01*
X0045923Y0058848D01*
X0045653Y0058197D01*
X0045653Y0057492D01*
X0045923Y0056841D01*
X0046421Y0056343D01*
X0047072Y0056073D01*
X0047777Y0056073D01*
X0048428Y0056343D01*
X0048927Y0056841D01*
X0049196Y0057492D01*
X0049196Y0058197D01*
X0049101Y0058428D01*
X0048842Y0059173D01*
X0049340Y0059671D01*
X0049610Y0060323D01*
X0049610Y0061028D01*
X0049340Y0061679D01*
X0048842Y0062177D01*
X0048190Y0062447D01*
D02*
G37*
G36*
X0168515Y0060100D02*
X0167810Y0060100D01*
X0167159Y0059830D01*
X0166660Y0059332D01*
X0166391Y0058681D01*
X0166391Y0057976D01*
X0166660Y0057325D01*
X0167159Y0056826D01*
X0167810Y0056557D01*
X0168515Y0056557D01*
X0169166Y0056826D01*
X0169175Y0056835D01*
X0170053Y0056772D01*
X0170552Y0056274D01*
X0171203Y0056004D01*
X0171908Y0056004D01*
X0172559Y0056274D01*
X0173057Y0056772D01*
X0173327Y0057424D01*
X0173327Y0058128D01*
X0173057Y0058780D01*
X0172559Y0059278D01*
X0171908Y0059548D01*
X0171203Y0059548D01*
X0170552Y0059278D01*
X0170543Y0059269D01*
X0169664Y0059332D01*
X0169166Y0059830D01*
X0168515Y0060100D01*
D02*
G37*
G36*
X0036179Y0068895D02*
X0035475Y0068895D01*
X0034823Y0068625D01*
X0034325Y0068127D01*
X0034055Y0067476D01*
X0034055Y0066771D01*
X0034325Y0066120D01*
X0034811Y0065634D01*
X0034453Y0065275D01*
X0034183Y0064624D01*
X0034183Y0063920D01*
X0034453Y0063268D01*
X0034405Y0062402D01*
X0034325Y0062323D01*
X0034055Y0061672D01*
X0034055Y0060967D01*
X0034325Y0060316D01*
X0034726Y0059914D01*
X0034823Y0059758D01*
X0034811Y0058970D01*
X0034620Y0058780D01*
X0034350Y0058128D01*
X0034350Y0057424D01*
X0034620Y0056772D01*
X0035119Y0056274D01*
X0035770Y0056004D01*
X0036475Y0056004D01*
X0037126Y0056274D01*
X0037624Y0056772D01*
X0037894Y0057424D01*
X0037894Y0058128D01*
X0037624Y0058780D01*
X0037223Y0059181D01*
X0037127Y0059337D01*
X0037138Y0060125D01*
X0037329Y0060316D01*
X0037599Y0060967D01*
X0037599Y0061672D01*
X0037329Y0062323D01*
X0037377Y0063189D01*
X0037457Y0063268D01*
X0037727Y0063920D01*
X0037727Y0064624D01*
X0037457Y0065275D01*
X0036971Y0065762D01*
X0037329Y0066120D01*
X0037599Y0066771D01*
X0037599Y0067476D01*
X0037329Y0068127D01*
X0036831Y0068625D01*
X0036179Y0068895D01*
D02*
G37*
G36*
X0117774Y0058563D02*
X0117069Y0058563D01*
X0116418Y0058294D01*
X0115920Y0057795D01*
X0115650Y0057144D01*
X0115650Y0056439D01*
X0115920Y0055788D01*
X0116418Y0055290D01*
X0117069Y0055020D01*
X0117774Y0055020D01*
X0118425Y0055290D01*
X0118923Y0055788D01*
X0119193Y0056439D01*
X0119193Y0057144D01*
X0118923Y0057795D01*
X0118425Y0058294D01*
X0117774Y0058563D01*
D02*
G37*
G36*
X0094939Y0058563D02*
X0094234Y0058563D01*
X0093583Y0058294D01*
X0093085Y0057795D01*
X0092815Y0057144D01*
X0092815Y0056439D01*
X0093085Y0055788D01*
X0093583Y0055290D01*
X0094234Y0055020D01*
X0094939Y0055020D01*
X0095590Y0055290D01*
X0096089Y0055788D01*
X0096358Y0056439D01*
X0096358Y0057144D01*
X0096089Y0057795D01*
X0095590Y0058294D01*
X0094939Y0058563D01*
D02*
G37*
G36*
X0140608Y0058563D02*
X0139904Y0058563D01*
X0139253Y0058294D01*
X0138754Y0057795D01*
X0138484Y0057144D01*
X0138484Y0056439D01*
X0138754Y0055788D01*
X0139253Y0055290D01*
X0139904Y0055020D01*
X0140608Y0055020D01*
X0141260Y0055290D01*
X0141758Y0055788D01*
X0142028Y0056439D01*
X0142028Y0057144D01*
X0141758Y0057795D01*
X0141260Y0058294D01*
X0140608Y0058563D01*
D02*
G37*
G36*
X0072105Y0058563D02*
X0071400Y0058563D01*
X0070749Y0058294D01*
X0070250Y0057795D01*
X0069981Y0057144D01*
X0069981Y0056439D01*
X0070250Y0055788D01*
X0070749Y0055290D01*
X0071400Y0055020D01*
X0072105Y0055020D01*
X0072756Y0055290D01*
X0073254Y0055788D01*
X0073524Y0056439D01*
X0073524Y0057144D01*
X0073254Y0057795D01*
X0072756Y0058294D01*
X0072105Y0058563D01*
D02*
G37*
G36*
X0132292Y0060089D02*
X0131587Y0060089D01*
X0130936Y0059819D01*
X0130437Y0059321D01*
X0130168Y0058670D01*
X0130168Y0057965D01*
X0130437Y0057314D01*
X0130910Y0056841D01*
X0130486Y0056417D01*
X0130217Y0055766D01*
X0130217Y0055061D01*
X0130486Y0054410D01*
X0130985Y0053912D01*
X0131636Y0053642D01*
X0132341Y0053642D01*
X0132992Y0053912D01*
X0133490Y0054410D01*
X0133760Y0055061D01*
X0133760Y0055766D01*
X0133490Y0056417D01*
X0133017Y0056890D01*
X0133441Y0057314D01*
X0133711Y0057965D01*
X0133711Y0058670D01*
X0133441Y0059321D01*
X0132943Y0059819D01*
X0132292Y0060089D01*
D02*
G37*
G36*
X0086622Y0060089D02*
X0085917Y0060089D01*
X0085266Y0059819D01*
X0084768Y0059321D01*
X0084498Y0058670D01*
X0084498Y0057965D01*
X0084768Y0057314D01*
X0085241Y0056841D01*
X0084817Y0056417D01*
X0084547Y0055766D01*
X0084547Y0055061D01*
X0084817Y0054410D01*
X0085316Y0053912D01*
X0085967Y0053642D01*
X0086671Y0053642D01*
X0087323Y0053912D01*
X0087821Y0054410D01*
X0088091Y0055061D01*
X0088091Y0055766D01*
X0087821Y0056417D01*
X0087348Y0056890D01*
X0087772Y0057314D01*
X0088042Y0057965D01*
X0088042Y0058670D01*
X0087772Y0059321D01*
X0087273Y0059819D01*
X0086622Y0060089D01*
D02*
G37*
G36*
X0054782Y0060729D02*
X0054077Y0060729D01*
X0053426Y0060459D01*
X0052927Y0059961D01*
X0052658Y0059309D01*
X0052658Y0058605D01*
X0052927Y0057953D01*
X0053426Y0057455D01*
X0054077Y0057185D01*
X0054438Y0057185D01*
X0054549Y0056984D01*
X0054680Y0056398D01*
X0054305Y0056024D01*
X0054036Y0055372D01*
X0054036Y0054668D01*
X0054305Y0054016D01*
X0054804Y0053518D01*
X0055455Y0053248D01*
X0056160Y0053248D01*
X0056811Y0053518D01*
X0057309Y0054016D01*
X0057579Y0054668D01*
X0057579Y0055372D01*
X0057309Y0056024D01*
X0056811Y0056522D01*
X0056160Y0056792D01*
X0055798Y0056792D01*
X0055687Y0056993D01*
X0055557Y0057579D01*
X0055931Y0057953D01*
X0056201Y0058605D01*
X0056201Y0059309D01*
X0055931Y0059961D01*
X0055433Y0060459D01*
X0054782Y0060729D01*
D02*
G37*
G36*
X0110097Y0062697D02*
X0109392Y0062697D01*
X0108741Y0062428D01*
X0108242Y0061929D01*
X0107973Y0061278D01*
X0107973Y0060573D01*
X0108242Y0059922D01*
X0108299Y0059865D01*
X0108686Y0059351D01*
X0108299Y0058836D01*
X0108242Y0058780D01*
X0107973Y0058128D01*
X0107973Y0057424D01*
X0108242Y0056772D01*
X0108714Y0056300D01*
X0108341Y0055927D01*
X0108071Y0055276D01*
X0108071Y0054571D01*
X0108341Y0053920D01*
X0108839Y0053421D01*
X0109490Y0053152D01*
X0110195Y0053152D01*
X0110846Y0053421D01*
X0111345Y0053920D01*
X0111614Y0054571D01*
X0111614Y0055276D01*
X0111345Y0055927D01*
X0110873Y0056399D01*
X0111246Y0056772D01*
X0111516Y0057424D01*
X0111516Y0058128D01*
X0111246Y0058780D01*
X0111189Y0058836D01*
X0110803Y0059351D01*
X0111189Y0059865D01*
X0111246Y0059922D01*
X0111516Y0060573D01*
X0111516Y0061278D01*
X0111246Y0061929D01*
X0110748Y0062428D01*
X0110097Y0062697D01*
D02*
G37*
G36*
X0016986Y0056398D02*
X0016282Y0056398D01*
X0015630Y0056128D01*
X0015132Y0055630D01*
X0014862Y0054979D01*
X0014862Y0054274D01*
X0015132Y0053623D01*
X0015630Y0053124D01*
X0016282Y0052855D01*
X0016986Y0052855D01*
X0017638Y0053124D01*
X0018136Y0053623D01*
X0018406Y0054274D01*
X0018406Y0054979D01*
X0018136Y0055630D01*
X0017638Y0056128D01*
X0016986Y0056398D01*
D02*
G37*
G36*
X0064317Y0056322D02*
X0063612Y0056322D01*
X0062961Y0056052D01*
X0062462Y0055554D01*
X0062193Y0054903D01*
X0062193Y0054198D01*
X0062462Y0053547D01*
X0062961Y0053048D01*
X0063612Y0052779D01*
X0064317Y0052779D01*
X0064968Y0053048D01*
X0065466Y0053547D01*
X0065736Y0054198D01*
X0065736Y0054903D01*
X0065466Y0055554D01*
X0064968Y0056052D01*
X0064317Y0056322D01*
D02*
G37*
G36*
X0076435Y0053642D02*
X0075730Y0053642D01*
X0075079Y0053372D01*
X0074581Y0052874D01*
X0074311Y0052223D01*
X0074311Y0051552D01*
X0073952Y0051212D01*
X0073655Y0051045D01*
X0073089Y0051280D01*
X0072384Y0051280D01*
X0071733Y0051010D01*
X0071234Y0050512D01*
X0070965Y0049861D01*
X0070965Y0049156D01*
X0071234Y0048505D01*
X0071733Y0048006D01*
X0072384Y0047737D01*
X0073089Y0047737D01*
X0073740Y0048006D01*
X0074238Y0048505D01*
X0074508Y0049156D01*
X0074508Y0049826D01*
X0074867Y0050167D01*
X0075165Y0050333D01*
X0075730Y0050099D01*
X0076435Y0050099D01*
X0077086Y0050369D01*
X0077585Y0050867D01*
X0077855Y0051518D01*
X0077855Y0052223D01*
X0077585Y0052874D01*
X0077086Y0053372D01*
X0076435Y0053642D01*
D02*
G37*
G36*
X0053010Y0053642D02*
X0052305Y0053642D01*
X0051654Y0053372D01*
X0051156Y0052874D01*
X0050886Y0052223D01*
X0050886Y0051518D01*
X0051156Y0050867D01*
X0051654Y0050369D01*
X0052305Y0050099D01*
X0053010Y0050099D01*
X0053661Y0050369D01*
X0054159Y0050867D01*
X0054429Y0051518D01*
X0054429Y0052223D01*
X0054159Y0052874D01*
X0053661Y0053372D01*
X0053010Y0053642D01*
D02*
G37*
G36*
X0042380Y0053642D02*
X0041675Y0053642D01*
X0041024Y0053372D01*
X0040526Y0052874D01*
X0040256Y0052223D01*
X0040256Y0051518D01*
X0040526Y0050867D01*
X0041024Y0050369D01*
X0041675Y0050099D01*
X0042380Y0050099D01*
X0043031Y0050369D01*
X0043530Y0050867D01*
X0043799Y0051518D01*
X0043799Y0052223D01*
X0043530Y0052874D01*
X0043031Y0053372D01*
X0042380Y0053642D01*
D02*
G37*
G36*
X0144939Y0053642D02*
X0144234Y0053642D01*
X0143583Y0053372D01*
X0143085Y0052874D01*
X0142815Y0052223D01*
X0142815Y0051518D01*
X0143085Y0050867D01*
X0143583Y0050369D01*
X0144234Y0050099D01*
X0144939Y0050099D01*
X0145590Y0050369D01*
X0146089Y0050867D01*
X0146358Y0051518D01*
X0146358Y0052223D01*
X0146089Y0052874D01*
X0145590Y0053372D01*
X0144939Y0053642D01*
D02*
G37*
G36*
X0122104Y0053642D02*
X0121400Y0053642D01*
X0120749Y0053372D01*
X0120250Y0052874D01*
X0119980Y0052223D01*
X0119980Y0051518D01*
X0120250Y0050867D01*
X0120749Y0050369D01*
X0121400Y0050099D01*
X0122104Y0050099D01*
X0122756Y0050369D01*
X0123254Y0050867D01*
X0123524Y0051518D01*
X0123524Y0052223D01*
X0123254Y0052874D01*
X0122756Y0053372D01*
X0122104Y0053642D01*
D02*
G37*
G36*
X0099270Y0053642D02*
X0098565Y0053642D01*
X0097914Y0053372D01*
X0097416Y0052874D01*
X0097146Y0052223D01*
X0097146Y0051518D01*
X0097416Y0050867D01*
X0097914Y0050369D01*
X0098565Y0050099D01*
X0099270Y0050099D01*
X0099921Y0050369D01*
X0100419Y0050867D01*
X0100689Y0051518D01*
X0100689Y0052223D01*
X0100419Y0052874D01*
X0099921Y0053372D01*
X0099270Y0053642D01*
D02*
G37*
G36*
X0028207Y0056792D02*
X0027502Y0056792D01*
X0026851Y0056522D01*
X0026352Y0056024D01*
X0026083Y0055372D01*
X0026083Y0054668D01*
X0026241Y0054285D01*
X0026287Y0053921D01*
X0025900Y0053356D01*
X0025684Y0053267D01*
X0025186Y0052768D01*
X0024916Y0052117D01*
X0024916Y0051412D01*
X0025186Y0050761D01*
X0025684Y0050263D01*
X0026336Y0049993D01*
X0026500Y0049993D01*
X0026656Y0049206D01*
X0026260Y0049042D01*
X0025762Y0048543D01*
X0025492Y0047892D01*
X0025492Y0047187D01*
X0025762Y0046536D01*
X0026260Y0046038D01*
X0026912Y0045768D01*
X0027616Y0045768D01*
X0028268Y0046038D01*
X0028766Y0046536D01*
X0029036Y0047187D01*
X0029036Y0047892D01*
X0028766Y0048543D01*
X0028268Y0049042D01*
X0027616Y0049311D01*
X0027452Y0049311D01*
X0027295Y0050099D01*
X0027691Y0050263D01*
X0028130Y0050701D01*
X0028529Y0050718D01*
X0029000Y0050659D01*
X0029071Y0050485D01*
X0029570Y0049987D01*
X0030221Y0049717D01*
X0030926Y0049717D01*
X0031577Y0049987D01*
X0032075Y0050485D01*
X0032345Y0051136D01*
X0032345Y0051841D01*
X0032075Y0052492D01*
X0031577Y0052991D01*
X0030926Y0053260D01*
X0030221Y0053260D01*
X0029570Y0052991D01*
X0028873Y0053032D01*
X0028858Y0053518D01*
X0029356Y0054016D01*
X0029626Y0054668D01*
X0029626Y0055372D01*
X0029356Y0056024D01*
X0028858Y0056522D01*
X0028207Y0056792D01*
D02*
G37*
G36*
X0021514Y0052658D02*
X0020809Y0052658D01*
X0020158Y0052388D01*
X0019660Y0051890D01*
X0019390Y0051238D01*
X0019390Y0050534D01*
X0019660Y0049883D01*
X0020158Y0049384D01*
X0020809Y0049114D01*
X0021514Y0049114D01*
X0022165Y0049384D01*
X0022663Y0049883D01*
X0022933Y0050534D01*
X0022933Y0051238D01*
X0022663Y0051890D01*
X0022165Y0052388D01*
X0021514Y0052658D01*
D02*
G37*
G36*
X0059817Y0052399D02*
X0059112Y0052399D01*
X0058461Y0052129D01*
X0057963Y0051631D01*
X0057693Y0050979D01*
X0057693Y0050275D01*
X0057963Y0049624D01*
X0058461Y0049125D01*
X0059112Y0048855D01*
X0059817Y0048855D01*
X0060468Y0049125D01*
X0060967Y0049624D01*
X0061237Y0050275D01*
X0061237Y0050979D01*
X0060967Y0051631D01*
X0060468Y0052129D01*
X0059817Y0052399D01*
D02*
G37*
G36*
X0141199Y0051280D02*
X0140494Y0051280D01*
X0139843Y0051010D01*
X0139345Y0050512D01*
X0139075Y0049861D01*
X0139075Y0049156D01*
X0139345Y0048505D01*
X0139843Y0048006D01*
X0140494Y0047737D01*
X0141199Y0047737D01*
X0141850Y0048006D01*
X0142348Y0048505D01*
X0142618Y0049156D01*
X0142618Y0049861D01*
X0142348Y0050512D01*
X0141850Y0051010D01*
X0141199Y0051280D01*
D02*
G37*
G36*
X0135294Y0051280D02*
X0134589Y0051280D01*
X0133937Y0051010D01*
X0133439Y0050512D01*
X0133169Y0049861D01*
X0133169Y0049156D01*
X0133439Y0048505D01*
X0133937Y0048006D01*
X0134589Y0047737D01*
X0135294Y0047737D01*
X0135945Y0048006D01*
X0136443Y0048505D01*
X0136713Y0049156D01*
X0136713Y0049861D01*
X0136443Y0050512D01*
X0135945Y0051010D01*
X0135294Y0051280D01*
D02*
G37*
G36*
X0118364Y0051280D02*
X0117660Y0051280D01*
X0117008Y0051010D01*
X0116510Y0050512D01*
X0116240Y0049861D01*
X0116240Y0049156D01*
X0116510Y0048505D01*
X0117008Y0048006D01*
X0117660Y0047737D01*
X0118364Y0047737D01*
X0119015Y0048006D01*
X0119514Y0048505D01*
X0119784Y0049156D01*
X0119784Y0049861D01*
X0119514Y0050512D01*
X0119015Y0051010D01*
X0118364Y0051280D01*
D02*
G37*
G36*
X0112459Y0051280D02*
X0111754Y0051280D01*
X0111103Y0051010D01*
X0110605Y0050512D01*
X0110335Y0049861D01*
X0110335Y0049156D01*
X0110605Y0048505D01*
X0111103Y0048006D01*
X0111754Y0047737D01*
X0112459Y0047737D01*
X0113110Y0048006D01*
X0113608Y0048505D01*
X0113878Y0049156D01*
X0113878Y0049861D01*
X0113608Y0050512D01*
X0113110Y0051010D01*
X0112459Y0051280D01*
D02*
G37*
G36*
X0095530Y0051280D02*
X0094825Y0051280D01*
X0094174Y0051010D01*
X0093675Y0050512D01*
X0093406Y0049861D01*
X0093406Y0049156D01*
X0093675Y0048505D01*
X0094174Y0048006D01*
X0094825Y0047737D01*
X0095530Y0047737D01*
X0096181Y0048006D01*
X0096679Y0048505D01*
X0096949Y0049156D01*
X0096949Y0049861D01*
X0096679Y0050512D01*
X0096181Y0051010D01*
X0095530Y0051280D01*
D02*
G37*
G36*
X0090018Y0051280D02*
X0089313Y0051280D01*
X0088662Y0051010D01*
X0088164Y0050512D01*
X0087894Y0049861D01*
X0087894Y0049156D01*
X0088164Y0048505D01*
X0088662Y0048006D01*
X0089313Y0047737D01*
X0090018Y0047737D01*
X0090669Y0048006D01*
X0091167Y0048505D01*
X0091437Y0049156D01*
X0091437Y0049861D01*
X0091167Y0050512D01*
X0090669Y0051010D01*
X0090018Y0051280D01*
D02*
G37*
G36*
X0064821Y0049311D02*
X0064116Y0049311D01*
X0063465Y0049042D01*
X0062967Y0048543D01*
X0062697Y0047892D01*
X0062697Y0047187D01*
X0062967Y0046536D01*
X0063465Y0046038D01*
X0064116Y0045768D01*
X0064821Y0045768D01*
X0065472Y0046038D01*
X0065971Y0046536D01*
X0066240Y0047187D01*
X0066240Y0047892D01*
X0065971Y0048543D01*
X0065472Y0049042D01*
X0064821Y0049311D01*
D02*
G37*
G36*
X0052419Y0049311D02*
X0051715Y0049311D01*
X0051063Y0049042D01*
X0050565Y0048543D01*
X0050295Y0047892D01*
X0050295Y0047187D01*
X0050565Y0046536D01*
X0051063Y0046038D01*
X0051715Y0045768D01*
X0052419Y0045768D01*
X0053071Y0046038D01*
X0053569Y0046536D01*
X0053839Y0047187D01*
X0053839Y0047892D01*
X0053569Y0048543D01*
X0053071Y0049042D01*
X0052419Y0049311D01*
D02*
G37*
G36*
X0040018Y0049311D02*
X0039313Y0049311D01*
X0038662Y0049042D01*
X0038164Y0048543D01*
X0037894Y0047892D01*
X0037894Y0047187D01*
X0038164Y0046536D01*
X0038662Y0046038D01*
X0039313Y0045768D01*
X0040018Y0045768D01*
X0040669Y0046038D01*
X0041167Y0046536D01*
X0041437Y0047187D01*
X0041437Y0047892D01*
X0041167Y0048543D01*
X0040669Y0049042D01*
X0040018Y0049311D01*
D02*
G37*
G36*
X0015215Y0049311D02*
X0014510Y0049311D01*
X0013859Y0049042D01*
X0013360Y0048543D01*
X0013091Y0047892D01*
X0013091Y0047187D01*
X0013360Y0046536D01*
X0013859Y0046038D01*
X0014510Y0045768D01*
X0015215Y0045768D01*
X0015866Y0046038D01*
X0016364Y0046536D01*
X0016634Y0047187D01*
X0016634Y0047892D01*
X0016364Y0048543D01*
X0015866Y0049042D01*
X0015215Y0049311D01*
D02*
G37*
G36*
X0160127Y0050129D02*
X0159422Y0050129D01*
X0158771Y0049859D01*
X0158272Y0049361D01*
X0158003Y0048710D01*
X0158003Y0048005D01*
X0158052Y0047885D01*
X0158150Y0047073D01*
X0157652Y0046575D01*
X0157382Y0045924D01*
X0157382Y0045219D01*
X0157652Y0044568D01*
X0158150Y0044069D01*
X0158801Y0043800D01*
X0159506Y0043800D01*
X0160157Y0044069D01*
X0160656Y0044568D01*
X0160925Y0045219D01*
X0160925Y0045924D01*
X0160876Y0046043D01*
X0160778Y0046855D01*
X0161276Y0047354D01*
X0161546Y0048005D01*
X0161546Y0048710D01*
X0161276Y0049361D01*
X0160778Y0049859D01*
X0160127Y0050129D01*
D02*
G37*
G36*
X0164526Y0047146D02*
X0163821Y0047146D01*
X0163170Y0046876D01*
X0162671Y0046378D01*
X0162402Y0045727D01*
X0162402Y0045022D01*
X0162671Y0044371D01*
X0163170Y0043872D01*
X0163821Y0043603D01*
X0164526Y0043603D01*
X0165177Y0043872D01*
X0165675Y0044371D01*
X0165945Y0045022D01*
X0165945Y0045727D01*
X0165675Y0046378D01*
X0165177Y0046876D01*
X0164526Y0047146D01*
D02*
G37*
G36*
X0173358Y0046652D02*
X0172653Y0046652D01*
X0172002Y0046382D01*
X0171503Y0045884D01*
X0171234Y0045233D01*
X0171234Y0044528D01*
X0171503Y0043877D01*
X0172002Y0043378D01*
X0172653Y0043109D01*
X0173358Y0043109D01*
X0174009Y0043378D01*
X0174507Y0043877D01*
X0174777Y0044528D01*
X0174777Y0045233D01*
X0174507Y0045884D01*
X0174009Y0046382D01*
X0173358Y0046652D01*
D02*
G37*
G36*
X0071389Y0046376D02*
X0070684Y0046376D01*
X0070033Y0046106D01*
X0069534Y0045607D01*
X0069265Y0044956D01*
X0069265Y0044251D01*
X0069534Y0043600D01*
X0070033Y0043102D01*
X0070684Y0042832D01*
X0071389Y0042832D01*
X0072040Y0043102D01*
X0072538Y0043600D01*
X0072808Y0044251D01*
X0072808Y0044956D01*
X0072538Y0045607D01*
X0072040Y0046106D01*
X0071389Y0046376D01*
D02*
G37*
G36*
X0168758Y0045768D02*
X0168053Y0045768D01*
X0167402Y0045498D01*
X0166904Y0045000D01*
X0166634Y0044349D01*
X0166634Y0043644D01*
X0166904Y0042993D01*
X0167402Y0042495D01*
X0168053Y0042225D01*
X0168758Y0042225D01*
X0169409Y0042495D01*
X0169908Y0042993D01*
X0170177Y0043644D01*
X0170177Y0044349D01*
X0169908Y0045000D01*
X0169409Y0045498D01*
X0168758Y0045768D01*
D02*
G37*
G36*
X0053010Y0043406D02*
X0052305Y0043406D01*
X0051654Y0043136D01*
X0051156Y0042638D01*
X0050919Y0042067D01*
X0050646Y0041987D01*
X0050099Y0041988D01*
X0050075Y0042047D01*
X0049577Y0042545D01*
X0048925Y0042815D01*
X0048221Y0042815D01*
X0047569Y0042545D01*
X0047071Y0042047D01*
X0046801Y0041396D01*
X0046801Y0040691D01*
X0047071Y0040040D01*
X0047569Y0039542D01*
X0048221Y0039272D01*
X0048925Y0039272D01*
X0049577Y0039542D01*
X0050075Y0040040D01*
X0050312Y0040611D01*
X0050585Y0040691D01*
X0051131Y0040689D01*
X0051156Y0040631D01*
X0051654Y0040132D01*
X0052305Y0039863D01*
X0053010Y0039863D01*
X0053661Y0040132D01*
X0053823Y0040294D01*
X0054678Y0040238D01*
X0054759Y0040177D01*
X0055197Y0039739D01*
X0055849Y0039469D01*
X0056553Y0039469D01*
X0057205Y0039739D01*
X0057703Y0040237D01*
X0057973Y0040888D01*
X0057973Y0041593D01*
X0057703Y0042244D01*
X0057205Y0042742D01*
X0056553Y0043012D01*
X0055849Y0043012D01*
X0055197Y0042742D01*
X0055035Y0042581D01*
X0054181Y0042636D01*
X0054100Y0042698D01*
X0053661Y0043136D01*
X0053010Y0043406D01*
D02*
G37*
G36*
X0022756Y0044768D02*
X0022051Y0044768D01*
X0021400Y0044498D01*
X0020901Y0044000D01*
X0020632Y0043349D01*
X0020632Y0042644D01*
X0020901Y0041993D01*
X0021400Y0041494D01*
X0022051Y0041224D01*
X0022756Y0041224D01*
X0023407Y0041494D01*
X0023905Y0041993D01*
X0024175Y0042644D01*
X0024175Y0043349D01*
X0023905Y0044000D01*
X0023407Y0044498D01*
X0022756Y0044768D01*
D02*
G37*
G36*
X0078809Y0043973D02*
X0078104Y0043973D01*
X0077453Y0043703D01*
X0076954Y0043205D01*
X0076685Y0042554D01*
X0076685Y0041849D01*
X0076954Y0041198D01*
X0077453Y0040699D01*
X0078104Y0040430D01*
X0078809Y0040430D01*
X0079460Y0040699D01*
X0079958Y0041198D01*
X0080228Y0041849D01*
X0080228Y0042554D01*
X0079958Y0043205D01*
X0079460Y0043703D01*
X0078809Y0043973D01*
D02*
G37*
G36*
X0129585Y0043800D02*
X0128880Y0043800D01*
X0128229Y0043530D01*
X0127730Y0043032D01*
X0127461Y0042380D01*
X0127461Y0041676D01*
X0127730Y0041024D01*
X0128229Y0040526D01*
X0128880Y0040256D01*
X0129585Y0040256D01*
X0130236Y0040526D01*
X0130734Y0041024D01*
X0131004Y0041676D01*
X0131004Y0042380D01*
X0130734Y0043032D01*
X0130236Y0043530D01*
X0129585Y0043800D01*
D02*
G37*
G36*
X0100031Y0043651D02*
X0099326Y0043651D01*
X0098675Y0043381D01*
X0098177Y0042883D01*
X0097907Y0042232D01*
X0097907Y0041527D01*
X0098177Y0040876D01*
X0098675Y0040377D01*
X0099326Y0040108D01*
X0100031Y0040108D01*
X0100682Y0040377D01*
X0101181Y0040876D01*
X0101450Y0041527D01*
X0101450Y0042232D01*
X0101181Y0042883D01*
X0100682Y0043381D01*
X0100031Y0043651D01*
D02*
G37*
G36*
X0042380Y0043504D02*
X0041675Y0043504D01*
X0041024Y0043235D01*
X0040526Y0042736D01*
X0040256Y0042085D01*
X0040256Y0041380D01*
X0040526Y0040729D01*
X0041024Y0040231D01*
X0041675Y0039961D01*
X0042380Y0039961D01*
X0043031Y0040231D01*
X0043530Y0040729D01*
X0043799Y0041380D01*
X0043799Y0042085D01*
X0043530Y0042736D01*
X0043031Y0043235D01*
X0042380Y0043504D01*
D02*
G37*
G36*
X0037656Y0043504D02*
X0036951Y0043504D01*
X0036300Y0043235D01*
X0035801Y0042736D01*
X0035532Y0042085D01*
X0035532Y0041380D01*
X0035801Y0040729D01*
X0036300Y0040231D01*
X0036951Y0039961D01*
X0037656Y0039961D01*
X0038307Y0040231D01*
X0038805Y0040729D01*
X0039075Y0041380D01*
X0039075Y0042085D01*
X0038805Y0042736D01*
X0038307Y0043235D01*
X0037656Y0043504D01*
D02*
G37*
G36*
X0149467Y0043406D02*
X0148762Y0043406D01*
X0148111Y0043136D01*
X0147612Y0042638D01*
X0147343Y0041987D01*
X0147343Y0041282D01*
X0147612Y0040631D01*
X0148111Y0040132D01*
X0148762Y0039863D01*
X0149467Y0039863D01*
X0150118Y0040132D01*
X0150616Y0040631D01*
X0150886Y0041282D01*
X0150886Y0041987D01*
X0150616Y0042638D01*
X0150118Y0043136D01*
X0149467Y0043406D01*
D02*
G37*
G36*
X0143414Y0042815D02*
X0142709Y0042815D01*
X0142058Y0042545D01*
X0141559Y0042047D01*
X0141290Y0041396D01*
X0141290Y0040691D01*
X0141559Y0040040D01*
X0142058Y0039542D01*
X0142709Y0039272D01*
X0143414Y0039272D01*
X0144065Y0039542D01*
X0144563Y0040040D01*
X0144833Y0040691D01*
X0144833Y0041396D01*
X0144563Y0042047D01*
X0144065Y0042545D01*
X0143414Y0042815D01*
D02*
G37*
G36*
X0124516Y0042815D02*
X0123811Y0042815D01*
X0123160Y0042545D01*
X0122662Y0042047D01*
X0122392Y0041396D01*
X0122392Y0040691D01*
X0122662Y0040040D01*
X0123160Y0039542D01*
X0123811Y0039272D01*
X0124516Y0039272D01*
X0125167Y0039542D01*
X0125666Y0040040D01*
X0125935Y0040691D01*
X0125935Y0041396D01*
X0125666Y0042047D01*
X0125167Y0042545D01*
X0124516Y0042815D01*
D02*
G37*
G36*
X0105618Y0042815D02*
X0104913Y0042815D01*
X0104262Y0042545D01*
X0103764Y0042047D01*
X0103494Y0041396D01*
X0103494Y0040691D01*
X0103764Y0040040D01*
X0104262Y0039542D01*
X0104913Y0039272D01*
X0105618Y0039272D01*
X0106269Y0039542D01*
X0106768Y0040040D01*
X0107038Y0040691D01*
X0107038Y0041396D01*
X0106768Y0042047D01*
X0106269Y0042545D01*
X0105618Y0042815D01*
D02*
G37*
G36*
X0086721Y0042815D02*
X0086016Y0042815D01*
X0085365Y0042545D01*
X0084866Y0042047D01*
X0084597Y0041396D01*
X0084597Y0040691D01*
X0084866Y0040040D01*
X0085365Y0039542D01*
X0086016Y0039272D01*
X0086721Y0039272D01*
X0087372Y0039542D01*
X0087870Y0040040D01*
X0088140Y0040691D01*
X0088140Y0041396D01*
X0087870Y0042047D01*
X0087372Y0042545D01*
X0086721Y0042815D01*
D02*
G37*
G36*
X0067823Y0042815D02*
X0067118Y0042815D01*
X0066467Y0042545D01*
X0065969Y0042047D01*
X0065699Y0041396D01*
X0065699Y0040691D01*
X0065969Y0040040D01*
X0066467Y0039542D01*
X0067118Y0039272D01*
X0067823Y0039272D01*
X0068474Y0039542D01*
X0068972Y0040040D01*
X0069242Y0040691D01*
X0069242Y0041396D01*
X0068972Y0042047D01*
X0068474Y0042545D01*
X0067823Y0042815D01*
D02*
G37*
G36*
X0030028Y0042815D02*
X0029323Y0042815D01*
X0028672Y0042545D01*
X0028173Y0042047D01*
X0027904Y0041396D01*
X0027904Y0040691D01*
X0028173Y0040040D01*
X0028672Y0039542D01*
X0029323Y0039272D01*
X0030028Y0039272D01*
X0030679Y0039542D01*
X0031177Y0040040D01*
X0031447Y0040691D01*
X0031447Y0041396D01*
X0031177Y0042047D01*
X0030679Y0042545D01*
X0030028Y0042815D01*
D02*
G37*
G36*
X0154978Y0041831D02*
X0154274Y0041831D01*
X0153623Y0041561D01*
X0153124Y0041063D01*
X0152854Y0040412D01*
X0152854Y0039707D01*
X0153124Y0039056D01*
X0153623Y0038558D01*
X0154274Y0038288D01*
X0154978Y0038288D01*
X0155630Y0038558D01*
X0156128Y0039056D01*
X0156398Y0039707D01*
X0156398Y0040412D01*
X0156128Y0041063D01*
X0155630Y0041561D01*
X0154978Y0041831D01*
D02*
G37*
G36*
X0018758Y0041437D02*
X0018053Y0041437D01*
X0017402Y0041168D01*
X0016904Y0040669D01*
X0016634Y0040018D01*
X0016634Y0039313D01*
X0016904Y0038662D01*
X0017402Y0038164D01*
X0018053Y0037894D01*
X0018758Y0037894D01*
X0019409Y0038164D01*
X0019908Y0038662D01*
X0020177Y0039313D01*
X0020177Y0040018D01*
X0019908Y0040669D01*
X0019409Y0041168D01*
X0018758Y0041437D01*
D02*
G37*
G36*
X0163640Y0037894D02*
X0162935Y0037894D01*
X0162284Y0037624D01*
X0162007Y0037347D01*
X0161516Y0037204D01*
X0161025Y0037347D01*
X0160748Y0037624D01*
X0160097Y0037894D01*
X0159392Y0037894D01*
X0158741Y0037624D01*
X0158242Y0037126D01*
X0157973Y0036475D01*
X0157973Y0035770D01*
X0158242Y0035119D01*
X0158741Y0034620D01*
X0159392Y0034351D01*
X0160097Y0034351D01*
X0160748Y0034620D01*
X0161025Y0034898D01*
X0161516Y0035040D01*
X0162007Y0034898D01*
X0162284Y0034620D01*
X0162935Y0034351D01*
X0163640Y0034351D01*
X0164291Y0034620D01*
X0164790Y0035119D01*
X0165059Y0035770D01*
X0165059Y0036475D01*
X0164790Y0037126D01*
X0164291Y0037624D01*
X0163640Y0037894D01*
D02*
G37*
G36*
X0016396Y0036614D02*
X0015691Y0036614D01*
X0015040Y0036345D01*
X0014542Y0035846D01*
X0014272Y0035195D01*
X0014272Y0034490D01*
X0014542Y0033839D01*
X0015040Y0033341D01*
X0015691Y0033071D01*
X0016396Y0033071D01*
X0017047Y0033341D01*
X0017545Y0033839D01*
X0017815Y0034490D01*
X0017815Y0035195D01*
X0017545Y0035846D01*
X0017047Y0036345D01*
X0016396Y0036614D01*
D02*
G37*
G36*
X0030412Y0032618D02*
X0029707Y0032618D01*
X0029056Y0032349D01*
X0029011Y0032304D01*
X0028218Y0032112D01*
X0027916Y0032238D01*
X0027567Y0032382D01*
X0026862Y0032382D01*
X0026211Y0032112D01*
X0025713Y0031614D01*
X0025443Y0030963D01*
X0025443Y0030258D01*
X0025713Y0029607D01*
X0026211Y0029109D01*
X0026862Y0028839D01*
X0027567Y0028839D01*
X0028218Y0029109D01*
X0028263Y0029153D01*
X0029056Y0029345D01*
X0029358Y0029220D01*
X0029707Y0029075D01*
X0030412Y0029075D01*
X0031063Y0029345D01*
X0031561Y0029843D01*
X0031831Y0030494D01*
X0031831Y0031199D01*
X0031561Y0031850D01*
X0031063Y0032349D01*
X0030412Y0032618D01*
D02*
G37*
G36*
X0067064Y0032595D02*
X0066359Y0032595D01*
X0065708Y0032325D01*
X0065242Y0031860D01*
X0064862Y0032240D01*
X0064211Y0032510D01*
X0063506Y0032510D01*
X0062855Y0032240D01*
X0062356Y0031742D01*
X0062087Y0031091D01*
X0062087Y0030386D01*
X0062356Y0029735D01*
X0062855Y0029236D01*
X0063506Y0028967D01*
X0064211Y0028967D01*
X0064862Y0029236D01*
X0065327Y0029702D01*
X0065708Y0029322D01*
X0066359Y0029052D01*
X0067064Y0029052D01*
X0067715Y0029322D01*
X0068213Y0029820D01*
X0068483Y0030471D01*
X0068483Y0031176D01*
X0068213Y0031827D01*
X0067715Y0032325D01*
X0067064Y0032595D01*
D02*
G37*
G36*
X0143561Y0032382D02*
X0142856Y0032382D01*
X0142205Y0032112D01*
X0142148Y0032056D01*
X0141634Y0031669D01*
X0141120Y0032056D01*
X0141063Y0032112D01*
X0140412Y0032382D01*
X0139707Y0032382D01*
X0139056Y0032112D01*
X0138557Y0031614D01*
X0138288Y0030963D01*
X0138288Y0030258D01*
X0138557Y0029607D01*
X0139056Y0029109D01*
X0139707Y0028839D01*
X0140412Y0028839D01*
X0141063Y0029109D01*
X0141120Y0029165D01*
X0141634Y0029552D01*
X0142148Y0029165D01*
X0142205Y0029109D01*
X0142856Y0028839D01*
X0143561Y0028839D01*
X0144212Y0029109D01*
X0144711Y0029607D01*
X0144980Y0030258D01*
X0144980Y0030963D01*
X0144711Y0031614D01*
X0144212Y0032112D01*
X0143561Y0032382D01*
D02*
G37*
G36*
X0124664Y0032382D02*
X0123959Y0032382D01*
X0123308Y0032112D01*
X0123251Y0032056D01*
X0122736Y0031669D01*
X0122222Y0032056D01*
X0122165Y0032112D01*
X0121514Y0032382D01*
X0120809Y0032382D01*
X0120158Y0032112D01*
X0119660Y0031614D01*
X0119390Y0030963D01*
X0119390Y0030258D01*
X0119660Y0029607D01*
X0120158Y0029109D01*
X0120809Y0028839D01*
X0121514Y0028839D01*
X0122165Y0029109D01*
X0122222Y0029165D01*
X0122736Y0029552D01*
X0123251Y0029165D01*
X0123308Y0029109D01*
X0123959Y0028839D01*
X0124664Y0028839D01*
X0125315Y0029109D01*
X0125813Y0029607D01*
X0126083Y0030258D01*
X0126083Y0030963D01*
X0125813Y0031614D01*
X0125315Y0032112D01*
X0124664Y0032382D01*
D02*
G37*
G36*
X0173089Y0041044D02*
X0172384Y0041044D01*
X0171733Y0040774D01*
X0171234Y0040276D01*
X0170965Y0039624D01*
X0170965Y0038920D01*
X0171234Y0038268D01*
X0171733Y0037770D01*
X0171884Y0037708D01*
X0172337Y0037211D01*
X0172265Y0036762D01*
X0172146Y0036475D01*
X0172146Y0035770D01*
X0172416Y0035119D01*
X0172914Y0034620D01*
X0173175Y0034513D01*
X0173203Y0034370D01*
X0172933Y0033719D01*
X0172933Y0033014D01*
X0173203Y0032363D01*
X0173701Y0031865D01*
X0174352Y0031595D01*
X0175057Y0031595D01*
X0175708Y0031865D01*
X0176207Y0032363D01*
X0176476Y0033014D01*
X0176476Y0033719D01*
X0176207Y0034370D01*
X0175708Y0034868D01*
X0175448Y0034976D01*
X0175419Y0035119D01*
X0175689Y0035770D01*
X0175689Y0036475D01*
X0175419Y0037126D01*
X0174921Y0037624D01*
X0174770Y0037687D01*
X0174316Y0038183D01*
X0174389Y0038632D01*
X0174508Y0038920D01*
X0174508Y0039624D01*
X0174238Y0040276D01*
X0173740Y0040774D01*
X0173089Y0041044D01*
D02*
G37*
G36*
X0049546Y0032684D02*
X0048841Y0032684D01*
X0048190Y0032414D01*
X0047692Y0031916D01*
X0047454Y0031341D01*
X0047060Y0031301D01*
X0046666Y0031341D01*
X0046428Y0031916D01*
X0045930Y0032414D01*
X0045279Y0032684D01*
X0044574Y0032684D01*
X0043923Y0032414D01*
X0043424Y0031916D01*
X0043155Y0031265D01*
X0043155Y0030560D01*
X0043424Y0029909D01*
X0043923Y0029410D01*
X0044574Y0029141D01*
X0045279Y0029141D01*
X0045930Y0029410D01*
X0046428Y0029909D01*
X0046666Y0030483D01*
X0047060Y0030523D01*
X0047454Y0030483D01*
X0047692Y0029909D01*
X0048190Y0029410D01*
X0048841Y0029141D01*
X0049546Y0029141D01*
X0050197Y0029410D01*
X0050696Y0029909D01*
X0050965Y0030560D01*
X0050965Y0031265D01*
X0050696Y0031916D01*
X0050197Y0032414D01*
X0049546Y0032684D01*
D02*
G37*
G36*
X0105963Y0032382D02*
X0105258Y0032382D01*
X0104607Y0032112D01*
X0104108Y0031614D01*
X0103988Y0031323D01*
X0103795Y0031238D01*
X0103111Y0031170D01*
X0102775Y0031506D01*
X0102124Y0031776D01*
X0101419Y0031776D01*
X0100768Y0031506D01*
X0100270Y0031008D01*
X0100000Y0030357D01*
X0100000Y0029652D01*
X0100270Y0029001D01*
X0100768Y0028502D01*
X0101419Y0028233D01*
X0102124Y0028233D01*
X0102775Y0028502D01*
X0103274Y0029001D01*
X0103394Y0029292D01*
X0103587Y0029377D01*
X0104271Y0029445D01*
X0104607Y0029109D01*
X0105258Y0028839D01*
X0105963Y0028839D01*
X0106614Y0029109D01*
X0107112Y0029607D01*
X0107382Y0030258D01*
X0107382Y0030963D01*
X0107112Y0031614D01*
X0106614Y0032112D01*
X0105963Y0032382D01*
D02*
G37*
G36*
X0096317Y0030807D02*
X0095612Y0030807D01*
X0094961Y0030538D01*
X0094904Y0030481D01*
X0094390Y0030094D01*
X0093875Y0030481D01*
X0093819Y0030538D01*
X0093168Y0030807D01*
X0092463Y0030807D01*
X0091812Y0030538D01*
X0091313Y0030039D01*
X0091044Y0029388D01*
X0091044Y0028683D01*
X0091313Y0028032D01*
X0091812Y0027534D01*
X0092463Y0027264D01*
X0093168Y0027264D01*
X0093819Y0027534D01*
X0093875Y0027591D01*
X0094390Y0027977D01*
X0094904Y0027591D01*
X0094961Y0027534D01*
X0095612Y0027264D01*
X0096317Y0027264D01*
X0096968Y0027534D01*
X0097467Y0028032D01*
X0097736Y0028683D01*
X0097736Y0029388D01*
X0097467Y0030039D01*
X0096968Y0030538D01*
X0096317Y0030807D01*
D02*
G37*
G36*
X0058522Y0030807D02*
X0057817Y0030807D01*
X0057166Y0030538D01*
X0057109Y0030481D01*
X0056595Y0030094D01*
X0056080Y0030481D01*
X0056023Y0030538D01*
X0055372Y0030807D01*
X0054667Y0030807D01*
X0054016Y0030538D01*
X0053518Y0030039D01*
X0053248Y0029388D01*
X0053248Y0028683D01*
X0053518Y0028032D01*
X0054016Y0027534D01*
X0054667Y0027264D01*
X0055372Y0027264D01*
X0056023Y0027534D01*
X0056080Y0027591D01*
X0056595Y0027977D01*
X0057109Y0027591D01*
X0057166Y0027534D01*
X0057817Y0027264D01*
X0058522Y0027264D01*
X0059173Y0027534D01*
X0059671Y0028032D01*
X0059941Y0028683D01*
X0059941Y0029388D01*
X0059671Y0030039D01*
X0059173Y0030538D01*
X0058522Y0030807D01*
D02*
G37*
G36*
X0134112Y0030807D02*
X0133408Y0030807D01*
X0132757Y0030538D01*
X0132700Y0030481D01*
X0132185Y0030094D01*
X0131671Y0030481D01*
X0131614Y0030538D01*
X0130963Y0030807D01*
X0130258Y0030807D01*
X0129607Y0030538D01*
X0129108Y0030039D01*
X0128839Y0029388D01*
X0128839Y0028683D01*
X0129108Y0028032D01*
X0129607Y0027534D01*
X0130258Y0027264D01*
X0130963Y0027264D01*
X0131614Y0027534D01*
X0131671Y0027591D01*
X0132185Y0027977D01*
X0132700Y0027591D01*
X0132757Y0027534D01*
X0133408Y0027264D01*
X0134112Y0027264D01*
X0134764Y0027534D01*
X0135262Y0028032D01*
X0135532Y0028683D01*
X0135532Y0029388D01*
X0135262Y0030039D01*
X0134764Y0030538D01*
X0134112Y0030807D01*
D02*
G37*
G36*
X0115215Y0030807D02*
X0114510Y0030807D01*
X0113859Y0030538D01*
X0113802Y0030481D01*
X0113288Y0030094D01*
X0112773Y0030481D01*
X0112716Y0030538D01*
X0112065Y0030807D01*
X0111360Y0030807D01*
X0110709Y0030538D01*
X0110211Y0030039D01*
X0109941Y0029388D01*
X0109941Y0028683D01*
X0110211Y0028032D01*
X0110709Y0027534D01*
X0111360Y0027264D01*
X0112065Y0027264D01*
X0112716Y0027534D01*
X0112773Y0027591D01*
X0113288Y0027977D01*
X0113802Y0027591D01*
X0113859Y0027534D01*
X0114510Y0027264D01*
X0115215Y0027264D01*
X0115866Y0027534D01*
X0116364Y0028032D01*
X0116634Y0028683D01*
X0116634Y0029388D01*
X0116364Y0030039D01*
X0115866Y0030538D01*
X0115215Y0030807D01*
D02*
G37*
G36*
X0039624Y0030807D02*
X0038919Y0030807D01*
X0038268Y0030538D01*
X0038211Y0030481D01*
X0037697Y0030094D01*
X0037183Y0030481D01*
X0037126Y0030538D01*
X0036475Y0030807D01*
X0035770Y0030807D01*
X0035119Y0030538D01*
X0034620Y0030039D01*
X0034350Y0029388D01*
X0034350Y0028683D01*
X0034620Y0028032D01*
X0035119Y0027534D01*
X0035770Y0027264D01*
X0036475Y0027264D01*
X0037126Y0027534D01*
X0037183Y0027591D01*
X0037697Y0027977D01*
X0038211Y0027591D01*
X0038268Y0027534D01*
X0038919Y0027264D01*
X0039624Y0027264D01*
X0040275Y0027534D01*
X0040774Y0028032D01*
X0041043Y0028683D01*
X0041043Y0029388D01*
X0040774Y0030039D01*
X0040275Y0030538D01*
X0039624Y0030807D01*
D02*
G37*
G36*
X0077778Y0030581D02*
X0077073Y0030581D01*
X0076422Y0030311D01*
X0075924Y0029813D01*
X0075089Y0029813D01*
X0074590Y0030311D01*
X0073939Y0030581D01*
X0073234Y0030581D01*
X0072583Y0030311D01*
X0072085Y0029813D01*
X0071815Y0029162D01*
X0071815Y0028457D01*
X0072085Y0027806D01*
X0072583Y0027307D01*
X0073234Y0027038D01*
X0073939Y0027038D01*
X0074590Y0027307D01*
X0075089Y0027806D01*
X0075924Y0027806D01*
X0076422Y0027307D01*
X0077073Y0027038D01*
X0077778Y0027038D01*
X0078429Y0027307D01*
X0078927Y0027806D01*
X0079197Y0028457D01*
X0079197Y0029162D01*
X0078927Y0029813D01*
X0078429Y0030311D01*
X0077778Y0030581D01*
D02*
G37*
G36*
X0082889Y0032850D02*
X0082184Y0032850D01*
X0081533Y0032581D01*
X0081035Y0032082D01*
X0080765Y0031431D01*
X0080765Y0030726D01*
X0081035Y0030075D01*
X0081533Y0029577D01*
X0082184Y0029307D01*
X0082889Y0029307D01*
X0083540Y0029577D01*
X0084039Y0030075D01*
X0084308Y0030726D01*
X0084308Y0031431D01*
X0084039Y0032082D01*
X0083540Y0032581D01*
X0082889Y0032850D01*
D02*
G37*
G36*
X0087310Y0032681D02*
X0086606Y0032681D01*
X0085954Y0032412D01*
X0085456Y0031913D01*
X0085186Y0031262D01*
X0085186Y0030557D01*
X0085456Y0029906D01*
X0085954Y0029408D01*
X0086606Y0029138D01*
X0087310Y0029138D01*
X0087962Y0029408D01*
X0088460Y0029906D01*
X0088730Y0030557D01*
X0088730Y0031262D01*
X0088460Y0031913D01*
X0087962Y0032412D01*
X0087310Y0032681D01*
D02*
G37*
G36*
X0020431Y0032230D02*
X0019726Y0032230D01*
X0019075Y0031960D01*
X0018577Y0031462D01*
X0018307Y0030811D01*
X0018307Y0030106D01*
X0018577Y0029455D01*
X0019075Y0028957D01*
X0019726Y0028687D01*
X0020431Y0028687D01*
X0021082Y0028957D01*
X0021581Y0029455D01*
X0021850Y0030106D01*
X0021850Y0030811D01*
X0021581Y0031462D01*
X0021082Y0031960D01*
X0020431Y0032230D01*
D02*
G37*
G36*
X0152223Y0033170D02*
X0151518Y0033170D01*
X0150867Y0032900D01*
X0150368Y0032402D01*
X0150098Y0031750D01*
X0150098Y0031535D01*
X0149919Y0030987D01*
X0149371Y0030807D01*
X0149156Y0030807D01*
X0148505Y0030538D01*
X0148006Y0030039D01*
X0147736Y0029388D01*
X0147736Y0028683D01*
X0148006Y0028032D01*
X0148505Y0027534D01*
X0149156Y0027264D01*
X0149860Y0027264D01*
X0150512Y0027534D01*
X0151010Y0028032D01*
X0151280Y0028683D01*
X0151280Y0028899D01*
X0151459Y0029447D01*
X0152007Y0029626D01*
X0152223Y0029626D01*
X0152874Y0029896D01*
X0153372Y0030394D01*
X0153642Y0031046D01*
X0153642Y0031750D01*
X0153372Y0032402D01*
X0152874Y0032900D01*
X0152223Y0033170D01*
D02*
G37*
G36*
X0164538Y0024882D02*
X0163833Y0024882D01*
X0163182Y0024613D01*
X0162684Y0024114D01*
X0162414Y0023463D01*
X0162414Y0022759D01*
X0162684Y0022107D01*
X0163182Y0021609D01*
X0163833Y0021339D01*
X0164538Y0021339D01*
X0165189Y0021609D01*
X0165688Y0022107D01*
X0165957Y0022759D01*
X0165957Y0023463D01*
X0165688Y0024114D01*
X0165189Y0024613D01*
X0164538Y0024882D01*
D02*
G37*
G36*
X0159814Y0024882D02*
X0159109Y0024882D01*
X0158458Y0024613D01*
X0157959Y0024114D01*
X0157690Y0023463D01*
X0157690Y0022759D01*
X0157959Y0022107D01*
X0158458Y0021609D01*
X0159109Y0021339D01*
X0159814Y0021339D01*
X0160465Y0021609D01*
X0160963Y0022107D01*
X0161233Y0022759D01*
X0161233Y0023463D01*
X0160963Y0024114D01*
X0160465Y0024613D01*
X0159814Y0024882D01*
D02*
G37*
G36*
X0168964Y0024819D02*
X0168259Y0024819D01*
X0167608Y0024550D01*
X0167110Y0024051D01*
X0166840Y0023400D01*
X0166840Y0022695D01*
X0167110Y0022044D01*
X0167608Y0021546D01*
X0168259Y0021276D01*
X0168964Y0021276D01*
X0169615Y0021546D01*
X0170114Y0022044D01*
X0170383Y0022695D01*
X0170383Y0023400D01*
X0170114Y0024051D01*
X0169615Y0024550D01*
X0168964Y0024819D01*
D02*
G37*
G36*
X0018760Y0021752D02*
X0018055Y0021752D01*
X0017404Y0021483D01*
X0016906Y0020984D01*
X0016636Y0020333D01*
X0016636Y0019628D01*
X0016906Y0018977D01*
X0017404Y0018479D01*
X0018055Y0018209D01*
X0018760Y0018209D01*
X0019412Y0018479D01*
X0019910Y0018977D01*
X0020180Y0019628D01*
X0020180Y0020333D01*
X0019910Y0020984D01*
X0019412Y0021483D01*
X0018760Y0021752D01*
D02*
G37*
%LPD*%
D12*
X0011713Y0040453D02*
D03*
D11*
X0011713Y0017422D02*
D03*
D14*
X0011713Y0064862D02*
D03*
D21*
X0177461Y0016831D02*
D03*
D16*
X0024311Y0170374D02*
D03*
D17*
X0057776Y0170374D02*
D03*
D18*
X0096555Y0170374D02*
D03*
D20*
X0177461Y0039075D02*
D03*
D19*
X0177461Y0164469D02*
D03*
D15*
X0018799Y0013288D02*
D03*
D13*
X0011713Y0150689D02*
D03*
D10*
X0060434Y0089075D02*
D03*
X0026477Y0114469D02*
D03*
X0032382Y0134941D02*
D03*
X0031004Y0119784D02*
D03*
X0051476Y0150292D02*
D03*
X0068406Y0127817D02*
D03*
X0076673Y0134154D02*
D03*
X0076566Y0129737D02*
D03*
X0014862Y0074311D02*
D03*
X0028159Y0106851D02*
D03*
X0083514Y0040650D02*
D03*
X0040962Y0156762D02*
D03*
X0067914Y0143012D02*
D03*
X0099506Y0124703D02*
D03*
X0106988Y0107382D02*
D03*
X0102264Y0102658D02*
D03*
X0167618Y0103150D02*
D03*
X0130610Y0108018D02*
D03*
X0151692Y0154608D02*
D03*
X0127965Y0159919D02*
D03*
X0167058Y0160013D02*
D03*
X0173935Y0151053D02*
D03*
X0144006Y0140917D02*
D03*
X0157775Y0038878D02*
D03*
X0142421Y0126280D02*
D03*
X0142421Y0116831D02*
D03*
X0136516Y0123917D02*
D03*
X0130610Y0140453D02*
D03*
X0122342Y0138091D02*
D03*
X0116437Y0140453D02*
D03*
X0115256Y0105020D02*
D03*
X0116437Y0097933D02*
D03*
X0104626Y0140453D02*
D03*
X0099901Y0145177D02*
D03*
X0021949Y0154626D02*
D03*
X0159998Y0128040D02*
D03*
X0084252Y0141634D02*
D03*
X0026870Y0042028D02*
D03*
X0012894Y0041634D02*
D03*
X0054407Y0167225D02*
D03*
X0085729Y0134154D02*
D03*
X0097540Y0136122D02*
D03*
X0051765Y0169328D02*
D03*
X0087081Y0149693D02*
D03*
X0019587Y0168800D02*
D03*
X0022343Y0138091D02*
D03*
X0013288Y0151477D02*
D03*
X0013484Y0155414D02*
D03*
X0053172Y0093451D02*
D03*
X0151774Y0127166D02*
D03*
X0087303Y0097933D02*
D03*
X0097933Y0107776D02*
D03*
X0166536Y0094489D02*
D03*
X0084154Y0129036D02*
D03*
X0078248Y0073524D02*
D03*
X0105173Y0085734D02*
D03*
X0126852Y0084089D02*
D03*
X0013311Y0018062D02*
D03*
X0018837Y0014387D02*
D03*
X0098290Y0168272D02*
D03*
X0130083Y0122901D02*
D03*
X0076571Y0150812D02*
D03*
X0107243Y0160587D02*
D03*
X0121309Y0041044D02*
D03*
X0091338Y0159646D02*
D03*
X0052854Y0108760D02*
D03*
X0088964Y0168336D02*
D03*
X0030413Y0168800D02*
D03*
X0176280Y0017225D02*
D03*
X0175886Y0162500D02*
D03*
X0028714Y0083801D02*
D03*
X0143886Y0072740D02*
D03*
X0158957Y0078248D02*
D03*
X0036221Y0099508D02*
D03*
X0078150Y0098383D02*
D03*
X0068354Y0110335D02*
D03*
X0151965Y0106580D02*
D03*
X0168393Y0051017D02*
D03*
X0171555Y0042422D02*
D03*
X0163543Y0060925D02*
D03*
X0063287Y0094587D02*
D03*
X0063483Y0143736D02*
D03*
X0063470Y0151501D02*
D03*
X0020592Y0132313D02*
D03*
X0025099Y0126636D02*
D03*
X0057429Y0078544D02*
D03*
X0052756Y0099508D02*
D03*
X0036221Y0106595D02*
D03*
X0036221Y0092422D02*
D03*
X0036221Y0085335D02*
D03*
X0044269Y0085121D02*
D03*
X0043996Y0108170D02*
D03*
X0174705Y0029429D02*
D03*
X0167224Y0016044D02*
D03*
X0157776Y0016044D02*
D03*
X0162500Y0016044D02*
D03*
X0171949Y0016044D02*
D03*
X0140207Y0041044D02*
D03*
X0102412Y0041044D02*
D03*
X0064616Y0041044D02*
D03*
X0045719Y0041044D02*
D03*
M02*
