M48
INCH,TZ
T01C0.011800
T02C0.031500
T03C0.039200
%
T01
X1250Y2785
X1250Y2392
X1250Y13179
X1250Y12785
X1250Y12392
X1250Y11998
X1250Y11604
X1250Y11211
X1250Y7667
X1250Y16959
X1250Y10817
X1250Y10423
X1250Y10030
X1250Y9636
X1250Y9242
X1250Y8848
X1250Y8455
X1250Y8061
X1250Y5305
X1407Y1407
X2352Y1407
X2825Y1407
X3297Y1407
X3612Y16959
X3770Y1407
X3927Y16959
X4242Y16959
X4242Y1407
X4715Y1407
X5187Y1407
X5659Y1407
X6132Y1407
X6604Y1407
X7077Y1407
X7313Y16959
X7549Y1407
X7628Y16959
X7943Y16959
X8022Y1407
X8258Y16959
X8494Y1407
X8573Y16959
X8967Y1407
X9439Y1407
X9911Y1407
X10384Y1407
X10738Y16959
X10856Y1407
X11053Y16959
X11329Y1407
X11368Y16959
X11683Y16959
X11801Y1407
X11998Y16959
X12274Y1407
X12313Y16959
X12628Y16959
X12746Y1407
X12943Y16959
X13219Y1407
X13258Y16959
X13573Y16959
X13691Y1407
X13888Y16959
X14163Y1407
X14203Y16959
X14518Y16959
X14636Y1407
X14833Y16959
X15108Y1407
X15148Y16959
X15463Y16959
X15541Y1407
X15778Y16959
X16014Y1407
X16093Y16959
X16407Y16959
X16486Y1407
X16722Y16959
X16959Y1407
X17037Y16959
X17352Y16959
X17431Y1407
X17667Y14360
X17667Y14045
X17667Y12470
X17667Y12156
X17667Y11841
X17667Y10581
X17667Y10266
X17667Y6801
X17667Y2589
X17667Y16959
X17667Y15935
X17667Y15620
X17667Y15305
X17667Y14990
X17667Y14675
X17667Y13730
X17667Y13415
X17667Y13100
X17667Y12785
X17667Y11526
X17667Y11211
X17667Y10896
X17667Y9951
X17667Y9636
X17667Y9321
X17667Y9006
X17667Y8691
X17667Y8376
X17667Y8061
X17667Y7746
X17667Y7431
X17667Y7116
X17667Y6486
X17667Y6171
X17667Y5856
X17667Y5541
X17667Y5226
X17667Y2274
X1408Y1407
X1331Y1806
X1250Y2391
X1250Y2785
X2008Y3045
X2722Y3061
X3006Y3084
X3612Y2903
X3927Y2903
X4493Y3091
X4919Y3091
X5502Y2903
X5817Y2903
X6386Y3073
X6671Y3082
X7359Y2881
X7743Y2881
X8254Y3107
X8696Y3091
X9282Y2903
X9597Y2903
X10177Y3000
X10561Y3061
X11171Y2903
X11486Y2903
X12116Y3061
X12431Y3061
X13061Y2903
X13376Y2903
X14006Y3061
X14321Y3061
X14951Y2903
X15187Y3139
X15463Y4006
X15778Y3887
X15975Y3612
X16329Y3612
X16417Y4537
X15915Y4557
X15978Y4835
X15876Y5679
X16250Y5817
X16354Y6092
X16457Y5580
X16178Y6906
X16170Y7403
X15856Y7431
X15896Y7824
X15778Y8612
X15183Y8688
X14793Y8730
X14459Y8741
X14715Y8454
X14967Y8294
X15130Y9158
X15146Y9545
X14901Y9705
X15287Y9950
X15197Y10658
X15266Y10935
X15148Y11801
X14951Y12155
X15178Y12716
X15199Y13100
X16000Y12804
X16323Y12583
X16706Y12559
X16285Y14019
X16236Y14669
X16455Y14852
X15893Y15267
X15169Y15460
X14793Y15147
X14549Y15295
X14400Y15974
X14124Y15856
X15346Y16063
X15624Y15937
X15768Y16456
X16083Y16557
X16706Y16001
X12797Y15991
X12499Y16041
X12553Y15402
X12892Y15192
X13489Y14517
X13297Y14281
X13061Y14045
X12234Y13809
X11615Y13705
X11644Y14045
X11334Y13617
X11132Y13415
X11289Y12470
X11723Y12446
X12549Y12706
X12864Y12706
X13008Y12290
X13652Y12391
X13691Y13100
X13919Y13271
X14242Y12628
X14242Y11683
X13297Y11368
X12982Y11368
X13061Y10801
X12982Y9832
X13376Y9832
X13654Y10309
X14368Y10418
X14232Y9661
X14246Y9284
X13179Y9202
X13258Y8483
X13573Y8494
X12685Y8409
X12904Y7628
X13219Y7549
X13849Y7667
X14095Y7522
X14389Y7274
X14026Y6801
X13632Y6801
X12982Y6486
X12667Y6489
X12352Y6486
X11723Y6622
X11456Y6811
X11565Y7352
X11778Y7588
X11928Y7183
X10935Y7352
X11014Y7628
X10148Y7667
X10069Y7313
X10069Y6486
X10384Y6489
X10699Y6525
X10975Y6092
X10975Y5777
X10984Y5492
X11211Y4950
X11801Y4950
X12175Y5187
X12175Y5817
X11742Y5679
X13199Y5541
X13194Y5831
X14026Y5679
X14459Y5817
X14459Y5187
X14085Y4950
X13494Y4950
X12923Y4202
X12416Y4104
X12131Y4104
X10527Y4104
X10241Y4104
X9968Y4188
X9892Y5187
X9518Y4950
X8967Y4950
X8632Y5541
X8627Y5831
X8436Y6501
X8101Y6489
X7786Y6486
X7608Y5817
X7175Y5679
X7274Y4950
X7608Y5187
X7846Y4220
X8351Y4065
X8637Y4104
X7104Y4460
X6747Y4104
X6462Y4104
X6447Y4754
X6397Y5455
X6378Y6132
X6391Y6427
X6378Y6786
X6368Y7273
X6408Y7706
X6028Y7834
X5743Y7854
X5581Y7352
X5719Y6919
X5221Y7030
X4801Y7130
X4776Y7415
X4282Y7431
X3945Y7314
X3546Y7597
X3868Y7943
X4360Y8029
X4427Y8512
X4393Y8848
X4439Y9232
X4439Y9517
X4439Y10069
X4400Y10817
X4597Y11328
X4518Y11604
X4542Y12066
X4506Y12646
X4478Y13415
X4085Y13513
X4075Y13853
X3219Y14084
X3238Y13494
X3292Y12746
X2904Y12667
X2510Y12663
X1860Y12659
X1250Y12785
X1250Y12391
X1250Y11998
X1250Y11604
X1250Y11210
X1250Y10817
X1250Y10423
X1250Y10029
X1250Y9635
X1250Y9242
X1250Y8848
X1250Y8454
X1250Y8061
X1250Y7667
X1486Y7431
X2026Y7598
X2018Y7116
X2293Y6978
X2655Y7018
X2923Y6917
X3583Y6712
X3596Y6427
X3583Y6132
X3612Y5777
X3131Y5920
X2629Y5927
X2786Y5502
X2669Y5176
X3057Y5148
X2726Y4754
X2687Y4202
X2968Y4104
X3730Y4173
X4203Y4173
X4572Y4104
X4857Y4104
X5266Y4163
X5620Y4124
X5207Y4754
X5266Y5187
X5581Y5502
X5443Y5895
X6073Y5895
X5947Y5062
X4203Y5187
X3967Y4754
X4743Y5784
X4784Y6067
X4715Y6643
X5246Y8100
X5317Y9345
X5276Y9950
X5254Y10364
X5286Y10876
X5276Y11446
X5276Y12155
X5276Y12785
X5217Y13449
X6120Y13558
X6144Y14172
X6348Y14373
X6791Y14301
X6841Y13887
X6841Y13602
X6841Y12781
X6827Y12392
X6304Y12391
X6304Y12106
X6590Y12087
X6801Y11840
X6723Y11486
X6836Y11033
X7742Y11040
X8025Y11149
X7904Y11407
X7655Y11724
X7667Y10620
X7815Y9838
X7904Y9439
X7717Y9094
X7431Y8179
X6902Y8163
X6759Y8419
X6723Y7421
X7077Y7128
X7157Y6818
X7825Y7352
X8310Y7366
X8297Y7651
X8458Y8632
X8866Y8675
X8927Y8396
X9203Y8691
X9852Y8715
X9843Y8430
X10286Y8789
X10517Y8573
X11004Y9106
X10111Y9399
X9628Y9403
X9892Y9763
X10226Y10265
X10699Y10738
X9793Y10777
X9321Y11958
X9006Y11919
X8727Y11421
X8258Y10984
X8730Y9793
X6880Y9990
X6644Y9399
X6329Y9458
X5919Y9522
X6043Y8907
X6132Y11506
X7657Y12973
X7667Y13415
X7589Y14045
X7597Y14330
X7729Y14804
X7657Y15081
X7786Y15580
X7333Y16165
X8101Y16720
X8897Y16833
X9222Y16788
X9510Y16830
X9829Y16827
X10143Y16821
X9754Y15935
X9134Y15964
X8848Y15964
X8563Y15974
X8708Y14969
X8770Y14675
X8425Y14163
X8573Y13415
X8415Y12903
X9321Y12824
X9676Y12736
X9951Y12470
X9754Y13612
X9301Y13336
X10463Y14045
X9990Y14517
X9990Y15455
X10384Y15659
X10724Y16058
X11673Y15976
X10856Y14714
X11171Y11261
X11683Y11379
X11905Y11198
X12125Y11379
X12303Y11156
X12156Y9990
X11644Y9793
X11526Y10502
X9441Y7579
X9203Y7234
X9065Y6801
X9360Y6801
X9459Y5679
X9892Y5817
X9675Y1604
X9912Y1407
X10148Y1604
X10384Y1407
X10620Y1604
X10856Y1407
X11093Y1604
X11329Y1407
X11565Y1604
X11801Y1407
X12038Y1604
X12274Y1407
X12510Y1604
X12746Y1407
X12982Y1604
X13219Y1407
X13455Y1604
X13691Y1407
X13927Y1604
X14164Y1407
X14400Y1604
X14636Y1407
X14872Y1604
X15108Y1407
X15541Y1407
X15778Y1604
X16014Y1407
X16250Y1604
X16486Y1407
X16723Y1604
X16419Y2311
X15946Y2311
X14912Y4163
X14306Y4104
X14021Y4104
X14636Y6486
X14951Y6489
X15266Y6486
X15552Y6431
X16654Y9448
X14360Y13809
X14401Y14091
X6920Y14678
X6596Y15009
X6671Y15285
X6347Y15150
X5955Y15600
X5687Y15484
X5397Y15323
X5097Y15310
X5148Y15029
X5384Y14399
X5759Y14134
X5888Y15984
X5217Y15828
X4465Y15521
X4096Y15676
X4077Y15381
X4227Y14977
X3898Y14990
X3404Y15189
X2541Y14987
X2132Y14896
X2195Y15462
X1349Y15541
X1329Y15147
X1919Y16427
X1959Y16880
X3041Y16880
X3681Y16083
X4421Y16180
X5441Y16722
X6447Y16604
X2402Y14044
X2234Y13809
X2059Y13231
X1663Y13218
X1250Y13179
X2376Y11786
X2648Y11446
X2816Y10685
X3622Y10659
X3622Y9950
X3622Y9242
X3622Y8533
X3187Y8149
X2872Y8380
X2372Y7844
X1378Y6752
X1988Y6132
X1663Y5462
X1250Y5305
X1486Y4754
X1289Y4163
X1841Y3966
X1604Y3484
X2240Y4299
X2116Y5088
X1841Y1998
X1884Y1438
X2116Y1604
X2352Y1407
X2589Y1604
X2825Y1407
X3061Y1604
X3297Y1407
X3534Y1604
X3770Y1407
X4006Y1604
X4242Y1407
X4478Y1604
X4715Y1407
X4951Y1604
X5187Y1407
X5423Y1604
X5660Y1407
X5896Y1604
X6132Y1407
X6368Y1604
X6604Y1407
X6841Y1604
X7077Y1407
X7313Y1604
X7549Y1407
X7786Y1604
X8022Y1407
X8258Y1604
X8494Y1407
X8730Y1604
X8967Y1407
X9203Y1604
X9439Y1407
X3101Y11978
X16801Y12135
X16988Y12351
X17667Y12470
X17667Y12785
X17667Y13100
X17667Y13415
X17667Y13730
X17667Y14045
X17667Y14360
X17667Y14675
X17667Y14990
X17667Y15305
X17667Y15620
X17667Y15935
X17589Y16250
X17266Y15935
X17394Y15105
X17429Y13887
X17429Y12943
X16812Y13285
X16839Y11370
X17667Y11525
X17667Y11840
X17667Y12155
X17667Y11210
X17667Y10895
X17667Y10580
X17667Y10265
X17667Y9950
X17667Y9635
X17667Y9320
X17667Y9006
X17667Y8691
X17667Y8376
X17667Y8061
X17667Y7746
X17667Y7431
X17667Y7116
X17667Y6801
X17667Y6486
X17667Y6171
X17667Y5856
X17667Y5541
X17667Y5226
X16839Y5101
X16841Y4399
X17156Y4242
X17301Y4488
X17274Y3927
X17392Y3612
X17471Y3336
X17471Y2943
X17667Y2588
X17667Y2273
X17323Y2303
X16861Y2304
X16959Y1407
X17195Y1604
X17431Y1407
X17628Y1722
X17156Y5777
X16816Y5832
X17384Y8726
X17057Y10315
X16762Y10315
X17038Y16958
X17352Y16958
X17667Y16958
X16723Y16958
X16408Y16958
X16093Y16958
X15778Y16958
X15463Y16958
X15148Y16958
X14833Y16958
X14518Y16958
X14203Y16958
X13888Y16958
X13573Y16958
X13258Y16958
X12943Y16958
X12628Y16958
X12313Y16958
X11998Y16958
X11683Y16958
X11368Y16958
X11053Y16958
X10738Y16958
X8573Y16958
X8258Y16958
X7943Y16958
X7628Y16958
X7313Y16958
X5177Y16932
X4242Y16958
X3927Y16958
X3612Y16958
X1250Y16958
T02
X7116Y7509
X8809Y7391
X10541Y7431
X12431Y7391
X13573Y7391
X14754Y7391
X15266Y7864
T03
X1565Y16643
X4707Y15883
X4707Y16683
X6707Y16283
M30
