G75*
G70*
%OFA0B0*%
%FSLAX25Y25*%
%IPPOS*%
%LPD*%
%AMOC8*
5,1,8,0,0,1.08239X$1,22.5*
%
%AMM1*
21,1,0.035430,0.030320,0.000000,0.000000,90.000000*
21,1,0.028350,0.037400,0.000000,0.000000,90.000000*
1,1,0.007090,0.015160,0.014170*
1,1,0.007090,0.015160,-0.014170*
1,1,0.007090,-0.015160,-0.014170*
1,1,0.007090,-0.015160,0.014170*
%
%AMM10*
21,1,0.025590,0.026380,0.000000,0.000000,90.000000*
21,1,0.020470,0.031500,0.000000,0.000000,90.000000*
1,1,0.005120,0.013190,0.010240*
1,1,0.005120,0.013190,-0.010240*
1,1,0.005120,-0.013190,-0.010240*
1,1,0.005120,-0.013190,0.010240*
%
%AMM11*
21,1,0.017720,0.027950,0.000000,0.000000,90.000000*
21,1,0.014170,0.031500,0.000000,0.000000,90.000000*
1,1,0.003540,0.013980,0.007090*
1,1,0.003540,0.013980,-0.007090*
1,1,0.003540,-0.013980,-0.007090*
1,1,0.003540,-0.013980,0.007090*
%
%AMM12*
21,1,0.031500,0.072440,0.000000,0.000000,90.000000*
21,1,0.025200,0.078740,0.000000,0.000000,90.000000*
1,1,0.006300,0.036220,0.012600*
1,1,0.006300,0.036220,-0.012600*
1,1,0.006300,-0.036220,-0.012600*
1,1,0.006300,-0.036220,0.012600*
%
%AMM13*
21,1,0.012600,0.028980,0.000000,0.000000,90.000000*
21,1,0.010080,0.031500,0.000000,0.000000,90.000000*
1,1,0.002520,0.014490,0.005040*
1,1,0.002520,0.014490,-0.005040*
1,1,0.002520,-0.014490,-0.005040*
1,1,0.002520,-0.014490,0.005040*
%
%AMM14*
21,1,0.012600,0.028980,0.000000,0.000000,180.000000*
21,1,0.010080,0.031500,0.000000,0.000000,180.000000*
1,1,0.002520,-0.005040,0.014490*
1,1,0.002520,0.005040,0.014490*
1,1,0.002520,0.005040,-0.014490*
1,1,0.002520,-0.005040,-0.014490*
%
%AMM15*
21,1,0.039370,0.035430,0.000000,0.000000,270.000000*
21,1,0.031500,0.043310,0.000000,0.000000,270.000000*
1,1,0.007870,-0.017720,-0.015750*
1,1,0.007870,-0.017720,0.015750*
1,1,0.007870,0.017720,0.015750*
1,1,0.007870,0.017720,-0.015750*
%
%AMM16*
21,1,0.027560,0.018900,0.000000,0.000000,90.000000*
21,1,0.022840,0.023620,0.000000,0.000000,90.000000*
1,1,0.004720,0.009450,0.011420*
1,1,0.004720,0.009450,-0.011420*
1,1,0.004720,-0.009450,-0.011420*
1,1,0.004720,-0.009450,0.011420*
%
%AMM2*
21,1,0.043310,0.075980,0.000000,0.000000,0.000000*
21,1,0.034650,0.084650,0.000000,0.000000,0.000000*
1,1,0.008660,0.017320,-0.037990*
1,1,0.008660,-0.017320,-0.037990*
1,1,0.008660,-0.017320,0.037990*
1,1,0.008660,0.017320,0.037990*
%
%AMM3*
21,1,0.043310,0.075990,0.000000,0.000000,0.000000*
21,1,0.034650,0.084650,0.000000,0.000000,0.000000*
1,1,0.008660,0.017320,-0.037990*
1,1,0.008660,-0.017320,-0.037990*
1,1,0.008660,-0.017320,0.037990*
1,1,0.008660,0.017320,0.037990*
%
%AMM4*
21,1,0.137800,0.067720,0.000000,0.000000,0.000000*
21,1,0.120870,0.084650,0.000000,0.000000,0.000000*
1,1,0.016930,0.060430,-0.033860*
1,1,0.016930,-0.060430,-0.033860*
1,1,0.016930,-0.060430,0.033860*
1,1,0.016930,0.060430,0.033860*
%
%AMM5*
21,1,0.039370,0.035430,0.000000,0.000000,0.000000*
21,1,0.031500,0.043310,0.000000,0.000000,0.000000*
1,1,0.007870,0.015750,-0.017720*
1,1,0.007870,-0.015750,-0.017720*
1,1,0.007870,-0.015750,0.017720*
1,1,0.007870,0.015750,0.017720*
%
%AMM6*
21,1,0.023620,0.030710,0.000000,0.000000,180.000000*
21,1,0.018900,0.035430,0.000000,0.000000,180.000000*
1,1,0.004720,-0.009450,0.015350*
1,1,0.004720,0.009450,0.015350*
1,1,0.004720,0.009450,-0.015350*
1,1,0.004720,-0.009450,-0.015350*
%
%AMM7*
21,1,0.027560,0.018900,0.000000,0.000000,180.000000*
21,1,0.022840,0.023620,0.000000,0.000000,180.000000*
1,1,0.004720,-0.011420,0.009450*
1,1,0.004720,0.011420,0.009450*
1,1,0.004720,0.011420,-0.009450*
1,1,0.004720,-0.011420,-0.009450*
%
%AMM8*
21,1,0.023620,0.030710,0.000000,0.000000,270.000000*
21,1,0.018900,0.035430,0.000000,0.000000,270.000000*
1,1,0.004720,-0.015350,-0.009450*
1,1,0.004720,-0.015350,0.009450*
1,1,0.004720,0.015350,0.009450*
1,1,0.004720,0.015350,-0.009450*
%
%AMM9*
21,1,0.086610,0.073230,0.000000,0.000000,90.000000*
21,1,0.069290,0.090550,0.000000,0.000000,90.000000*
1,1,0.017320,0.036610,0.034650*
1,1,0.017320,0.036610,-0.034650*
1,1,0.017320,-0.036610,-0.034650*
1,1,0.017320,-0.036610,0.034650*
%
%ADD11R,0.00787X0.09055*%
%ADD12R,0.00787X0.21260*%
%ADD13R,0.00787X0.33858*%
%ADD14R,0.00787X0.19685*%
%ADD15R,0.05512X0.00787*%
%ADD16R,0.19685X0.00787*%
%ADD17R,0.26772X0.00787*%
%ADD18R,0.17717X0.00787*%
%ADD19R,0.00787X0.06299*%
%ADD20R,0.00787X0.22441*%
%ADD21R,0.00787X0.07874*%
%ADD25O,0.00866X0.05118*%
%ADD26O,0.05118X0.00866*%
%ADD27M1*%
%ADD28M2*%
%ADD29M3*%
%ADD30M4*%
%ADD31M5*%
%ADD32M6*%
%ADD33M7*%
%ADD34M8*%
%ADD35M9*%
%ADD36C,0.03150*%
%ADD37M10*%
%ADD38M11*%
%ADD39M12*%
%ADD40O,0.01181X0.04331*%
%ADD41O,0.04331X0.01181*%
%ADD42M13*%
%ADD43O,0.08661X0.02362*%
%ADD44M14*%
%ADD45R,0.01476X0.01378*%
%ADD46R,0.01378X0.01476*%
%ADD47M15*%
%ADD48M16*%
X0000000Y0000000D02*
%LPD*%
G01*
X0011319Y0012894D02*
G01*
G75*
D12*
X0011713Y0040453D02*
D03*
D11*
X0011713Y0017422D02*
D03*
D14*
X0011713Y0064862D02*
D03*
D21*
X0177461Y0016831D02*
D03*
D16*
X0024311Y0170374D02*
D03*
D17*
X0057776Y0170374D02*
D03*
D18*
X0096555Y0170374D02*
D03*
D20*
X0177461Y0039075D02*
D03*
D19*
X0177461Y0164469D02*
D03*
D15*
X0018799Y0013288D02*
D03*
D13*
X0011713Y0150689D02*
D03*
D25*
X0079724Y0163977D02*
D03*
X0081693Y0163977D02*
D03*
X0083661Y0163977D02*
D03*
X0085630Y0163977D02*
D03*
X0087598Y0163977D02*
D03*
X0089567Y0163977D02*
D03*
X0091535Y0163977D02*
D03*
X0093504Y0163977D02*
D03*
X0095472Y0163977D02*
D03*
X0097441Y0163977D02*
D03*
X0099409Y0163977D02*
D03*
X0101378Y0163977D02*
D03*
X0103347Y0163977D02*
D03*
X0105315Y0163977D02*
D03*
X0107284Y0163977D02*
D03*
X0109252Y0163977D02*
D03*
X0111221Y0163977D02*
D03*
X0113189Y0163977D02*
D03*
X0115158Y0163977D02*
D03*
X0117126Y0163977D02*
D03*
X0119095Y0163977D02*
D03*
X0121063Y0163977D02*
D03*
X0123032Y0163977D02*
D03*
X0125000Y0163977D02*
D03*
X0126969Y0163977D02*
D03*
X0128937Y0163977D02*
D03*
X0130906Y0163977D02*
D03*
X0132874Y0163977D02*
D03*
X0134843Y0163977D02*
D03*
X0136811Y0163977D02*
D03*
X0138780Y0163977D02*
D03*
X0140748Y0163977D02*
D03*
X0142717Y0163977D02*
D03*
X0144685Y0163977D02*
D03*
X0146654Y0163977D02*
D03*
X0148622Y0163977D02*
D03*
X0148622Y0080315D02*
D03*
X0146654Y0080315D02*
D03*
X0144685Y0080315D02*
D03*
X0142717Y0080315D02*
D03*
X0140748Y0080315D02*
D03*
X0138780Y0080315D02*
D03*
X0136811Y0080315D02*
D03*
X0134843Y0080315D02*
D03*
X0132874Y0080315D02*
D03*
X0130906Y0080315D02*
D03*
X0128937Y0080315D02*
D03*
X0126969Y0080315D02*
D03*
X0125000Y0080315D02*
D03*
X0123032Y0080315D02*
D03*
X0121063Y0080315D02*
D03*
X0119095Y0080315D02*
D03*
X0117126Y0080315D02*
D03*
X0115158Y0080315D02*
D03*
X0113189Y0080315D02*
D03*
X0111221Y0080315D02*
D03*
X0109252Y0080315D02*
D03*
X0107284Y0080315D02*
D03*
X0105315Y0080315D02*
D03*
X0103347Y0080315D02*
D03*
X0101378Y0080315D02*
D03*
X0099409Y0080315D02*
D03*
X0097441Y0080315D02*
D03*
X0095472Y0080315D02*
D03*
X0093504Y0080315D02*
D03*
X0091535Y0080315D02*
D03*
X0089567Y0080315D02*
D03*
X0087598Y0080315D02*
D03*
X0085630Y0080315D02*
D03*
X0083661Y0080315D02*
D03*
X0081693Y0080315D02*
D03*
X0079724Y0080315D02*
D03*
D26*
X0156004Y0156595D02*
D03*
X0156004Y0154626D02*
D03*
X0156004Y0152658D02*
D03*
X0156004Y0150689D02*
D03*
X0156004Y0148721D02*
D03*
X0156004Y0146752D02*
D03*
X0156004Y0144784D02*
D03*
X0156004Y0142815D02*
D03*
X0156004Y0140847D02*
D03*
X0156004Y0138878D02*
D03*
X0156004Y0136910D02*
D03*
X0156004Y0134941D02*
D03*
X0156004Y0132973D02*
D03*
X0156004Y0131004D02*
D03*
X0156004Y0129036D02*
D03*
X0156004Y0127067D02*
D03*
X0156004Y0125099D02*
D03*
X0156004Y0123130D02*
D03*
X0156004Y0121162D02*
D03*
X0156004Y0119193D02*
D03*
X0156004Y0117225D02*
D03*
X0156004Y0115256D02*
D03*
X0156004Y0113288D02*
D03*
X0156004Y0111319D02*
D03*
X0156004Y0109351D02*
D03*
X0156004Y0107382D02*
D03*
X0156004Y0105414D02*
D03*
X0156004Y0103445D02*
D03*
X0156004Y0101477D02*
D03*
X0156004Y0099508D02*
D03*
X0156004Y0097540D02*
D03*
X0156004Y0095571D02*
D03*
X0156004Y0093603D02*
D03*
X0156004Y0091634D02*
D03*
X0156004Y0089666D02*
D03*
X0156004Y0087697D02*
D03*
X0072343Y0087697D02*
D03*
X0072343Y0089666D02*
D03*
X0072343Y0091634D02*
D03*
X0072343Y0093603D02*
D03*
X0072343Y0095571D02*
D03*
X0072343Y0097540D02*
D03*
X0072343Y0099508D02*
D03*
X0072343Y0101477D02*
D03*
X0072343Y0103445D02*
D03*
X0072343Y0105414D02*
D03*
X0072343Y0107382D02*
D03*
X0072343Y0109351D02*
D03*
X0072343Y0111319D02*
D03*
X0072343Y0113288D02*
D03*
X0072343Y0115256D02*
D03*
X0072343Y0117225D02*
D03*
X0072343Y0119193D02*
D03*
X0072343Y0121162D02*
D03*
X0072343Y0123130D02*
D03*
X0072343Y0125099D02*
D03*
X0072343Y0127067D02*
D03*
X0072343Y0129036D02*
D03*
X0072343Y0131004D02*
D03*
X0072343Y0132973D02*
D03*
X0072343Y0134941D02*
D03*
X0072343Y0136910D02*
D03*
X0072343Y0138878D02*
D03*
X0072343Y0140847D02*
D03*
X0072343Y0142815D02*
D03*
X0072343Y0144784D02*
D03*
X0072343Y0146752D02*
D03*
X0072343Y0148721D02*
D03*
X0072343Y0150689D02*
D03*
X0072343Y0152658D02*
D03*
X0072343Y0154626D02*
D03*
X0072343Y0156595D02*
D03*
D27*
X0172349Y0140406D02*
D03*
X0163097Y0144146D02*
D03*
D27*
X0172349Y0147886D02*
D03*
D28*
X0018799Y0138091D02*
D03*
X0036910Y0138091D02*
D03*
D29*
X0027854Y0138091D02*
D03*
D30*
X0027854Y0162500D02*
D03*
D31*
X0049114Y0114075D02*
D03*
X0055807Y0114075D02*
D03*
X0055807Y0121162D02*
D03*
X0049114Y0121162D02*
D03*
X0049114Y0128248D02*
D03*
X0055807Y0128248D02*
D03*
X0055807Y0135335D02*
D03*
X0049114Y0135335D02*
D03*
X0039272Y0106595D02*
D03*
X0032579Y0106595D02*
D03*
X0055807Y0106595D02*
D03*
X0049114Y0106595D02*
D03*
X0039272Y0099508D02*
D03*
X0032579Y0099508D02*
D03*
X0055807Y0099508D02*
D03*
X0049114Y0099508D02*
D03*
X0039272Y0092422D02*
D03*
X0032579Y0092422D02*
D03*
X0055807Y0092422D02*
D03*
X0049114Y0092422D02*
D03*
X0032579Y0085335D02*
D03*
X0039272Y0085335D02*
D03*
X0055807Y0085335D02*
D03*
X0049114Y0085335D02*
D03*
D32*
X0171750Y0165033D02*
D03*
X0168010Y0165033D02*
D03*
X0164269Y0165033D02*
D03*
X0164269Y0155584D02*
D03*
X0168010Y0155584D02*
D03*
X0171750Y0155584D02*
D03*
D33*
X0016043Y0020374D02*
D03*
X0016043Y0024311D02*
D03*
X0162500Y0033366D02*
D03*
X0162500Y0029429D02*
D03*
X0058957Y0021949D02*
D03*
X0058957Y0018012D02*
D03*
X0073130Y0021949D02*
D03*
X0073130Y0018012D02*
D03*
X0092028Y0025886D02*
D03*
X0092028Y0021949D02*
D03*
X0092028Y0018012D02*
D03*
X0092028Y0021949D02*
D03*
X0101477Y0021949D02*
D03*
X0101477Y0025886D02*
D03*
X0101477Y0021949D02*
D03*
X0101477Y0018012D02*
D03*
X0125099Y0025886D02*
D03*
X0125099Y0021949D02*
D03*
X0148721Y0021949D02*
D03*
X0148721Y0025886D02*
D03*
X0148721Y0021949D02*
D03*
X0148721Y0018012D02*
D03*
X0065355Y0135729D02*
D03*
X0065355Y0139666D02*
D03*
X0153445Y0025492D02*
D03*
X0153445Y0029429D02*
D03*
X0016043Y0041044D02*
D03*
X0016043Y0037107D02*
D03*
X0027461Y0077067D02*
D03*
X0027461Y0081004D02*
D03*
X0171949Y0029429D02*
D03*
X0171949Y0033366D02*
D03*
X0167224Y0029429D02*
D03*
X0167224Y0033366D02*
D03*
X0157776Y0029429D02*
D03*
X0157776Y0033366D02*
D03*
X0021162Y0021949D02*
D03*
X0021162Y0025886D02*
D03*
X0025886Y0021949D02*
D03*
X0025886Y0025886D02*
D03*
X0030610Y0021949D02*
D03*
X0030610Y0025886D02*
D03*
X0035335Y0021949D02*
D03*
X0035335Y0025886D02*
D03*
X0021162Y0021949D02*
D03*
X0021162Y0018012D02*
D03*
X0025886Y0021949D02*
D03*
X0025886Y0018012D02*
D03*
X0030610Y0021949D02*
D03*
X0030610Y0018012D02*
D03*
X0035335Y0021949D02*
D03*
X0035335Y0018012D02*
D03*
X0040059Y0021949D02*
D03*
X0040059Y0025886D02*
D03*
X0044784Y0021949D02*
D03*
X0044784Y0025886D02*
D03*
X0049508Y0021949D02*
D03*
X0049508Y0025886D02*
D03*
X0054350Y0021949D02*
D03*
X0054350Y0025886D02*
D03*
X0040059Y0021949D02*
D03*
X0040059Y0018012D02*
D03*
X0044784Y0021949D02*
D03*
X0044784Y0018012D02*
D03*
X0049508Y0021949D02*
D03*
X0049508Y0018012D02*
D03*
X0054232Y0021949D02*
D03*
X0054232Y0018012D02*
D03*
X0058957Y0021949D02*
D03*
X0058957Y0025886D02*
D03*
X0063681Y0021949D02*
D03*
X0063681Y0025886D02*
D03*
X0068406Y0021949D02*
D03*
X0068406Y0025886D02*
D03*
X0073130Y0021949D02*
D03*
X0073130Y0025886D02*
D03*
X0063681Y0021949D02*
D03*
X0063681Y0018012D02*
D03*
X0068406Y0021949D02*
D03*
X0068406Y0018012D02*
D03*
X0077855Y0025886D02*
D03*
X0077855Y0021949D02*
D03*
X0082579Y0025886D02*
D03*
X0082579Y0021949D02*
D03*
X0087303Y0025886D02*
D03*
X0087303Y0021949D02*
D03*
X0077855Y0018012D02*
D03*
X0077855Y0021949D02*
D03*
X0082579Y0018012D02*
D03*
X0082579Y0021949D02*
D03*
X0087303Y0018012D02*
D03*
X0087303Y0021949D02*
D03*
X0096752Y0021949D02*
D03*
X0096752Y0025886D02*
D03*
X0106201Y0021949D02*
D03*
X0106201Y0025886D02*
D03*
X0110925Y0021949D02*
D03*
X0110925Y0025886D02*
D03*
X0096752Y0021949D02*
D03*
X0096752Y0018012D02*
D03*
X0106201Y0021949D02*
D03*
X0106201Y0018012D02*
D03*
X0110925Y0021949D02*
D03*
X0110925Y0018012D02*
D03*
X0115650Y0025886D02*
D03*
X0115650Y0021949D02*
D03*
X0120374Y0025886D02*
D03*
X0120374Y0021949D02*
D03*
X0129823Y0025886D02*
D03*
X0129823Y0021949D02*
D03*
X0115650Y0018012D02*
D03*
X0115650Y0021949D02*
D03*
X0120374Y0018012D02*
D03*
X0120374Y0021949D02*
D03*
X0125099Y0018012D02*
D03*
X0125099Y0021949D02*
D03*
X0129823Y0018012D02*
D03*
X0129823Y0021949D02*
D03*
X0134547Y0021949D02*
D03*
X0134547Y0025886D02*
D03*
X0139272Y0021949D02*
D03*
X0139272Y0025886D02*
D03*
X0143996Y0021949D02*
D03*
X0143996Y0025886D02*
D03*
X0134547Y0021949D02*
D03*
X0134547Y0018012D02*
D03*
X0139272Y0021949D02*
D03*
X0139272Y0018012D02*
D03*
X0143996Y0021949D02*
D03*
X0143996Y0018012D02*
D03*
X0157776Y0025886D02*
D03*
X0157776Y0021949D02*
D03*
X0162500Y0025886D02*
D03*
X0162500Y0021949D02*
D03*
X0167224Y0025886D02*
D03*
X0167224Y0021949D02*
D03*
X0171949Y0025886D02*
D03*
X0171949Y0021949D02*
D03*
X0157776Y0018012D02*
D03*
X0157776Y0021949D02*
D03*
X0162500Y0018012D02*
D03*
X0162500Y0021949D02*
D03*
X0167224Y0018012D02*
D03*
X0167224Y0021949D02*
D03*
X0171949Y0018012D02*
D03*
X0171949Y0021949D02*
D03*
X0016043Y0031988D02*
D03*
X0016043Y0028051D02*
D03*
X0051476Y0144784D02*
D03*
X0051476Y0148721D02*
D03*
D34*
X0070768Y0038681D02*
D03*
X0070768Y0034941D02*
D03*
X0070768Y0031201D02*
D03*
X0061319Y0031201D02*
D03*
X0061319Y0034941D02*
D03*
X0061319Y0038681D02*
D03*
X0032973Y0038681D02*
D03*
X0032973Y0034941D02*
D03*
X0032973Y0031201D02*
D03*
X0023524Y0031201D02*
D03*
X0023524Y0034941D02*
D03*
X0023524Y0038681D02*
D03*
X0051870Y0038681D02*
D03*
X0051870Y0034941D02*
D03*
X0051870Y0031201D02*
D03*
X0042421Y0031201D02*
D03*
X0042421Y0034941D02*
D03*
X0042421Y0038681D02*
D03*
X0089666Y0038681D02*
D03*
X0089666Y0034941D02*
D03*
X0089666Y0031201D02*
D03*
X0080217Y0031201D02*
D03*
X0080217Y0034941D02*
D03*
X0080217Y0038681D02*
D03*
X0108563Y0038681D02*
D03*
X0108563Y0034941D02*
D03*
X0108563Y0031201D02*
D03*
X0099114Y0031201D02*
D03*
X0099114Y0034941D02*
D03*
X0099114Y0038681D02*
D03*
X0127461Y0038681D02*
D03*
X0127461Y0034941D02*
D03*
X0127461Y0031201D02*
D03*
X0118012Y0031201D02*
D03*
X0118012Y0034941D02*
D03*
X0118012Y0038681D02*
D03*
X0146358Y0038681D02*
D03*
X0146358Y0034941D02*
D03*
X0146358Y0031201D02*
D03*
X0136910Y0031201D02*
D03*
X0136910Y0034941D02*
D03*
X0136910Y0038681D02*
D03*
D35*
X0168012Y0068799D02*
D03*
X0168012Y0086516D02*
D03*
D36*
X0153721Y0018012D02*
D03*
X0016043Y0016044D02*
D03*
D37*
X0022343Y0091536D02*
D03*
X0015256Y0091536D02*
D03*
X0015256Y0081496D02*
D03*
X0022343Y0081496D02*
D03*
X0022343Y0097638D02*
D03*
X0015256Y0097638D02*
D03*
X0015256Y0107678D02*
D03*
X0022343Y0107678D02*
D03*
D38*
X0015256Y0084941D02*
D03*
X0015256Y0088091D02*
D03*
X0022343Y0088091D02*
D03*
X0022343Y0084941D02*
D03*
X0022343Y0101083D02*
D03*
X0022343Y0104233D02*
D03*
X0015256Y0104233D02*
D03*
X0015256Y0101083D02*
D03*
D39*
X0169980Y0134547D02*
D03*
X0169980Y0118012D02*
D03*
X0169980Y0095178D02*
D03*
X0169980Y0111713D02*
D03*
D40*
X0157185Y0068012D02*
D03*
X0154626Y0068012D02*
D03*
X0152067Y0068012D02*
D03*
X0149508Y0068012D02*
D03*
X0146949Y0068012D02*
D03*
X0144390Y0068012D02*
D03*
X0141831Y0068012D02*
D03*
X0157185Y0045571D02*
D03*
X0154626Y0045571D02*
D03*
X0152067Y0045571D02*
D03*
X0149508Y0045571D02*
D03*
X0146949Y0045571D02*
D03*
X0144390Y0045571D02*
D03*
X0141831Y0045571D02*
D03*
X0088681Y0068012D02*
D03*
X0086122Y0068012D02*
D03*
X0083563Y0068012D02*
D03*
X0081004Y0068012D02*
D03*
X0078445Y0068012D02*
D03*
X0075886Y0068012D02*
D03*
X0073327Y0068012D02*
D03*
X0088681Y0045571D02*
D03*
X0086122Y0045571D02*
D03*
X0083563Y0045571D02*
D03*
X0081004Y0045571D02*
D03*
X0078445Y0045571D02*
D03*
X0075886Y0045571D02*
D03*
X0073327Y0045571D02*
D03*
X0111516Y0068012D02*
D03*
X0108957Y0068012D02*
D03*
X0106398Y0068012D02*
D03*
X0103839Y0068012D02*
D03*
X0101280Y0068012D02*
D03*
X0098721Y0068012D02*
D03*
X0096162Y0068012D02*
D03*
X0111516Y0045571D02*
D03*
X0108957Y0045571D02*
D03*
X0106398Y0045571D02*
D03*
X0103839Y0045571D02*
D03*
X0101280Y0045571D02*
D03*
X0098721Y0045571D02*
D03*
X0096162Y0045571D02*
D03*
X0134350Y0068012D02*
D03*
X0131791Y0068012D02*
D03*
X0129232Y0068012D02*
D03*
X0126673Y0068012D02*
D03*
X0124114Y0068012D02*
D03*
X0121555Y0068012D02*
D03*
X0118996Y0068012D02*
D03*
X0134350Y0045571D02*
D03*
X0131791Y0045571D02*
D03*
X0129232Y0045571D02*
D03*
X0126673Y0045571D02*
D03*
X0124114Y0045571D02*
D03*
X0121555Y0045571D02*
D03*
X0118996Y0045571D02*
D03*
D41*
X0067028Y0056595D02*
D03*
X0067028Y0059154D02*
D03*
X0067028Y0061713D02*
D03*
X0067028Y0064272D02*
D03*
X0067028Y0066831D02*
D03*
X0067028Y0069390D02*
D03*
X0067028Y0071949D02*
D03*
X0044587Y0056595D02*
D03*
X0044587Y0059154D02*
D03*
X0044587Y0061713D02*
D03*
X0044587Y0064272D02*
D03*
X0044587Y0066831D02*
D03*
X0044587Y0069390D02*
D03*
X0044587Y0071949D02*
D03*
X0039075Y0056595D02*
D03*
X0039075Y0059154D02*
D03*
X0039075Y0061713D02*
D03*
X0039075Y0064272D02*
D03*
X0039075Y0066831D02*
D03*
X0039075Y0069390D02*
D03*
X0039075Y0071949D02*
D03*
X0016634Y0056595D02*
D03*
X0016634Y0059154D02*
D03*
X0016634Y0061713D02*
D03*
X0016634Y0064272D02*
D03*
X0016634Y0066831D02*
D03*
X0016634Y0069390D02*
D03*
X0016634Y0071949D02*
D03*
D42*
X0049705Y0044981D02*
D03*
X0049705Y0047540D02*
D03*
X0049705Y0050099D02*
D03*
X0042225Y0044981D02*
D03*
X0042225Y0047540D02*
D03*
X0042225Y0050099D02*
D03*
X0029626Y0050099D02*
D03*
X0029626Y0047540D02*
D03*
X0029626Y0044981D02*
D03*
X0037106Y0050099D02*
D03*
X0037106Y0047540D02*
D03*
X0037106Y0044981D02*
D03*
X0024902Y0044981D02*
D03*
X0024902Y0047540D02*
D03*
X0024902Y0050099D02*
D03*
X0017421Y0044981D02*
D03*
X0017421Y0047540D02*
D03*
X0017421Y0050099D02*
D03*
X0054429Y0050099D02*
D03*
X0054429Y0047540D02*
D03*
X0054429Y0044981D02*
D03*
X0061910Y0050099D02*
D03*
X0061910Y0047540D02*
D03*
X0061910Y0044981D02*
D03*
D43*
X0018603Y0129451D02*
D03*
X0018603Y0124451D02*
D03*
X0018603Y0119451D02*
D03*
X0018603Y0114451D02*
D03*
X0037501Y0129451D02*
D03*
X0037501Y0124451D02*
D03*
X0037501Y0119451D02*
D03*
X0037501Y0114451D02*
D03*
D44*
X0170965Y0061910D02*
D03*
X0168406Y0061910D02*
D03*
X0165847Y0061910D02*
D03*
X0170965Y0054429D02*
D03*
X0168406Y0054429D02*
D03*
X0165847Y0054429D02*
D03*
X0170965Y0046555D02*
D03*
X0168406Y0046555D02*
D03*
X0165847Y0046555D02*
D03*
X0170965Y0039075D02*
D03*
X0168406Y0039075D02*
D03*
X0165847Y0039075D02*
D03*
D45*
X0057136Y0145571D02*
D03*
X0057136Y0147540D02*
D03*
X0057136Y0149508D02*
D03*
X0063140Y0149508D02*
D03*
X0063140Y0147540D02*
D03*
X0063140Y0145571D02*
D03*
D46*
X0059154Y0150542D02*
D03*
X0061122Y0150542D02*
D03*
X0061122Y0144538D02*
D03*
X0059154Y0144538D02*
D03*
D47*
X0046260Y0143603D02*
D03*
X0046260Y0150296D02*
D03*
D48*
X0055020Y0078642D02*
D03*
X0051083Y0078642D02*
D03*
M02*
