G75*
G70*
%OFA0B0*%
%FSLAX25Y25*%
%IPPOS*%
%LPD*%
%AMOC8*
5,1,8,0,0,1.08239X$1,22.5*
%
%ADD10C,0.02362*%
%ADD11R,0.00787X0.09055*%
%ADD12R,0.00787X0.21260*%
%ADD13R,0.00787X0.33858*%
%ADD14R,0.00787X0.19685*%
%ADD15R,0.05512X0.00787*%
%ADD16R,0.19685X0.00787*%
%ADD17R,0.26772X0.00787*%
%ADD18R,0.17717X0.00787*%
%ADD19R,0.00787X0.06299*%
%ADD20R,0.00787X0.22441*%
%ADD21R,0.00787X0.07874*%
%ADD22C,0.00787*%
%ADD24C,0.01968*%
%ADD50C,0.00492*%
%ADD51C,0.01575*%
%ADD52C,0.01181*%
%ADD54C,0.04331*%
X0029528Y0307874D02*
G01*
G75*
G36*
X0119281Y0464964D02*
X0118630Y0464694D01*
X0118131Y0464196D01*
X0117862Y0463545D01*
X0117862Y0462840D01*
X0118131Y0462189D01*
X0118630Y0461690D01*
X0119281Y0461421D01*
X0119986Y0461421D01*
X0120637Y0461690D01*
X0120641Y0461695D01*
X0120819Y0461659D01*
X0141119Y0461659D01*
X0142623Y0460155D01*
X0141373Y0458905D01*
X0141373Y0458905D01*
X0137499Y0455030D01*
X0137226Y0455052D01*
X0136634Y0455280D01*
X0136441Y0455745D01*
X0135943Y0456243D01*
X0135292Y0456513D01*
X0135155Y0456513D01*
X0132218Y0459449D01*
X0131762Y0459754D01*
X0131225Y0459861D01*
X0103526Y0459861D01*
X0101318Y0462068D01*
X0101538Y0462960D01*
X0101791Y0463065D01*
X0101848Y0463122D01*
X0102363Y0463509D01*
X0102877Y0463122D01*
X0102934Y0463065D01*
X0103585Y0462795D01*
X0104290Y0462795D01*
X0104941Y0463065D01*
X0105439Y0463563D01*
X0105709Y0464215D01*
X0105709Y0464919D01*
X0105692Y0464961D01*
X0106218Y0465748D01*
X0112565Y0465748D01*
X0112721Y0464961D01*
X0112308Y0464789D01*
X0111809Y0464291D01*
X0111553Y0464240D01*
X0111428Y0464365D01*
X0110776Y0464635D01*
X0110072Y0464635D01*
X0109421Y0464365D01*
X0108922Y0463867D01*
X0108652Y0463215D01*
X0108652Y0462511D01*
X0108922Y0461860D01*
X0109421Y0461361D01*
X0110072Y0461091D01*
X0110776Y0461091D01*
X0111428Y0461361D01*
X0111926Y0461860D01*
X0112183Y0461910D01*
X0112308Y0461785D01*
X0112959Y0461516D01*
X0113664Y0461516D01*
X0114315Y0461785D01*
X0114813Y0462284D01*
X0115083Y0462935D01*
X0115083Y0463640D01*
X0114813Y0464291D01*
X0114315Y0464789D01*
X0113901Y0464961D01*
X0114058Y0465748D01*
X0119273Y0465748D01*
X0119281Y0464964D01*
D02*
G37*
G36*
X0193822Y0463122D02*
X0193879Y0463065D01*
X0194530Y0462795D01*
X0195235Y0462795D01*
X0195276Y0462812D01*
X0196063Y0462286D01*
X0196063Y0456611D01*
X0195276Y0456085D01*
X0195235Y0456102D01*
X0194530Y0456102D01*
X0193879Y0455833D01*
X0193380Y0455334D01*
X0193303Y0455148D01*
X0192451Y0455148D01*
X0192374Y0455334D01*
X0191875Y0455833D01*
X0191224Y0456102D01*
X0190519Y0456102D01*
X0189868Y0455833D01*
X0189370Y0455334D01*
X0189100Y0454683D01*
X0189100Y0453978D01*
X0189370Y0453327D01*
X0189868Y0452829D01*
X0190519Y0452559D01*
X0190791Y0452559D01*
X0191117Y0451772D01*
X0187302Y0447956D01*
X0186514Y0448282D01*
X0186514Y0449372D01*
X0186449Y0449699D01*
X0186264Y0449976D01*
X0183137Y0453103D01*
X0183137Y0463003D01*
X0183288Y0463065D01*
X0183344Y0463122D01*
X0183859Y0463509D01*
X0184373Y0463122D01*
X0184430Y0463065D01*
X0185081Y0462795D01*
X0185786Y0462795D01*
X0186437Y0463065D01*
X0186494Y0463122D01*
X0187008Y0463509D01*
X0187523Y0463122D01*
X0187580Y0463065D01*
X0188231Y0462795D01*
X0188935Y0462795D01*
X0189587Y0463065D01*
X0189644Y0463122D01*
X0190158Y0463509D01*
X0190672Y0463122D01*
X0190729Y0463065D01*
X0191380Y0462795D01*
X0192085Y0462795D01*
X0192736Y0463065D01*
X0192793Y0463122D01*
X0193307Y0463509D01*
X0193822Y0463122D01*
D02*
G37*
G36*
X0089585Y0464961D02*
X0089567Y0464919D01*
X0089567Y0464215D01*
X0089837Y0463563D01*
X0090254Y0463146D01*
X0090199Y0462765D01*
X0090013Y0462359D01*
X0087828Y0462359D01*
X0085657Y0464530D01*
X0085380Y0464715D01*
X0085053Y0464780D01*
X0081035Y0464780D01*
X0080709Y0464715D01*
X0080432Y0464530D01*
X0070879Y0454977D01*
X0070728Y0455039D01*
X0070023Y0455039D01*
X0069245Y0455459D01*
X0069060Y0455735D01*
X0066443Y0458352D01*
X0066674Y0459234D01*
X0067078Y0459467D01*
X0067624Y0460013D01*
X0068010Y0460682D01*
X0068210Y0461429D01*
X0068210Y0462201D01*
X0068010Y0462947D01*
X0067624Y0463617D01*
X0067078Y0464163D01*
X0066409Y0464549D01*
X0065662Y0464749D01*
X0064890Y0464749D01*
X0064143Y0464549D01*
X0063474Y0464163D01*
X0063062Y0463751D01*
X0062395Y0464197D01*
X0062402Y0464215D01*
X0062402Y0464919D01*
X0062385Y0464961D01*
X0062911Y0465748D01*
X0089058Y0465748D01*
X0089585Y0464961D01*
D02*
G37*
G36*
X0052577Y0464961D02*
X0052559Y0464919D01*
X0052559Y0464215D01*
X0052829Y0463563D01*
X0053328Y0463065D01*
X0053979Y0462795D01*
X0054684Y0462795D01*
X0055335Y0463065D01*
X0055392Y0463122D01*
X0055906Y0463509D01*
X0056420Y0463122D01*
X0056477Y0463065D01*
X0056711Y0462968D01*
X0056925Y0462068D01*
X0043012Y0448154D01*
X0042827Y0447878D01*
X0042762Y0447551D01*
X0042762Y0446417D01*
X0042611Y0446355D01*
X0042113Y0445857D01*
X0041843Y0445206D01*
X0041843Y0445030D01*
X0041056Y0444873D01*
X0041026Y0444945D01*
X0040528Y0445443D01*
X0039877Y0445713D01*
X0039172Y0445713D01*
X0038520Y0445443D01*
X0038022Y0444945D01*
X0037752Y0444293D01*
X0037752Y0443589D01*
X0038022Y0442938D01*
X0038520Y0442439D01*
X0039172Y0442169D01*
X0039877Y0442169D01*
X0040528Y0442439D01*
X0041026Y0442938D01*
X0041296Y0443589D01*
X0041296Y0443764D01*
X0042083Y0443921D01*
X0042113Y0443850D01*
X0042611Y0443351D01*
X0043262Y0443081D01*
X0043967Y0443081D01*
X0044618Y0443351D01*
X0045117Y0443850D01*
X0045386Y0444501D01*
X0045386Y0445206D01*
X0045117Y0445857D01*
X0044618Y0446355D01*
X0044468Y0446417D01*
X0044468Y0447198D01*
X0047600Y0450330D01*
X0048387Y0450004D01*
X0048387Y0439909D01*
X0048494Y0439371D01*
X0048799Y0438915D01*
X0049491Y0438223D01*
X0049391Y0437329D01*
X0048892Y0436830D01*
X0048622Y0436179D01*
X0048622Y0435474D01*
X0048892Y0434823D01*
X0049391Y0434325D01*
X0050042Y0434055D01*
X0050746Y0434055D01*
X0051398Y0434325D01*
X0051896Y0434823D01*
X0052790Y0434924D01*
X0053714Y0434000D01*
X0053714Y0426168D01*
X0052986Y0425867D01*
X0043934Y0434919D01*
X0043997Y0435069D01*
X0043997Y0435774D01*
X0043727Y0436425D01*
X0043228Y0436924D01*
X0042577Y0437194D01*
X0041872Y0437194D01*
X0041221Y0436924D01*
X0040723Y0436425D01*
X0040453Y0435774D01*
X0040453Y0435069D01*
X0040723Y0434418D01*
X0041221Y0433920D01*
X0041872Y0433650D01*
X0042577Y0433650D01*
X0042728Y0433713D01*
X0051440Y0425000D01*
X0051114Y0424213D01*
X0050780Y0424213D01*
X0050129Y0423943D01*
X0049630Y0423444D01*
X0049442Y0422990D01*
X0049253Y0422900D01*
X0048829Y0422811D01*
X0048584Y0422819D01*
X0048248Y0423155D01*
X0047597Y0423425D01*
X0046892Y0423425D01*
X0046241Y0423155D01*
X0045743Y0422657D01*
X0045473Y0422006D01*
X0045473Y0421301D01*
X0045743Y0420650D01*
X0046241Y0420152D01*
X0046642Y0419986D01*
X0050265Y0416363D01*
X0050265Y0413149D01*
X0041590Y0404475D01*
X0041242Y0403954D01*
X0041120Y0403339D01*
X0041120Y0403339D01*
X0041120Y0375007D01*
X0040926Y0374927D01*
X0040428Y0374429D01*
X0040158Y0373778D01*
X0040158Y0373073D01*
X0040282Y0372774D01*
X0039614Y0372328D01*
X0039472Y0372470D01*
X0038820Y0372740D01*
X0038116Y0372740D01*
X0037465Y0372470D01*
X0036966Y0371972D01*
X0036696Y0371321D01*
X0036696Y0370616D01*
X0036966Y0369965D01*
X0037277Y0369654D01*
X0037271Y0369286D01*
X0037204Y0368906D01*
X0037138Y0368764D01*
X0036988Y0368664D01*
X0035569Y0367245D01*
X0035384Y0366968D01*
X0035319Y0366641D01*
X0035319Y0355504D01*
X0035384Y0355178D01*
X0035569Y0354901D01*
X0043198Y0347272D01*
X0043125Y0347097D01*
X0043125Y0346392D01*
X0043395Y0345741D01*
X0043893Y0345243D01*
X0044545Y0344973D01*
X0044709Y0344973D01*
X0044865Y0344186D01*
X0044469Y0344022D01*
X0043971Y0343523D01*
X0043701Y0342872D01*
X0043701Y0342167D01*
X0043971Y0341516D01*
X0044469Y0341018D01*
X0045121Y0340748D01*
X0045258Y0340748D01*
X0046479Y0339526D01*
X0046479Y0337124D01*
X0046382Y0337027D01*
X0046113Y0336376D01*
X0046113Y0335671D01*
X0046382Y0335020D01*
X0046881Y0334522D01*
X0046992Y0333623D01*
X0044101Y0330732D01*
X0043373Y0331033D01*
X0043373Y0336822D01*
X0043547Y0337082D01*
X0043612Y0337409D01*
X0043612Y0338544D01*
X0043547Y0338870D01*
X0043362Y0339147D01*
X0042010Y0340499D01*
X0042010Y0340499D01*
X0040223Y0342285D01*
X0040223Y0344302D01*
X0040374Y0344364D01*
X0040872Y0344863D01*
X0041142Y0345514D01*
X0041142Y0346218D01*
X0040872Y0346870D01*
X0040374Y0347368D01*
X0039723Y0347638D01*
X0039018Y0347638D01*
X0038367Y0347368D01*
X0037869Y0346870D01*
X0037599Y0346218D01*
X0037599Y0345514D01*
X0037869Y0344863D01*
X0038367Y0344364D01*
X0038518Y0344302D01*
X0038518Y0341932D01*
X0038582Y0341606D01*
X0038767Y0341329D01*
X0039720Y0340376D01*
X0039609Y0339478D01*
X0039110Y0338980D01*
X0039084Y0338915D01*
X0038155Y0338730D01*
X0035844Y0341041D01*
X0035844Y0346412D01*
X0035779Y0346739D01*
X0035594Y0347015D01*
X0035500Y0347109D01*
X0035685Y0348037D01*
X0035847Y0348104D01*
X0036345Y0348603D01*
X0036615Y0349254D01*
X0036615Y0349959D01*
X0036345Y0350610D01*
X0035847Y0351108D01*
X0035195Y0351378D01*
X0034491Y0351378D01*
X0034367Y0351327D01*
X0033580Y0351853D01*
X0033580Y0361279D01*
X0033521Y0361573D01*
X0033760Y0362150D01*
X0033760Y0362855D01*
X0033491Y0363506D01*
X0032992Y0364004D01*
X0032341Y0364274D01*
X0031636Y0364274D01*
X0030985Y0364004D01*
X0030487Y0363506D01*
X0030315Y0363093D01*
X0029528Y0363249D01*
X0029528Y0369373D01*
X0030315Y0369899D01*
X0030357Y0369882D01*
X0031062Y0369882D01*
X0031713Y0370152D01*
X0032211Y0370650D01*
X0032481Y0371301D01*
X0032481Y0372006D01*
X0032211Y0372657D01*
X0031713Y0373155D01*
X0031615Y0373196D01*
X0031615Y0374048D01*
X0031713Y0374089D01*
X0032211Y0374587D01*
X0032481Y0375238D01*
X0032481Y0375943D01*
X0032211Y0376594D01*
X0031713Y0377092D01*
X0031615Y0377133D01*
X0031615Y0377985D01*
X0031713Y0378026D01*
X0032211Y0378524D01*
X0032481Y0379175D01*
X0032481Y0379880D01*
X0032211Y0380531D01*
X0031713Y0381029D01*
X0031615Y0381070D01*
X0031615Y0381922D01*
X0031713Y0381963D01*
X0032211Y0382461D01*
X0032481Y0383112D01*
X0032481Y0383817D01*
X0032211Y0384468D01*
X0031713Y0384966D01*
X0031615Y0385007D01*
X0031615Y0385859D01*
X0031713Y0385900D01*
X0032211Y0386398D01*
X0032481Y0387049D01*
X0032481Y0387754D01*
X0032211Y0388405D01*
X0031713Y0388903D01*
X0031615Y0388944D01*
X0031615Y0389796D01*
X0031713Y0389837D01*
X0032211Y0390335D01*
X0032481Y0390986D01*
X0032481Y0391691D01*
X0032211Y0392342D01*
X0031713Y0392840D01*
X0031615Y0392881D01*
X0031615Y0393733D01*
X0031713Y0393774D01*
X0032211Y0394272D01*
X0032481Y0394923D01*
X0032481Y0395628D01*
X0032211Y0396279D01*
X0031713Y0396777D01*
X0031615Y0396818D01*
X0031615Y0397670D01*
X0031713Y0397711D01*
X0032211Y0398209D01*
X0032481Y0398860D01*
X0032481Y0399565D01*
X0032211Y0400216D01*
X0031713Y0400714D01*
X0031615Y0400755D01*
X0031615Y0401607D01*
X0031713Y0401648D01*
X0032211Y0402146D01*
X0032481Y0402797D01*
X0032481Y0403502D01*
X0032211Y0404153D01*
X0031713Y0404651D01*
X0031615Y0404692D01*
X0031615Y0405544D01*
X0031713Y0405585D01*
X0032211Y0406083D01*
X0032481Y0406734D01*
X0032481Y0407439D01*
X0032211Y0408090D01*
X0031713Y0408589D01*
X0031615Y0408629D01*
X0031615Y0409481D01*
X0031713Y0409522D01*
X0032211Y0410020D01*
X0032481Y0410671D01*
X0032481Y0411376D01*
X0032211Y0412027D01*
X0031713Y0412525D01*
X0031615Y0412566D01*
X0031615Y0413418D01*
X0031713Y0413459D01*
X0032211Y0413957D01*
X0032481Y0414608D01*
X0032481Y0415313D01*
X0032211Y0415964D01*
X0031713Y0416463D01*
X0031615Y0416503D01*
X0031615Y0417355D01*
X0031713Y0417396D01*
X0032211Y0417894D01*
X0032481Y0418545D01*
X0033268Y0418856D01*
X0039742Y0412382D01*
X0040068Y0412165D01*
X0040352Y0412108D01*
X0040464Y0411837D01*
X0040963Y0411339D01*
X0041614Y0411069D01*
X0042319Y0411069D01*
X0042970Y0411339D01*
X0043468Y0411837D01*
X0043738Y0412488D01*
X0043738Y0413193D01*
X0043468Y0413844D01*
X0042970Y0414342D01*
X0042319Y0414612D01*
X0041614Y0414612D01*
X0040963Y0414342D01*
X0040792Y0414171D01*
X0035692Y0419271D01*
X0036138Y0419938D01*
X0036459Y0419805D01*
X0037164Y0419805D01*
X0037815Y0420075D01*
X0038313Y0420573D01*
X0038583Y0421224D01*
X0038583Y0421929D01*
X0038313Y0422581D01*
X0037815Y0423079D01*
X0037164Y0423349D01*
X0036459Y0423349D01*
X0035808Y0423079D01*
X0035310Y0422581D01*
X0035040Y0421929D01*
X0035040Y0421224D01*
X0035173Y0420904D01*
X0034505Y0420458D01*
X0032481Y0422482D01*
X0032481Y0422482D01*
X0032481Y0423187D01*
X0032211Y0423838D01*
X0031713Y0424337D01*
X0031615Y0424377D01*
X0031615Y0425229D01*
X0031713Y0425270D01*
X0032211Y0425768D01*
X0032432Y0426300D01*
X0032854Y0426399D01*
X0033251Y0426379D01*
X0033341Y0426162D01*
X0033839Y0425663D01*
X0034491Y0425394D01*
X0035195Y0425394D01*
X0035846Y0425663D01*
X0036345Y0426162D01*
X0036615Y0426813D01*
X0036615Y0427518D01*
X0036345Y0428169D01*
X0035846Y0428667D01*
X0035195Y0428937D01*
X0034491Y0428937D01*
X0033839Y0428667D01*
X0033341Y0428169D01*
X0033121Y0427637D01*
X0032698Y0427538D01*
X0032301Y0427559D01*
X0032211Y0427775D01*
X0031713Y0428273D01*
X0031062Y0428543D01*
X0030357Y0428543D01*
X0030315Y0428526D01*
X0029528Y0429052D01*
X0029528Y0461572D01*
X0030315Y0462112D01*
X0030549Y0462022D01*
X0030553Y0462008D01*
X0030512Y0461858D01*
X0030512Y0460977D01*
X0030740Y0460126D01*
X0031181Y0459363D01*
X0031804Y0458739D01*
X0032567Y0458299D01*
X0033418Y0458071D01*
X0034299Y0458071D01*
X0035150Y0458299D01*
X0035373Y0458427D01*
X0035900Y0458248D01*
X0036398Y0457750D01*
X0037050Y0457480D01*
X0037754Y0457480D01*
X0038406Y0457750D01*
X0038904Y0458248D01*
X0039174Y0458899D01*
X0039174Y0459604D01*
X0038904Y0460256D01*
X0038406Y0460754D01*
X0037754Y0461024D01*
X0037205Y0461024D01*
X0037205Y0461858D01*
X0036977Y0462709D01*
X0036537Y0463472D01*
X0035913Y0464095D01*
X0035150Y0464536D01*
X0034299Y0464764D01*
X0033418Y0464764D01*
X0033268Y0464724D01*
X0033254Y0464727D01*
X0033164Y0464961D01*
X0033704Y0465748D01*
X0052051Y0465748D01*
X0052577Y0464961D01*
D02*
G37*
G36*
X0159097Y0455315D02*
X0158446Y0455045D01*
X0157947Y0454547D01*
X0157678Y0453896D01*
X0157678Y0453757D01*
X0145171Y0453757D01*
X0144978Y0454016D01*
X0144758Y0454544D01*
X0144966Y0455046D01*
X0144966Y0455183D01*
X0145885Y0456102D01*
X0159096Y0456102D01*
X0159097Y0455315D01*
D02*
G37*
G36*
X0133168Y0454526D02*
X0133168Y0454389D01*
X0133438Y0453737D01*
X0133936Y0453239D01*
X0134401Y0453046D01*
X0134628Y0452455D01*
X0134650Y0452182D01*
X0130867Y0448399D01*
X0120406Y0448399D01*
X0119879Y0449185D01*
X0119879Y0449890D01*
X0119610Y0450541D01*
X0119111Y0451040D01*
X0118460Y0451309D01*
X0117755Y0451309D01*
X0117104Y0451040D01*
X0116606Y0450541D01*
X0116450Y0450165D01*
X0115711Y0449926D01*
X0115567Y0449934D01*
X0114944Y0450558D01*
X0114667Y0450743D01*
X0114341Y0450808D01*
X0104552Y0450808D01*
X0103097Y0452262D01*
X0103436Y0452861D01*
X0103520Y0452953D01*
X0104192Y0452953D01*
X0104844Y0453223D01*
X0105217Y0453596D01*
X0105689Y0453124D01*
X0106340Y0452854D01*
X0107045Y0452854D01*
X0107696Y0453124D01*
X0108195Y0453622D01*
X0108464Y0454274D01*
X0108464Y0454978D01*
X0108195Y0455630D01*
X0107696Y0456128D01*
X0107369Y0456263D01*
X0107526Y0457051D01*
X0130643Y0457051D01*
X0133168Y0454526D01*
D02*
G37*
G36*
X0169899Y0455962D02*
X0169899Y0455257D01*
X0170168Y0454606D01*
X0170667Y0454108D01*
X0170967Y0453983D01*
X0170967Y0446057D01*
X0167950Y0443041D01*
X0167766Y0442764D01*
X0167701Y0442437D01*
X0167701Y0439576D01*
X0162732Y0434607D01*
X0162164Y0434843D01*
X0161459Y0434843D01*
X0160808Y0434573D01*
X0160309Y0434074D01*
X0160040Y0433423D01*
X0160040Y0432719D01*
X0160309Y0432067D01*
X0160808Y0431569D01*
X0161459Y0431299D01*
X0162164Y0431299D01*
X0162815Y0431569D01*
X0163313Y0432067D01*
X0163583Y0432719D01*
X0163583Y0433046D01*
X0167947Y0437409D01*
X0168674Y0437108D01*
X0168674Y0426931D01*
X0168428Y0426337D01*
X0168428Y0426200D01*
X0166133Y0423905D01*
X0165828Y0423449D01*
X0165722Y0422911D01*
X0165722Y0417339D01*
X0165828Y0416801D01*
X0165945Y0416626D01*
X0165945Y0416183D01*
X0166215Y0415532D01*
X0166713Y0415033D01*
X0167365Y0414764D01*
X0167838Y0414764D01*
X0168217Y0414069D01*
X0168224Y0414036D01*
X0168184Y0413996D01*
X0167914Y0413345D01*
X0167914Y0412640D01*
X0168184Y0411989D01*
X0168682Y0411490D01*
X0169333Y0411221D01*
X0170038Y0411221D01*
X0170348Y0411349D01*
X0171135Y0410907D01*
X0171135Y0406586D01*
X0170652Y0406103D01*
X0170515Y0406103D01*
X0169864Y0405833D01*
X0169767Y0405737D01*
X0163549Y0405737D01*
X0163011Y0405630D01*
X0162556Y0405325D01*
X0156796Y0399566D01*
X0156604Y0399395D01*
X0155782Y0399551D01*
X0155754Y0399579D01*
X0155103Y0399849D01*
X0154398Y0399849D01*
X0153684Y0400405D01*
X0153684Y0407012D01*
X0153619Y0407338D01*
X0153434Y0407615D01*
X0152891Y0408159D01*
X0152953Y0408309D01*
X0152953Y0409014D01*
X0152683Y0409665D01*
X0152185Y0410163D01*
X0151534Y0410433D01*
X0150829Y0410433D01*
X0150178Y0410163D01*
X0150121Y0410107D01*
X0149607Y0409720D01*
X0149092Y0410107D01*
X0149036Y0410163D01*
X0148384Y0410433D01*
X0147679Y0410433D01*
X0147028Y0410163D01*
X0146530Y0409665D01*
X0146260Y0409014D01*
X0146260Y0408309D01*
X0146530Y0407658D01*
X0147028Y0407160D01*
X0147679Y0406890D01*
X0148384Y0406890D01*
X0148535Y0406952D01*
X0150994Y0404493D01*
X0150994Y0396783D01*
X0151059Y0396457D01*
X0151244Y0396180D01*
X0151575Y0395849D01*
X0151583Y0395700D01*
X0151344Y0394966D01*
X0150965Y0394809D01*
X0150467Y0394311D01*
X0150427Y0394213D01*
X0149574Y0394213D01*
X0149534Y0394311D01*
X0149036Y0394809D01*
X0148384Y0395079D01*
X0147679Y0395079D01*
X0147028Y0394809D01*
X0146530Y0394311D01*
X0146260Y0393660D01*
X0146260Y0392955D01*
X0146437Y0392528D01*
X0146358Y0392410D01*
X0146293Y0392084D01*
X0146293Y0375621D01*
X0143738Y0373066D01*
X0143553Y0372789D01*
X0143488Y0372463D01*
X0143488Y0372307D01*
X0142883Y0371654D01*
X0142157Y0371654D01*
X0141456Y0371466D01*
X0140828Y0371103D01*
X0140315Y0370590D01*
X0139952Y0369961D01*
X0139764Y0369261D01*
X0139764Y0368535D01*
X0139952Y0367834D01*
X0140315Y0367206D01*
X0140828Y0366692D01*
X0141456Y0366330D01*
X0142157Y0366142D01*
X0142883Y0366142D01*
X0143584Y0366330D01*
X0143773Y0366439D01*
X0147810Y0362402D01*
X0147754Y0362066D01*
X0147541Y0361557D01*
X0147028Y0361344D01*
X0146986Y0361302D01*
X0146442Y0360916D01*
X0145957Y0361302D01*
X0145886Y0361374D01*
X0145235Y0361644D01*
X0144530Y0361644D01*
X0143879Y0361374D01*
X0143807Y0361302D01*
X0143323Y0360916D01*
X0142778Y0361302D01*
X0142736Y0361344D01*
X0142085Y0361614D01*
X0141380Y0361614D01*
X0140971Y0361445D01*
X0140328Y0361757D01*
X0140183Y0361906D01*
X0140183Y0364969D01*
X0140119Y0365295D01*
X0139934Y0365572D01*
X0139195Y0366310D01*
X0139258Y0366461D01*
X0139258Y0367166D01*
X0138988Y0367817D01*
X0138489Y0368315D01*
X0137838Y0368585D01*
X0137134Y0368585D01*
X0136866Y0369312D01*
X0136991Y0369364D01*
X0137489Y0369863D01*
X0137759Y0370514D01*
X0137759Y0371219D01*
X0137489Y0371870D01*
X0136991Y0372368D01*
X0136340Y0372638D01*
X0135635Y0372638D01*
X0134984Y0372368D01*
X0134485Y0371870D01*
X0134216Y0371219D01*
X0134216Y0371003D01*
X0134213Y0370513D01*
X0133506Y0370276D01*
X0132855Y0370006D01*
X0132104Y0370368D01*
X0132104Y0404949D01*
X0132831Y0405250D01*
X0135344Y0402738D01*
X0135621Y0402553D01*
X0135947Y0402488D01*
X0142566Y0402488D01*
X0142892Y0402553D01*
X0143169Y0402738D01*
X0145043Y0404611D01*
X0145228Y0404888D01*
X0145292Y0405215D01*
X0145292Y0409710D01*
X0145228Y0410036D01*
X0145043Y0410313D01*
X0137346Y0418009D01*
X0137080Y0418286D01*
X0137161Y0418979D01*
X0137205Y0419087D01*
X0137205Y0419791D01*
X0136935Y0420443D01*
X0136437Y0420941D01*
X0135786Y0421211D01*
X0135081Y0421211D01*
X0134430Y0420941D01*
X0133932Y0420443D01*
X0133662Y0419791D01*
X0133662Y0419695D01*
X0133472Y0419399D01*
X0133087Y0419207D01*
X0132875Y0419333D01*
X0132875Y0420037D01*
X0132605Y0420689D01*
X0132106Y0421187D01*
X0131455Y0421457D01*
X0130750Y0421457D01*
X0130099Y0421187D01*
X0129601Y0420689D01*
X0129331Y0420037D01*
X0129331Y0419333D01*
X0129450Y0419047D01*
X0128995Y0418259D01*
X0123060Y0418259D01*
X0115863Y0425456D01*
X0115863Y0427297D01*
X0118271Y0429704D01*
X0118456Y0429981D01*
X0118521Y0430307D01*
X0118521Y0431897D01*
X0118456Y0432224D01*
X0118271Y0432501D01*
X0108436Y0442335D01*
X0108159Y0442520D01*
X0107833Y0442585D01*
X0107470Y0442585D01*
X0107408Y0442736D01*
X0106909Y0443234D01*
X0106258Y0443504D01*
X0105554Y0443504D01*
X0104902Y0443234D01*
X0104404Y0442736D01*
X0104243Y0442348D01*
X0103526Y0442110D01*
X0103360Y0442117D01*
X0097051Y0448426D01*
X0097067Y0449285D01*
X0097565Y0449784D01*
X0097656Y0450002D01*
X0098563Y0450208D01*
X0102372Y0446399D01*
X0102649Y0446214D01*
X0102975Y0446149D01*
X0112764Y0446149D01*
X0114923Y0443990D01*
X0115200Y0443805D01*
X0115526Y0443740D01*
X0124767Y0443740D01*
X0124948Y0443520D01*
X0125197Y0442953D01*
X0125001Y0442478D01*
X0125001Y0441774D01*
X0125270Y0441122D01*
X0125769Y0440624D01*
X0126420Y0440354D01*
X0127125Y0440354D01*
X0127776Y0440624D01*
X0128274Y0441122D01*
X0128544Y0441774D01*
X0128544Y0442478D01*
X0128347Y0442953D01*
X0128596Y0443520D01*
X0128777Y0443740D01*
X0132443Y0443740D01*
X0132770Y0443805D01*
X0133046Y0443990D01*
X0140123Y0451066D01*
X0142183Y0451066D01*
X0142505Y0450279D01*
X0142234Y0450008D01*
X0141964Y0449357D01*
X0141964Y0448652D01*
X0142234Y0448001D01*
X0142732Y0447503D01*
X0143383Y0447233D01*
X0144088Y0447233D01*
X0144628Y0447456D01*
X0144737Y0447426D01*
X0145035Y0447264D01*
X0145355Y0447005D01*
X0145355Y0446547D01*
X0145625Y0445896D01*
X0146123Y0445398D01*
X0146774Y0445128D01*
X0147479Y0445128D01*
X0148130Y0445398D01*
X0148629Y0445896D01*
X0148898Y0446547D01*
X0148898Y0447252D01*
X0148629Y0447903D01*
X0148130Y0448401D01*
X0147479Y0448671D01*
X0146774Y0448671D01*
X0146235Y0448448D01*
X0146126Y0448478D01*
X0145828Y0448640D01*
X0145507Y0448899D01*
X0145507Y0449357D01*
X0145237Y0450008D01*
X0144967Y0450279D01*
X0145288Y0451066D01*
X0158006Y0451066D01*
X0158051Y0451021D01*
X0158328Y0450836D01*
X0158654Y0450771D01*
X0160244Y0450771D01*
X0160571Y0450836D01*
X0160847Y0451021D01*
X0162513Y0452687D01*
X0162698Y0452963D01*
X0162708Y0453015D01*
X0163209Y0453223D01*
X0163707Y0453721D01*
X0163977Y0454372D01*
X0163977Y0455077D01*
X0163878Y0455315D01*
X0164362Y0456102D01*
X0169805Y0456102D01*
X0169899Y0455962D01*
D02*
G37*
G36*
X0082542Y0456682D02*
X0082928Y0456013D01*
X0083474Y0455467D01*
X0084143Y0455081D01*
X0084890Y0454881D01*
X0085662Y0454881D01*
X0086409Y0455081D01*
X0086816Y0455316D01*
X0087603Y0454957D01*
X0087603Y0448249D01*
X0087472Y0448163D01*
X0087313Y0448168D01*
X0086553Y0448502D01*
X0086415Y0448837D01*
X0085917Y0449335D01*
X0085266Y0449605D01*
X0084561Y0449605D01*
X0083910Y0449335D01*
X0083411Y0448837D01*
X0083142Y0448186D01*
X0083142Y0447481D01*
X0083161Y0447433D01*
X0083161Y0446581D01*
X0082663Y0446082D01*
X0082393Y0445431D01*
X0082393Y0444726D01*
X0082663Y0444075D01*
X0083161Y0443577D01*
X0083484Y0443443D01*
X0083327Y0442656D01*
X0082064Y0442656D01*
X0081738Y0442591D01*
X0081461Y0442406D01*
X0079042Y0439987D01*
X0078857Y0439710D01*
X0078792Y0439384D01*
X0078792Y0438270D01*
X0078642Y0438207D01*
X0078143Y0437709D01*
X0078069Y0437530D01*
X0077764Y0437450D01*
X0077182Y0437446D01*
X0076802Y0437826D01*
X0076151Y0438096D01*
X0075446Y0438096D01*
X0074795Y0437826D01*
X0074297Y0437328D01*
X0074203Y0437103D01*
X0073311Y0436808D01*
X0073286Y0437709D01*
X0073550Y0437973D01*
X0073819Y0438624D01*
X0073819Y0438761D01*
X0080211Y0445153D01*
X0080516Y0445609D01*
X0080623Y0446147D01*
X0080623Y0448384D01*
X0081210Y0448972D01*
X0081515Y0449427D01*
X0081622Y0449965D01*
X0081622Y0457073D01*
X0082409Y0457177D01*
X0082542Y0456682D01*
D02*
G37*
G36*
X0059470Y0461687D02*
X0059913Y0461530D01*
X0060027Y0461360D01*
X0062054Y0459333D01*
X0062058Y0459135D01*
X0061824Y0458450D01*
X0061419Y0458282D01*
X0060921Y0457784D01*
X0060651Y0457133D01*
X0060651Y0456428D01*
X0060921Y0455777D01*
X0061243Y0455455D01*
X0061243Y0452504D01*
X0060334Y0451595D01*
X0060149Y0451318D01*
X0060105Y0451095D01*
X0059945Y0450914D01*
X0059326Y0450565D01*
X0058621Y0450565D01*
X0057970Y0450295D01*
X0057472Y0449797D01*
X0057410Y0449647D01*
X0056991Y0449647D01*
X0056664Y0449582D01*
X0056388Y0449397D01*
X0054684Y0447693D01*
X0053755Y0447878D01*
X0053755Y0447878D01*
X0053256Y0448376D01*
X0052605Y0448646D01*
X0051900Y0448646D01*
X0051197Y0449207D01*
X0051197Y0450005D01*
X0055231Y0454039D01*
X0055368Y0454039D01*
X0056020Y0454309D01*
X0056518Y0454807D01*
X0056788Y0455459D01*
X0056788Y0456164D01*
X0056518Y0456815D01*
X0056020Y0457313D01*
X0055791Y0457408D01*
X0055580Y0458310D01*
X0059017Y0461748D01*
X0059470Y0461687D01*
D02*
G37*
G36*
X0091183Y0454862D02*
X0091604Y0454862D01*
X0092118Y0454348D01*
X0092118Y0450327D01*
X0092118Y0450327D01*
X0092210Y0449866D01*
X0092471Y0449475D01*
X0094742Y0447205D01*
X0094742Y0447205D01*
X0095118Y0446953D01*
X0096934Y0445137D01*
X0096498Y0444531D01*
X0095846Y0444800D01*
X0095142Y0444800D01*
X0094490Y0444531D01*
X0093992Y0444032D01*
X0093722Y0443381D01*
X0093722Y0442676D01*
X0093992Y0442025D01*
X0094490Y0441527D01*
X0095142Y0441257D01*
X0095846Y0441257D01*
X0095997Y0441320D01*
X0099147Y0438169D01*
X0099147Y0436084D01*
X0099212Y0435758D01*
X0099397Y0435481D01*
X0106380Y0428499D01*
X0106380Y0427413D01*
X0106445Y0427087D01*
X0106629Y0426810D01*
X0109709Y0423731D01*
X0109646Y0423581D01*
X0109646Y0422876D01*
X0109682Y0422790D01*
X0109281Y0421911D01*
X0109224Y0421892D01*
X0108788Y0421932D01*
X0096645Y0434076D01*
X0096319Y0434293D01*
X0095867Y0435081D01*
X0095867Y0435785D01*
X0095597Y0436437D01*
X0095216Y0436818D01*
X0095681Y0437283D01*
X0095950Y0437934D01*
X0095950Y0438639D01*
X0095681Y0439290D01*
X0095182Y0439788D01*
X0094531Y0440058D01*
X0093826Y0440058D01*
X0093175Y0439788D01*
X0092677Y0439290D01*
X0092407Y0438639D01*
X0092407Y0437934D01*
X0092677Y0437283D01*
X0092835Y0437124D01*
X0092439Y0436435D01*
X0091685Y0436339D01*
X0091389Y0436635D01*
X0091064Y0436852D01*
X0090680Y0436929D01*
X0085758Y0436929D01*
X0085375Y0436852D01*
X0085049Y0436635D01*
X0083675Y0435261D01*
X0081735Y0435261D01*
X0081291Y0436048D01*
X0081417Y0436353D01*
X0081417Y0437058D01*
X0081147Y0437709D01*
X0080649Y0438207D01*
X0080498Y0438270D01*
X0080498Y0439030D01*
X0082418Y0440950D01*
X0084409Y0440950D01*
X0084736Y0441015D01*
X0084912Y0441133D01*
X0085278Y0441110D01*
X0085845Y0440918D01*
X0085909Y0440763D01*
X0086408Y0440264D01*
X0087059Y0439995D01*
X0087764Y0439995D01*
X0088415Y0440264D01*
X0088913Y0440763D01*
X0089183Y0441414D01*
X0089183Y0442119D01*
X0088913Y0442770D01*
X0088415Y0443268D01*
X0088259Y0443333D01*
X0088074Y0444262D01*
X0090044Y0446231D01*
X0090229Y0446508D01*
X0090294Y0446834D01*
X0090294Y0454378D01*
X0091081Y0454905D01*
X0091183Y0454862D01*
D02*
G37*
G36*
X0108033Y0440325D02*
X0116815Y0431544D01*
X0116815Y0430661D01*
X0115613Y0429459D01*
X0114886Y0429761D01*
X0114886Y0430093D01*
X0114794Y0430553D01*
X0114533Y0430944D01*
X0114533Y0430944D01*
X0106291Y0439187D01*
X0106284Y0439353D01*
X0106521Y0440070D01*
X0106909Y0440230D01*
X0107408Y0440729D01*
X0108033Y0440325D01*
D02*
G37*
G36*
X0111166Y0430905D02*
X0110868Y0430118D01*
X0110217Y0429848D01*
X0109719Y0429350D01*
X0109449Y0428699D01*
X0109449Y0427994D01*
X0109719Y0427343D01*
X0110217Y0426845D01*
X0110868Y0426575D01*
X0111573Y0426575D01*
X0111597Y0426584D01*
X0112250Y0426155D01*
X0112266Y0425582D01*
X0111651Y0425000D01*
X0111065Y0425000D01*
X0110915Y0424938D01*
X0108086Y0427767D01*
X0108086Y0428852D01*
X0108021Y0429178D01*
X0107836Y0429455D01*
X0100853Y0436437D01*
X0100853Y0438522D01*
X0100788Y0438849D01*
X0100604Y0439125D01*
X0097203Y0442526D01*
X0097266Y0442676D01*
X0097266Y0443381D01*
X0096996Y0444032D01*
X0097603Y0444469D01*
X0111166Y0430905D01*
D02*
G37*
G36*
X0184808Y0436806D02*
X0184808Y0431378D01*
X0183801Y0430371D01*
X0183616Y0430094D01*
X0183551Y0429768D01*
X0183551Y0427041D01*
X0183616Y0426714D01*
X0183801Y0426437D01*
X0185792Y0424446D01*
X0185792Y0422455D01*
X0185625Y0422343D01*
X0184920Y0422343D01*
X0184269Y0422073D01*
X0183855Y0421659D01*
X0183365Y0421648D01*
X0182978Y0421719D01*
X0182936Y0421821D01*
X0182437Y0422319D01*
X0181786Y0422589D01*
X0181081Y0422589D01*
X0180430Y0422319D01*
X0179932Y0421821D01*
X0179662Y0421170D01*
X0178875Y0420865D01*
X0177156Y0422584D01*
X0177156Y0429004D01*
X0181659Y0433507D01*
X0182060Y0433673D01*
X0182558Y0434171D01*
X0182828Y0434822D01*
X0182828Y0435527D01*
X0183187Y0436306D01*
X0183464Y0436491D01*
X0184081Y0437108D01*
X0184808Y0436806D01*
D02*
G37*
G36*
X0092529Y0432657D02*
X0092855Y0432439D01*
X0093239Y0432363D01*
X0095520Y0432363D01*
X0106863Y0421019D01*
X0106562Y0420292D01*
X0097254Y0420292D01*
X0088513Y0429033D01*
X0088363Y0429133D01*
X0088135Y0429878D01*
X0088120Y0429980D01*
X0088133Y0430041D01*
X0088386Y0430652D01*
X0088386Y0431356D01*
X0088117Y0432008D01*
X0087693Y0432431D01*
X0088117Y0432855D01*
X0088386Y0433506D01*
X0088386Y0434211D01*
X0088944Y0434922D01*
X0090264Y0434922D01*
X0092529Y0432657D01*
D02*
G37*
G36*
X0093956Y0417001D02*
X0093655Y0416274D01*
X0091095Y0416274D01*
X0088247Y0419121D01*
X0088247Y0419258D01*
X0087977Y0419910D01*
X0087479Y0420408D01*
X0086828Y0420678D01*
X0086691Y0420678D01*
X0085017Y0422352D01*
X0084561Y0422656D01*
X0084023Y0422763D01*
X0081714Y0422763D01*
X0081413Y0423491D01*
X0082216Y0424295D01*
X0086663Y0424295D01*
X0093956Y0417001D01*
D02*
G37*
G36*
X0116322Y0411170D02*
X0116599Y0410986D01*
X0116925Y0410921D01*
X0126489Y0410921D01*
X0126790Y0410193D01*
X0103855Y0387259D01*
X0103068Y0387585D01*
X0103068Y0399893D01*
X0106079Y0402904D01*
X0106264Y0403181D01*
X0106329Y0403507D01*
X0106329Y0407634D01*
X0106480Y0407697D01*
X0106978Y0408195D01*
X0107248Y0408846D01*
X0107248Y0409551D01*
X0106978Y0410202D01*
X0106480Y0410701D01*
X0105829Y0410970D01*
X0105124Y0410970D01*
X0104555Y0410735D01*
X0104168Y0410877D01*
X0103768Y0411109D01*
X0103768Y0412633D01*
X0104555Y0413054D01*
X0104597Y0413026D01*
X0105135Y0412919D01*
X0107017Y0412919D01*
X0107265Y0412671D01*
X0107916Y0412402D01*
X0108621Y0412402D01*
X0109272Y0412671D01*
X0109770Y0413170D01*
X0110555Y0413007D01*
X0111065Y0412795D01*
X0111770Y0412795D01*
X0112421Y0413065D01*
X0112868Y0413511D01*
X0112957Y0413568D01*
X0113818Y0413675D01*
X0116322Y0411170D01*
D02*
G37*
G36*
X0178448Y0436487D02*
X0173224Y0431264D01*
X0173039Y0430987D01*
X0172975Y0430661D01*
X0172975Y0421200D01*
X0173039Y0420874D01*
X0173224Y0420597D01*
X0184823Y0408999D01*
X0184823Y0408329D01*
X0185092Y0407678D01*
X0185591Y0407180D01*
X0186242Y0406910D01*
X0186947Y0406910D01*
X0187598Y0407180D01*
X0188096Y0407678D01*
X0188366Y0408329D01*
X0188366Y0409034D01*
X0188096Y0409685D01*
X0187598Y0410184D01*
X0186947Y0410453D01*
X0186242Y0410453D01*
X0185915Y0410318D01*
X0182228Y0414005D01*
X0182530Y0414733D01*
X0185468Y0414733D01*
X0185869Y0414567D01*
X0186573Y0414567D01*
X0187224Y0414837D01*
X0187723Y0415335D01*
X0187993Y0415986D01*
X0187993Y0416076D01*
X0188419Y0416284D01*
X0189157Y0415789D01*
X0189157Y0402305D01*
X0187754Y0400902D01*
X0185032Y0400902D01*
X0184706Y0400837D01*
X0184429Y0400652D01*
X0183305Y0399528D01*
X0183153Y0399301D01*
X0167953Y0399301D01*
X0167627Y0399236D01*
X0167350Y0399051D01*
X0162003Y0393704D01*
X0161992Y0393688D01*
X0161788Y0393423D01*
X0160993Y0393315D01*
X0160881Y0393361D01*
X0160176Y0393361D01*
X0159808Y0393209D01*
X0159107Y0393571D01*
X0159020Y0393670D01*
X0159020Y0397714D01*
X0159621Y0398266D01*
X0160390Y0398163D01*
X0160888Y0397665D01*
X0161540Y0397395D01*
X0162244Y0397395D01*
X0162896Y0397665D01*
X0163394Y0398163D01*
X0163664Y0398815D01*
X0163664Y0399519D01*
X0163394Y0400171D01*
X0162896Y0400669D01*
X0162775Y0401571D01*
X0164131Y0402927D01*
X0169766Y0402927D01*
X0169864Y0402829D01*
X0170515Y0402560D01*
X0171220Y0402560D01*
X0171871Y0402829D01*
X0172369Y0403328D01*
X0172639Y0403979D01*
X0172639Y0404116D01*
X0173533Y0405010D01*
X0173838Y0405466D01*
X0173945Y0406004D01*
X0173945Y0414862D01*
X0173838Y0415400D01*
X0173533Y0415856D01*
X0171860Y0417529D01*
X0171404Y0417833D01*
X0170867Y0417940D01*
X0168817Y0417940D01*
X0168720Y0418037D01*
X0168531Y0418116D01*
X0168531Y0422329D01*
X0170415Y0424213D01*
X0170552Y0424213D01*
X0171203Y0424482D01*
X0171702Y0424981D01*
X0171971Y0425632D01*
X0171971Y0426337D01*
X0171702Y0426988D01*
X0171484Y0427205D01*
X0171484Y0437215D01*
X0178146Y0437215D01*
X0178448Y0436487D01*
D02*
G37*
G36*
X0061615Y0410699D02*
X0061615Y0410671D01*
X0061884Y0410020D01*
X0062383Y0409522D01*
X0062417Y0408655D01*
X0062402Y0408620D01*
X0062402Y0407915D01*
X0062672Y0407264D01*
X0063170Y0406766D01*
X0063821Y0406496D01*
X0064526Y0406496D01*
X0065142Y0406085D01*
X0065142Y0399418D01*
X0063102Y0397379D01*
X0062951Y0397441D01*
X0062247Y0397441D01*
X0061595Y0397171D01*
X0061434Y0397010D01*
X0060647Y0397336D01*
X0060647Y0410404D01*
X0061434Y0410822D01*
X0061615Y0410699D01*
D02*
G37*
G36*
X0077385Y0417078D02*
X0077385Y0415024D01*
X0077492Y0414486D01*
X0077796Y0414031D01*
X0078123Y0413704D01*
X0078123Y0411140D01*
X0078026Y0411043D01*
X0077756Y0410392D01*
X0077756Y0409687D01*
X0078026Y0409036D01*
X0078524Y0408537D01*
X0079176Y0408268D01*
X0079880Y0408268D01*
X0080532Y0408537D01*
X0081030Y0409036D01*
X0081300Y0409687D01*
X0081300Y0410392D01*
X0081030Y0411043D01*
X0080933Y0411140D01*
X0080933Y0414272D01*
X0081603Y0414272D01*
X0081726Y0414323D01*
X0082514Y0413797D01*
X0082514Y0394505D01*
X0079165Y0391156D01*
X0078897Y0391209D01*
X0078399Y0391707D01*
X0078248Y0391770D01*
X0078248Y0394687D01*
X0078183Y0395013D01*
X0077998Y0395290D01*
X0069997Y0403291D01*
X0069997Y0407266D01*
X0070613Y0407677D01*
X0071317Y0407677D01*
X0071969Y0407947D01*
X0072467Y0408445D01*
X0072737Y0409096D01*
X0072737Y0409801D01*
X0072467Y0410452D01*
X0071969Y0410951D01*
X0071818Y0411013D01*
X0071818Y0412540D01*
X0076657Y0417380D01*
X0077385Y0417078D01*
D02*
G37*
G36*
X0084702Y0393226D02*
X0086943Y0390985D01*
X0086943Y0390119D01*
X0086155Y0389963D01*
X0086148Y0389980D01*
X0085650Y0390478D01*
X0084999Y0390748D01*
X0084294Y0390748D01*
X0083643Y0390478D01*
X0083144Y0389980D01*
X0082875Y0389329D01*
X0082875Y0388624D01*
X0083144Y0387973D01*
X0083643Y0387475D01*
X0084294Y0387205D01*
X0084999Y0387205D01*
X0085650Y0387475D01*
X0086148Y0387973D01*
X0086155Y0387990D01*
X0086943Y0387834D01*
X0086943Y0381474D01*
X0086155Y0380948D01*
X0086155Y0380948D01*
X0085450Y0380948D01*
X0084799Y0380678D01*
X0084702Y0380581D01*
X0067993Y0380581D01*
X0067666Y0381368D01*
X0068467Y0382169D01*
X0072926Y0382169D01*
X0073252Y0382234D01*
X0073529Y0382419D01*
X0079917Y0388807D01*
X0080102Y0389084D01*
X0080167Y0389411D01*
X0080167Y0389746D01*
X0083669Y0393247D01*
X0084307Y0393400D01*
X0084702Y0393226D01*
D02*
G37*
G36*
X0098105Y0404700D02*
X0098345Y0404700D01*
X0098671Y0403913D01*
X0098561Y0403802D01*
X0098376Y0403525D01*
X0098311Y0403199D01*
X0098311Y0391698D01*
X0097597Y0391142D01*
X0096892Y0391142D01*
X0096241Y0390872D01*
X0095743Y0390374D01*
X0095473Y0389723D01*
X0095473Y0389018D01*
X0095537Y0388863D01*
X0095222Y0388057D01*
X0095166Y0387984D01*
X0094882Y0387960D01*
X0094198Y0388545D01*
X0094198Y0398695D01*
X0094530Y0399410D01*
X0095235Y0399410D01*
X0095886Y0399679D01*
X0096384Y0400178D01*
X0096654Y0400829D01*
X0096654Y0401534D01*
X0096384Y0402185D01*
X0095886Y0402683D01*
X0095533Y0402829D01*
X0095689Y0403617D01*
X0095980Y0403617D01*
X0096632Y0403887D01*
X0097130Y0404385D01*
X0097365Y0404952D01*
X0097454Y0404970D01*
X0098105Y0404700D01*
D02*
G37*
G36*
X0128420Y0406587D02*
X0128918Y0406089D01*
X0129569Y0405819D01*
X0130274Y0405819D01*
X0130398Y0405092D01*
X0130398Y0387427D01*
X0130252Y0387343D01*
X0129610Y0387186D01*
X0129248Y0387548D01*
X0128597Y0387818D01*
X0127892Y0387818D01*
X0127241Y0387548D01*
X0126742Y0387050D01*
X0126473Y0386399D01*
X0126473Y0385694D01*
X0126742Y0385043D01*
X0127241Y0384544D01*
X0127892Y0384275D01*
X0128597Y0384275D01*
X0128747Y0384337D01*
X0129413Y0383671D01*
X0129413Y0373588D01*
X0128699Y0373032D01*
X0127994Y0373032D01*
X0127343Y0372762D01*
X0126845Y0372263D01*
X0126575Y0371612D01*
X0126575Y0371264D01*
X0125969Y0371036D01*
X0125788Y0371023D01*
X0125315Y0371497D01*
X0124686Y0371859D01*
X0123985Y0372047D01*
X0123260Y0372047D01*
X0122559Y0371859D01*
X0122244Y0371678D01*
X0121531Y0371975D01*
X0121478Y0372019D01*
X0121428Y0372076D01*
X0121187Y0372657D01*
X0120689Y0373155D01*
X0120038Y0373425D01*
X0119333Y0373425D01*
X0118619Y0373982D01*
X0118619Y0377348D01*
X0119550Y0378279D01*
X0119735Y0378556D01*
X0119800Y0378882D01*
X0119800Y0380627D01*
X0120588Y0381153D01*
X0120711Y0381102D01*
X0121416Y0381102D01*
X0122067Y0381372D01*
X0122565Y0381870D01*
X0122835Y0382522D01*
X0122835Y0383226D01*
X0122565Y0383878D01*
X0122067Y0384376D01*
X0121416Y0384646D01*
X0120711Y0384646D01*
X0120588Y0384595D01*
X0119800Y0385121D01*
X0119800Y0387257D01*
X0120325Y0387475D01*
X0120823Y0387973D01*
X0121093Y0388624D01*
X0121093Y0389329D01*
X0120823Y0389980D01*
X0120325Y0390478D01*
X0119674Y0390748D01*
X0118969Y0390748D01*
X0118809Y0390682D01*
X0118363Y0391350D01*
X0118628Y0391615D01*
X0118898Y0392266D01*
X0118898Y0392971D01*
X0118628Y0393622D01*
X0118130Y0394120D01*
X0117479Y0394390D01*
X0116774Y0394390D01*
X0116123Y0394120D01*
X0115625Y0393622D01*
X0115355Y0392971D01*
X0115355Y0392266D01*
X0115625Y0391615D01*
X0115502Y0391302D01*
X0114838Y0390788D01*
X0114133Y0390788D01*
X0113482Y0390519D01*
X0112984Y0390020D01*
X0112714Y0389369D01*
X0112714Y0388664D01*
X0112984Y0388013D01*
X0113482Y0387515D01*
X0113633Y0387452D01*
X0113633Y0373126D01*
X0112975Y0372546D01*
X0112270Y0372546D01*
X0111619Y0372277D01*
X0111121Y0371778D01*
X0110851Y0371127D01*
X0110851Y0370422D01*
X0111121Y0369771D01*
X0111197Y0369695D01*
X0110751Y0369027D01*
X0110589Y0369095D01*
X0109884Y0369095D01*
X0109843Y0369077D01*
X0109639Y0369125D01*
X0108973Y0369569D01*
X0108868Y0369961D01*
X0108505Y0370590D01*
X0107992Y0371103D01*
X0107363Y0371466D01*
X0106663Y0371653D01*
X0105937Y0371653D01*
X0105236Y0371466D01*
X0104741Y0371180D01*
X0104273Y0371338D01*
X0103954Y0371563D01*
X0103954Y0372291D01*
X0103889Y0372618D01*
X0103704Y0372894D01*
X0101721Y0374878D01*
X0101721Y0378971D01*
X0102435Y0379527D01*
X0103139Y0379527D01*
X0103790Y0379797D01*
X0104289Y0380296D01*
X0104491Y0380785D01*
X0105083Y0380888D01*
X0105311Y0380863D01*
X0105365Y0380732D01*
X0105864Y0380234D01*
X0105760Y0379424D01*
X0105708Y0379300D01*
X0105708Y0378595D01*
X0105978Y0377944D01*
X0106476Y0377446D01*
X0107127Y0377176D01*
X0107832Y0377176D01*
X0108483Y0377446D01*
X0108982Y0377944D01*
X0109251Y0378595D01*
X0109251Y0379300D01*
X0109137Y0379575D01*
X0109740Y0380178D01*
X0109884Y0380118D01*
X0110589Y0380118D01*
X0111240Y0380388D01*
X0111739Y0380886D01*
X0112008Y0381537D01*
X0112008Y0382242D01*
X0111739Y0382893D01*
X0111240Y0383392D01*
X0110867Y0383546D01*
X0110628Y0384290D01*
X0110636Y0384429D01*
X0111006Y0384799D01*
X0111191Y0385076D01*
X0111256Y0385403D01*
X0111256Y0390433D01*
X0127521Y0406698D01*
X0128420Y0406587D01*
D02*
G37*
G36*
X0192895Y0396138D02*
X0193054Y0395965D01*
X0193307Y0395315D01*
X0193111Y0394841D01*
X0193111Y0394136D01*
X0193380Y0393485D01*
X0193437Y0393428D01*
X0193824Y0392913D01*
X0193437Y0392399D01*
X0193380Y0392342D01*
X0193111Y0391691D01*
X0193111Y0390986D01*
X0193380Y0390335D01*
X0193437Y0390278D01*
X0193824Y0389764D01*
X0193437Y0389249D01*
X0193380Y0389192D01*
X0193111Y0388541D01*
X0193111Y0387837D01*
X0193380Y0387185D01*
X0193437Y0387129D01*
X0193824Y0386614D01*
X0193437Y0386100D01*
X0193380Y0386043D01*
X0193111Y0385392D01*
X0193111Y0384687D01*
X0193169Y0384546D01*
X0192567Y0383943D01*
X0192402Y0384011D01*
X0191697Y0384011D01*
X0191046Y0383741D01*
X0190548Y0383243D01*
X0190278Y0382592D01*
X0190278Y0381887D01*
X0190548Y0381236D01*
X0191046Y0380738D01*
X0191697Y0380468D01*
X0192402Y0380468D01*
X0193364Y0380019D01*
X0193399Y0379916D01*
X0193391Y0379754D01*
X0193380Y0379744D01*
X0193111Y0379093D01*
X0193111Y0378388D01*
X0193380Y0377737D01*
X0193437Y0377680D01*
X0193824Y0377165D01*
X0193437Y0376651D01*
X0193380Y0376594D01*
X0193111Y0375943D01*
X0193111Y0375238D01*
X0193380Y0374587D01*
X0193437Y0374530D01*
X0193824Y0374016D01*
X0193437Y0373501D01*
X0193380Y0373444D01*
X0193111Y0372793D01*
X0193111Y0372088D01*
X0193380Y0371437D01*
X0193437Y0371381D01*
X0193824Y0370866D01*
X0193437Y0370352D01*
X0193380Y0370295D01*
X0193283Y0370061D01*
X0192383Y0369847D01*
X0184483Y0377748D01*
X0184483Y0381932D01*
X0184418Y0382258D01*
X0184233Y0382535D01*
X0173871Y0392897D01*
X0174197Y0393684D01*
X0189983Y0393684D01*
X0190309Y0393749D01*
X0190586Y0393934D01*
X0192797Y0396146D01*
X0192895Y0396138D01*
D02*
G37*
G36*
X0068982Y0398996D02*
X0068973Y0398974D01*
X0068973Y0398270D01*
X0069243Y0397619D01*
X0069742Y0397120D01*
X0070393Y0396850D01*
X0071098Y0396850D01*
X0071749Y0397120D01*
X0072247Y0397619D01*
X0073145Y0397730D01*
X0076542Y0394333D01*
X0076542Y0391770D01*
X0076391Y0391707D01*
X0075893Y0391209D01*
X0075623Y0390558D01*
X0075623Y0389853D01*
X0075893Y0389202D01*
X0076391Y0388704D01*
X0076503Y0387805D01*
X0072572Y0383875D01*
X0068113Y0383875D01*
X0067787Y0383810D01*
X0067510Y0383625D01*
X0062920Y0379034D01*
X0062001Y0379034D01*
X0061674Y0378970D01*
X0061398Y0378785D01*
X0060390Y0377777D01*
X0059662Y0378078D01*
X0059662Y0382751D01*
X0060450Y0382908D01*
X0060635Y0382461D01*
X0061133Y0381963D01*
X0061784Y0381693D01*
X0062489Y0381693D01*
X0063140Y0381963D01*
X0063639Y0382461D01*
X0063908Y0383112D01*
X0063908Y0383817D01*
X0063639Y0384468D01*
X0063288Y0384819D01*
X0063308Y0385462D01*
X0063393Y0385714D01*
X0063602Y0385801D01*
X0064101Y0386300D01*
X0064371Y0386951D01*
X0064371Y0387656D01*
X0064101Y0388307D01*
X0063677Y0388730D01*
X0064101Y0389154D01*
X0064371Y0389805D01*
X0064371Y0390510D01*
X0064308Y0390661D01*
X0067582Y0393934D01*
X0067767Y0394211D01*
X0067832Y0394537D01*
X0067832Y0399092D01*
X0068577Y0399401D01*
X0068982Y0398996D01*
D02*
G37*
G36*
X0055917Y0403526D02*
X0055917Y0377654D01*
X0055086Y0376823D01*
X0054358Y0377125D01*
X0054358Y0377499D01*
X0054251Y0378036D01*
X0053947Y0378492D01*
X0053374Y0379065D01*
X0053374Y0402012D01*
X0055189Y0403827D01*
X0055917Y0403526D01*
D02*
G37*
G36*
X0053714Y0409656D02*
X0053714Y0406326D01*
X0050976Y0403588D01*
X0050671Y0403132D01*
X0050564Y0402594D01*
X0050564Y0378975D01*
X0050470Y0378454D01*
X0049808Y0378248D01*
X0049728Y0378248D01*
X0049077Y0377978D01*
X0048579Y0377480D01*
X0048309Y0376829D01*
X0048309Y0376124D01*
X0048579Y0375473D01*
X0049077Y0374974D01*
X0049228Y0374912D01*
X0049228Y0369890D01*
X0045967Y0369890D01*
X0045357Y0370387D01*
X0045301Y0370662D01*
X0045301Y0402273D01*
X0052986Y0409958D01*
X0053714Y0409656D01*
D02*
G37*
G36*
X0181792Y0381133D02*
X0181792Y0375229D01*
X0181857Y0374903D01*
X0182042Y0374626D01*
X0186066Y0370602D01*
X0185732Y0369922D01*
X0185684Y0369871D01*
X0181473Y0369871D01*
X0181410Y0370021D01*
X0180912Y0370520D01*
X0180261Y0370789D01*
X0179556Y0370789D01*
X0179014Y0370565D01*
X0178274Y0370295D01*
X0177776Y0370793D01*
X0177125Y0371063D01*
X0176420Y0371063D01*
X0175706Y0371620D01*
X0175706Y0375680D01*
X0178507Y0378482D01*
X0178692Y0378758D01*
X0178757Y0379085D01*
X0178757Y0383055D01*
X0179544Y0383381D01*
X0181792Y0381133D01*
D02*
G37*
G36*
X0162969Y0373769D02*
X0163296Y0373704D01*
X0163842Y0373704D01*
X0165143Y0372404D01*
X0164907Y0371525D01*
X0164685Y0371466D01*
X0164056Y0371103D01*
X0163543Y0370590D01*
X0163180Y0369961D01*
X0162993Y0369260D01*
X0162993Y0368535D01*
X0163180Y0367834D01*
X0163543Y0367206D01*
X0164056Y0366692D01*
X0164685Y0366329D01*
X0164813Y0365524D01*
X0164662Y0365158D01*
X0164385Y0364973D01*
X0161965Y0362552D01*
X0161237Y0362854D01*
X0161237Y0363787D01*
X0161172Y0364113D01*
X0161029Y0364328D01*
X0161029Y0368161D01*
X0161677Y0368809D01*
X0161861Y0369086D01*
X0161926Y0369412D01*
X0161926Y0373692D01*
X0162369Y0373875D01*
X0162714Y0373940D01*
X0162969Y0373769D01*
D02*
G37*
G36*
X0113426Y0362114D02*
X0114124Y0361895D01*
X0114059Y0361569D01*
X0114059Y0354018D01*
X0113272Y0353492D01*
X0113148Y0353543D01*
X0112443Y0353543D01*
X0111792Y0353274D01*
X0111294Y0352775D01*
X0111024Y0352124D01*
X0111024Y0351419D01*
X0111294Y0350768D01*
X0111792Y0350270D01*
X0112443Y0350000D01*
X0113148Y0350000D01*
X0113272Y0350051D01*
X0114059Y0349525D01*
X0114059Y0349065D01*
X0114124Y0348739D01*
X0114309Y0348462D01*
X0115417Y0347353D01*
X0115355Y0347203D01*
X0115355Y0346498D01*
X0115625Y0345847D01*
X0115879Y0345592D01*
X0115856Y0344753D01*
X0115720Y0344770D01*
X0115066Y0345062D01*
X0114888Y0345492D01*
X0114390Y0345990D01*
X0113739Y0346260D01*
X0113034Y0346260D01*
X0112383Y0345990D01*
X0111884Y0345492D01*
X0111615Y0344841D01*
X0111615Y0344136D01*
X0111884Y0343485D01*
X0112383Y0342986D01*
X0113034Y0342717D01*
X0113387Y0342717D01*
X0113713Y0341929D01*
X0107022Y0335237D01*
X0106370Y0335658D01*
X0106349Y0335678D01*
X0106349Y0336376D01*
X0106079Y0337027D01*
X0105581Y0337525D01*
X0104930Y0337795D01*
X0104225Y0337795D01*
X0103574Y0337525D01*
X0103075Y0337027D01*
X0102806Y0336376D01*
X0102806Y0335671D01*
X0103075Y0335020D01*
X0103574Y0334522D01*
X0104225Y0334252D01*
X0104922Y0334252D01*
X0104943Y0334231D01*
X0105363Y0333579D01*
X0102153Y0330369D01*
X0101968Y0330092D01*
X0101903Y0329766D01*
X0101903Y0328625D01*
X0101189Y0328173D01*
X0100657Y0328445D01*
X0100657Y0356875D01*
X0102067Y0358285D01*
X0102218Y0358223D01*
X0102923Y0358223D01*
X0103636Y0357667D01*
X0103636Y0354866D01*
X0103475Y0354799D01*
X0102977Y0354301D01*
X0102707Y0353650D01*
X0102707Y0352945D01*
X0102977Y0352294D01*
X0103450Y0351821D01*
X0103026Y0351397D01*
X0102756Y0350746D01*
X0102756Y0350041D01*
X0103026Y0349390D01*
X0103525Y0348892D01*
X0104176Y0348622D01*
X0104880Y0348622D01*
X0105532Y0348892D01*
X0106030Y0349390D01*
X0106300Y0350041D01*
X0106300Y0350746D01*
X0106237Y0350897D01*
X0107001Y0351661D01*
X0107186Y0351937D01*
X0107251Y0352264D01*
X0107251Y0360981D01*
X0107463Y0361159D01*
X0108038Y0361414D01*
X0108506Y0361221D01*
X0109211Y0361221D01*
X0109862Y0361490D01*
X0110335Y0361963D01*
X0110808Y0361490D01*
X0111459Y0361221D01*
X0112164Y0361221D01*
X0112815Y0361490D01*
X0113313Y0361989D01*
X0113370Y0362125D01*
X0113426Y0362114D01*
D02*
G37*
G36*
X0179071Y0358255D02*
X0179348Y0358070D01*
X0179674Y0358005D01*
X0186023Y0358005D01*
X0188872Y0355156D01*
X0188761Y0354258D01*
X0188752Y0354249D01*
X0187873Y0354312D01*
X0187375Y0354810D01*
X0186724Y0355080D01*
X0186019Y0355080D01*
X0185368Y0354810D01*
X0184869Y0354312D01*
X0184600Y0353661D01*
X0184600Y0352956D01*
X0184869Y0352305D01*
X0185368Y0351806D01*
X0186019Y0351537D01*
X0186724Y0351537D01*
X0187375Y0351806D01*
X0187384Y0351815D01*
X0188262Y0351752D01*
X0188761Y0351254D01*
X0189412Y0350984D01*
X0190117Y0350984D01*
X0190895Y0350552D01*
X0191080Y0350275D01*
X0193301Y0348055D01*
X0193111Y0347596D01*
X0193111Y0346892D01*
X0193380Y0346240D01*
X0193879Y0345742D01*
X0194530Y0345472D01*
X0195235Y0345472D01*
X0195276Y0345489D01*
X0196063Y0344963D01*
X0196063Y0323147D01*
X0195276Y0322621D01*
X0195235Y0322638D01*
X0194530Y0322638D01*
X0193879Y0322368D01*
X0193380Y0321870D01*
X0193111Y0321219D01*
X0193111Y0320514D01*
X0193380Y0319863D01*
X0193387Y0319856D01*
X0193378Y0319715D01*
X0193335Y0319675D01*
X0192446Y0319519D01*
X0191795Y0319789D01*
X0191090Y0319789D01*
X0190439Y0319519D01*
X0189941Y0319021D01*
X0189671Y0318370D01*
X0189671Y0318213D01*
X0188957Y0317488D01*
X0188739Y0317489D01*
X0188592Y0317675D01*
X0188592Y0318380D01*
X0188323Y0319031D01*
X0187824Y0319530D01*
X0187173Y0319799D01*
X0186468Y0319799D01*
X0185817Y0319530D01*
X0185319Y0319031D01*
X0185049Y0318380D01*
X0185049Y0318255D01*
X0184692Y0317920D01*
X0184166Y0318200D01*
X0184166Y0318443D01*
X0183897Y0319094D01*
X0183398Y0319593D01*
X0182747Y0319862D01*
X0182042Y0319862D01*
X0181391Y0319593D01*
X0180893Y0319094D01*
X0180623Y0318443D01*
X0180623Y0317739D01*
X0180510Y0317575D01*
X0180162Y0317575D01*
X0179442Y0318316D01*
X0179442Y0318443D01*
X0179172Y0319094D01*
X0178674Y0319593D01*
X0178023Y0319862D01*
X0177318Y0319862D01*
X0176667Y0319593D01*
X0176231Y0319157D01*
X0176112Y0319088D01*
X0175698Y0319043D01*
X0175004Y0319678D01*
X0175004Y0323058D01*
X0175004Y0323058D01*
X0174882Y0323673D01*
X0174534Y0324194D01*
X0174534Y0324194D01*
X0172071Y0326657D01*
X0172393Y0327434D01*
X0172407Y0327444D01*
X0181406Y0327444D01*
X0181732Y0327509D01*
X0182009Y0327694D01*
X0184019Y0329704D01*
X0184204Y0329981D01*
X0184269Y0330307D01*
X0184269Y0337953D01*
X0185056Y0338109D01*
X0185113Y0337973D01*
X0185611Y0337475D01*
X0186262Y0337205D01*
X0186967Y0337205D01*
X0187618Y0337475D01*
X0188117Y0337973D01*
X0188386Y0338624D01*
X0188386Y0339329D01*
X0188117Y0339980D01*
X0187618Y0340478D01*
X0186967Y0340748D01*
X0186262Y0340748D01*
X0185611Y0340478D01*
X0185113Y0339980D01*
X0184269Y0340001D01*
X0184154Y0340098D01*
X0184154Y0340707D01*
X0183884Y0341358D01*
X0183789Y0341453D01*
X0184115Y0342241D01*
X0187627Y0342241D01*
X0189505Y0340363D01*
X0189443Y0340213D01*
X0189443Y0339508D01*
X0189712Y0338857D01*
X0190211Y0338358D01*
X0190862Y0338089D01*
X0191567Y0338089D01*
X0192218Y0338358D01*
X0192716Y0338857D01*
X0192986Y0339508D01*
X0192986Y0340213D01*
X0192716Y0340864D01*
X0192218Y0341362D01*
X0191567Y0341632D01*
X0190862Y0341632D01*
X0190711Y0341569D01*
X0188584Y0343697D01*
X0188307Y0343882D01*
X0187981Y0343947D01*
X0183286Y0343947D01*
X0177861Y0349371D01*
X0177973Y0350270D01*
X0178471Y0350768D01*
X0178741Y0351419D01*
X0178741Y0351499D01*
X0179528Y0351825D01*
X0179706Y0351648D01*
X0180357Y0351378D01*
X0181004Y0351140D01*
X0181004Y0350435D01*
X0181274Y0349784D01*
X0181772Y0349286D01*
X0182424Y0349016D01*
X0183128Y0349016D01*
X0183780Y0349286D01*
X0184278Y0349784D01*
X0184548Y0350435D01*
X0184548Y0351140D01*
X0184278Y0351791D01*
X0183780Y0352289D01*
X0183128Y0352559D01*
X0182481Y0352797D01*
X0182481Y0353502D01*
X0182211Y0354153D01*
X0181713Y0354652D01*
X0181061Y0354921D01*
X0180357Y0354921D01*
X0179706Y0354652D01*
X0179207Y0354153D01*
X0178937Y0353502D01*
X0178937Y0353422D01*
X0178150Y0353096D01*
X0177973Y0353274D01*
X0177321Y0353543D01*
X0176617Y0353543D01*
X0175903Y0354100D01*
X0175903Y0354880D01*
X0176249Y0355226D01*
X0176433Y0355502D01*
X0176498Y0355829D01*
X0176498Y0359714D01*
X0177286Y0360040D01*
X0179071Y0358255D01*
D02*
G37*
G36*
X0030487Y0361499D02*
X0030985Y0361001D01*
X0031636Y0360731D01*
X0031874Y0360731D01*
X0031874Y0350319D01*
X0031086Y0349793D01*
X0031062Y0349803D01*
X0030357Y0349803D01*
X0030315Y0349786D01*
X0029528Y0350312D01*
X0029528Y0361756D01*
X0030315Y0361913D01*
X0030487Y0361499D01*
D02*
G37*
G36*
X0133671Y0360953D02*
X0133671Y0360856D01*
X0133941Y0360205D01*
X0134439Y0359707D01*
X0135090Y0359437D01*
X0135795Y0359437D01*
X0136446Y0359707D01*
X0136706Y0359966D01*
X0137493Y0359640D01*
X0137493Y0354765D01*
X0137558Y0354438D01*
X0137743Y0354161D01*
X0138252Y0353653D01*
X0138189Y0353502D01*
X0138189Y0352797D01*
X0138459Y0352146D01*
X0138958Y0351648D01*
X0139609Y0351378D01*
X0140313Y0351378D01*
X0141027Y0350821D01*
X0141027Y0349123D01*
X0140464Y0348560D01*
X0140313Y0348622D01*
X0139609Y0348622D01*
X0138958Y0348352D01*
X0138459Y0347854D01*
X0138189Y0347203D01*
X0138189Y0346498D01*
X0138459Y0345847D01*
X0138958Y0345349D01*
X0139609Y0345079D01*
X0140313Y0345079D01*
X0140965Y0345349D01*
X0141463Y0345847D01*
X0141733Y0346498D01*
X0141733Y0347203D01*
X0141670Y0347353D01*
X0142484Y0348167D01*
X0142652Y0348418D01*
X0142721Y0348433D01*
X0143439Y0348287D01*
X0143439Y0338352D01*
X0142725Y0337795D01*
X0142020Y0337795D01*
X0141369Y0337525D01*
X0140871Y0337027D01*
X0140601Y0336376D01*
X0140601Y0335671D01*
X0140871Y0335020D01*
X0141369Y0334522D01*
X0142020Y0334252D01*
X0142725Y0334252D01*
X0143439Y0333695D01*
X0143439Y0330865D01*
X0139874Y0327300D01*
X0139723Y0327362D01*
X0139018Y0327362D01*
X0138367Y0327092D01*
X0137869Y0326594D01*
X0137599Y0325943D01*
X0137599Y0325238D01*
X0137042Y0324524D01*
X0134778Y0324524D01*
X0134573Y0325019D01*
X0134075Y0325518D01*
X0133424Y0325787D01*
X0132719Y0325787D01*
X0132068Y0325518D01*
X0132011Y0325461D01*
X0131497Y0325074D01*
X0130982Y0325461D01*
X0130925Y0325518D01*
X0130274Y0325787D01*
X0129569Y0325787D01*
X0129397Y0325716D01*
X0128609Y0326238D01*
X0128609Y0342575D01*
X0129003Y0342805D01*
X0129397Y0342951D01*
X0129963Y0342717D01*
X0130668Y0342717D01*
X0131319Y0342986D01*
X0131817Y0343485D01*
X0132087Y0344136D01*
X0132087Y0344841D01*
X0131817Y0345492D01*
X0131319Y0345990D01*
X0130668Y0346260D01*
X0129963Y0346260D01*
X0129397Y0346025D01*
X0129003Y0346171D01*
X0128609Y0346401D01*
X0128609Y0347484D01*
X0128544Y0347811D01*
X0129055Y0348401D01*
X0129554Y0348900D01*
X0129823Y0349551D01*
X0129823Y0350256D01*
X0129761Y0350406D01*
X0131453Y0352098D01*
X0131637Y0352374D01*
X0131702Y0352701D01*
X0131702Y0354665D01*
X0131710Y0354703D01*
X0131710Y0359842D01*
X0131702Y0359879D01*
X0131702Y0360764D01*
X0132416Y0361321D01*
X0133121Y0361321D01*
X0133671Y0360953D01*
D02*
G37*
G36*
X0034138Y0346059D02*
X0034138Y0344848D01*
X0033424Y0344291D01*
X0032719Y0344291D01*
X0032068Y0344022D01*
X0031569Y0343523D01*
X0031300Y0342872D01*
X0031300Y0342167D01*
X0031569Y0341516D01*
X0032068Y0341018D01*
X0032719Y0340748D01*
X0033424Y0340748D01*
X0034203Y0340361D01*
X0034388Y0340085D01*
X0037369Y0337103D01*
X0037010Y0336491D01*
X0036941Y0336417D01*
X0036262Y0336417D01*
X0035611Y0336148D01*
X0035113Y0335649D01*
X0034843Y0334998D01*
X0034843Y0334293D01*
X0035113Y0333642D01*
X0035304Y0333451D01*
X0035304Y0332157D01*
X0034605Y0331594D01*
X0033900Y0331594D01*
X0033249Y0331325D01*
X0032751Y0330826D01*
X0032481Y0330175D01*
X0032481Y0329470D01*
X0032751Y0328819D01*
X0033055Y0328515D01*
X0033055Y0323858D01*
X0032268Y0323702D01*
X0032211Y0323838D01*
X0031713Y0324337D01*
X0031062Y0324606D01*
X0030357Y0324606D01*
X0030315Y0324589D01*
X0029528Y0325115D01*
X0029528Y0345751D01*
X0030315Y0346277D01*
X0030357Y0346260D01*
X0031062Y0346260D01*
X0031713Y0346530D01*
X0032211Y0347028D01*
X0033094Y0347102D01*
X0034138Y0346059D01*
D02*
G37*
G36*
X0172722Y0357788D02*
X0173374Y0357518D01*
X0174079Y0357518D01*
X0174792Y0356962D01*
X0174792Y0356182D01*
X0174447Y0355836D01*
X0174262Y0355559D01*
X0174197Y0355233D01*
X0174197Y0350977D01*
X0174262Y0350650D01*
X0174447Y0350374D01*
X0179229Y0345591D01*
X0178783Y0344924D01*
X0178336Y0345109D01*
X0177631Y0345109D01*
X0176980Y0344839D01*
X0176481Y0344341D01*
X0176212Y0343690D01*
X0176212Y0342985D01*
X0176261Y0342865D01*
X0176359Y0342053D01*
X0175861Y0341555D01*
X0175591Y0340904D01*
X0175591Y0340199D01*
X0175861Y0339548D01*
X0176359Y0339049D01*
X0177010Y0338780D01*
X0177715Y0338780D01*
X0178100Y0338939D01*
X0178780Y0338595D01*
X0178887Y0338478D01*
X0178887Y0333485D01*
X0178306Y0332874D01*
X0177601Y0332874D01*
X0176950Y0332604D01*
X0176451Y0332106D01*
X0176182Y0331455D01*
X0176182Y0330750D01*
X0176451Y0330099D01*
X0176612Y0329938D01*
X0176286Y0329150D01*
X0170012Y0329150D01*
X0169686Y0329938D01*
X0171470Y0331722D01*
X0171655Y0331999D01*
X0171720Y0332325D01*
X0171720Y0332732D01*
X0172483Y0333268D01*
X0173187Y0333268D01*
X0173839Y0333538D01*
X0174337Y0334036D01*
X0174607Y0334687D01*
X0174607Y0335392D01*
X0174337Y0336043D01*
X0173839Y0336541D01*
X0173187Y0336811D01*
X0172483Y0336811D01*
X0171720Y0337347D01*
X0171720Y0357677D01*
X0172507Y0358004D01*
X0172722Y0357788D01*
D02*
G37*
G36*
X0069969Y0338906D02*
X0069888Y0338126D01*
X0069863Y0338116D01*
X0069365Y0337618D01*
X0069128Y0337047D01*
X0068855Y0336967D01*
X0068308Y0336968D01*
X0068284Y0337027D01*
X0067786Y0337525D01*
X0067134Y0337795D01*
X0066430Y0337795D01*
X0065778Y0337525D01*
X0065280Y0337027D01*
X0065010Y0336376D01*
X0065010Y0335671D01*
X0065280Y0335020D01*
X0065778Y0334522D01*
X0066430Y0334252D01*
X0067134Y0334252D01*
X0067786Y0334522D01*
X0068284Y0335020D01*
X0068521Y0335591D01*
X0068794Y0335671D01*
X0069340Y0335669D01*
X0069365Y0335611D01*
X0069863Y0335112D01*
X0070514Y0334843D01*
X0070712Y0334843D01*
X0071038Y0334055D01*
X0064880Y0327897D01*
X0064828Y0327819D01*
X0064451Y0327586D01*
X0063870Y0327506D01*
X0063488Y0327664D01*
X0062783Y0327664D01*
X0062632Y0327601D01*
X0061090Y0329144D01*
X0061090Y0335148D01*
X0061240Y0335211D01*
X0061739Y0335709D01*
X0062008Y0336360D01*
X0062008Y0337065D01*
X0061739Y0337716D01*
X0061240Y0338215D01*
X0061238Y0338218D01*
X0061025Y0339101D01*
X0061090Y0339427D01*
X0061090Y0345286D01*
X0061240Y0345349D01*
X0061739Y0345847D01*
X0061790Y0345971D01*
X0062719Y0346156D01*
X0069969Y0338906D01*
D02*
G37*
G36*
X0154176Y0361221D02*
X0154880Y0361221D01*
X0154905Y0361231D01*
X0155693Y0360705D01*
X0155693Y0350386D01*
X0155758Y0350060D01*
X0155943Y0349783D01*
X0158685Y0347040D01*
X0158690Y0346846D01*
X0158455Y0346157D01*
X0158052Y0345990D01*
X0157554Y0345492D01*
X0157284Y0344841D01*
X0157284Y0344136D01*
X0157554Y0343485D01*
X0158052Y0342986D01*
X0158703Y0342717D01*
X0159408Y0342717D01*
X0160059Y0342986D01*
X0160557Y0343485D01*
X0160724Y0343888D01*
X0160943Y0344031D01*
X0161383Y0344169D01*
X0161615Y0344183D01*
X0161674Y0344143D01*
X0162001Y0344078D01*
X0163591Y0344078D01*
X0163917Y0344143D01*
X0164059Y0344238D01*
X0164846Y0343995D01*
X0164846Y0338092D01*
X0163670Y0336916D01*
X0162772Y0337027D01*
X0162274Y0337525D01*
X0161623Y0337795D01*
X0160918Y0337795D01*
X0160267Y0337525D01*
X0159768Y0337027D01*
X0159499Y0336376D01*
X0159499Y0335671D01*
X0159768Y0335020D01*
X0160267Y0334522D01*
X0160378Y0333623D01*
X0157665Y0330910D01*
X0157480Y0330634D01*
X0157415Y0330307D01*
X0157415Y0327155D01*
X0157265Y0327092D01*
X0156766Y0326594D01*
X0156497Y0325943D01*
X0156497Y0325238D01*
X0155940Y0324524D01*
X0153676Y0324524D01*
X0153471Y0325019D01*
X0152973Y0325518D01*
X0152321Y0325787D01*
X0151617Y0325787D01*
X0150966Y0325518D01*
X0150909Y0325461D01*
X0150394Y0325074D01*
X0149880Y0325461D01*
X0149823Y0325518D01*
X0149172Y0325787D01*
X0149143Y0325787D01*
X0148817Y0326575D01*
X0150948Y0328706D01*
X0151133Y0328983D01*
X0151198Y0329309D01*
X0151198Y0341458D01*
X0151133Y0341784D01*
X0150948Y0342061D01*
X0149082Y0343927D01*
X0149082Y0348086D01*
X0149845Y0348622D01*
X0150550Y0348622D01*
X0151201Y0348892D01*
X0151699Y0349390D01*
X0151969Y0350041D01*
X0151969Y0350746D01*
X0151907Y0350897D01*
X0152671Y0351661D01*
X0152856Y0351937D01*
X0152920Y0352264D01*
X0152920Y0360981D01*
X0153132Y0361159D01*
X0153708Y0361414D01*
X0154176Y0361221D01*
D02*
G37*
G36*
X0079574Y0342501D02*
X0079574Y0342056D01*
X0079639Y0341730D01*
X0079824Y0341453D01*
X0082443Y0338834D01*
X0082719Y0338649D01*
X0083046Y0338584D01*
X0084042Y0338584D01*
X0084714Y0337833D01*
X0084676Y0337525D01*
X0084178Y0337027D01*
X0083908Y0336376D01*
X0083908Y0335671D01*
X0084178Y0335020D01*
X0084676Y0334522D01*
X0085327Y0334252D01*
X0086032Y0334252D01*
X0086746Y0333695D01*
X0086746Y0327597D01*
X0085959Y0327271D01*
X0085924Y0327305D01*
X0085273Y0327575D01*
X0084568Y0327575D01*
X0084417Y0327513D01*
X0078166Y0333764D01*
X0078166Y0342795D01*
X0078954Y0343121D01*
X0079574Y0342501D01*
D02*
G37*
G36*
X0125381Y0348678D02*
X0125431Y0348604D01*
X0126903Y0347131D01*
X0126903Y0325757D01*
X0126159Y0325053D01*
X0125714Y0325080D01*
X0125591Y0325238D01*
X0125591Y0325943D01*
X0125321Y0326594D01*
X0124823Y0327092D01*
X0124172Y0327362D01*
X0123467Y0327362D01*
X0123316Y0327300D01*
X0118741Y0331876D01*
X0118741Y0335295D01*
X0118891Y0335357D01*
X0119390Y0335856D01*
X0119659Y0336507D01*
X0119659Y0337212D01*
X0119390Y0337863D01*
X0118891Y0338361D01*
X0118240Y0338631D01*
X0117535Y0338631D01*
X0116884Y0338361D01*
X0116386Y0337863D01*
X0116116Y0337212D01*
X0116116Y0336507D01*
X0116386Y0335856D01*
X0116884Y0335357D01*
X0117035Y0335295D01*
X0117035Y0331522D01*
X0117100Y0331196D01*
X0117285Y0330919D01*
X0119626Y0328578D01*
X0119443Y0328136D01*
X0119246Y0327844D01*
X0118953Y0327785D01*
X0118676Y0327600D01*
X0116400Y0325324D01*
X0115685Y0325023D01*
X0115359Y0325336D01*
X0115177Y0325518D01*
X0114526Y0325787D01*
X0113821Y0325787D01*
X0113170Y0325518D01*
X0113113Y0325461D01*
X0112599Y0325074D01*
X0112084Y0325461D01*
X0112028Y0325518D01*
X0111377Y0325787D01*
X0110672Y0325787D01*
X0110021Y0325518D01*
X0109522Y0325019D01*
X0109253Y0324368D01*
X0109253Y0323663D01*
X0109283Y0323589D01*
X0108757Y0322802D01*
X0103609Y0322802D01*
X0103609Y0323830D01*
X0103767Y0323989D01*
X0104397Y0324291D01*
X0104815Y0324118D01*
X0105519Y0324118D01*
X0106171Y0324388D01*
X0106669Y0324886D01*
X0106939Y0325537D01*
X0106939Y0326242D01*
X0106669Y0326893D01*
X0106171Y0327392D01*
X0106020Y0327454D01*
X0106020Y0330431D01*
X0124447Y0348859D01*
X0124670Y0348865D01*
X0125381Y0348678D01*
D02*
G37*
G36*
X0033055Y0317874D02*
X0033055Y0317670D01*
X0033120Y0317343D01*
X0033305Y0317067D01*
X0034908Y0315464D01*
X0034845Y0315313D01*
X0034845Y0314608D01*
X0035115Y0313957D01*
X0035613Y0313459D01*
X0036264Y0313189D01*
X0036969Y0313189D01*
X0036978Y0313192D01*
X0037765Y0312666D01*
X0037765Y0311777D01*
X0037599Y0311376D01*
X0037599Y0310671D01*
X0037869Y0310020D01*
X0038367Y0309522D01*
X0039018Y0309252D01*
X0039723Y0309252D01*
X0039764Y0309224D01*
X0039764Y0307874D01*
X0034565Y0307874D01*
X0034038Y0308662D01*
X0034056Y0308703D01*
X0034056Y0309408D01*
X0033786Y0310059D01*
X0033288Y0310557D01*
X0032636Y0310827D01*
X0031931Y0310827D01*
X0031280Y0310557D01*
X0030782Y0310059D01*
X0030512Y0309408D01*
X0030512Y0309104D01*
X0029837Y0308517D01*
X0029785Y0308502D01*
X0029528Y0308580D01*
X0029528Y0316617D01*
X0030315Y0317143D01*
X0030357Y0317126D01*
X0031062Y0317126D01*
X0031713Y0317396D01*
X0032211Y0317894D01*
X0032268Y0318030D01*
X0033055Y0317874D01*
D02*
G37*
G36*
X0175508Y0314224D02*
X0175508Y0314224D01*
X0176029Y0313876D01*
X0176643Y0313754D01*
X0176643Y0313754D01*
X0192544Y0313754D01*
X0192544Y0313754D01*
X0193158Y0313876D01*
X0193679Y0314224D01*
X0195276Y0315821D01*
X0195982Y0315529D01*
X0196063Y0315436D01*
X0196063Y0309843D01*
X0194112Y0309843D01*
X0194022Y0310059D01*
X0193524Y0310557D01*
X0192873Y0310827D01*
X0192168Y0310827D01*
X0191517Y0310557D01*
X0191018Y0310059D01*
X0190929Y0309843D01*
X0189387Y0309843D01*
X0189298Y0310059D01*
X0188799Y0310557D01*
X0188148Y0310827D01*
X0187443Y0310827D01*
X0186792Y0310557D01*
X0186294Y0310059D01*
X0186204Y0309843D01*
X0184663Y0309843D01*
X0184573Y0310059D01*
X0184075Y0310557D01*
X0183424Y0310827D01*
X0182719Y0310827D01*
X0182068Y0310557D01*
X0181569Y0310059D01*
X0181480Y0309843D01*
X0179938Y0309843D01*
X0179849Y0310059D01*
X0179350Y0310557D01*
X0178699Y0310827D01*
X0177995Y0310827D01*
X0177343Y0310557D01*
X0176845Y0310059D01*
X0176756Y0309843D01*
X0175214Y0309843D01*
X0175124Y0310059D01*
X0174626Y0310557D01*
X0173975Y0310827D01*
X0173270Y0310827D01*
X0172619Y0310557D01*
X0172121Y0310059D01*
X0172031Y0309843D01*
X0170883Y0309843D01*
X0170794Y0310059D01*
X0170295Y0310557D01*
X0169979Y0310688D01*
X0169731Y0311554D01*
X0171364Y0313187D01*
X0171364Y0313187D01*
X0171712Y0313708D01*
X0171834Y0314322D01*
X0171834Y0314769D01*
X0173399Y0316333D01*
X0175508Y0314224D01*
D02*
G37*
%LPC*%
G36*
X0116101Y0456102D02*
X0115396Y0456102D01*
X0114745Y0455833D01*
X0114247Y0455334D01*
X0113977Y0454683D01*
X0113977Y0453978D01*
X0114247Y0453327D01*
X0114745Y0452829D01*
X0115396Y0452559D01*
X0116101Y0452559D01*
X0116752Y0452829D01*
X0117250Y0453327D01*
X0117520Y0453978D01*
X0117520Y0454683D01*
X0117250Y0455334D01*
X0116752Y0455833D01*
X0116101Y0456102D01*
D02*
G37*
G36*
X0122400Y0453346D02*
X0121695Y0453346D01*
X0121044Y0453077D01*
X0120546Y0452578D01*
X0120276Y0451927D01*
X0120276Y0451222D01*
X0120546Y0450571D01*
X0121044Y0450073D01*
X0121695Y0449803D01*
X0122400Y0449803D01*
X0123051Y0450073D01*
X0123550Y0450571D01*
X0123819Y0451222D01*
X0123819Y0451927D01*
X0123550Y0452578D01*
X0123051Y0453077D01*
X0122400Y0453346D01*
D02*
G37*
G36*
X0164052Y0449705D02*
X0163347Y0449705D01*
X0162696Y0449435D01*
X0162197Y0448937D01*
X0161928Y0448285D01*
X0161928Y0447581D01*
X0162197Y0446930D01*
X0162696Y0446431D01*
X0163347Y0446161D01*
X0164052Y0446161D01*
X0164605Y0445538D01*
X0164640Y0445453D01*
X0165139Y0444955D01*
X0165790Y0444685D01*
X0166495Y0444685D01*
X0167146Y0444955D01*
X0167644Y0445453D01*
X0167914Y0446104D01*
X0167914Y0446809D01*
X0167644Y0447460D01*
X0167146Y0447959D01*
X0166495Y0448228D01*
X0165790Y0448228D01*
X0165236Y0448852D01*
X0165201Y0448937D01*
X0164703Y0449435D01*
X0164052Y0449705D01*
D02*
G37*
G36*
X0153453Y0441929D02*
X0152748Y0441929D01*
X0152097Y0441659D01*
X0151599Y0441161D01*
X0151329Y0440510D01*
X0151329Y0439805D01*
X0150613Y0439477D01*
X0150178Y0439297D01*
X0149680Y0438799D01*
X0149410Y0438148D01*
X0149410Y0437443D01*
X0149680Y0436792D01*
X0150178Y0436293D01*
X0150829Y0436024D01*
X0151534Y0436024D01*
X0152185Y0436293D01*
X0152683Y0436792D01*
X0152953Y0437443D01*
X0152953Y0438148D01*
X0153670Y0438476D01*
X0154104Y0438656D01*
X0154603Y0439154D01*
X0154873Y0439805D01*
X0154873Y0440510D01*
X0154603Y0441161D01*
X0154104Y0441659D01*
X0153453Y0441929D01*
D02*
G37*
G36*
X0134708Y0433809D02*
X0134003Y0433809D01*
X0133352Y0433539D01*
X0132854Y0433041D01*
X0132707Y0432685D01*
X0132550Y0432654D01*
X0131899Y0432924D01*
X0131194Y0432924D01*
X0130543Y0432654D01*
X0130044Y0432156D01*
X0129775Y0431505D01*
X0129775Y0430905D01*
X0129176Y0430905D01*
X0128525Y0430636D01*
X0128026Y0430137D01*
X0127756Y0429486D01*
X0127756Y0428781D01*
X0128026Y0428130D01*
X0128525Y0427632D01*
X0129176Y0427362D01*
X0129880Y0427362D01*
X0130532Y0427632D01*
X0131030Y0428130D01*
X0131300Y0428781D01*
X0131300Y0429381D01*
X0131899Y0429381D01*
X0132550Y0429650D01*
X0133048Y0430149D01*
X0133196Y0430504D01*
X0133352Y0430535D01*
X0134003Y0430266D01*
X0134708Y0430266D01*
X0135360Y0430535D01*
X0135858Y0431034D01*
X0136128Y0431685D01*
X0136128Y0432390D01*
X0135858Y0433041D01*
X0135360Y0433539D01*
X0134708Y0433809D01*
D02*
G37*
G36*
X0157754Y0429469D02*
X0157050Y0429469D01*
X0156399Y0429199D01*
X0155900Y0428700D01*
X0155630Y0428049D01*
X0155630Y0427863D01*
X0155471Y0427756D01*
X0154766Y0427756D01*
X0154115Y0427486D01*
X0153617Y0426988D01*
X0153347Y0426337D01*
X0153347Y0425632D01*
X0153617Y0424981D01*
X0154115Y0424482D01*
X0154766Y0424213D01*
X0155471Y0424213D01*
X0156122Y0424482D01*
X0156621Y0424981D01*
X0156890Y0425632D01*
X0156890Y0425819D01*
X0157050Y0425925D01*
X0157754Y0425925D01*
X0158406Y0426195D01*
X0158904Y0426693D01*
X0159174Y0427345D01*
X0159174Y0428049D01*
X0158904Y0428700D01*
X0158406Y0429199D01*
X0157754Y0429469D01*
D02*
G37*
G36*
X0147203Y0423819D02*
X0146499Y0423819D01*
X0145847Y0423549D01*
X0145790Y0423492D01*
X0145276Y0423106D01*
X0144762Y0423492D01*
X0144705Y0423549D01*
X0144054Y0423819D01*
X0143349Y0423819D01*
X0142698Y0423549D01*
X0142199Y0423051D01*
X0141930Y0422400D01*
X0141930Y0421695D01*
X0142199Y0421044D01*
X0142698Y0420545D01*
X0143349Y0420276D01*
X0144054Y0420276D01*
X0144705Y0420545D01*
X0144762Y0420602D01*
X0145276Y0420989D01*
X0145790Y0420602D01*
X0145847Y0420545D01*
X0146499Y0420276D01*
X0147203Y0420276D01*
X0147854Y0420545D01*
X0148353Y0421044D01*
X0148623Y0421695D01*
X0148623Y0422400D01*
X0148353Y0423051D01*
X0147854Y0423549D01*
X0147203Y0423819D01*
D02*
G37*
G36*
X0140117Y0396653D02*
X0139412Y0396653D01*
X0138761Y0396384D01*
X0138262Y0395885D01*
X0137993Y0395234D01*
X0137993Y0394529D01*
X0138262Y0393878D01*
X0138761Y0393380D01*
X0139412Y0393110D01*
X0140117Y0393110D01*
X0140768Y0393380D01*
X0141266Y0393878D01*
X0141536Y0394529D01*
X0141536Y0395234D01*
X0141266Y0395885D01*
X0140768Y0396384D01*
X0140117Y0396653D01*
D02*
G37*
G36*
X0108227Y0346260D02*
X0107522Y0346260D01*
X0106871Y0345990D01*
X0106373Y0345492D01*
X0106103Y0344841D01*
X0106103Y0344136D01*
X0106373Y0343485D01*
X0106871Y0342986D01*
X0107522Y0342717D01*
X0108227Y0342717D01*
X0108878Y0342986D01*
X0109376Y0343485D01*
X0109646Y0344136D01*
X0109646Y0344841D01*
X0109376Y0345492D01*
X0108878Y0345990D01*
X0108227Y0346260D01*
D02*
G37*
G36*
X0191298Y0336024D02*
X0190593Y0336024D01*
X0189942Y0335754D01*
X0189443Y0335256D01*
X0189174Y0334604D01*
X0189174Y0333900D01*
X0189443Y0333248D01*
X0189942Y0332750D01*
X0190093Y0332688D01*
X0190546Y0332191D01*
X0190474Y0331742D01*
X0190355Y0331455D01*
X0190355Y0330750D01*
X0190625Y0330099D01*
X0191123Y0329600D01*
X0191384Y0329493D01*
X0191412Y0329350D01*
X0191142Y0328699D01*
X0191142Y0327994D01*
X0191412Y0327343D01*
X0191910Y0326845D01*
X0192561Y0326575D01*
X0193266Y0326575D01*
X0193917Y0326845D01*
X0194416Y0327343D01*
X0194685Y0327994D01*
X0194685Y0328699D01*
X0194416Y0329350D01*
X0193917Y0329848D01*
X0193657Y0329956D01*
X0193628Y0330099D01*
X0193898Y0330750D01*
X0193898Y0331455D01*
X0193628Y0332106D01*
X0193130Y0332604D01*
X0192979Y0332667D01*
X0192525Y0333163D01*
X0192598Y0333612D01*
X0192717Y0333900D01*
X0192717Y0334604D01*
X0192447Y0335256D01*
X0191949Y0335754D01*
X0191298Y0336024D01*
D02*
G37*
G36*
X0135983Y0353543D02*
X0135278Y0353543D01*
X0134627Y0353274D01*
X0134129Y0352775D01*
X0133859Y0352124D01*
X0133859Y0351419D01*
X0134129Y0350768D01*
X0134627Y0350270D01*
X0135278Y0350000D01*
X0135983Y0350000D01*
X0136634Y0350270D01*
X0137132Y0350768D01*
X0137402Y0351419D01*
X0137402Y0352124D01*
X0137132Y0352775D01*
X0136634Y0353274D01*
X0135983Y0353543D01*
D02*
G37*
G36*
X0136573Y0346260D02*
X0135869Y0346260D01*
X0135217Y0345990D01*
X0134719Y0345492D01*
X0134449Y0344841D01*
X0134449Y0344136D01*
X0134719Y0343485D01*
X0135217Y0342986D01*
X0135869Y0342717D01*
X0136573Y0342717D01*
X0137224Y0342986D01*
X0137723Y0343485D01*
X0137993Y0344136D01*
X0137993Y0344841D01*
X0137723Y0345492D01*
X0137224Y0345990D01*
X0136573Y0346260D01*
D02*
G37*
G36*
X0153503Y0346260D02*
X0152798Y0346260D01*
X0152146Y0345990D01*
X0151648Y0345492D01*
X0151378Y0344841D01*
X0151378Y0344136D01*
X0151648Y0343485D01*
X0152146Y0342986D01*
X0152798Y0342717D01*
X0153503Y0342717D01*
X0154154Y0342986D01*
X0154652Y0343485D01*
X0154922Y0344136D01*
X0154922Y0344841D01*
X0154652Y0345492D01*
X0154154Y0345990D01*
X0153503Y0346260D01*
D02*
G37*
G36*
X0123827Y0337795D02*
X0123122Y0337795D01*
X0122471Y0337525D01*
X0121973Y0337027D01*
X0121703Y0336376D01*
X0121703Y0335671D01*
X0121973Y0335020D01*
X0122471Y0334522D01*
X0123122Y0334252D01*
X0123827Y0334252D01*
X0124478Y0334522D01*
X0124977Y0335020D01*
X0125247Y0335671D01*
X0125247Y0336376D01*
X0124977Y0337027D01*
X0124478Y0337525D01*
X0123827Y0337795D01*
D02*
G37*
%LPD*%
D22*
X0108731Y0420571D02*
X0113905Y0420571D01*
X0095935Y0433366D02*
X0108731Y0420571D01*
X0041715Y0413092D02*
X0041966Y0412840D01*
X0040452Y0413092D02*
X0041715Y0413092D01*
X0030709Y0422835D02*
X0040452Y0413092D01*
X0063222Y0411024D02*
X0063386Y0411024D01*
X0061071Y0413174D02*
X0063222Y0411024D01*
X0061071Y0413174D02*
X0061071Y0422164D01*
X0045725Y0325892D02*
X0045725Y0326925D01*
X0055512Y0336713D01*
X0045424Y0325591D02*
X0045725Y0325892D01*
X0061071Y0422164D02*
X0062432Y0423524D01*
X0063089Y0423524D02*
X0067028Y0427462D01*
X0060476Y0439174D02*
X0060476Y0444759D01*
X0085758Y0435925D02*
X0090680Y0435925D01*
X0069981Y0438120D02*
X0073844Y0434257D01*
X0062432Y0423524D02*
X0063089Y0423524D01*
X0067028Y0427462D02*
X0067028Y0432621D01*
X0077545Y0447702D02*
X0077545Y0450773D01*
X0069981Y0440138D02*
X0077545Y0447702D01*
X0069981Y0438120D02*
X0069981Y0440138D01*
X0077545Y0450773D02*
X0077756Y0450984D01*
X0084091Y0434257D02*
X0085758Y0435925D01*
X0073844Y0434257D02*
X0084091Y0434257D01*
X0090680Y0435925D02*
X0093239Y0433366D01*
X0095935Y0433366D01*
X0136690Y0415858D02*
X0143307Y0409241D01*
X0102787Y0384771D02*
X0128658Y0410642D01*
X0142097Y0404473D02*
X0143307Y0405683D01*
X0143307Y0409241D01*
X0131185Y0410642D02*
X0132973Y0408854D01*
X0136416Y0404473D02*
X0142097Y0404473D01*
X0132973Y0407915D02*
X0136416Y0404473D01*
X0113905Y0420571D02*
X0118617Y0415858D01*
X0128658Y0410642D02*
X0131185Y0410642D01*
X0132973Y0407915D02*
X0132973Y0408854D01*
X0118617Y0415858D02*
X0136690Y0415858D01*
X0102787Y0381299D02*
X0102787Y0384771D01*
X0060476Y0439174D02*
X0067028Y0432621D01*
D24*
X0041930Y0373425D02*
X0041930Y0373532D01*
X0042726Y0374328D01*
X0036615Y0334539D02*
X0036910Y0334244D01*
X0036615Y0334539D02*
X0036615Y0334646D01*
X0039371Y0311024D02*
X0039477Y0311024D01*
X0040166Y0311713D01*
X0043299Y0311713D01*
X0043913Y0311099D01*
X0043988Y0311099D01*
X0044890Y0311713D02*
X0048024Y0311713D01*
X0048637Y0311099D01*
X0048713Y0311099D01*
X0049615Y0311713D02*
X0052748Y0311713D01*
X0053362Y0311099D01*
X0053437Y0311099D01*
X0054339Y0311713D02*
X0057473Y0311713D01*
X0058086Y0311099D01*
X0058162Y0311099D01*
X0059064Y0311713D02*
X0062197Y0311713D01*
X0062811Y0311099D01*
X0062886Y0311099D01*
X0063788Y0311713D02*
X0066922Y0311713D01*
X0067535Y0311099D01*
X0067611Y0311099D01*
X0068513Y0311713D02*
X0071646Y0311713D01*
X0072259Y0311099D01*
X0072335Y0311099D01*
X0073237Y0311713D02*
X0076370Y0311713D01*
X0076984Y0311099D01*
X0077059Y0311099D01*
X0077961Y0311713D02*
X0081095Y0311713D01*
X0081708Y0311099D01*
X0081784Y0311099D01*
X0082686Y0311713D02*
X0085819Y0311713D01*
X0086433Y0311099D01*
X0086508Y0311099D01*
X0087410Y0311713D02*
X0090543Y0311713D01*
X0091157Y0311099D01*
X0091232Y0311099D01*
X0092135Y0311713D02*
X0095268Y0311713D01*
X0095882Y0311099D01*
X0095957Y0311099D01*
X0096859Y0311713D02*
X0099992Y0311713D01*
X0100606Y0311099D01*
X0100681Y0311099D01*
X0101583Y0311713D02*
X0104717Y0311713D01*
X0105330Y0311099D01*
X0105406Y0311099D01*
X0106308Y0311713D02*
X0109441Y0311713D01*
X0110055Y0311099D01*
X0110130Y0311099D01*
X0111032Y0311713D02*
X0114166Y0311713D01*
X0114779Y0311099D01*
X0114855Y0311099D01*
X0115757Y0311713D02*
X0118890Y0311713D01*
X0119504Y0311099D01*
X0119579Y0311099D01*
X0120481Y0311713D02*
X0123614Y0311713D01*
X0124228Y0311099D01*
X0124303Y0311099D01*
X0125206Y0311713D02*
X0128339Y0311713D01*
X0128952Y0311099D01*
X0129028Y0311099D01*
X0129930Y0311713D02*
X0133063Y0311713D01*
X0133677Y0311099D01*
X0133752Y0311099D01*
X0134654Y0311713D02*
X0137788Y0311713D01*
X0138401Y0311099D01*
X0138477Y0311099D01*
X0139379Y0311713D02*
X0142512Y0311713D01*
X0143126Y0311099D01*
X0143201Y0311099D01*
X0144103Y0311713D02*
X0147237Y0311713D01*
X0147850Y0311099D01*
X0147925Y0311099D01*
X0148827Y0311713D02*
X0151961Y0311713D01*
X0152575Y0311099D01*
X0152650Y0311099D01*
X0153552Y0311713D02*
X0156685Y0311713D01*
X0157299Y0311099D01*
X0157374Y0311099D01*
X0158276Y0311713D02*
X0161410Y0311713D01*
X0162023Y0311099D01*
X0162099Y0311099D01*
X0163001Y0311713D02*
X0166134Y0311713D01*
X0166823Y0311024D01*
X0166930Y0311024D01*
X0170229Y0314322D01*
X0170229Y0315434D01*
X0173399Y0318604D01*
X0170155Y0326303D02*
X0173399Y0323058D01*
X0173399Y0318604D02*
X0173399Y0323058D01*
X0194882Y0317698D02*
X0194882Y0317717D01*
X0192544Y0315360D02*
X0194882Y0317698D01*
X0176643Y0315360D02*
X0192544Y0315360D01*
X0173399Y0318604D02*
X0176643Y0315360D01*
X0048819Y0311205D02*
X0048926Y0311099D01*
X0110419Y0311099D02*
X0111032Y0311713D01*
X0138477Y0311099D02*
X0138583Y0311205D01*
X0062993Y0311205D02*
X0063099Y0311099D01*
X0039371Y0311713D02*
X0039371Y0316929D01*
X0077272Y0311099D02*
X0077348Y0311099D01*
X0063175Y0311099D02*
X0063788Y0311713D01*
X0077059Y0311099D02*
X0077166Y0311205D01*
X0053726Y0311099D02*
X0054339Y0311713D01*
X0114855Y0311099D02*
X0114961Y0311205D01*
X0048926Y0311099D02*
X0049001Y0311099D01*
X0053544Y0311205D02*
X0053650Y0311099D01*
X0147925Y0311099D02*
X0148032Y0311205D01*
X0067824Y0311099D02*
X0067899Y0311099D01*
X0067717Y0311205D02*
X0067824Y0311099D01*
X0053650Y0311099D02*
X0053726Y0311099D01*
X0157481Y0311205D02*
X0157587Y0311099D01*
X0044277Y0311099D02*
X0044890Y0311713D01*
X0035630Y0326539D02*
X0036910Y0327819D01*
X0115143Y0311099D02*
X0115757Y0311713D01*
X0058375Y0311099D02*
X0058450Y0311099D01*
X0058162Y0311099D02*
X0058268Y0311205D01*
X0152756Y0311205D02*
X0152863Y0311099D01*
X0133752Y0311099D02*
X0133859Y0311205D01*
X0133965Y0311099D02*
X0134041Y0311099D01*
X0035630Y0320669D02*
X0039371Y0316929D01*
X0058268Y0311205D02*
X0058375Y0311099D01*
X0044201Y0311099D02*
X0044277Y0311099D01*
X0162099Y0311099D02*
X0162205Y0311205D01*
X0077348Y0311099D02*
X0077961Y0311713D01*
X0157374Y0311099D02*
X0157481Y0311205D01*
X0157587Y0311099D02*
X0157663Y0311099D01*
X0148214Y0311099D02*
X0148827Y0311713D01*
X0043988Y0311099D02*
X0044095Y0311205D01*
X0129316Y0311099D02*
X0129930Y0311713D01*
X0100788Y0311205D02*
X0100894Y0311099D01*
X0091232Y0311099D02*
X0091339Y0311205D01*
X0049001Y0311099D02*
X0049615Y0311713D01*
X0044095Y0311205D02*
X0044201Y0311099D01*
X0110237Y0311205D02*
X0110343Y0311099D01*
X0091446Y0311099D02*
X0091521Y0311099D01*
X0062886Y0311099D02*
X0062993Y0311205D01*
X0133859Y0311205D02*
X0133965Y0311099D01*
X0063099Y0311099D02*
X0063175Y0311099D01*
X0129134Y0311205D02*
X0129241Y0311099D01*
X0058450Y0311099D02*
X0059064Y0311713D01*
X0048713Y0311099D02*
X0048819Y0311205D01*
X0119867Y0311099D02*
X0120481Y0311713D01*
X0053437Y0311099D02*
X0053544Y0311205D01*
X0036910Y0327819D02*
X0036910Y0334244D01*
X0134041Y0311099D02*
X0134654Y0311713D01*
X0035630Y0320669D02*
X0035630Y0326539D01*
X0148139Y0311099D02*
X0148214Y0311099D01*
X0091521Y0311099D02*
X0092135Y0311713D01*
X0067611Y0311099D02*
X0067717Y0311205D01*
X0148032Y0311205D02*
X0148139Y0311099D01*
X0067899Y0311099D02*
X0068513Y0311713D01*
X0143308Y0311205D02*
X0143414Y0311099D01*
X0110343Y0311099D02*
X0110419Y0311099D01*
X0072623Y0311099D02*
X0073237Y0311713D01*
X0072441Y0311205D02*
X0072548Y0311099D01*
X0072623Y0311099D01*
X0152938Y0311099D02*
X0153552Y0311713D01*
X0072335Y0311099D02*
X0072441Y0311205D01*
X0162387Y0311099D02*
X0163001Y0311713D01*
X0077166Y0311205D02*
X0077272Y0311099D01*
X0114961Y0311205D02*
X0115068Y0311099D01*
X0124410Y0311205D02*
X0124517Y0311099D01*
X0081784Y0311099D02*
X0081890Y0311205D01*
X0081997Y0311099D02*
X0082072Y0311099D01*
X0105406Y0311099D02*
X0105512Y0311205D01*
X0096245Y0311099D02*
X0096859Y0311713D01*
X0081890Y0311205D02*
X0081997Y0311099D01*
X0082072Y0311099D02*
X0082686Y0311713D01*
X0086615Y0311205D02*
X0086721Y0311099D01*
X0086797Y0311099D02*
X0087410Y0311713D01*
X0086721Y0311099D02*
X0086797Y0311099D01*
X0138583Y0311205D02*
X0138690Y0311099D01*
X0086508Y0311099D02*
X0086615Y0311205D01*
X0124517Y0311099D02*
X0124592Y0311099D01*
X0091339Y0311205D02*
X0091446Y0311099D01*
X0095957Y0311099D02*
X0096064Y0311205D01*
X0105512Y0311205D02*
X0105619Y0311099D01*
X0096170Y0311099D02*
X0096245Y0311099D01*
X0124592Y0311099D02*
X0125206Y0311713D01*
X0100681Y0311099D02*
X0100788Y0311205D01*
X0096064Y0311205D02*
X0096170Y0311099D01*
X0119579Y0311099D02*
X0119686Y0311205D01*
X0100894Y0311099D02*
X0100970Y0311099D01*
X0101583Y0311713D01*
X0105619Y0311099D02*
X0105694Y0311099D01*
X0106308Y0311713D01*
X0110130Y0311099D02*
X0110237Y0311205D01*
X0115068Y0311099D02*
X0115143Y0311099D01*
X0119792Y0311099D02*
X0119867Y0311099D01*
X0129241Y0311099D02*
X0129316Y0311099D01*
X0119686Y0311205D02*
X0119792Y0311099D01*
X0124303Y0311099D02*
X0124410Y0311205D01*
X0129028Y0311099D02*
X0129134Y0311205D01*
X0138690Y0311099D02*
X0138765Y0311099D01*
X0139379Y0311713D01*
X0143414Y0311099D02*
X0143489Y0311099D01*
X0144103Y0311713D01*
X0162312Y0311099D02*
X0162387Y0311099D01*
X0143201Y0311099D02*
X0143308Y0311205D01*
X0152863Y0311099D02*
X0152938Y0311099D01*
X0152650Y0311099D02*
X0152756Y0311205D01*
X0157663Y0311099D02*
X0158276Y0311713D01*
X0162205Y0311205D02*
X0162312Y0311099D01*
X0047245Y0421654D02*
X0051871Y0417028D01*
X0042726Y0403339D02*
X0051871Y0412484D01*
X0051871Y0417028D01*
X0042726Y0374328D02*
X0042726Y0403339D01*
X0175550Y0429669D02*
X0181056Y0435175D01*
X0175550Y0421919D02*
X0175550Y0429669D01*
X0181130Y0416339D02*
X0186221Y0416339D01*
X0175550Y0421919D02*
X0181130Y0416339D01*
D12*
X0029922Y0335433D02*
D03*
D11*
X0029922Y0312402D02*
D03*
D14*
X0029922Y0359842D02*
D03*
D21*
X0195670Y0311811D02*
D03*
D16*
X0042520Y0465354D02*
D03*
D17*
X0075985Y0465354D02*
D03*
D18*
X0114764Y0465354D02*
D03*
D20*
X0195670Y0334055D02*
D03*
D19*
X0195670Y0459449D02*
D03*
D15*
X0037008Y0308268D02*
D03*
D13*
X0029922Y0445669D02*
D03*
D50*
X0054922Y0372417D02*
X0054922Y0375453D01*
X0056770Y0377301D01*
X0054922Y0372417D02*
X0055587Y0371751D01*
X0088483Y0404520D02*
X0088483Y0414184D01*
X0083770Y0418898D02*
X0088483Y0414184D01*
X0085089Y0401126D02*
X0088483Y0404520D01*
X0092360Y0410038D02*
X0094543Y0412220D01*
X0093345Y0399644D02*
X0094882Y0401181D01*
X0093345Y0385130D02*
X0093345Y0399644D01*
X0092360Y0384723D02*
X0094439Y0382644D01*
X0092360Y0384723D02*
X0092360Y0410038D01*
X0093345Y0385130D02*
X0095424Y0383051D01*
X0100000Y0436084D02*
X0100000Y0438522D01*
X0107233Y0427413D02*
X0107233Y0428852D01*
X0100000Y0436084D02*
X0107233Y0428852D01*
X0067077Y0407065D02*
X0067077Y0407852D01*
X0067077Y0407853D01*
X0066093Y0407473D02*
X0066093Y0408260D01*
X0065995Y0407374D02*
X0066093Y0407473D01*
X0067077Y0424443D02*
X0070186Y0427551D01*
X0065995Y0399065D02*
X0065995Y0407374D01*
X0066093Y0408260D02*
X0066093Y0408260D01*
X0066979Y0394537D02*
X0066979Y0406967D01*
X0067077Y0407065D01*
X0033908Y0329478D02*
X0034252Y0329823D01*
X0113874Y0318878D02*
X0119981Y0324984D01*
X0065483Y0327294D02*
X0074410Y0336220D01*
X0065483Y0325526D02*
X0065483Y0327294D01*
X0062054Y0322096D02*
X0065483Y0325526D01*
X0043504Y0328929D02*
X0049804Y0335229D01*
X0049804Y0341838D01*
X0044897Y0346745D02*
X0049804Y0341838D01*
X0050081Y0369037D02*
X0050081Y0376476D01*
X0050081Y0369037D02*
X0054463Y0369037D01*
X0055587Y0370161D01*
X0060969Y0369291D02*
X0061024Y0369291D01*
X0058809Y0371451D02*
X0060969Y0369291D01*
X0072638Y0353937D02*
X0072638Y0358240D01*
X0066557Y0364321D02*
X0072638Y0358240D01*
X0059892Y0376073D02*
X0062001Y0378181D01*
X0087229Y0376614D02*
X0087229Y0377120D01*
X0087796Y0377686D01*
X0092176Y0348967D02*
X0094292Y0346850D01*
X0092176Y0348967D02*
X0092176Y0361453D01*
X0094439Y0370592D02*
X0094439Y0382644D01*
X0093160Y0361045D02*
X0094538Y0362423D01*
X0094538Y0369299D01*
X0095424Y0370185D01*
X0095424Y0383051D01*
X0093715Y0343124D02*
X0096211Y0345620D01*
X0096211Y0353945D01*
X0094144Y0356012D02*
X0096211Y0353945D01*
X0094144Y0356012D02*
X0094144Y0360637D01*
X0104479Y0353297D02*
X0104489Y0353308D01*
X0097441Y0371714D02*
X0099393Y0369762D01*
X0104528Y0350423D02*
X0104558Y0350423D01*
X0106398Y0352264D01*
X0106398Y0364693D01*
X0118898Y0368110D02*
X0118898Y0368561D01*
X0117766Y0369693D02*
X0118898Y0368561D01*
X0117766Y0369693D02*
X0117766Y0377701D01*
X0118947Y0378882D01*
X0145424Y0369173D02*
X0150935Y0363661D01*
X0145325Y0372055D02*
X0148131Y0374860D01*
X0127953Y0355905D02*
X0128101Y0356053D01*
X0128101Y0366331D01*
X0130266Y0368496D01*
X0130266Y0384024D01*
X0129865Y0366703D02*
X0131251Y0368089D01*
X0142520Y0368898D02*
X0142520Y0369362D01*
X0144341Y0371183D01*
X0144341Y0372463D01*
X0147146Y0375268D01*
X0142520Y0368898D02*
X0149951Y0361467D01*
X0149951Y0355815D02*
X0149951Y0361467D01*
X0148229Y0354092D02*
X0149951Y0355815D01*
X0148229Y0343574D02*
X0148229Y0354092D01*
X0148229Y0343574D02*
X0150345Y0341458D01*
X0150345Y0329309D02*
X0150345Y0341458D01*
X0146900Y0325864D02*
X0150345Y0329309D01*
X0146900Y0323221D02*
X0146900Y0325864D01*
X0146900Y0323221D02*
X0148024Y0322096D01*
X0163083Y0322096D01*
X0169284Y0328297D01*
X0181406Y0328297D01*
X0183416Y0330307D01*
X0153937Y0368898D02*
X0156546Y0366289D01*
X0156546Y0350386D02*
X0156546Y0366289D01*
X0156546Y0350386D02*
X0162001Y0344931D01*
X0163591Y0344931D01*
X0164715Y0346055D01*
X0164715Y0353945D01*
X0162648Y0356012D02*
X0164715Y0353945D01*
X0162648Y0356012D02*
X0162648Y0360637D01*
X0163802Y0361791D01*
X0173939Y0361791D01*
X0175645Y0360085D01*
X0175645Y0355829D02*
X0175645Y0360085D01*
X0175050Y0355233D02*
X0175645Y0355829D01*
X0175050Y0350977D02*
X0175050Y0355233D01*
X0160384Y0349262D02*
X0162796Y0346850D01*
X0160384Y0349262D02*
X0160384Y0363787D01*
X0160176Y0363996D02*
X0160384Y0363787D01*
X0160176Y0363996D02*
X0160176Y0368515D01*
X0161073Y0369412D01*
X0161073Y0375388D01*
X0156841Y0379620D02*
X0161073Y0375388D01*
X0162796Y0353150D02*
X0162796Y0353600D01*
X0161664Y0354732D02*
X0162796Y0353600D01*
X0161664Y0354732D02*
X0161664Y0361045D01*
X0168652Y0367695D02*
X0168652Y0370100D01*
X0164195Y0374557D02*
X0168652Y0370100D01*
X0163296Y0374557D02*
X0164195Y0374557D01*
X0157825Y0380028D02*
X0163296Y0374557D01*
X0169197Y0376526D02*
X0172069Y0376526D01*
X0168213Y0375541D02*
X0169197Y0376526D01*
X0163704Y0375541D02*
X0168213Y0375541D01*
X0158809Y0380436D02*
X0163704Y0375541D01*
X0169892Y0382010D02*
X0170034Y0381867D01*
X0169892Y0382010D02*
X0169892Y0383455D01*
X0175917Y0381170D02*
X0175985Y0381102D01*
X0175917Y0381170D02*
X0175917Y0382875D01*
X0192668Y0352608D02*
X0194882Y0350394D01*
X0174853Y0366463D02*
X0181105Y0360211D01*
X0182645Y0375229D02*
X0194882Y0362992D01*
X0182645Y0375229D02*
X0182645Y0381487D01*
X0183630Y0377394D02*
X0194882Y0366142D01*
X0183630Y0377394D02*
X0183630Y0381932D01*
X0185707Y0369018D02*
X0194882Y0359842D01*
X0179908Y0369018D02*
X0185707Y0369018D01*
X0185615Y0365961D02*
X0194882Y0356693D01*
X0180103Y0365961D02*
X0185615Y0365961D01*
X0176772Y0369291D02*
X0180103Y0365961D01*
X0184384Y0364041D02*
X0194882Y0353543D01*
X0179989Y0364041D02*
X0184384Y0364041D01*
X0130849Y0359849D02*
X0130857Y0359842D01*
X0130849Y0359849D02*
X0130849Y0365495D01*
X0133859Y0368504D01*
X0142520Y0325591D02*
X0147441Y0330512D01*
X0147441Y0337008D01*
X0060237Y0328791D02*
X0063135Y0325892D01*
X0060237Y0328791D02*
X0060237Y0336713D01*
X0070867Y0336614D02*
X0070867Y0339215D01*
X0057481Y0324016D02*
X0057481Y0336671D01*
X0060237Y0339427D01*
X0060237Y0346850D01*
X0118898Y0359843D02*
X0121211Y0362156D01*
X0125992Y0362156D01*
X0127117Y0361031D01*
X0127117Y0357783D02*
X0127117Y0361031D01*
X0126034Y0356701D02*
X0127117Y0357783D01*
X0121900Y0324795D02*
X0123024Y0323671D01*
X0105167Y0325890D02*
X0105167Y0330785D01*
X0125050Y0350667D01*
X0125050Y0360089D01*
X0125197Y0360236D01*
X0117888Y0331522D02*
X0123819Y0325591D01*
X0117888Y0331522D02*
X0117888Y0336859D01*
X0112107Y0321949D02*
X0114174Y0324016D01*
X0102756Y0321949D02*
X0112107Y0321949D01*
X0116979Y0362648D02*
X0123623Y0369291D01*
X0116979Y0356012D02*
X0116979Y0362648D01*
X0116979Y0356012D02*
X0119046Y0353945D01*
X0119046Y0346055D02*
X0119046Y0353945D01*
X0102756Y0329766D02*
X0119046Y0346055D01*
X0102756Y0321949D02*
X0102756Y0329766D01*
X0139961Y0346850D02*
X0141880Y0348770D01*
X0135567Y0363799D02*
X0135567Y0367608D01*
X0135987Y0368029D01*
X0135987Y0370866D01*
X0117127Y0353150D02*
X0117127Y0353600D01*
X0115994Y0354732D02*
X0117127Y0353600D01*
X0115994Y0354732D02*
X0115994Y0378138D01*
X0116634Y0378777D01*
X0116634Y0379283D01*
X0067403Y0325892D02*
X0071464Y0321831D01*
X0086446Y0321831D01*
X0089567Y0324952D01*
X0089567Y0339262D01*
X0089245Y0339584D02*
X0089567Y0339262D01*
X0099804Y0357228D02*
X0102570Y0359995D01*
X0094746Y0342763D02*
X0097195Y0345212D01*
X0078937Y0353937D02*
X0083268Y0353937D01*
X0092520Y0363189D01*
X0092520Y0376772D01*
X0073229Y0324016D02*
X0075148Y0325935D01*
X0079136Y0325935D01*
X0081272Y0323799D01*
X0085630Y0323799D01*
X0087599Y0325768D01*
X0087599Y0336819D01*
X0076378Y0324016D02*
X0076691Y0324016D01*
X0077892Y0322815D01*
X0086038Y0322815D01*
X0088583Y0325360D01*
X0076034Y0351878D02*
X0076034Y0356897D01*
X0081985Y0362849D01*
X0078710Y0351450D02*
X0082968Y0351450D01*
X0077018Y0353142D02*
X0078710Y0351450D01*
X0077018Y0353142D02*
X0077018Y0354732D01*
X0078585Y0356299D01*
X0082415Y0356299D01*
X0077313Y0333410D02*
X0084920Y0325803D01*
X0077313Y0333410D02*
X0077313Y0343253D01*
X0075484Y0345083D02*
X0077313Y0343253D01*
X0075484Y0345083D02*
X0075484Y0345818D01*
X0066047Y0355255D02*
X0075484Y0345818D01*
X0066047Y0355255D02*
X0066047Y0355655D01*
X0082415Y0356299D02*
X0082415Y0356725D01*
X0084036Y0358346D01*
X0084036Y0363513D01*
X0082780Y0364768D02*
X0084036Y0363513D01*
X0073475Y0363378D02*
X0074599Y0362254D01*
X0073475Y0363378D02*
X0073475Y0364968D01*
X0049515Y0354188D02*
X0049515Y0362698D01*
X0056890Y0370072D01*
X0056890Y0374409D01*
X0048782Y0346468D02*
X0048782Y0349349D01*
X0052419Y0352986D01*
X0052419Y0354682D01*
X0054036Y0356299D01*
X0076329Y0331456D02*
X0082067Y0325718D01*
X0076329Y0331456D02*
X0076329Y0339181D01*
X0070579Y0344931D02*
X0076329Y0339181D01*
X0069421Y0344931D02*
X0070579Y0344931D01*
X0062730Y0351622D02*
X0069421Y0344931D01*
X0062730Y0351622D02*
X0062730Y0358793D01*
X0065355Y0361417D01*
X0070422Y0365285D02*
X0070422Y0367624D01*
X0038091Y0356299D02*
X0042121Y0352269D01*
X0050310Y0352269D01*
X0051435Y0353394D01*
X0051435Y0362217D01*
X0053241Y0364023D01*
X0066150Y0363337D02*
X0067274Y0362212D01*
X0067274Y0359596D02*
X0067274Y0362212D01*
X0063714Y0356037D02*
X0067274Y0359596D01*
X0063714Y0352030D02*
X0063714Y0356037D01*
X0063714Y0352030D02*
X0068894Y0346850D01*
X0070867Y0346850D01*
X0151969Y0324016D02*
X0152313Y0323671D01*
X0162213Y0323671D01*
X0170867Y0332325D01*
X0170867Y0359843D01*
X0158268Y0325591D02*
X0158268Y0330307D01*
X0165699Y0337738D01*
X0165699Y0358260D01*
X0164567Y0359392D02*
X0165699Y0358260D01*
X0164567Y0359392D02*
X0164567Y0359843D01*
X0150197Y0350394D02*
X0152067Y0352264D01*
X0152067Y0363921D01*
X0150394Y0365594D02*
X0152067Y0363921D01*
X0150394Y0365594D02*
X0150394Y0370473D01*
X0133071Y0324016D02*
X0133416Y0323671D01*
X0143315Y0323671D01*
X0149361Y0329717D01*
X0149361Y0341050D01*
X0147245Y0343166D02*
X0149361Y0341050D01*
X0139371Y0325591D02*
X0144292Y0330512D01*
X0144292Y0357283D01*
X0141733Y0359843D02*
X0144292Y0357283D01*
X0177983Y0343337D02*
X0179740Y0341581D01*
X0179740Y0332859D02*
X0179740Y0341581D01*
X0179740Y0332859D02*
X0181497Y0331102D01*
X0036172Y0366641D02*
X0037591Y0368061D01*
X0113071Y0319862D02*
X0116499Y0323290D01*
X0042520Y0337170D02*
X0042759Y0337409D01*
X0127953Y0352756D02*
X0129865Y0354668D01*
X0040552Y0323004D02*
X0040552Y0335127D01*
X0093504Y0369657D02*
X0094439Y0370592D01*
X0139330Y0356495D02*
X0139330Y0364969D01*
X0063273Y0378181D02*
X0068113Y0383022D01*
X0031989Y0362018D02*
X0031989Y0362503D01*
X0040612Y0337677D02*
X0040612Y0337976D01*
X0041184Y0364764D02*
X0045457Y0369037D01*
X0039371Y0341932D02*
X0039371Y0345866D01*
X0076034Y0351878D02*
X0087326Y0340586D01*
X0059892Y0373966D02*
X0062943Y0370915D01*
X0083046Y0339437D02*
X0084980Y0339437D01*
X0056497Y0353585D02*
X0056497Y0359643D01*
X0032727Y0348676D02*
X0032727Y0361279D01*
X0036172Y0355504D02*
X0036172Y0366641D01*
X0068113Y0383022D02*
X0072926Y0383022D01*
X0116499Y0323290D02*
X0116499Y0324217D01*
X0045457Y0369037D02*
X0050081Y0369037D01*
X0056497Y0353585D02*
X0070867Y0339215D01*
X0093160Y0354324D02*
X0094281Y0353204D01*
X0033908Y0317670D02*
X0036617Y0314961D01*
X0129873Y0355110D02*
X0129873Y0358884D01*
X0093160Y0354324D02*
X0093160Y0361045D01*
X0041536Y0323411D02*
X0041536Y0336753D01*
X0096408Y0371355D02*
X0098408Y0369355D01*
X0148032Y0355287D02*
X0148032Y0359843D01*
X0130849Y0354695D02*
X0130857Y0354703D01*
X0033908Y0317670D02*
X0033908Y0329478D01*
X0032727Y0348676D02*
X0034991Y0346412D01*
X0123024Y0323671D02*
X0126625Y0323671D01*
X0042759Y0337409D02*
X0042759Y0338544D01*
X0084980Y0339437D02*
X0087599Y0336819D01*
X0044677Y0318878D02*
X0113874Y0318878D01*
X0043504Y0324254D02*
X0045662Y0322096D01*
X0092176Y0361453D02*
X0093504Y0362782D01*
X0141880Y0348770D02*
X0141880Y0353945D01*
X0065260Y0364321D02*
X0066557Y0364321D01*
X0040552Y0323004D02*
X0044677Y0318878D01*
X0127756Y0324803D02*
X0127756Y0347484D01*
X0055587Y0370161D02*
X0055587Y0371751D01*
X0042520Y0323819D02*
X0042520Y0337170D01*
X0087326Y0338484D02*
X0087326Y0340586D01*
X0062943Y0366637D02*
X0062943Y0370915D01*
X0080427Y0342056D02*
X0080427Y0342854D01*
X0054036Y0362103D02*
X0056497Y0359643D01*
X0034991Y0340688D02*
X0040552Y0335127D01*
X0045662Y0322096D02*
X0062054Y0322096D01*
X0135567Y0363799D02*
X0138346Y0361019D01*
X0062943Y0366637D02*
X0065260Y0364321D01*
X0094281Y0353161D02*
X0094281Y0353204D01*
X0074599Y0362254D02*
X0077433Y0362254D01*
X0121900Y0324795D02*
X0121900Y0325967D01*
X0039371Y0341932D02*
X0041407Y0339895D01*
X0040612Y0337677D02*
X0041536Y0336753D01*
X0041407Y0339895D02*
X0041407Y0339895D01*
X0129865Y0354668D02*
X0129865Y0355103D01*
X0036172Y0355504D02*
X0044897Y0346779D01*
X0093504Y0362782D02*
X0093504Y0369657D01*
X0137486Y0366813D02*
X0139330Y0364969D01*
X0059892Y0373966D02*
X0059892Y0376073D01*
X0045085Y0319862D02*
X0113071Y0319862D01*
X0041407Y0339895D02*
X0042759Y0338544D01*
X0139330Y0356495D02*
X0141880Y0353945D01*
X0043504Y0324254D02*
X0043504Y0328929D01*
X0116499Y0324217D02*
X0119280Y0326997D01*
X0091752Y0320846D02*
X0093715Y0322809D01*
X0100886Y0321949D02*
X0102756Y0321949D01*
X0042077Y0368061D02*
X0044448Y0370432D01*
X0041536Y0323411D02*
X0045085Y0319862D01*
X0045493Y0320846D02*
X0091752Y0320846D01*
X0073475Y0364968D02*
X0080554Y0372047D01*
X0096665Y0326170D02*
X0096665Y0337181D01*
X0044897Y0346745D02*
X0044897Y0346779D01*
X0138346Y0354765D02*
X0139961Y0353150D01*
X0062001Y0378181D02*
X0063273Y0378181D01*
X0041142Y0364764D02*
X0041184Y0364764D01*
X0119280Y0326997D02*
X0120870Y0326997D01*
X0098408Y0364902D02*
X0098408Y0369355D01*
X0138346Y0354765D02*
X0138346Y0361019D01*
X0129865Y0358891D02*
X0129873Y0358884D01*
X0099393Y0367716D02*
X0104489Y0362620D01*
X0104489Y0353308D02*
X0104489Y0362620D01*
X0094746Y0325052D02*
X0094746Y0342763D01*
X0153937Y0368898D02*
X0153937Y0371612D01*
X0099393Y0367716D02*
X0099393Y0369762D01*
X0089370Y0370079D02*
X0089370Y0370219D01*
X0103101Y0369567D02*
X0103101Y0372291D01*
X0082306Y0375443D02*
X0085751Y0371998D01*
X0103231Y0367860D02*
X0103231Y0369437D01*
X0087591Y0371998D02*
X0089370Y0370219D01*
X0103231Y0367860D02*
X0106398Y0364693D01*
X0068610Y0369210D02*
X0074843Y0375443D01*
X0114912Y0349065D02*
X0117127Y0346850D01*
X0114486Y0371235D02*
X0114912Y0370809D01*
X0114912Y0367171D02*
X0114912Y0370809D01*
X0073221Y0370423D02*
X0075582Y0370423D01*
X0076973Y0365753D02*
X0087960Y0365753D01*
X0175050Y0350977D02*
X0182932Y0343094D01*
X0150935Y0354591D02*
X0150935Y0363661D01*
X0070422Y0367624D02*
X0073221Y0370423D01*
X0075394Y0364173D02*
X0076973Y0365753D01*
X0182932Y0343094D02*
X0187981Y0343094D01*
X0145325Y0370367D02*
X0145424Y0370269D01*
X0075582Y0370423D02*
X0078485Y0373327D01*
X0088468Y0366261D02*
X0088974Y0366261D01*
X0153937Y0371612D02*
X0155857Y0373531D01*
X0150148Y0353297D02*
X0150148Y0353803D01*
X0087960Y0365753D02*
X0088468Y0366261D01*
X0194882Y0347244D02*
X0194882Y0347679D01*
X0145424Y0369173D02*
X0145424Y0370269D01*
X0172069Y0376526D02*
X0173770Y0374825D01*
X0145325Y0370367D02*
X0145325Y0372055D01*
X0179674Y0358858D02*
X0186376Y0358858D01*
X0150148Y0353803D02*
X0150935Y0354591D01*
X0173770Y0364762D02*
X0179674Y0358858D01*
X0082968Y0351450D02*
X0089026Y0345392D01*
X0096665Y0326170D02*
X0100886Y0321949D01*
X0092127Y0324120D02*
X0092127Y0339417D01*
X0097195Y0345212D02*
X0097195Y0354352D01*
X0182382Y0340165D02*
X0182382Y0340354D01*
X0095634Y0323789D02*
X0095634Y0324163D01*
X0182382Y0340165D02*
X0183416Y0339131D01*
X0096063Y0355484D02*
X0096063Y0359842D01*
X0183416Y0330307D02*
X0183416Y0339131D01*
X0094746Y0325052D02*
X0095634Y0324163D01*
X0187981Y0343094D02*
X0191214Y0339860D01*
X0096063Y0355484D02*
X0097195Y0354352D01*
X0164989Y0364370D02*
X0165327Y0364370D01*
X0168652Y0367695D01*
X0077674Y0345607D02*
X0080427Y0342854D01*
X0161664Y0361045D02*
X0164989Y0364370D01*
X0191683Y0350878D02*
X0194882Y0347679D01*
X0186376Y0358858D02*
X0191683Y0353551D01*
X0191683Y0350878D02*
X0191683Y0353551D01*
X0059352Y0364023D02*
X0060038Y0363337D01*
X0174853Y0376034D02*
X0177904Y0379085D01*
X0167323Y0331496D02*
X0167323Y0336614D01*
X0174853Y0366463D02*
X0174853Y0376034D01*
X0161418Y0325591D02*
X0167323Y0331496D01*
X0177904Y0379085D02*
X0177904Y0383514D01*
X0186415Y0360211D02*
X0192668Y0353959D01*
X0192668Y0352608D02*
X0192668Y0353959D01*
X0181105Y0360211D02*
X0186415Y0360211D01*
X0147245Y0343166D02*
X0147245Y0354500D01*
X0128052Y0349903D02*
X0130849Y0352701D01*
X0126625Y0323671D02*
X0127756Y0324803D01*
X0126034Y0349207D02*
X0126034Y0356701D01*
X0079947Y0364768D02*
X0082780Y0364768D01*
X0100746Y0326059D02*
X0100746Y0326565D01*
X0089026Y0342517D02*
X0092127Y0339417D01*
X0099804Y0327507D02*
X0099804Y0357228D01*
X0080554Y0372047D02*
X0082284Y0372047D01*
X0099804Y0327507D02*
X0100746Y0326565D01*
X0080427Y0342056D02*
X0083046Y0339437D01*
X0088583Y0325360D02*
X0088583Y0337226D01*
X0087326Y0338484D02*
X0088583Y0337226D01*
X0089026Y0342517D02*
X0089026Y0345392D01*
X0091796Y0323789D02*
X0092127Y0324120D01*
X0077433Y0362254D02*
X0079947Y0364768D01*
X0085751Y0371998D02*
X0087591Y0371998D01*
X0074843Y0375443D02*
X0082306Y0375443D01*
X0060038Y0363337D02*
X0066150Y0363337D01*
X0053241Y0364023D02*
X0059352Y0364023D01*
X0147245Y0354500D02*
X0148032Y0355287D01*
X0177983Y0343337D02*
X0177983Y0343337D01*
X0034991Y0340688D02*
X0034991Y0346412D01*
X0031989Y0362018D02*
X0032727Y0361279D01*
X0115010Y0361667D02*
X0115010Y0367073D01*
X0114912Y0367171D02*
X0115010Y0367073D01*
X0037591Y0368061D02*
X0042077Y0368061D01*
X0103101Y0369567D02*
X0103231Y0369437D01*
X0130849Y0352701D02*
X0130849Y0354695D01*
X0065966Y0369131D02*
X0066045Y0369210D01*
X0042520Y0323819D02*
X0045493Y0320846D01*
X0093715Y0322809D02*
X0093715Y0343124D01*
X0066045Y0369210D02*
X0068610Y0369210D01*
X0094144Y0360637D02*
X0098408Y0364902D01*
X0114912Y0361569D02*
X0115010Y0361667D01*
X0173770Y0364762D02*
X0173770Y0374825D01*
X0114912Y0349065D02*
X0114912Y0361569D01*
X0126034Y0349207D02*
X0127756Y0347484D01*
X0100867Y0374524D02*
X0103101Y0372291D01*
X0120870Y0326997D02*
X0121900Y0325967D01*
X0129865Y0358891D02*
X0129865Y0366703D01*
X0129865Y0355103D02*
X0129873Y0355110D01*
X0130857Y0354703D02*
X0130857Y0359842D01*
X0058809Y0371451D02*
X0058809Y0385400D01*
X0042225Y0435422D02*
X0053593Y0424054D01*
X0053593Y0411771D02*
X0053593Y0424054D01*
X0044448Y0402626D02*
X0053593Y0411771D01*
X0118947Y0378882D02*
X0118947Y0387753D01*
X0044448Y0370432D02*
X0044448Y0402626D01*
X0057825Y0386384D02*
X0057825Y0423967D01*
X0062993Y0429134D01*
X0058809Y0386792D02*
X0058809Y0422894D01*
X0054282Y0442190D02*
X0064912Y0431560D01*
X0055266Y0442598D02*
X0065896Y0431968D01*
X0059794Y0422487D02*
X0061963Y0424655D01*
X0062620Y0424655D01*
X0064912Y0428339D02*
X0064912Y0431560D01*
X0065896Y0427931D02*
X0065896Y0431968D01*
X0055266Y0442598D02*
X0055266Y0445677D01*
X0066093Y0424850D02*
X0068160Y0426917D01*
X0054282Y0442190D02*
X0054282Y0446085D01*
X0056770Y0431323D02*
X0058957Y0433510D01*
X0056770Y0377301D02*
X0056770Y0431323D01*
X0062213Y0425640D02*
X0064912Y0428339D01*
X0062856Y0438654D02*
X0062856Y0450197D01*
X0062620Y0424655D02*
X0065896Y0427931D01*
X0068160Y0426917D02*
X0068160Y0433350D01*
X0072294Y0428676D02*
X0072294Y0430608D01*
X0059794Y0390108D02*
X0059794Y0422487D01*
X0062856Y0438654D02*
X0068160Y0433350D01*
X0058809Y0422894D02*
X0061555Y0425640D01*
X0067077Y0422652D02*
X0067077Y0424443D01*
X0066782Y0448400D02*
X0068511Y0450129D01*
X0074262Y0427860D02*
X0074262Y0431423D01*
X0067766Y0446670D02*
X0069177Y0448081D01*
X0073278Y0428268D02*
X0073278Y0431016D01*
X0070186Y0427551D02*
X0071170Y0427551D01*
X0068849Y0436837D02*
X0068849Y0440606D01*
X0066093Y0408260D02*
X0066093Y0424850D01*
X0071170Y0427551D02*
X0072294Y0428676D01*
X0068061Y0421630D02*
X0068061Y0424035D01*
X0070593Y0426567D01*
X0071577Y0426567D01*
X0073278Y0428268D01*
X0069046Y0423627D02*
X0071001Y0425583D01*
X0071985Y0425583D01*
X0074262Y0427860D01*
X0075483Y0427350D02*
X0087598Y0427350D01*
X0070965Y0422832D02*
X0075483Y0427350D01*
X0068061Y0419198D02*
X0068061Y0421630D01*
X0069046Y0418790D02*
X0069046Y0422037D01*
X0069046Y0422037D02*
X0069046Y0423627D01*
X0068061Y0421630D02*
X0068061Y0421630D01*
X0069046Y0422037D02*
X0069046Y0422037D01*
X0067077Y0422652D02*
X0067077Y0422651D01*
X0067077Y0407853D02*
X0067077Y0422651D01*
X0068061Y0401306D02*
X0068061Y0408142D01*
X0069144Y0402937D02*
X0077395Y0394687D01*
X0069046Y0408549D02*
X0069144Y0408451D01*
X0069144Y0402937D02*
X0069144Y0408451D01*
X0068061Y0401306D02*
X0070745Y0398622D01*
X0068849Y0436837D02*
X0074262Y0431423D01*
X0067766Y0436528D02*
X0067766Y0446670D01*
X0068849Y0440606D02*
X0072177Y0443934D01*
X0066782Y0436120D02*
X0072294Y0430608D01*
X0066782Y0436120D02*
X0066782Y0448400D01*
X0062599Y0390158D02*
X0066979Y0394537D01*
X0062599Y0395669D02*
X0065995Y0399065D01*
X0067766Y0436528D02*
X0073278Y0431016D01*
X0068061Y0408142D02*
X0068061Y0408142D01*
X0061555Y0425640D02*
X0062213Y0425640D01*
X0069046Y0418790D02*
X0069046Y0418790D01*
X0069046Y0415743D02*
X0069046Y0418790D01*
X0069046Y0415743D02*
X0069046Y0415743D01*
X0069046Y0408549D02*
X0069046Y0410244D01*
X0069046Y0410244D01*
X0069046Y0415743D01*
X0070965Y0409449D02*
X0070965Y0412894D01*
X0077264Y0419193D02*
X0077264Y0420549D01*
X0070965Y0412894D02*
X0077264Y0419193D01*
X0077264Y0420549D02*
X0081863Y0425148D01*
X0080560Y0426132D02*
X0087424Y0426132D01*
X0070965Y0416537D02*
X0080560Y0426132D01*
X0087910Y0428430D02*
X0096900Y0419439D01*
X0081546Y0428430D02*
X0087910Y0428430D01*
X0079411Y0430564D02*
X0081546Y0428430D01*
X0087598Y0427350D02*
X0096493Y0418455D01*
X0081863Y0425148D02*
X0087016Y0425148D01*
X0081251Y0418898D02*
X0083770Y0418898D01*
X0084103Y0415655D02*
X0084103Y0415850D01*
X0085089Y0394045D02*
X0087796Y0391339D01*
X0087796Y0377686D02*
X0087796Y0391339D01*
X0095375Y0385735D02*
X0096408Y0384702D01*
X0096408Y0371355D02*
X0096408Y0384702D01*
X0095375Y0385735D02*
X0095375Y0385925D01*
X0085089Y0394045D02*
X0085089Y0401126D01*
X0097441Y0371714D02*
X0097441Y0386853D01*
X0099164Y0388575D01*
X0118964Y0388619D02*
X0119321Y0388976D01*
X0118964Y0387769D02*
X0118964Y0388619D01*
X0057825Y0386384D02*
X0058809Y0385400D01*
X0058809Y0386792D02*
X0062137Y0383465D01*
X0059794Y0390108D02*
X0062599Y0387303D01*
X0072177Y0443934D02*
X0072177Y0448210D01*
X0059754Y0446860D02*
X0060937Y0448042D01*
X0060937Y0450992D01*
X0054282Y0446085D02*
X0056991Y0448794D01*
X0058974Y0448794D01*
X0055266Y0445677D02*
X0056449Y0446860D01*
X0060937Y0450992D02*
X0062096Y0452150D01*
X0070376Y0453268D02*
X0081035Y0463927D01*
X0068511Y0450129D02*
X0074776Y0450129D01*
X0075077Y0449828D01*
X0071171Y0451348D02*
X0075171Y0455349D01*
X0069581Y0451348D02*
X0071171Y0451348D01*
X0068061Y0410652D02*
X0068061Y0410652D01*
X0068061Y0408142D02*
X0068061Y0410652D01*
X0068061Y0410652D02*
X0068061Y0415335D01*
X0068061Y0415335D02*
X0068061Y0415335D01*
X0068061Y0419198D02*
X0068061Y0419198D01*
X0068061Y0415335D02*
X0068061Y0419198D01*
X0087016Y0425148D02*
X0095677Y0416486D01*
X0087424Y0426132D02*
X0096085Y0417471D01*
X0115010Y0425103D02*
X0115010Y0427650D01*
X0135947Y0403341D02*
X0142566Y0403341D01*
X0144439Y0405215D02*
X0144439Y0409710D01*
X0136743Y0417406D02*
X0144439Y0409710D01*
X0112213Y0416486D02*
X0116925Y0411774D01*
X0113028Y0418455D02*
X0117741Y0413742D01*
X0134491Y0413742D01*
X0112620Y0417471D02*
X0117333Y0412758D01*
X0113436Y0419439D02*
X0118148Y0414726D01*
X0117333Y0412758D02*
X0133768Y0412758D01*
X0137254Y0409272D01*
X0136221Y0414726D02*
X0141381Y0409567D01*
X0122707Y0417406D02*
X0136743Y0417406D01*
X0115010Y0425103D02*
X0122707Y0417406D01*
X0141381Y0406680D02*
X0141381Y0409567D01*
X0142566Y0403341D02*
X0144439Y0405215D01*
X0131841Y0407447D02*
X0135947Y0403341D01*
X0129127Y0409510D02*
X0130717Y0409510D01*
X0131251Y0368089D02*
X0131251Y0406205D01*
X0129922Y0407534D02*
X0131251Y0406205D01*
X0130717Y0409510D02*
X0131841Y0408386D01*
X0110403Y0390786D02*
X0129127Y0409510D01*
X0129922Y0407534D02*
X0129922Y0407591D01*
X0131841Y0407447D02*
X0131841Y0408386D01*
X0116925Y0411774D02*
X0132038Y0411774D01*
X0110403Y0385403D02*
X0110403Y0390786D01*
X0100867Y0385710D02*
X0102215Y0387057D01*
X0102215Y0400246D01*
X0106867Y0381867D02*
X0110403Y0385403D01*
X0106867Y0381735D02*
X0106867Y0381867D01*
X0102215Y0400246D02*
X0105476Y0403507D01*
X0100867Y0374524D02*
X0100867Y0385710D01*
X0169983Y0390122D02*
X0170854Y0390122D01*
X0169667Y0390439D02*
X0169983Y0390122D01*
X0162606Y0390741D02*
X0162606Y0393101D01*
X0162606Y0390741D02*
X0169892Y0383455D01*
X0163780Y0391339D02*
X0168196Y0386923D01*
X0163780Y0391339D02*
X0163780Y0392703D01*
X0169147Y0386923D02*
X0169504Y0386565D01*
X0168196Y0386923D02*
X0169147Y0386923D01*
X0167953Y0398448D02*
X0183620Y0398448D01*
X0162606Y0393101D02*
X0167953Y0398448D01*
X0164813Y0391725D02*
X0164813Y0392344D01*
X0163780Y0392703D02*
X0168485Y0397407D01*
X0164813Y0392344D02*
X0168892Y0396423D01*
X0168485Y0397407D02*
X0172261Y0397407D01*
X0168892Y0396423D02*
X0171853Y0396423D01*
X0167218Y0392034D02*
X0167724Y0392034D01*
X0168274Y0392584D01*
X0170263Y0392584D01*
X0168019Y0388519D02*
X0170273Y0388519D01*
X0164813Y0391725D02*
X0168019Y0388519D01*
X0170273Y0388519D02*
X0175917Y0382875D01*
X0170854Y0390122D02*
X0170906Y0390070D01*
X0171348Y0390070D01*
X0177904Y0383514D01*
X0171563Y0392569D02*
X0182645Y0381487D01*
X0171073Y0394488D02*
X0183630Y0381932D01*
X0173738Y0394537D02*
X0189983Y0394537D01*
X0171853Y0396423D02*
X0173738Y0394537D01*
X0172261Y0397407D02*
X0174146Y0395522D01*
X0189575Y0395522D01*
X0170278Y0392569D02*
X0171563Y0392569D01*
X0170263Y0392584D02*
X0170278Y0392569D01*
X0188780Y0398130D02*
X0189286Y0398130D01*
X0189745Y0398589D01*
X0189928Y0398589D01*
X0190995Y0399656D01*
X0190010Y0401952D02*
X0190010Y0420011D01*
X0188107Y0400049D02*
X0190010Y0401952D01*
X0183620Y0398448D02*
X0183908Y0398736D01*
X0185032Y0400049D02*
X0188107Y0400049D01*
X0183908Y0398925D02*
X0185032Y0400049D01*
X0183908Y0398736D02*
X0183908Y0398925D01*
X0118947Y0387753D02*
X0118964Y0387769D01*
X0148032Y0392970D02*
X0148032Y0393307D01*
X0147146Y0392084D02*
X0148032Y0392970D01*
X0147146Y0375268D02*
X0147146Y0392084D01*
X0116733Y0391718D02*
X0117126Y0392112D01*
X0116733Y0382136D02*
X0116733Y0391718D01*
X0117126Y0392112D02*
X0117126Y0392618D01*
X0114486Y0371235D02*
X0114486Y0389017D01*
X0116733Y0382136D02*
X0116733Y0382136D01*
X0171820Y0445704D02*
X0171820Y0455460D01*
X0171670Y0455610D02*
X0171820Y0455460D01*
X0168554Y0442437D02*
X0171820Y0445704D01*
X0169048Y0460017D02*
X0170498Y0461467D01*
X0176680Y0461467D01*
X0170019Y0459596D02*
X0175837Y0459596D01*
X0176680Y0461467D02*
X0177451Y0460696D01*
X0178905Y0460696D01*
X0179043Y0460558D01*
X0168554Y0439222D02*
X0168554Y0442437D01*
X0169456Y0459033D02*
X0170019Y0459596D01*
X0144099Y0459033D02*
X0169456Y0459033D01*
X0143968Y0460017D02*
X0169048Y0460017D01*
X0162318Y0433071D02*
X0162887Y0433641D01*
X0162972Y0433641D02*
X0168554Y0439222D01*
X0161811Y0433071D02*
X0162318Y0433071D01*
X0162887Y0433641D02*
X0162972Y0433641D01*
X0187630Y0430448D02*
X0187630Y0447078D01*
X0187630Y0430448D02*
X0188243Y0429835D01*
X0188614Y0430856D02*
X0189227Y0430243D01*
X0188614Y0430856D02*
X0188614Y0446609D01*
X0182284Y0452750D02*
X0185661Y0449372D01*
X0190583Y0431671D02*
X0190583Y0440582D01*
X0191196Y0425818D02*
X0191196Y0431058D01*
X0190211Y0426225D02*
X0190211Y0430651D01*
X0189598Y0446201D02*
X0191349Y0447952D01*
X0189598Y0431264D02*
X0189598Y0446201D01*
X0191349Y0447952D02*
X0194803Y0447952D01*
X0190583Y0425204D02*
X0191196Y0425818D01*
X0188614Y0446609D02*
X0193186Y0451181D01*
X0190583Y0440582D02*
X0194882Y0444882D01*
X0184404Y0429768D02*
X0185661Y0431025D01*
X0190583Y0423614D02*
X0192963Y0421234D01*
X0190583Y0431671D02*
X0191196Y0431058D01*
X0185661Y0431025D02*
X0185661Y0449372D01*
X0189598Y0423207D02*
X0191979Y0420826D01*
X0189598Y0431264D02*
X0190211Y0430651D01*
X0182284Y0452750D02*
X0182284Y0464567D01*
X0181103Y0452538D02*
X0184677Y0448965D01*
X0184677Y0438910D02*
X0184677Y0448965D01*
X0181103Y0452538D02*
X0181103Y0461871D01*
X0182861Y0437094D02*
X0184677Y0438910D01*
X0180497Y0462477D02*
X0181103Y0461871D01*
X0180261Y0437094D02*
X0182861Y0437094D01*
X0171775Y0462477D02*
X0180497Y0462477D01*
X0169685Y0464567D02*
X0171775Y0462477D01*
X0193186Y0451181D02*
X0194882Y0451181D01*
X0187630Y0447078D02*
X0194882Y0454331D01*
X0194803Y0447952D02*
X0194882Y0448031D01*
X0184404Y0427041D02*
X0184404Y0429768D01*
X0173827Y0430661D02*
X0180261Y0437094D01*
X0173827Y0421200D02*
X0173827Y0430661D01*
X0173827Y0421200D02*
X0186346Y0408682D01*
X0186594Y0408682D01*
X0188243Y0427041D02*
X0188243Y0429835D01*
X0189227Y0426633D02*
X0189227Y0430243D01*
X0186645Y0421984D02*
X0188337Y0420292D01*
X0188091Y0418495D02*
X0188337Y0418741D01*
X0188337Y0420292D01*
X0187630Y0426427D02*
X0188243Y0427041D01*
X0189598Y0425612D02*
X0190211Y0426225D01*
X0186645Y0421984D02*
X0186645Y0424799D01*
X0190583Y0423614D02*
X0190583Y0425204D01*
X0184404Y0427041D02*
X0186645Y0424799D01*
X0189598Y0423207D02*
X0189598Y0425612D01*
X0188614Y0422799D02*
X0188614Y0426020D01*
X0187630Y0422391D02*
X0187630Y0426427D01*
X0188614Y0426020D02*
X0189227Y0426633D01*
X0187630Y0422391D02*
X0190010Y0420011D01*
X0188614Y0422799D02*
X0190995Y0420419D01*
X0099164Y0403199D02*
X0100788Y0404823D01*
X0099164Y0388575D02*
X0099164Y0403199D01*
X0131628Y0446561D02*
X0144099Y0459033D01*
X0132035Y0445577D02*
X0139362Y0452904D01*
X0116342Y0446561D02*
X0131628Y0446561D01*
X0115526Y0444593D02*
X0132443Y0444593D01*
X0139770Y0451919D01*
X0131220Y0447546D02*
X0141976Y0458302D01*
X0116749Y0447546D02*
X0131220Y0447546D01*
X0115934Y0445577D02*
X0132035Y0445577D01*
X0141976Y0458302D02*
X0143830Y0460155D01*
X0141976Y0458302D02*
X0141976Y0458302D01*
X0141472Y0462512D02*
X0143968Y0460017D01*
X0120819Y0462512D02*
X0141472Y0462512D01*
X0148131Y0384687D02*
X0150001Y0386557D01*
X0148131Y0374860D02*
X0148131Y0384687D01*
X0107233Y0427413D02*
X0111418Y0423228D01*
X0105906Y0441732D02*
X0107833Y0441732D01*
X0117668Y0431897D01*
X0117668Y0430307D02*
X0117668Y0431897D01*
X0115010Y0427650D02*
X0117668Y0430307D01*
X0095494Y0443029D02*
X0100000Y0438522D01*
X0075171Y0456232D02*
X0081883Y0462943D01*
X0060630Y0461963D02*
X0064225Y0458369D01*
X0060630Y0461963D02*
X0060630Y0464567D01*
X0189983Y0394537D02*
X0192963Y0397518D01*
X0189575Y0395522D02*
X0191979Y0397925D01*
X0191979Y0420826D01*
X0192963Y0397518D02*
X0192963Y0421234D01*
X0190995Y0399656D02*
X0190995Y0420419D01*
X0043615Y0447551D02*
X0060630Y0464567D01*
X0043615Y0444853D02*
X0043615Y0447551D01*
X0064225Y0458369D02*
X0065220Y0458369D01*
X0103791Y0448970D02*
X0113933Y0448970D01*
X0081883Y0462943D02*
X0084646Y0462943D01*
X0085053Y0463927D02*
X0087475Y0461506D01*
X0081035Y0463927D02*
X0085053Y0463927D01*
X0084646Y0462943D02*
X0087067Y0460522D01*
X0094676Y0460522D01*
X0087475Y0461506D02*
X0095084Y0461506D01*
X0075171Y0455349D02*
X0075171Y0456232D01*
X0079645Y0439384D02*
X0082064Y0441803D01*
X0086293Y0445079D02*
X0088456Y0447242D01*
X0084165Y0445079D02*
X0086293Y0445079D01*
X0089441Y0446834D02*
X0089441Y0457253D01*
X0088456Y0447242D02*
X0088456Y0457661D01*
X0094268Y0459537D02*
X0095810Y0457995D01*
X0090741Y0458553D02*
X0093861Y0458553D01*
X0090333Y0459537D02*
X0094268Y0459537D01*
X0095084Y0461506D02*
X0097779Y0458811D01*
X0094676Y0460522D02*
X0096794Y0458403D01*
X0093861Y0458553D02*
X0094826Y0457588D01*
X0089441Y0457253D02*
X0090741Y0458553D01*
X0088456Y0457661D02*
X0090333Y0459537D01*
X0094826Y0455151D02*
X0102975Y0447002D01*
X0096794Y0455966D02*
X0103791Y0448970D01*
X0097779Y0456374D02*
X0097779Y0458811D01*
X0097779Y0456374D02*
X0104198Y0449955D01*
X0095810Y0455559D02*
X0103383Y0447986D01*
X0065220Y0458369D02*
X0068456Y0455132D01*
X0094826Y0455151D02*
X0094826Y0457588D01*
X0104198Y0449955D02*
X0114341Y0449955D01*
X0103383Y0447986D02*
X0113525Y0447986D01*
X0096794Y0455966D02*
X0096794Y0458403D01*
X0102975Y0447002D02*
X0113118Y0447002D01*
X0095810Y0455559D02*
X0095810Y0457995D01*
X0062096Y0456454D02*
X0062423Y0456780D01*
X0056449Y0446860D02*
X0059754Y0446860D01*
X0113525Y0447986D02*
X0115934Y0445577D01*
X0114341Y0449955D02*
X0116749Y0447546D01*
X0113118Y0447002D02*
X0115526Y0444593D01*
X0113933Y0448970D02*
X0116342Y0446561D01*
X0068456Y0452473D02*
X0068456Y0455132D01*
X0068456Y0452473D02*
X0069581Y0451348D01*
X0062096Y0452150D02*
X0062096Y0456454D01*
X0139770Y0451919D02*
X0158359Y0451919D01*
X0139362Y0452904D02*
X0158304Y0452904D01*
X0120139Y0463192D02*
X0120819Y0462512D01*
X0077395Y0390206D02*
X0077395Y0394687D01*
X0083367Y0414918D02*
X0084103Y0415655D01*
X0083367Y0394151D02*
X0083367Y0414918D01*
X0105476Y0403507D02*
X0105476Y0409199D01*
X0094543Y0412220D02*
X0094758Y0412220D01*
X0153118Y0388827D02*
X0153118Y0392149D01*
X0156090Y0390031D02*
X0156090Y0396738D01*
X0155105Y0389623D02*
X0157825Y0386903D01*
X0155105Y0389623D02*
X0155105Y0394917D01*
X0154102Y0389234D02*
X0154102Y0394528D01*
X0154102Y0389234D02*
X0156841Y0386495D01*
X0153118Y0388827D02*
X0155857Y0386088D01*
X0156090Y0390031D02*
X0158809Y0387311D01*
X0150001Y0386557D02*
X0150001Y0387008D01*
X0151969Y0393298D02*
X0151969Y0393307D01*
X0151969Y0393298D02*
X0153118Y0392149D01*
X0141241Y0406540D02*
X0141381Y0406680D01*
X0148032Y0408661D02*
X0151847Y0404847D01*
X0096900Y0419439D02*
X0113436Y0419439D01*
X0151847Y0396783D02*
X0154102Y0394528D01*
X0152831Y0397191D02*
X0155105Y0394917D01*
X0154750Y0398077D02*
X0156090Y0396738D01*
X0156841Y0379620D02*
X0156841Y0386495D01*
X0155857Y0373531D02*
X0155857Y0386088D01*
X0119633Y0463192D02*
X0120139Y0463192D01*
X0157825Y0380028D02*
X0157825Y0386903D01*
X0158809Y0380436D02*
X0158809Y0387311D01*
X0079645Y0436705D02*
X0079645Y0439384D01*
X0082064Y0441803D02*
X0084409Y0441803D01*
X0151847Y0396783D02*
X0151847Y0404847D01*
X0152831Y0397191D02*
X0152831Y0407012D01*
X0151182Y0408661D02*
X0152831Y0407012D01*
X0096493Y0418455D02*
X0113028Y0418455D01*
X0096085Y0417471D02*
X0112620Y0417471D01*
X0095677Y0416486D02*
X0112213Y0416486D01*
X0134491Y0413742D02*
X0139461Y0408772D01*
X0118148Y0414726D02*
X0136221Y0414726D01*
X0132038Y0411774D02*
X0135040Y0408772D01*
X0158359Y0451919D02*
X0158654Y0451624D01*
X0160244Y0451624D01*
X0161910Y0454429D02*
X0162205Y0454724D01*
X0161910Y0453290D02*
X0161910Y0454429D01*
X0160244Y0451624D02*
X0161910Y0453290D01*
X0158304Y0452904D02*
X0158943Y0453543D01*
X0159449Y0453543D01*
X0137254Y0406962D02*
X0137254Y0409272D01*
X0072926Y0383022D02*
X0079314Y0389411D01*
X0079314Y0390099D01*
X0083367Y0394151D01*
X0084409Y0441803D02*
X0089441Y0446834D01*
X0128244Y0386046D02*
X0130266Y0384024D01*
D51*
X0052953Y0371884D02*
X0053668Y0371169D01*
X0051969Y0378483D02*
X0052953Y0377499D01*
X0052953Y0371884D02*
X0052953Y0377499D01*
X0053668Y0370956D02*
X0053668Y0371169D01*
X0090513Y0414869D02*
X0102363Y0414869D01*
X0084023Y0421358D02*
X0086475Y0418906D01*
X0087008Y0394882D02*
X0090513Y0398386D01*
X0086475Y0418906D02*
X0090513Y0414869D01*
X0090513Y0398386D02*
X0090513Y0414869D01*
X0080231Y0421358D02*
X0084023Y0421358D01*
X0167665Y0377921D02*
X0167878Y0377921D01*
X0166811Y0377067D02*
X0167665Y0377921D01*
X0164336Y0377067D02*
X0166811Y0377067D01*
X0160337Y0381066D02*
X0164336Y0377067D01*
X0101182Y0371496D02*
X0101182Y0371709D01*
X0099342Y0373549D02*
X0101182Y0371709D01*
X0088249Y0374153D02*
X0089690Y0375595D01*
X0071986Y0377109D02*
X0082797Y0377109D01*
X0045473Y0342520D02*
X0047884Y0340108D01*
X0070861Y0375984D02*
X0071986Y0377109D01*
X0070670Y0375984D02*
X0070861Y0375984D01*
X0047884Y0336024D02*
X0047884Y0340108D01*
X0082797Y0377109D02*
X0085753Y0374153D01*
X0088249Y0374153D01*
X0063421Y0375428D02*
X0067169Y0379176D01*
X0061962Y0375428D02*
X0063421Y0375428D01*
X0067169Y0379176D02*
X0085802Y0379176D01*
X0061811Y0375278D02*
X0061962Y0375428D01*
X0051969Y0378483D02*
X0051969Y0402594D01*
X0049792Y0450587D02*
X0055016Y0455811D01*
X0051969Y0402594D02*
X0055119Y0405744D01*
X0049792Y0439909D02*
X0055119Y0434582D01*
X0174181Y0445907D02*
X0174181Y0454412D01*
X0170079Y0425864D02*
X0170079Y0438620D01*
X0157615Y0390662D02*
X0160666Y0387611D01*
X0104590Y0414869D02*
X0105135Y0414324D01*
X0102363Y0414869D02*
X0104590Y0414869D01*
X0099342Y0373549D02*
X0099342Y0386596D01*
X0100690Y0400878D02*
X0103249Y0403437D01*
X0105135Y0414324D02*
X0108117Y0414324D01*
X0089690Y0375595D02*
X0089690Y0392200D01*
X0100690Y0387943D02*
X0100690Y0400878D01*
X0087008Y0394882D02*
X0089690Y0392200D01*
X0049792Y0439909D02*
X0049792Y0450587D01*
X0055119Y0405744D02*
X0055119Y0434582D01*
X0080217Y0449965D02*
X0080217Y0458473D01*
X0082678Y0460934D01*
X0072048Y0438976D02*
X0079218Y0446147D01*
X0145303Y0457507D02*
X0170088Y0457507D01*
X0143194Y0455398D02*
X0145303Y0457507D01*
X0170088Y0457507D02*
X0170651Y0458070D01*
X0174452Y0454357D02*
X0174452Y0454570D01*
X0174131Y0454891D02*
X0174131Y0456629D01*
X0170651Y0458070D02*
X0172689Y0458070D01*
X0174131Y0456629D01*
X0174131Y0454891D02*
X0174452Y0454570D01*
X0183151Y0439542D02*
X0183151Y0442897D01*
X0182758Y0443291D02*
X0183151Y0442897D01*
X0182758Y0443291D02*
X0182758Y0443504D01*
X0182229Y0438620D02*
X0183151Y0439542D01*
X0170079Y0438620D02*
X0182229Y0438620D01*
X0170079Y0438620D02*
X0170079Y0441806D01*
X0170079Y0425864D02*
X0170200Y0425984D01*
X0167126Y0422911D02*
X0170079Y0425864D01*
X0078790Y0415024D02*
X0079528Y0414286D01*
X0103249Y0403437D02*
X0103249Y0407946D01*
X0099342Y0386596D02*
X0100690Y0387943D01*
X0079528Y0410039D02*
X0079528Y0414286D01*
X0078790Y0415024D02*
X0078790Y0419917D01*
X0102363Y0408832D02*
X0102363Y0414869D01*
X0108117Y0414324D02*
X0108268Y0414173D01*
X0102944Y0458456D02*
X0131225Y0458456D01*
X0134940Y0454741D01*
X0170079Y0441806D02*
X0174181Y0445907D01*
X0170867Y0416535D02*
X0172540Y0414862D01*
X0170867Y0404331D02*
X0172540Y0406004D01*
X0172540Y0414862D01*
X0167717Y0416535D02*
X0170867Y0416535D01*
X0167717Y0416535D02*
X0167717Y0416748D01*
X0167126Y0417339D02*
X0167717Y0416748D01*
X0167126Y0417339D02*
X0167126Y0422911D01*
X0078790Y0419917D02*
X0080231Y0421358D01*
X0157615Y0390662D02*
X0157615Y0398398D01*
X0163549Y0404332D01*
X0079218Y0446147D02*
X0079218Y0448966D01*
X0082678Y0460934D02*
X0082678Y0461024D01*
X0163549Y0404332D02*
X0170867Y0404332D01*
X0160337Y0381066D02*
X0160337Y0387282D01*
X0102363Y0408832D02*
X0103249Y0407946D01*
X0099213Y0462186D02*
X0102944Y0458456D01*
X0160337Y0387282D02*
X0160666Y0387611D01*
X0079218Y0448966D02*
X0080217Y0449965D01*
D52*
X0113682Y0423720D02*
X0114965Y0422437D01*
X0114965Y0422345D02*
X0114965Y0422437D01*
X0095718Y0448056D02*
X0113682Y0430093D01*
X0113682Y0423720D02*
X0113682Y0430093D01*
X0093323Y0450327D02*
X0093323Y0454847D01*
X0095593Y0448056D02*
X0095718Y0448056D01*
X0093323Y0450327D02*
X0095593Y0448056D01*
X0091536Y0456634D02*
X0093323Y0454847D01*
D10*
X0194882Y0347244D02*
D03*
X0194882Y0350394D02*
D03*
X0194882Y0444882D02*
D03*
X0194882Y0448031D02*
D03*
X0194882Y0353543D02*
D03*
X0194882Y0451181D02*
D03*
X0194882Y0356693D02*
D03*
X0194882Y0454331D02*
D03*
X0194882Y0359842D02*
D03*
X0194882Y0362992D02*
D03*
X0194882Y0366142D02*
D03*
X0182284Y0464567D02*
D03*
X0169685Y0464567D02*
D03*
X0194882Y0317717D02*
D03*
X0060630Y0464567D02*
D03*
X0030709Y0422835D02*
D03*
X0041966Y0412840D02*
D03*
X0063386Y0411024D02*
D03*
X0053668Y0370956D02*
D03*
X0041930Y0373425D02*
D03*
X0041142Y0364764D02*
D03*
X0065966Y0369131D02*
D03*
X0061024Y0369291D02*
D03*
X0070670Y0375984D02*
D03*
X0072638Y0353937D02*
D03*
X0065355Y0361417D02*
D03*
X0070422Y0365285D02*
D03*
X0078643Y0384055D02*
D03*
X0044686Y0409449D02*
D03*
X0058957Y0433510D02*
D03*
X0050591Y0429921D02*
D03*
X0062993Y0429134D02*
D03*
X0070965Y0422832D02*
D03*
X0070965Y0416537D02*
D03*
X0049213Y0414764D02*
D03*
X0086615Y0422797D02*
D03*
X0084103Y0415850D02*
D03*
X0086475Y0418906D02*
D03*
X0094882Y0429134D02*
D03*
X0094775Y0424717D02*
D03*
X0079411Y0430564D02*
D03*
X0033071Y0369291D02*
D03*
X0128052Y0349903D02*
D03*
X0127953Y0352756D02*
D03*
X0127953Y0355905D02*
D03*
X0170079Y0326378D02*
D03*
X0045424Y0325591D02*
D03*
X0040612Y0337976D02*
D03*
X0119981Y0324984D02*
D03*
X0123819Y0325591D02*
D03*
X0085802Y0379176D02*
D03*
X0095375Y0385925D02*
D03*
X0087008Y0394882D02*
D03*
X0133859Y0368504D02*
D03*
X0119321Y0388976D02*
D03*
X0046368Y0401831D02*
D03*
X0050081Y0376476D02*
D03*
X0056890Y0374409D02*
D03*
X0061811Y0375278D02*
D03*
X0031989Y0362503D02*
D03*
X0101723Y0335630D02*
D03*
X0055512Y0336713D02*
D03*
X0058974Y0448794D02*
D03*
X0062856Y0450197D02*
D03*
X0059171Y0451742D02*
D03*
X0069177Y0448081D02*
D03*
X0070376Y0453268D02*
D03*
X0075077Y0449828D02*
D03*
X0072177Y0448210D02*
D03*
X0077756Y0450984D02*
D03*
X0086123Y0437992D02*
D03*
X0114965Y0422345D02*
D03*
X0129922Y0407591D02*
D03*
X0125197Y0402362D02*
D03*
X0120473Y0397638D02*
D03*
X0102787Y0381299D02*
D03*
X0106867Y0381735D02*
D03*
X0169667Y0390439D02*
D03*
X0167218Y0392034D02*
D03*
X0169504Y0386565D02*
D03*
X0171073Y0394488D02*
D03*
X0188780Y0398130D02*
D03*
X0148819Y0402998D02*
D03*
X0148032Y0393307D02*
D03*
X0117126Y0392618D02*
D03*
X0114486Y0389017D02*
D03*
X0082067Y0325718D02*
D03*
X0084920Y0325803D02*
D03*
X0169901Y0449588D02*
D03*
X0146174Y0454899D02*
D03*
X0175885Y0459547D02*
D03*
X0171670Y0455610D02*
D03*
X0174452Y0454357D02*
D03*
X0185267Y0454993D02*
D03*
X0182758Y0443504D02*
D03*
X0179043Y0460558D02*
D03*
X0181056Y0435175D02*
D03*
X0186221Y0416339D02*
D03*
X0162215Y0435897D02*
D03*
X0188091Y0418495D02*
D03*
X0134940Y0454741D02*
D03*
X0175984Y0333858D02*
D03*
X0160630Y0421260D02*
D03*
X0160630Y0411811D02*
D03*
X0154725Y0418897D02*
D03*
X0148819Y0435433D02*
D03*
X0140551Y0433071D02*
D03*
X0134646Y0435433D02*
D03*
X0133465Y0400000D02*
D03*
X0134646Y0392913D02*
D03*
X0122835Y0435433D02*
D03*
X0118110Y0440157D02*
D03*
X0040158Y0449606D02*
D03*
X0178207Y0423020D02*
D03*
X0102461Y0436614D02*
D03*
X0045079Y0337008D02*
D03*
X0031103Y0336614D02*
D03*
X0055016Y0455811D02*
D03*
X0039371Y0345866D02*
D03*
X0044897Y0346745D02*
D03*
X0045473Y0342520D02*
D03*
X0036615Y0334646D02*
D03*
X0095634Y0323789D02*
D03*
X0091796Y0323789D02*
D03*
X0100746Y0326059D02*
D03*
X0096665Y0337181D02*
D03*
X0096063Y0359842D02*
D03*
X0091536Y0456634D02*
D03*
X0082678Y0461024D02*
D03*
X0072616Y0462205D02*
D03*
X0095494Y0443029D02*
D03*
X0103938Y0429134D02*
D03*
X0115749Y0431102D02*
D03*
X0062423Y0456780D02*
D03*
X0047245Y0421654D02*
D03*
X0043615Y0444853D02*
D03*
X0060476Y0444759D02*
D03*
X0069974Y0464308D02*
D03*
X0105290Y0444673D02*
D03*
X0105906Y0441732D02*
D03*
X0037796Y0463780D02*
D03*
X0042225Y0435422D02*
D03*
X0040552Y0433071D02*
D03*
X0031497Y0446457D02*
D03*
X0031693Y0450394D02*
D03*
X0071381Y0388431D02*
D03*
X0169983Y0422146D02*
D03*
X0170200Y0425984D02*
D03*
X0161811Y0433071D02*
D03*
X0167717Y0416535D02*
D03*
X0079528Y0410039D02*
D03*
X0081251Y0418898D02*
D03*
X0070965Y0409449D02*
D03*
X0094758Y0412220D02*
D03*
X0100788Y0404823D02*
D03*
X0105512Y0392913D02*
D03*
X0105476Y0409199D02*
D03*
X0116142Y0402756D02*
D03*
X0150001Y0387008D02*
D03*
X0151969Y0393307D02*
D03*
X0141241Y0406540D02*
D03*
X0184745Y0389469D02*
D03*
X0186594Y0408682D02*
D03*
X0072048Y0438976D02*
D03*
X0148032Y0408661D02*
D03*
X0102363Y0424016D02*
D03*
X0087229Y0376614D02*
D03*
X0082284Y0372047D02*
D03*
X0118898Y0368110D02*
D03*
X0092520Y0376772D02*
D03*
X0123382Y0380714D02*
D03*
X0135987Y0370866D02*
D03*
X0145061Y0379069D02*
D03*
X0075394Y0364173D02*
D03*
X0031520Y0313042D02*
D03*
X0170867Y0404331D02*
D03*
X0037046Y0309367D02*
D03*
X0116499Y0463252D02*
D03*
X0119633Y0463192D02*
D03*
X0079645Y0436705D02*
D03*
X0151182Y0408661D02*
D03*
X0148292Y0417881D02*
D03*
X0094780Y0445792D02*
D03*
X0125452Y0455567D02*
D03*
X0139518Y0336024D02*
D03*
X0109547Y0454626D02*
D03*
X0071063Y0403740D02*
D03*
X0107173Y0463316D02*
D03*
X0048622Y0463780D02*
D03*
X0194489Y0312205D02*
D03*
X0194095Y0457480D02*
D03*
X0077395Y0390206D02*
D03*
X0046923Y0378781D02*
D03*
X0160666Y0387824D02*
D03*
X0175985Y0381102D02*
D03*
X0108268Y0414173D02*
D03*
X0111418Y0423228D02*
D03*
X0154750Y0398077D02*
D03*
X0179908Y0369018D02*
D03*
X0179989Y0364041D02*
D03*
X0162095Y0367720D02*
D03*
X0177166Y0373228D02*
D03*
X0176772Y0369291D02*
D03*
X0162205Y0454724D02*
D03*
X0159449Y0453543D02*
D03*
X0088974Y0366261D02*
D03*
X0062137Y0383465D02*
D03*
X0062599Y0387303D02*
D03*
X0139461Y0408772D02*
D03*
X0137254Y0406962D02*
D03*
X0135040Y0408772D02*
D03*
X0099213Y0462186D02*
D03*
X0062599Y0395669D02*
D03*
X0062599Y0390158D02*
D03*
X0070745Y0398622D02*
D03*
X0084165Y0445079D02*
D03*
X0054430Y0394488D02*
D03*
X0096359Y0393363D02*
D03*
X0094882Y0401181D02*
D03*
X0077674Y0345607D02*
D03*
X0089245Y0339584D02*
D03*
X0191214Y0339860D02*
D03*
X0182382Y0340354D02*
D03*
X0170034Y0381867D02*
D03*
X0170174Y0401560D02*
D03*
X0177983Y0343337D02*
D03*
X0186602Y0345997D02*
D03*
X0189764Y0337402D02*
D03*
X0181497Y0331102D02*
D03*
X0181752Y0355905D02*
D03*
X0167878Y0377921D02*
D03*
X0143194Y0455398D02*
D03*
X0081496Y0389567D02*
D03*
X0081989Y0356299D02*
D03*
X0081985Y0362849D02*
D03*
X0116733Y0382136D02*
D03*
X0128244Y0386046D02*
D03*
X0078485Y0373327D02*
D03*
X0101182Y0371496D02*
D03*
X0105167Y0325890D02*
D03*
X0150394Y0370473D02*
D03*
X0116634Y0379283D02*
D03*
X0137486Y0366813D02*
D03*
X0081692Y0438716D02*
D03*
X0081679Y0446481D02*
D03*
X0049515Y0354188D02*
D03*
X0038801Y0427293D02*
D03*
X0043308Y0421616D02*
D03*
X0070965Y0394488D02*
D03*
X0054430Y0401575D02*
D03*
X0054430Y0387402D02*
D03*
X0054430Y0380315D02*
D03*
X0062478Y0380101D02*
D03*
X0062205Y0403150D02*
D03*
X0034252Y0329823D02*
D03*
X0036617Y0314961D02*
D03*
X0067403Y0325892D02*
D03*
X0063135Y0325892D02*
D03*
X0060237Y0346850D02*
D03*
X0070867Y0336614D02*
D03*
X0074410Y0336220D02*
D03*
X0070867Y0346850D02*
D03*
X0048782Y0346468D02*
D03*
X0060237Y0336713D02*
D03*
X0038091Y0356299D02*
D03*
X0054036Y0362103D02*
D03*
X0054036Y0356299D02*
D03*
X0066047Y0355655D02*
D03*
X0102570Y0359995D02*
D03*
X0167323Y0336614D02*
D03*
X0104479Y0353297D02*
D03*
X0150148Y0353297D02*
D03*
X0192914Y0324409D02*
D03*
X0118898Y0359843D02*
D03*
X0125197Y0360236D02*
D03*
X0117888Y0336859D02*
D03*
X0148032Y0359843D02*
D03*
X0141733Y0359843D02*
D03*
X0147441Y0337008D02*
D03*
X0170867Y0359843D02*
D03*
X0164567Y0359843D02*
D03*
X0151969Y0324016D02*
D03*
X0185433Y0311024D02*
D03*
X0175985Y0311024D02*
D03*
X0180709Y0311024D02*
D03*
X0190158Y0311024D02*
D03*
X0078937Y0353937D02*
D03*
X0104528Y0350394D02*
D03*
X0094292Y0353150D02*
D03*
X0094292Y0346850D02*
D03*
X0117127Y0346850D02*
D03*
X0117127Y0353150D02*
D03*
X0150197Y0350394D02*
D03*
X0139961Y0353150D02*
D03*
X0139961Y0346850D02*
D03*
X0162796Y0353150D02*
D03*
X0162796Y0346850D02*
D03*
X0152756Y0311024D02*
D03*
X0157481Y0311024D02*
D03*
X0166930Y0311024D02*
D03*
X0162205Y0311024D02*
D03*
X0158268Y0325591D02*
D03*
X0161418Y0325591D02*
D03*
X0158416Y0336024D02*
D03*
X0133859Y0311024D02*
D03*
X0138583Y0311024D02*
D03*
X0148032Y0311024D02*
D03*
X0143308Y0311024D02*
D03*
X0139371Y0325591D02*
D03*
X0142520Y0325591D02*
D03*
X0133071Y0324016D02*
D03*
X0114961Y0311024D02*
D03*
X0119686Y0311024D02*
D03*
X0129134Y0311024D02*
D03*
X0124410Y0311024D02*
D03*
X0120621Y0336024D02*
D03*
X0114174Y0324016D02*
D03*
X0096064Y0311024D02*
D03*
X0100788Y0311024D02*
D03*
X0110237Y0311024D02*
D03*
X0105512Y0311024D02*
D03*
X0077166Y0311024D02*
D03*
X0081890Y0311024D02*
D03*
X0091339Y0311024D02*
D03*
X0086615Y0311024D02*
D03*
X0082825Y0336024D02*
D03*
X0076378Y0324016D02*
D03*
X0058268Y0311024D02*
D03*
X0062993Y0311024D02*
D03*
X0072441Y0311024D02*
D03*
X0067717Y0311024D02*
D03*
X0063928Y0336024D02*
D03*
X0073229Y0324016D02*
D03*
X0057481Y0324016D02*
D03*
X0047884Y0336024D02*
D03*
X0048819Y0311024D02*
D03*
X0053544Y0311024D02*
D03*
X0044095Y0311024D02*
D03*
X0039371Y0311024D02*
D03*
D54*
X0123623Y0369291D02*
D03*
X0153937Y0368898D02*
D03*
X0142520Y0368898D02*
D03*
X0089370Y0370079D02*
D03*
M02*
