G75*
G70*
%OFA0B0*%
%FSLAX25Y25*%
%IPPOS*%
%LPD*%
%AMOC8*
5,1,8,0,0,1.08239X$1,22.5*
%
%ADD10C,0.02362*%
%ADD11R,0.00787X0.09055*%
%ADD12R,0.00787X0.21260*%
%ADD13R,0.00787X0.33858*%
%ADD14R,0.00787X0.19685*%
%ADD15R,0.05512X0.00787*%
%ADD16R,0.19685X0.00787*%
%ADD17R,0.26772X0.00787*%
%ADD18R,0.17717X0.00787*%
%ADD19R,0.00787X0.06299*%
%ADD20R,0.00787X0.22441*%
%ADD21R,0.00787X0.07874*%
X0029528Y0307874D02*
G01*
G75*
G36*
X0123837Y0464961D02*
X0123819Y0464919D01*
X0123819Y0464215D01*
X0124089Y0463563D01*
X0124588Y0463065D01*
X0125239Y0462795D01*
X0125943Y0462795D01*
X0126595Y0463065D01*
X0126651Y0463122D01*
X0127166Y0463509D01*
X0127680Y0463122D01*
X0127737Y0463065D01*
X0128388Y0462795D01*
X0129093Y0462795D01*
X0129744Y0463065D01*
X0129801Y0463122D01*
X0130315Y0463509D01*
X0130830Y0463122D01*
X0130887Y0463065D01*
X0131538Y0462795D01*
X0132243Y0462795D01*
X0132894Y0463065D01*
X0132951Y0463122D01*
X0133465Y0463509D01*
X0133979Y0463122D01*
X0134036Y0463065D01*
X0134687Y0462795D01*
X0135392Y0462795D01*
X0136043Y0463065D01*
X0136100Y0463122D01*
X0136615Y0463509D01*
X0137129Y0463122D01*
X0137186Y0463065D01*
X0137837Y0462795D01*
X0138542Y0462795D01*
X0139193Y0463065D01*
X0139250Y0463122D01*
X0139764Y0463509D01*
X0140279Y0463122D01*
X0140336Y0463065D01*
X0140987Y0462795D01*
X0141691Y0462795D01*
X0142343Y0463065D01*
X0142400Y0463122D01*
X0142914Y0463509D01*
X0143428Y0463122D01*
X0143485Y0463065D01*
X0144136Y0462795D01*
X0144841Y0462795D01*
X0145492Y0463065D01*
X0145549Y0463122D01*
X0146063Y0463509D01*
X0146578Y0463122D01*
X0146635Y0463065D01*
X0147286Y0462795D01*
X0147991Y0462795D01*
X0148642Y0463065D01*
X0148699Y0463122D01*
X0149213Y0463509D01*
X0149728Y0463122D01*
X0149784Y0463065D01*
X0150435Y0462795D01*
X0151140Y0462795D01*
X0151791Y0463065D01*
X0151848Y0463122D01*
X0152363Y0463509D01*
X0152877Y0463122D01*
X0152934Y0463065D01*
X0153585Y0462795D01*
X0154290Y0462795D01*
X0154941Y0463065D01*
X0154998Y0463122D01*
X0155512Y0463509D01*
X0156027Y0463122D01*
X0156084Y0463065D01*
X0156735Y0462795D01*
X0157439Y0462795D01*
X0158091Y0463065D01*
X0158148Y0463122D01*
X0158662Y0463509D01*
X0159176Y0463122D01*
X0159233Y0463065D01*
X0159884Y0462795D01*
X0160589Y0462795D01*
X0161240Y0463065D01*
X0161297Y0463122D01*
X0161811Y0463509D01*
X0162326Y0463122D01*
X0162383Y0463065D01*
X0163034Y0462795D01*
X0163739Y0462795D01*
X0164390Y0463065D01*
X0164447Y0463122D01*
X0164961Y0463509D01*
X0165476Y0463122D01*
X0165532Y0463065D01*
X0166183Y0462795D01*
X0166888Y0462795D01*
X0167540Y0463065D01*
X0167596Y0463122D01*
X0168111Y0463509D01*
X0168625Y0463122D01*
X0168682Y0463065D01*
X0169333Y0462795D01*
X0170038Y0462795D01*
X0170689Y0463065D01*
X0170746Y0463122D01*
X0171260Y0463509D01*
X0171775Y0463122D01*
X0171832Y0463065D01*
X0172483Y0462795D01*
X0173187Y0462795D01*
X0173839Y0463065D01*
X0173896Y0463122D01*
X0174410Y0463509D01*
X0174924Y0463122D01*
X0174981Y0463065D01*
X0175632Y0462795D01*
X0176337Y0462795D01*
X0176988Y0463065D01*
X0177045Y0463122D01*
X0177559Y0463509D01*
X0178074Y0463122D01*
X0178131Y0463065D01*
X0178270Y0463007D01*
X0178270Y0462155D01*
X0178040Y0462060D01*
X0177541Y0461562D01*
X0177526Y0461525D01*
X0176896Y0461055D01*
X0176592Y0461172D01*
X0176238Y0461319D01*
X0175533Y0461319D01*
X0174881Y0461049D01*
X0174383Y0460551D01*
X0174113Y0459900D01*
X0174113Y0459195D01*
X0174383Y0458544D01*
X0174881Y0458045D01*
X0175533Y0457776D01*
X0176238Y0457776D01*
X0176889Y0458045D01*
X0177387Y0458544D01*
X0177402Y0458580D01*
X0178032Y0459050D01*
X0178336Y0458933D01*
X0178691Y0458786D01*
X0179395Y0458786D01*
X0180047Y0459056D01*
X0180545Y0459554D01*
X0180815Y0460206D01*
X0180815Y0460910D01*
X0180545Y0461562D01*
X0180047Y0462060D01*
X0179908Y0462117D01*
X0179908Y0462970D01*
X0180138Y0463065D01*
X0180195Y0463122D01*
X0180709Y0463509D01*
X0181224Y0463122D01*
X0181280Y0463065D01*
X0181931Y0462795D01*
X0182636Y0462795D01*
X0183288Y0463065D01*
X0183344Y0463122D01*
X0183859Y0463509D01*
X0184373Y0463122D01*
X0184430Y0463065D01*
X0185081Y0462795D01*
X0185786Y0462795D01*
X0186437Y0463065D01*
X0186494Y0463122D01*
X0187008Y0463509D01*
X0187523Y0463122D01*
X0187580Y0463065D01*
X0188231Y0462795D01*
X0188935Y0462795D01*
X0189587Y0463065D01*
X0189644Y0463122D01*
X0190158Y0463509D01*
X0190672Y0463122D01*
X0190729Y0463065D01*
X0191380Y0462795D01*
X0192085Y0462795D01*
X0192736Y0463065D01*
X0192793Y0463122D01*
X0193307Y0463509D01*
X0193822Y0463122D01*
X0193879Y0463065D01*
X0194530Y0462795D01*
X0195235Y0462795D01*
X0195276Y0462812D01*
X0196063Y0462286D01*
X0196063Y0456611D01*
X0195276Y0456085D01*
X0195235Y0456102D01*
X0194530Y0456102D01*
X0193879Y0455833D01*
X0193380Y0455334D01*
X0193303Y0455148D01*
X0192451Y0455148D01*
X0192374Y0455334D01*
X0191875Y0455833D01*
X0191224Y0456102D01*
X0190519Y0456102D01*
X0189868Y0455833D01*
X0189370Y0455334D01*
X0189100Y0454683D01*
X0189100Y0453978D01*
X0189370Y0453327D01*
X0189868Y0452829D01*
X0190519Y0452559D01*
X0191224Y0452559D01*
X0191875Y0452829D01*
X0192374Y0453327D01*
X0192451Y0453514D01*
X0193303Y0453514D01*
X0193380Y0453327D01*
X0193437Y0453270D01*
X0193824Y0452756D01*
X0193437Y0452242D01*
X0193380Y0452185D01*
X0193111Y0451533D01*
X0193111Y0450829D01*
X0193380Y0450178D01*
X0193437Y0450121D01*
X0193824Y0449606D01*
X0193437Y0449092D01*
X0193380Y0449035D01*
X0193111Y0448384D01*
X0193111Y0447679D01*
X0193380Y0447028D01*
X0193437Y0446971D01*
X0193824Y0446457D01*
X0193437Y0445942D01*
X0193380Y0445885D01*
X0193111Y0445234D01*
X0193111Y0444529D01*
X0193380Y0443878D01*
X0193437Y0443822D01*
X0193824Y0443307D01*
X0193437Y0442793D01*
X0193380Y0442736D01*
X0193111Y0442085D01*
X0193111Y0441380D01*
X0193380Y0440729D01*
X0193437Y0440672D01*
X0193824Y0440157D01*
X0193437Y0439643D01*
X0193380Y0439586D01*
X0193111Y0438935D01*
X0193111Y0438230D01*
X0193380Y0437579D01*
X0193437Y0437522D01*
X0193824Y0437008D01*
X0193437Y0436494D01*
X0193380Y0436437D01*
X0193111Y0435785D01*
X0192869Y0435624D01*
X0192854Y0435630D01*
X0192149Y0435630D01*
X0191498Y0435360D01*
X0191000Y0434862D01*
X0190730Y0434211D01*
X0190730Y0433506D01*
X0191000Y0432855D01*
X0191498Y0432356D01*
X0192149Y0432087D01*
X0192854Y0432087D01*
X0192869Y0432093D01*
X0193111Y0431931D01*
X0193380Y0431280D01*
X0193437Y0431223D01*
X0193824Y0430709D01*
X0193437Y0430194D01*
X0193380Y0430137D01*
X0193111Y0429486D01*
X0193111Y0428781D01*
X0193380Y0428130D01*
X0193437Y0428074D01*
X0193824Y0427559D01*
X0193437Y0427045D01*
X0193380Y0426988D01*
X0193294Y0426779D01*
X0192854Y0426181D01*
X0192149Y0426181D01*
X0191498Y0425911D01*
X0191000Y0425413D01*
X0190730Y0424762D01*
X0190730Y0424057D01*
X0191000Y0423406D01*
X0191498Y0422907D01*
X0192149Y0422638D01*
X0192854Y0422638D01*
X0192869Y0422644D01*
X0193111Y0422482D01*
X0193380Y0421831D01*
X0193437Y0421774D01*
X0193824Y0421260D01*
X0193437Y0420746D01*
X0193380Y0420689D01*
X0193111Y0420037D01*
X0193111Y0419333D01*
X0193380Y0418682D01*
X0193437Y0418625D01*
X0193824Y0418110D01*
X0193437Y0417596D01*
X0193380Y0417539D01*
X0193111Y0416888D01*
X0193111Y0416183D01*
X0193380Y0415532D01*
X0193437Y0415475D01*
X0193824Y0414961D01*
X0193437Y0414446D01*
X0193380Y0414389D01*
X0193111Y0413738D01*
X0193111Y0413033D01*
X0193380Y0412382D01*
X0193437Y0412325D01*
X0193824Y0411811D01*
X0193437Y0411297D01*
X0193380Y0411240D01*
X0193111Y0410589D01*
X0193111Y0409884D01*
X0193380Y0409233D01*
X0193437Y0409176D01*
X0193824Y0408661D01*
X0193437Y0408147D01*
X0193380Y0408090D01*
X0193111Y0407439D01*
X0193111Y0406734D01*
X0193380Y0406083D01*
X0193437Y0406026D01*
X0193824Y0405512D01*
X0193437Y0404997D01*
X0193380Y0404941D01*
X0193111Y0404289D01*
X0193111Y0403585D01*
X0193380Y0402934D01*
X0193437Y0402877D01*
X0193824Y0402362D01*
X0193437Y0401848D01*
X0193380Y0401791D01*
X0193111Y0401140D01*
X0193111Y0400435D01*
X0193380Y0399784D01*
X0193437Y0399727D01*
X0193824Y0399213D01*
X0193437Y0398698D01*
X0193380Y0398641D01*
X0193111Y0397990D01*
X0193111Y0397285D01*
X0193380Y0396634D01*
X0193437Y0396577D01*
X0193824Y0396063D01*
X0193437Y0395549D01*
X0193380Y0395492D01*
X0193111Y0394841D01*
X0193111Y0394136D01*
X0193380Y0393485D01*
X0193437Y0393428D01*
X0193824Y0392913D01*
X0193437Y0392399D01*
X0193380Y0392342D01*
X0193111Y0391691D01*
X0193111Y0390986D01*
X0193380Y0390335D01*
X0193437Y0390278D01*
X0193824Y0389764D01*
X0193437Y0389249D01*
X0193380Y0389192D01*
X0193111Y0388541D01*
X0193111Y0387837D01*
X0193380Y0387185D01*
X0193437Y0387129D01*
X0193824Y0386614D01*
X0193437Y0386100D01*
X0193380Y0386043D01*
X0193111Y0385392D01*
X0193111Y0384687D01*
X0193169Y0384546D01*
X0192567Y0383943D01*
X0192402Y0384011D01*
X0191697Y0384011D01*
X0191046Y0383741D01*
X0190548Y0383243D01*
X0190278Y0382592D01*
X0190278Y0381887D01*
X0190548Y0381236D01*
X0191046Y0380738D01*
X0191697Y0380468D01*
X0192402Y0380468D01*
X0193364Y0380019D01*
X0193399Y0379916D01*
X0193391Y0379754D01*
X0193380Y0379744D01*
X0193111Y0379093D01*
X0193111Y0378388D01*
X0193380Y0377737D01*
X0193437Y0377680D01*
X0193824Y0377165D01*
X0193437Y0376651D01*
X0193380Y0376594D01*
X0193111Y0375943D01*
X0193111Y0375238D01*
X0193380Y0374587D01*
X0193437Y0374530D01*
X0193824Y0374016D01*
X0193437Y0373501D01*
X0193380Y0373444D01*
X0193111Y0372793D01*
X0193111Y0372088D01*
X0193380Y0371437D01*
X0193437Y0371381D01*
X0193824Y0370866D01*
X0193437Y0370352D01*
X0193380Y0370295D01*
X0193111Y0369644D01*
X0193111Y0368939D01*
X0193380Y0368288D01*
X0193437Y0368231D01*
X0193824Y0367716D01*
X0193437Y0367202D01*
X0193380Y0367145D01*
X0193111Y0366494D01*
X0193111Y0365789D01*
X0193380Y0365138D01*
X0193437Y0365081D01*
X0193824Y0364567D01*
X0193437Y0364052D01*
X0193380Y0363996D01*
X0193111Y0363345D01*
X0193111Y0362640D01*
X0193380Y0361989D01*
X0193437Y0361932D01*
X0193824Y0361417D01*
X0193437Y0360903D01*
X0193380Y0360846D01*
X0193111Y0360195D01*
X0193111Y0359490D01*
X0193380Y0358839D01*
X0193437Y0358782D01*
X0193824Y0358268D01*
X0193437Y0357753D01*
X0193380Y0357697D01*
X0193111Y0357045D01*
X0193111Y0356341D01*
X0193380Y0355689D01*
X0193437Y0355632D01*
X0193824Y0355118D01*
X0193437Y0354604D01*
X0193380Y0354547D01*
X0193111Y0353896D01*
X0193111Y0353191D01*
X0193380Y0352540D01*
X0193437Y0352483D01*
X0193824Y0351968D01*
X0193437Y0351454D01*
X0193380Y0351397D01*
X0193111Y0350746D01*
X0193111Y0350041D01*
X0193380Y0349390D01*
X0193437Y0349333D01*
X0193824Y0348819D01*
X0193437Y0348305D01*
X0193380Y0348248D01*
X0193111Y0347596D01*
X0193111Y0346892D01*
X0193380Y0346240D01*
X0193879Y0345742D01*
X0194530Y0345472D01*
X0195235Y0345472D01*
X0195276Y0345489D01*
X0196063Y0344963D01*
X0196063Y0323147D01*
X0195276Y0322621D01*
X0195235Y0322638D01*
X0194530Y0322638D01*
X0193879Y0322368D01*
X0193380Y0321870D01*
X0193111Y0321219D01*
X0193111Y0320514D01*
X0193380Y0319863D01*
X0193387Y0319856D01*
X0193378Y0319715D01*
X0193335Y0319675D01*
X0192446Y0319519D01*
X0191795Y0319789D01*
X0191090Y0319789D01*
X0190439Y0319519D01*
X0189941Y0319021D01*
X0189671Y0318370D01*
X0189671Y0317665D01*
X0189941Y0317014D01*
X0190439Y0316515D01*
X0191090Y0316245D01*
X0191795Y0316245D01*
X0192446Y0316515D01*
X0192562Y0316631D01*
X0193341Y0316709D01*
X0193527Y0316567D01*
X0193879Y0316215D01*
X0194530Y0315945D01*
X0195235Y0315945D01*
X0195276Y0315962D01*
X0196063Y0315436D01*
X0196063Y0309843D01*
X0194112Y0309843D01*
X0194022Y0310059D01*
X0193524Y0310557D01*
X0192873Y0310827D01*
X0192168Y0310827D01*
X0191517Y0310557D01*
X0191018Y0310059D01*
X0190929Y0309843D01*
X0189387Y0309843D01*
X0189298Y0310059D01*
X0188799Y0310557D01*
X0188148Y0310827D01*
X0187443Y0310827D01*
X0186792Y0310557D01*
X0186294Y0310059D01*
X0186204Y0309843D01*
X0184663Y0309843D01*
X0184573Y0310059D01*
X0184075Y0310557D01*
X0183424Y0310827D01*
X0182719Y0310827D01*
X0182068Y0310557D01*
X0181569Y0310059D01*
X0181480Y0309843D01*
X0179938Y0309843D01*
X0179849Y0310059D01*
X0179350Y0310557D01*
X0178699Y0310827D01*
X0177995Y0310827D01*
X0177343Y0310557D01*
X0176845Y0310059D01*
X0176756Y0309843D01*
X0175214Y0309843D01*
X0175124Y0310059D01*
X0174626Y0310557D01*
X0173975Y0310827D01*
X0173270Y0310827D01*
X0172619Y0310557D01*
X0172121Y0310059D01*
X0172031Y0309843D01*
X0170883Y0309843D01*
X0170794Y0310059D01*
X0170295Y0310557D01*
X0169644Y0310827D01*
X0168939Y0310827D01*
X0168701Y0310986D01*
X0168701Y0311376D01*
X0168432Y0312027D01*
X0167933Y0312525D01*
X0167282Y0312795D01*
X0166577Y0312795D01*
X0165926Y0312525D01*
X0165428Y0312027D01*
X0165158Y0311376D01*
X0165158Y0310986D01*
X0164920Y0310827D01*
X0164215Y0310827D01*
X0163977Y0310986D01*
X0163977Y0311376D01*
X0163707Y0312027D01*
X0163209Y0312525D01*
X0162558Y0312795D01*
X0161853Y0312795D01*
X0161202Y0312525D01*
X0160703Y0312027D01*
X0160506Y0311551D01*
X0160218Y0310878D01*
X0159469Y0310878D01*
X0159180Y0311551D01*
X0158983Y0312027D01*
X0158484Y0312525D01*
X0157833Y0312795D01*
X0157128Y0312795D01*
X0156477Y0312525D01*
X0155979Y0312027D01*
X0155709Y0311376D01*
X0155709Y0310986D01*
X0155471Y0310827D01*
X0154766Y0310827D01*
X0154528Y0310986D01*
X0154528Y0311376D01*
X0154258Y0312027D01*
X0153760Y0312525D01*
X0153109Y0312795D01*
X0152404Y0312795D01*
X0151753Y0312525D01*
X0151255Y0312027D01*
X0150985Y0311376D01*
X0150985Y0310986D01*
X0150747Y0310827D01*
X0150042Y0310827D01*
X0149804Y0310986D01*
X0149804Y0311376D01*
X0149534Y0312027D01*
X0149036Y0312525D01*
X0148384Y0312795D01*
X0147680Y0312795D01*
X0147028Y0312525D01*
X0146530Y0312027D01*
X0146333Y0311551D01*
X0146044Y0310878D01*
X0145295Y0310878D01*
X0145007Y0311551D01*
X0144809Y0312027D01*
X0144311Y0312525D01*
X0143660Y0312795D01*
X0142955Y0312795D01*
X0142304Y0312525D01*
X0141806Y0312027D01*
X0141536Y0311376D01*
X0141536Y0310986D01*
X0141298Y0310827D01*
X0140593Y0310827D01*
X0140355Y0310986D01*
X0140355Y0311376D01*
X0140085Y0312027D01*
X0139587Y0312525D01*
X0138936Y0312795D01*
X0138231Y0312795D01*
X0137580Y0312525D01*
X0137081Y0312027D01*
X0136811Y0311376D01*
X0136811Y0310986D01*
X0136573Y0310827D01*
X0135869Y0310827D01*
X0135630Y0310986D01*
X0135630Y0311376D01*
X0135361Y0312027D01*
X0134862Y0312525D01*
X0134211Y0312795D01*
X0133506Y0312795D01*
X0132855Y0312525D01*
X0132357Y0312027D01*
X0132087Y0311376D01*
X0132087Y0310986D01*
X0131849Y0310827D01*
X0131144Y0310827D01*
X0130906Y0310986D01*
X0130906Y0311376D01*
X0130636Y0312027D01*
X0130138Y0312525D01*
X0129487Y0312795D01*
X0128782Y0312795D01*
X0128131Y0312525D01*
X0127632Y0312027D01*
X0127363Y0311376D01*
X0127363Y0310986D01*
X0127125Y0310827D01*
X0126420Y0310827D01*
X0126182Y0310986D01*
X0126182Y0311376D01*
X0125912Y0312027D01*
X0125413Y0312525D01*
X0124762Y0312795D01*
X0124057Y0312795D01*
X0123406Y0312525D01*
X0122908Y0312027D01*
X0122638Y0311376D01*
X0122638Y0310986D01*
X0122400Y0310827D01*
X0121695Y0310827D01*
X0121457Y0310986D01*
X0121457Y0311376D01*
X0121187Y0312027D01*
X0120689Y0312525D01*
X0120038Y0312795D01*
X0119333Y0312795D01*
X0118682Y0312525D01*
X0118184Y0312027D01*
X0117914Y0311376D01*
X0117914Y0310986D01*
X0117676Y0310827D01*
X0116971Y0310827D01*
X0116733Y0310986D01*
X0116733Y0311376D01*
X0116463Y0312027D01*
X0115965Y0312525D01*
X0115314Y0312795D01*
X0114609Y0312795D01*
X0113958Y0312525D01*
X0113459Y0312027D01*
X0113190Y0311376D01*
X0113190Y0310986D01*
X0112951Y0310827D01*
X0112246Y0310827D01*
X0112008Y0310986D01*
X0112008Y0311376D01*
X0111739Y0312027D01*
X0111240Y0312525D01*
X0110589Y0312795D01*
X0109884Y0312795D01*
X0109233Y0312525D01*
X0108735Y0312027D01*
X0108465Y0311376D01*
X0108465Y0310986D01*
X0108227Y0310827D01*
X0107522Y0310827D01*
X0107284Y0310986D01*
X0107284Y0311376D01*
X0107014Y0312027D01*
X0106516Y0312525D01*
X0105865Y0312795D01*
X0105160Y0312795D01*
X0104509Y0312525D01*
X0104010Y0312027D01*
X0103813Y0311551D01*
X0103525Y0310878D01*
X0102776Y0310878D01*
X0102487Y0311551D01*
X0102290Y0312027D01*
X0101791Y0312525D01*
X0101140Y0312795D01*
X0100435Y0312795D01*
X0099784Y0312525D01*
X0099286Y0312027D01*
X0099016Y0311376D01*
X0099016Y0310986D01*
X0098778Y0310827D01*
X0098073Y0310827D01*
X0097835Y0310986D01*
X0097835Y0311376D01*
X0097565Y0312027D01*
X0097067Y0312525D01*
X0096416Y0312795D01*
X0095711Y0312795D01*
X0095060Y0312525D01*
X0094562Y0312027D01*
X0094364Y0311551D01*
X0094076Y0310878D01*
X0093327Y0310878D01*
X0093039Y0311551D01*
X0092841Y0312027D01*
X0092343Y0312525D01*
X0091692Y0312795D01*
X0090987Y0312795D01*
X0090336Y0312525D01*
X0089837Y0312027D01*
X0089567Y0311376D01*
X0089567Y0310986D01*
X0089329Y0310827D01*
X0088624Y0310827D01*
X0088386Y0310986D01*
X0088386Y0311376D01*
X0088117Y0312027D01*
X0087618Y0312525D01*
X0086967Y0312795D01*
X0086262Y0312795D01*
X0085611Y0312525D01*
X0085113Y0312027D01*
X0084843Y0311376D01*
X0084843Y0310986D01*
X0084605Y0310827D01*
X0083900Y0310827D01*
X0083662Y0310986D01*
X0083662Y0311376D01*
X0083392Y0312027D01*
X0082894Y0312525D01*
X0082243Y0312795D01*
X0081538Y0312795D01*
X0080887Y0312525D01*
X0080388Y0312027D01*
X0080191Y0311551D01*
X0079903Y0310878D01*
X0079154Y0310878D01*
X0078865Y0311551D01*
X0078668Y0312027D01*
X0078169Y0312525D01*
X0077518Y0312795D01*
X0076813Y0312795D01*
X0076162Y0312525D01*
X0075664Y0312027D01*
X0075394Y0311376D01*
X0075394Y0310986D01*
X0075156Y0310827D01*
X0074451Y0310827D01*
X0074213Y0310986D01*
X0074213Y0311376D01*
X0073943Y0312027D01*
X0073445Y0312525D01*
X0072794Y0312795D01*
X0072089Y0312795D01*
X0071438Y0312525D01*
X0070940Y0312027D01*
X0070670Y0311376D01*
X0070670Y0310986D01*
X0070432Y0310827D01*
X0069727Y0310827D01*
X0069489Y0310986D01*
X0069489Y0311376D01*
X0069219Y0312027D01*
X0068721Y0312525D01*
X0068069Y0312795D01*
X0067365Y0312795D01*
X0066713Y0312525D01*
X0066215Y0312027D01*
X0065945Y0311376D01*
X0065945Y0310986D01*
X0065707Y0310827D01*
X0065002Y0310827D01*
X0064764Y0310986D01*
X0064764Y0311376D01*
X0064494Y0312027D01*
X0063996Y0312525D01*
X0063345Y0312795D01*
X0062640Y0312795D01*
X0061989Y0312525D01*
X0061491Y0312027D01*
X0061221Y0311376D01*
X0061221Y0310986D01*
X0060983Y0310827D01*
X0060278Y0310827D01*
X0060040Y0310986D01*
X0060040Y0311376D01*
X0059770Y0312027D01*
X0059272Y0312525D01*
X0058621Y0312795D01*
X0057916Y0312795D01*
X0057265Y0312525D01*
X0056766Y0312027D01*
X0056497Y0311376D01*
X0056497Y0310986D01*
X0056258Y0310827D01*
X0055554Y0310827D01*
X0055315Y0310986D01*
X0055315Y0311376D01*
X0055046Y0312027D01*
X0054547Y0312525D01*
X0053896Y0312795D01*
X0053191Y0312795D01*
X0052540Y0312525D01*
X0052042Y0312027D01*
X0051772Y0311376D01*
X0051488Y0311160D01*
X0050592Y0311379D01*
X0050519Y0311551D01*
X0050321Y0312027D01*
X0049823Y0312525D01*
X0049172Y0312795D01*
X0048467Y0312795D01*
X0047816Y0312525D01*
X0047317Y0312027D01*
X0047120Y0311551D01*
X0046876Y0310982D01*
X0046635Y0310939D01*
X0045867Y0311376D01*
X0045597Y0312027D01*
X0045099Y0312525D01*
X0044447Y0312795D01*
X0043742Y0312795D01*
X0043091Y0312525D01*
X0042593Y0312027D01*
X0042323Y0311376D01*
X0042323Y0310986D01*
X0042085Y0310827D01*
X0041380Y0310827D01*
X0041142Y0310986D01*
X0041142Y0311376D01*
X0040872Y0312027D01*
X0040374Y0312525D01*
X0039723Y0312795D01*
X0039018Y0312795D01*
X0038367Y0312525D01*
X0037869Y0312027D01*
X0037599Y0311376D01*
X0037599Y0310671D01*
X0037869Y0310020D01*
X0038367Y0309522D01*
X0039018Y0309252D01*
X0039723Y0309252D01*
X0039764Y0309224D01*
X0039764Y0307874D01*
X0034565Y0307874D01*
X0034038Y0308662D01*
X0034056Y0308703D01*
X0034056Y0309408D01*
X0033786Y0310059D01*
X0033288Y0310557D01*
X0032636Y0310827D01*
X0031931Y0310827D01*
X0031280Y0310557D01*
X0030782Y0310059D01*
X0030512Y0309408D01*
X0030512Y0309104D01*
X0029837Y0308517D01*
X0029785Y0308502D01*
X0029528Y0308580D01*
X0029528Y0316617D01*
X0030315Y0317143D01*
X0030357Y0317126D01*
X0031062Y0317126D01*
X0031713Y0317396D01*
X0032211Y0317894D01*
X0032481Y0318545D01*
X0032481Y0319250D01*
X0032211Y0319901D01*
X0031713Y0320400D01*
X0031615Y0320440D01*
X0031615Y0321292D01*
X0031713Y0321333D01*
X0032211Y0321831D01*
X0032481Y0322482D01*
X0032481Y0323187D01*
X0032211Y0323838D01*
X0031713Y0324337D01*
X0031062Y0324606D01*
X0030357Y0324606D01*
X0030315Y0324589D01*
X0029528Y0325115D01*
X0029528Y0345751D01*
X0030315Y0346277D01*
X0030357Y0346260D01*
X0031062Y0346260D01*
X0031713Y0346530D01*
X0032211Y0347028D01*
X0032481Y0347679D01*
X0032481Y0348384D01*
X0032211Y0349035D01*
X0031713Y0349533D01*
X0031062Y0349803D01*
X0030357Y0349803D01*
X0030315Y0349786D01*
X0029528Y0350312D01*
X0029528Y0361756D01*
X0030315Y0361913D01*
X0030487Y0361499D01*
X0030985Y0361001D01*
X0031636Y0360731D01*
X0032341Y0360731D01*
X0032992Y0361001D01*
X0033491Y0361499D01*
X0033760Y0362150D01*
X0033760Y0362855D01*
X0033491Y0363506D01*
X0032992Y0364004D01*
X0032341Y0364274D01*
X0031636Y0364274D01*
X0030985Y0364004D01*
X0030487Y0363506D01*
X0030315Y0363093D01*
X0029528Y0363249D01*
X0029528Y0369373D01*
X0030315Y0369899D01*
X0030357Y0369882D01*
X0031062Y0369882D01*
X0031713Y0370152D01*
X0032211Y0370650D01*
X0032481Y0371301D01*
X0032481Y0372006D01*
X0032211Y0372657D01*
X0031713Y0373155D01*
X0031615Y0373196D01*
X0031615Y0374048D01*
X0031713Y0374089D01*
X0032211Y0374587D01*
X0032481Y0375238D01*
X0032481Y0375943D01*
X0032211Y0376594D01*
X0031713Y0377092D01*
X0031615Y0377133D01*
X0031615Y0377985D01*
X0031713Y0378026D01*
X0032211Y0378524D01*
X0032481Y0379175D01*
X0032481Y0379880D01*
X0032211Y0380531D01*
X0031713Y0381029D01*
X0031615Y0381070D01*
X0031615Y0381922D01*
X0031713Y0381963D01*
X0032211Y0382461D01*
X0032481Y0383112D01*
X0032481Y0383817D01*
X0032211Y0384468D01*
X0031713Y0384966D01*
X0031615Y0385007D01*
X0031615Y0385859D01*
X0031713Y0385900D01*
X0032211Y0386398D01*
X0032481Y0387049D01*
X0032481Y0387754D01*
X0032211Y0388405D01*
X0031713Y0388903D01*
X0031615Y0388944D01*
X0031615Y0389796D01*
X0031713Y0389837D01*
X0032211Y0390335D01*
X0032481Y0390986D01*
X0032481Y0391691D01*
X0032211Y0392342D01*
X0031713Y0392840D01*
X0031615Y0392881D01*
X0031615Y0393733D01*
X0031713Y0393774D01*
X0032211Y0394272D01*
X0032481Y0394923D01*
X0032481Y0395628D01*
X0032211Y0396279D01*
X0031713Y0396777D01*
X0031615Y0396818D01*
X0031615Y0397670D01*
X0031713Y0397711D01*
X0032211Y0398209D01*
X0032481Y0398860D01*
X0032481Y0399565D01*
X0032211Y0400216D01*
X0031713Y0400714D01*
X0031615Y0400755D01*
X0031615Y0401607D01*
X0031713Y0401648D01*
X0032211Y0402146D01*
X0032481Y0402797D01*
X0032481Y0403502D01*
X0032211Y0404153D01*
X0031713Y0404651D01*
X0031615Y0404692D01*
X0031615Y0405544D01*
X0031713Y0405585D01*
X0032211Y0406083D01*
X0032481Y0406734D01*
X0032481Y0407439D01*
X0032211Y0408090D01*
X0031713Y0408589D01*
X0031615Y0408629D01*
X0031615Y0409481D01*
X0031713Y0409522D01*
X0032211Y0410020D01*
X0032481Y0410671D01*
X0032481Y0411376D01*
X0032211Y0412027D01*
X0031713Y0412525D01*
X0031615Y0412566D01*
X0031615Y0413418D01*
X0031713Y0413459D01*
X0032211Y0413957D01*
X0032481Y0414608D01*
X0032481Y0415313D01*
X0032211Y0415964D01*
X0031713Y0416463D01*
X0031615Y0416503D01*
X0031615Y0417355D01*
X0031713Y0417396D01*
X0032211Y0417894D01*
X0032481Y0418545D01*
X0032481Y0419250D01*
X0032211Y0419901D01*
X0031713Y0420399D01*
X0031615Y0420440D01*
X0031615Y0421292D01*
X0031713Y0421333D01*
X0032211Y0421831D01*
X0032481Y0422482D01*
X0032481Y0423187D01*
X0032211Y0423838D01*
X0031713Y0424337D01*
X0031615Y0424377D01*
X0031615Y0425229D01*
X0031713Y0425270D01*
X0032211Y0425768D01*
X0032432Y0426300D01*
X0032854Y0426399D01*
X0033251Y0426379D01*
X0033341Y0426162D01*
X0033839Y0425663D01*
X0034491Y0425394D01*
X0035195Y0425394D01*
X0035846Y0425663D01*
X0036345Y0426162D01*
X0036615Y0426813D01*
X0036615Y0427518D01*
X0036345Y0428169D01*
X0035846Y0428667D01*
X0035195Y0428937D01*
X0034491Y0428937D01*
X0033839Y0428667D01*
X0033341Y0428169D01*
X0033121Y0427637D01*
X0032698Y0427538D01*
X0032301Y0427559D01*
X0032211Y0427775D01*
X0031713Y0428273D01*
X0031062Y0428543D01*
X0030357Y0428543D01*
X0030315Y0428526D01*
X0029528Y0429052D01*
X0029528Y0461572D01*
X0030315Y0462112D01*
X0030549Y0462022D01*
X0030553Y0462008D01*
X0030512Y0461858D01*
X0030512Y0460977D01*
X0030740Y0460126D01*
X0031181Y0459363D01*
X0031804Y0458739D01*
X0032567Y0458299D01*
X0033418Y0458071D01*
X0034299Y0458071D01*
X0035150Y0458299D01*
X0035373Y0458427D01*
X0035900Y0458248D01*
X0036398Y0457750D01*
X0037050Y0457480D01*
X0037754Y0457480D01*
X0038406Y0457750D01*
X0038904Y0458248D01*
X0039174Y0458899D01*
X0039174Y0459604D01*
X0038904Y0460256D01*
X0038406Y0460754D01*
X0037754Y0461024D01*
X0037205Y0461024D01*
X0037205Y0461858D01*
X0036977Y0462709D01*
X0036537Y0463472D01*
X0035913Y0464095D01*
X0035150Y0464536D01*
X0034299Y0464764D01*
X0033418Y0464764D01*
X0033268Y0464724D01*
X0033254Y0464727D01*
X0033164Y0464961D01*
X0033704Y0465748D01*
X0052051Y0465748D01*
X0052577Y0464961D01*
X0052559Y0464919D01*
X0052559Y0464215D01*
X0052829Y0463563D01*
X0053328Y0463065D01*
X0053979Y0462795D01*
X0054684Y0462795D01*
X0055335Y0463065D01*
X0055392Y0463122D01*
X0055906Y0463509D01*
X0056420Y0463122D01*
X0056477Y0463065D01*
X0057128Y0462795D01*
X0057833Y0462795D01*
X0058484Y0463065D01*
X0058541Y0463122D01*
X0059056Y0463509D01*
X0059570Y0463122D01*
X0059627Y0463065D01*
X0060278Y0462795D01*
X0060983Y0462795D01*
X0061634Y0463065D01*
X0061754Y0463037D01*
X0062342Y0462201D01*
X0062342Y0461429D01*
X0062542Y0460682D01*
X0062928Y0460013D01*
X0063474Y0459467D01*
X0064143Y0459081D01*
X0064890Y0458881D01*
X0065662Y0458881D01*
X0066409Y0459081D01*
X0067078Y0459467D01*
X0067624Y0460013D01*
X0068010Y0460682D01*
X0068210Y0461429D01*
X0068210Y0462201D01*
X0068010Y0462947D01*
X0067624Y0463617D01*
X0067078Y0464163D01*
X0066409Y0464549D01*
X0065662Y0464749D01*
X0064890Y0464749D01*
X0064143Y0464549D01*
X0063474Y0464163D01*
X0063062Y0463751D01*
X0062395Y0464197D01*
X0062402Y0464215D01*
X0062402Y0464919D01*
X0062385Y0464961D01*
X0062911Y0465748D01*
X0089058Y0465748D01*
X0089585Y0464961D01*
X0089567Y0464919D01*
X0089567Y0464215D01*
X0089837Y0463563D01*
X0090336Y0463065D01*
X0090987Y0462795D01*
X0091692Y0462795D01*
X0092343Y0463065D01*
X0092399Y0463122D01*
X0092914Y0463509D01*
X0093428Y0463122D01*
X0093485Y0463065D01*
X0094136Y0462795D01*
X0094841Y0462795D01*
X0095492Y0463065D01*
X0095549Y0463122D01*
X0096064Y0463509D01*
X0096578Y0463122D01*
X0096635Y0463065D01*
X0097286Y0462795D01*
X0097447Y0462553D01*
X0097441Y0462539D01*
X0097441Y0461834D01*
X0097711Y0461183D01*
X0098210Y0460684D01*
X0098861Y0460415D01*
X0099566Y0460415D01*
X0100217Y0460684D01*
X0100715Y0461183D01*
X0100985Y0461834D01*
X0100985Y0462539D01*
X0101582Y0462978D01*
X0101791Y0463065D01*
X0101848Y0463122D01*
X0102363Y0463509D01*
X0102877Y0463122D01*
X0102934Y0463065D01*
X0103585Y0462795D01*
X0104290Y0462795D01*
X0104941Y0463065D01*
X0105439Y0463563D01*
X0105709Y0464215D01*
X0105709Y0464919D01*
X0105692Y0464961D01*
X0106218Y0465748D01*
X0112565Y0465748D01*
X0112721Y0464961D01*
X0112308Y0464789D01*
X0111809Y0464291D01*
X0111553Y0464240D01*
X0111428Y0464365D01*
X0110776Y0464635D01*
X0110072Y0464635D01*
X0109421Y0464365D01*
X0108922Y0463867D01*
X0108652Y0463215D01*
X0108652Y0462511D01*
X0108922Y0461860D01*
X0109421Y0461361D01*
X0110072Y0461091D01*
X0110776Y0461091D01*
X0111428Y0461361D01*
X0111926Y0461860D01*
X0112183Y0461910D01*
X0112308Y0461785D01*
X0112959Y0461516D01*
X0113664Y0461516D01*
X0114315Y0461785D01*
X0114813Y0462284D01*
X0115083Y0462935D01*
X0115083Y0463640D01*
X0114813Y0464291D01*
X0114315Y0464789D01*
X0113901Y0464961D01*
X0114058Y0465748D01*
X0119273Y0465748D01*
X0119281Y0464964D01*
X0119213Y0464936D01*
X0118630Y0464694D01*
X0118131Y0464196D01*
X0117862Y0463545D01*
X0117862Y0462840D01*
X0118131Y0462189D01*
X0118630Y0461690D01*
X0119281Y0461421D01*
X0119986Y0461421D01*
X0120637Y0461690D01*
X0121135Y0462189D01*
X0121405Y0462840D01*
X0121405Y0463545D01*
X0121135Y0464196D01*
X0120637Y0464694D01*
X0120054Y0464936D01*
X0119986Y0464964D01*
X0119994Y0465748D01*
X0123310Y0465748D01*
X0123837Y0464961D01*
D02*
G37*
%LPC*%
G36*
X0083030Y0462795D02*
X0082325Y0462795D01*
X0081674Y0462526D01*
X0081176Y0462027D01*
X0080906Y0461376D01*
X0080906Y0460671D01*
X0081176Y0460020D01*
X0081674Y0459522D01*
X0081908Y0459425D01*
X0082342Y0459098D01*
X0082412Y0458465D01*
X0082342Y0458201D01*
X0082342Y0457429D01*
X0082542Y0456682D01*
X0082928Y0456013D01*
X0083474Y0455467D01*
X0084143Y0455081D01*
X0084890Y0454881D01*
X0085662Y0454881D01*
X0086409Y0455081D01*
X0087078Y0455467D01*
X0087624Y0456013D01*
X0088010Y0456682D01*
X0088210Y0457429D01*
X0088210Y0458201D01*
X0088010Y0458948D01*
X0087624Y0459617D01*
X0087078Y0460163D01*
X0086409Y0460549D01*
X0085662Y0460749D01*
X0085177Y0460749D01*
X0084890Y0460749D01*
X0084449Y0461376D01*
X0084179Y0462027D01*
X0083681Y0462526D01*
X0083030Y0462795D01*
D02*
G37*
G36*
X0091888Y0458405D02*
X0091183Y0458405D01*
X0090532Y0458136D01*
X0090034Y0457637D01*
X0089764Y0456986D01*
X0089764Y0456281D01*
X0090034Y0455630D01*
X0090532Y0455132D01*
X0091183Y0454862D01*
X0091888Y0454862D01*
X0092539Y0455132D01*
X0093038Y0455630D01*
X0093307Y0456281D01*
X0093307Y0456986D01*
X0093038Y0457637D01*
X0092539Y0458136D01*
X0091888Y0458405D01*
D02*
G37*
G36*
X0055368Y0457583D02*
X0054664Y0457583D01*
X0054013Y0457313D01*
X0053514Y0456815D01*
X0053245Y0456164D01*
X0053245Y0455459D01*
X0053514Y0454807D01*
X0054013Y0454309D01*
X0054664Y0454039D01*
X0055368Y0454039D01*
X0056020Y0454309D01*
X0056518Y0454807D01*
X0056788Y0455459D01*
X0056788Y0456164D01*
X0056518Y0456815D01*
X0056020Y0457313D01*
X0055368Y0457583D01*
D02*
G37*
G36*
X0143546Y0457170D02*
X0142842Y0457170D01*
X0142190Y0456900D01*
X0141692Y0456402D01*
X0141422Y0455751D01*
X0141422Y0455046D01*
X0141692Y0454395D01*
X0142190Y0453896D01*
X0142842Y0453627D01*
X0143546Y0453627D01*
X0144198Y0453896D01*
X0144696Y0454395D01*
X0144966Y0455046D01*
X0144966Y0455751D01*
X0144696Y0456402D01*
X0144198Y0456900D01*
X0143546Y0457170D01*
D02*
G37*
G36*
X0135292Y0456513D02*
X0134587Y0456513D01*
X0133936Y0456243D01*
X0133438Y0455745D01*
X0133168Y0455093D01*
X0133168Y0454389D01*
X0133438Y0453737D01*
X0133936Y0453239D01*
X0134587Y0452969D01*
X0135292Y0452969D01*
X0135943Y0453239D01*
X0136441Y0453737D01*
X0136711Y0454389D01*
X0136711Y0455093D01*
X0136441Y0455745D01*
X0135943Y0456243D01*
X0135292Y0456513D01*
D02*
G37*
G36*
X0104192Y0456496D02*
X0103488Y0456496D01*
X0102836Y0456226D01*
X0102338Y0455728D01*
X0102068Y0455077D01*
X0102068Y0454372D01*
X0102338Y0453721D01*
X0102836Y0453223D01*
X0103488Y0452953D01*
X0104192Y0452953D01*
X0104844Y0453223D01*
X0105217Y0453596D01*
X0105689Y0453124D01*
X0106340Y0452854D01*
X0107045Y0452854D01*
X0107696Y0453124D01*
X0108195Y0453622D01*
X0108464Y0454274D01*
X0108464Y0454978D01*
X0108195Y0455630D01*
X0107696Y0456128D01*
X0107045Y0456398D01*
X0106340Y0456398D01*
X0105689Y0456128D01*
X0105316Y0455754D01*
X0104844Y0456226D01*
X0104192Y0456496D01*
D02*
G37*
G36*
X0172023Y0457381D02*
X0171318Y0457381D01*
X0170667Y0457112D01*
X0170168Y0456613D01*
X0169899Y0455962D01*
X0169899Y0455257D01*
X0170168Y0454606D01*
X0170667Y0454108D01*
X0171318Y0453838D01*
X0172023Y0453838D01*
X0172680Y0454005D01*
X0172950Y0453353D01*
X0173448Y0452855D01*
X0174100Y0452585D01*
X0174804Y0452585D01*
X0175456Y0452855D01*
X0175954Y0453353D01*
X0176224Y0454005D01*
X0176224Y0454709D01*
X0175954Y0455361D01*
X0175456Y0455859D01*
X0174804Y0456129D01*
X0174100Y0456129D01*
X0173442Y0455962D01*
X0173172Y0456613D01*
X0172674Y0457112D01*
X0172023Y0457381D01*
D02*
G37*
G36*
X0116101Y0456102D02*
X0115396Y0456102D01*
X0114745Y0455833D01*
X0114247Y0455334D01*
X0113977Y0454683D01*
X0113977Y0453978D01*
X0114247Y0453327D01*
X0114745Y0452829D01*
X0115396Y0452559D01*
X0116101Y0452559D01*
X0116752Y0452829D01*
X0117250Y0453327D01*
X0117520Y0453978D01*
X0117520Y0454683D01*
X0117250Y0455334D01*
X0116752Y0455833D01*
X0116101Y0456102D01*
D02*
G37*
G36*
X0162558Y0456496D02*
X0161853Y0456496D01*
X0161202Y0456226D01*
X0160703Y0455728D01*
X0159802Y0455315D01*
X0159097Y0455315D01*
X0158446Y0455045D01*
X0157947Y0454547D01*
X0157678Y0453896D01*
X0157678Y0453191D01*
X0157947Y0452540D01*
X0158446Y0452041D01*
X0159097Y0451772D01*
X0159802Y0451772D01*
X0160453Y0452041D01*
X0160951Y0452540D01*
X0161853Y0452953D01*
X0162558Y0452953D01*
X0163209Y0453223D01*
X0163707Y0453721D01*
X0163977Y0454372D01*
X0163977Y0455077D01*
X0163707Y0455728D01*
X0163209Y0456226D01*
X0162558Y0456496D01*
D02*
G37*
G36*
X0062775Y0458552D02*
X0062070Y0458552D01*
X0061419Y0458282D01*
X0060921Y0457784D01*
X0060651Y0457133D01*
X0060651Y0456428D01*
X0060921Y0455777D01*
X0061419Y0455278D01*
X0061829Y0455108D01*
X0062070Y0455009D01*
X0062347Y0454221D01*
X0062342Y0454201D01*
X0062342Y0453429D01*
X0062522Y0452756D01*
X0062519Y0452635D01*
X0062133Y0451815D01*
X0061853Y0451699D01*
X0061354Y0451200D01*
X0061085Y0450549D01*
X0061085Y0450228D01*
X0060297Y0449976D01*
X0059977Y0450295D01*
X0059326Y0450565D01*
X0058621Y0450565D01*
X0057970Y0450295D01*
X0057472Y0449797D01*
X0057202Y0449146D01*
X0057202Y0448441D01*
X0057472Y0447790D01*
X0057850Y0447412D01*
X0057970Y0447292D01*
X0057621Y0446645D01*
X0057549Y0446652D01*
X0057538Y0446653D01*
X0057486Y0446653D01*
X0056833Y0446653D01*
X0056182Y0446384D01*
X0055683Y0445885D01*
X0055414Y0445234D01*
X0055414Y0444529D01*
X0055683Y0443878D01*
X0056182Y0443380D01*
X0056833Y0443110D01*
X0057538Y0443110D01*
X0058189Y0443380D01*
X0058255Y0443446D01*
X0058901Y0443724D01*
X0059283Y0443446D01*
X0059472Y0443257D01*
X0060123Y0442987D01*
X0060828Y0442987D01*
X0061479Y0443257D01*
X0061978Y0443755D01*
X0062247Y0444406D01*
X0062247Y0445111D01*
X0061978Y0445762D01*
X0061479Y0446261D01*
X0060828Y0446530D01*
X0060305Y0446530D01*
X0060123Y0446530D01*
X0059905Y0447227D01*
X0059970Y0447285D01*
X0059977Y0447292D01*
X0060016Y0447330D01*
X0060476Y0447790D01*
X0060746Y0448441D01*
X0060746Y0448763D01*
X0061533Y0449015D01*
X0061853Y0448695D01*
X0062504Y0448425D01*
X0063209Y0448425D01*
X0063860Y0448695D01*
X0064358Y0449193D01*
X0064628Y0449845D01*
X0064628Y0450136D01*
X0064802Y0450630D01*
X0065343Y0450881D01*
X0065662Y0450881D01*
X0066409Y0451081D01*
X0067078Y0451467D01*
X0067624Y0452013D01*
X0067916Y0452519D01*
X0068461Y0452575D01*
X0068776Y0452499D01*
X0068874Y0452264D01*
X0069372Y0451766D01*
X0070023Y0451496D01*
X0070728Y0451496D01*
X0071379Y0451766D01*
X0071878Y0452264D01*
X0072147Y0452915D01*
X0072147Y0453620D01*
X0071878Y0454271D01*
X0071379Y0454770D01*
X0070728Y0455039D01*
X0070023Y0455039D01*
X0069372Y0454770D01*
X0068965Y0454363D01*
X0068489Y0454400D01*
X0068125Y0454521D01*
X0068010Y0454947D01*
X0067624Y0455617D01*
X0067078Y0456163D01*
X0066409Y0456549D01*
X0065662Y0456749D01*
X0064890Y0456749D01*
X0064745Y0456710D01*
X0064194Y0457133D01*
X0063924Y0457784D01*
X0063426Y0458282D01*
X0062775Y0458552D01*
D02*
G37*
G36*
X0077443Y0456595D02*
X0076738Y0456595D01*
X0076087Y0456325D01*
X0075589Y0455826D01*
X0075319Y0455175D01*
X0075319Y0454470D01*
X0075589Y0453819D01*
X0076087Y0453321D01*
X0076421Y0453183D01*
X0076495Y0453027D01*
X0076590Y0452324D01*
X0076254Y0451988D01*
X0075996Y0451365D01*
X0075430Y0451600D01*
X0074725Y0451600D01*
X0074074Y0451330D01*
X0073575Y0450831D01*
X0073305Y0450180D01*
X0072529Y0449981D01*
X0071824Y0449981D01*
X0071173Y0449712D01*
X0071152Y0449691D01*
X0070181Y0449583D01*
X0069530Y0449852D01*
X0068825Y0449852D01*
X0068174Y0449583D01*
X0067675Y0449084D01*
X0067406Y0448433D01*
X0067406Y0447728D01*
X0067675Y0447077D01*
X0068174Y0446579D01*
X0068825Y0446309D01*
X0069530Y0446309D01*
X0070181Y0446579D01*
X0070679Y0447077D01*
X0070783Y0447098D01*
X0071173Y0446708D01*
X0071824Y0446438D01*
X0072529Y0446438D01*
X0073180Y0446708D01*
X0073679Y0447206D01*
X0073948Y0447857D01*
X0074725Y0448056D01*
X0075430Y0448056D01*
X0076081Y0448326D01*
X0076579Y0448824D01*
X0076837Y0449447D01*
X0077404Y0449213D01*
X0078109Y0449213D01*
X0078760Y0449482D01*
X0079258Y0449981D01*
X0079528Y0450632D01*
X0079528Y0451337D01*
X0079258Y0451988D01*
X0078760Y0452486D01*
X0078426Y0452624D01*
X0078352Y0452780D01*
X0078257Y0453483D01*
X0078593Y0453819D01*
X0078862Y0454470D01*
X0078862Y0455175D01*
X0078593Y0455826D01*
X0078094Y0456325D01*
X0077443Y0456595D01*
D02*
G37*
G36*
X0122400Y0453346D02*
X0121695Y0453346D01*
X0121044Y0453077D01*
X0120546Y0452578D01*
X0120276Y0451927D01*
X0120276Y0451222D01*
X0120546Y0450571D01*
X0121044Y0450073D01*
X0121695Y0449803D01*
X0122400Y0449803D01*
X0123051Y0450073D01*
X0123550Y0450571D01*
X0123819Y0451222D01*
X0123819Y0451927D01*
X0123550Y0452578D01*
X0123051Y0453077D01*
X0122400Y0453346D01*
D02*
G37*
G36*
X0096416Y0452559D02*
X0095711Y0452559D01*
X0095060Y0452289D01*
X0094562Y0451791D01*
X0094292Y0451140D01*
X0094292Y0450435D01*
X0094562Y0449784D01*
X0095060Y0449285D01*
X0095711Y0449016D01*
X0096416Y0449016D01*
X0097067Y0449285D01*
X0097565Y0449784D01*
X0097835Y0450435D01*
X0097835Y0451140D01*
X0097565Y0451791D01*
X0097067Y0452289D01*
X0096416Y0452559D01*
D02*
G37*
G36*
X0118460Y0451309D02*
X0117755Y0451309D01*
X0117104Y0451040D01*
X0116606Y0450541D01*
X0116336Y0449890D01*
X0116336Y0449185D01*
X0116606Y0448534D01*
X0117104Y0448036D01*
X0117755Y0447766D01*
X0118460Y0447766D01*
X0119111Y0448036D01*
X0119610Y0448534D01*
X0119879Y0449185D01*
X0119879Y0449890D01*
X0119610Y0450541D01*
X0119111Y0451040D01*
X0118460Y0451309D01*
D02*
G37*
G36*
X0177488Y0449428D02*
X0176783Y0449428D01*
X0176132Y0449158D01*
X0175634Y0448660D01*
X0175364Y0448009D01*
X0175364Y0447304D01*
X0175634Y0446653D01*
X0176132Y0446154D01*
X0176783Y0445885D01*
X0177488Y0445885D01*
X0178139Y0446154D01*
X0178637Y0446653D01*
X0178907Y0447304D01*
X0178907Y0448009D01*
X0178637Y0448660D01*
X0178139Y0449158D01*
X0177488Y0449428D01*
D02*
G37*
G36*
X0144088Y0450776D02*
X0143383Y0450776D01*
X0142732Y0450506D01*
X0142234Y0450008D01*
X0141964Y0449357D01*
X0141964Y0448652D01*
X0142234Y0448001D01*
X0142732Y0447503D01*
X0143383Y0447233D01*
X0144088Y0447233D01*
X0144628Y0447456D01*
X0144737Y0447426D01*
X0145035Y0447264D01*
X0145355Y0447005D01*
X0145355Y0446547D01*
X0145625Y0445896D01*
X0146123Y0445398D01*
X0146774Y0445128D01*
X0147479Y0445128D01*
X0148130Y0445398D01*
X0148629Y0445896D01*
X0148898Y0446547D01*
X0148898Y0447252D01*
X0148629Y0447903D01*
X0148130Y0448401D01*
X0147479Y0448671D01*
X0146774Y0448671D01*
X0146235Y0448448D01*
X0146126Y0448478D01*
X0145828Y0448640D01*
X0145507Y0448899D01*
X0145507Y0449357D01*
X0145237Y0450008D01*
X0144739Y0450506D01*
X0144088Y0450776D01*
D02*
G37*
G36*
X0052605Y0448646D02*
X0051900Y0448646D01*
X0051249Y0448376D01*
X0050751Y0447878D01*
X0050481Y0447227D01*
X0050481Y0446522D01*
X0050751Y0445871D01*
X0051249Y0445373D01*
X0051900Y0445103D01*
X0052605Y0445103D01*
X0053256Y0445373D01*
X0053755Y0445871D01*
X0054024Y0446522D01*
X0054024Y0447227D01*
X0053755Y0447878D01*
X0053256Y0448376D01*
X0052605Y0448646D01*
D02*
G37*
G36*
X0043967Y0446625D02*
X0043262Y0446625D01*
X0042611Y0446355D01*
X0042113Y0445857D01*
X0041843Y0445206D01*
X0041843Y0445030D01*
X0041056Y0444873D01*
X0041026Y0444945D01*
X0040528Y0445443D01*
X0039877Y0445713D01*
X0039172Y0445713D01*
X0038520Y0445443D01*
X0038022Y0444945D01*
X0037752Y0444293D01*
X0037752Y0443589D01*
X0038022Y0442938D01*
X0038520Y0442439D01*
X0039172Y0442169D01*
X0039877Y0442169D01*
X0040528Y0442439D01*
X0041026Y0442938D01*
X0041296Y0443589D01*
X0041296Y0443764D01*
X0042083Y0443921D01*
X0042113Y0443850D01*
X0042611Y0443351D01*
X0043262Y0443081D01*
X0043967Y0443081D01*
X0044618Y0443351D01*
X0045117Y0443850D01*
X0045386Y0444501D01*
X0045386Y0445206D01*
X0045117Y0445857D01*
X0044618Y0446355D01*
X0043967Y0446625D01*
D02*
G37*
G36*
X0164052Y0449705D02*
X0163347Y0449705D01*
X0162696Y0449435D01*
X0162197Y0448937D01*
X0161928Y0448285D01*
X0161928Y0447581D01*
X0162197Y0446930D01*
X0162696Y0446431D01*
X0163347Y0446161D01*
X0164052Y0446161D01*
X0164605Y0445538D01*
X0164640Y0445453D01*
X0165139Y0444955D01*
X0165790Y0444685D01*
X0166495Y0444685D01*
X0167146Y0444955D01*
X0167644Y0445453D01*
X0167914Y0446104D01*
X0167914Y0446809D01*
X0167644Y0447460D01*
X0167146Y0447959D01*
X0166495Y0448228D01*
X0165790Y0448228D01*
X0165236Y0448852D01*
X0165201Y0448937D01*
X0164703Y0449435D01*
X0164052Y0449705D01*
D02*
G37*
G36*
X0085266Y0449605D02*
X0084561Y0449605D01*
X0083910Y0449335D01*
X0083411Y0448837D01*
X0083142Y0448186D01*
X0083142Y0447481D01*
X0083161Y0447433D01*
X0083161Y0446581D01*
X0082663Y0446082D01*
X0082393Y0445431D01*
X0082393Y0444726D01*
X0082663Y0444075D01*
X0083161Y0443577D01*
X0083812Y0443307D01*
X0084517Y0443307D01*
X0085168Y0443577D01*
X0085667Y0444075D01*
X0085937Y0444726D01*
X0085937Y0445431D01*
X0085917Y0445479D01*
X0085917Y0446331D01*
X0086415Y0446830D01*
X0086685Y0447481D01*
X0086685Y0448186D01*
X0086415Y0448837D01*
X0085917Y0449335D01*
X0085266Y0449605D01*
D02*
G37*
G36*
X0095846Y0444800D02*
X0095142Y0444800D01*
X0094490Y0444531D01*
X0093992Y0444032D01*
X0093722Y0443381D01*
X0093722Y0442676D01*
X0093992Y0442025D01*
X0094490Y0441527D01*
X0095142Y0441257D01*
X0095846Y0441257D01*
X0096498Y0441527D01*
X0096996Y0442025D01*
X0097266Y0442676D01*
X0097266Y0443381D01*
X0096996Y0444032D01*
X0096498Y0444531D01*
X0095846Y0444800D01*
D02*
G37*
G36*
X0127125Y0443898D02*
X0126420Y0443898D01*
X0125769Y0443628D01*
X0125270Y0443130D01*
X0125001Y0442478D01*
X0125001Y0441774D01*
X0125270Y0441122D01*
X0125769Y0440624D01*
X0126420Y0440354D01*
X0127125Y0440354D01*
X0127776Y0440624D01*
X0128274Y0441122D01*
X0128544Y0441774D01*
X0128544Y0442478D01*
X0128274Y0443130D01*
X0127776Y0443628D01*
X0127125Y0443898D01*
D02*
G37*
G36*
X0087764Y0443538D02*
X0087059Y0443538D01*
X0086408Y0443268D01*
X0085909Y0442770D01*
X0085639Y0442119D01*
X0085639Y0441414D01*
X0085909Y0440763D01*
X0086408Y0440264D01*
X0087059Y0439995D01*
X0087764Y0439995D01*
X0088415Y0440264D01*
X0088913Y0440763D01*
X0089183Y0441414D01*
X0089183Y0442119D01*
X0088913Y0442770D01*
X0088415Y0443268D01*
X0087764Y0443538D01*
D02*
G37*
G36*
X0106258Y0443504D02*
X0105554Y0443504D01*
X0104902Y0443234D01*
X0104404Y0442736D01*
X0104134Y0442085D01*
X0104134Y0441380D01*
X0104404Y0440729D01*
X0104902Y0440230D01*
X0105554Y0439961D01*
X0106258Y0439961D01*
X0106909Y0440230D01*
X0107408Y0440729D01*
X0107678Y0441380D01*
X0107678Y0442085D01*
X0107408Y0442736D01*
X0106909Y0443234D01*
X0106258Y0443504D01*
D02*
G37*
G36*
X0183110Y0445276D02*
X0182405Y0445276D01*
X0181754Y0445006D01*
X0181256Y0444508D01*
X0180986Y0443856D01*
X0180986Y0443493D01*
X0180918Y0443447D01*
X0180213Y0443447D01*
X0179562Y0443178D01*
X0179064Y0442679D01*
X0178794Y0442028D01*
X0178794Y0441323D01*
X0179064Y0440672D01*
X0179562Y0440174D01*
X0180213Y0439904D01*
X0180918Y0439904D01*
X0181569Y0440174D01*
X0182068Y0440672D01*
X0182337Y0441323D01*
X0182337Y0441687D01*
X0182405Y0441732D01*
X0183110Y0441732D01*
X0183761Y0442002D01*
X0184260Y0442500D01*
X0184529Y0443151D01*
X0184529Y0443856D01*
X0184260Y0444508D01*
X0183761Y0445006D01*
X0183110Y0445276D01*
D02*
G37*
G36*
X0079998Y0438477D02*
X0079293Y0438477D01*
X0078642Y0438207D01*
X0078143Y0437709D01*
X0078069Y0437530D01*
X0077764Y0437450D01*
X0077182Y0437446D01*
X0076802Y0437826D01*
X0076151Y0438096D01*
X0075446Y0438096D01*
X0074795Y0437826D01*
X0074297Y0437328D01*
X0074027Y0436677D01*
X0074027Y0435972D01*
X0074297Y0435321D01*
X0074795Y0434822D01*
X0075446Y0434553D01*
X0076151Y0434553D01*
X0076802Y0434822D01*
X0077300Y0435321D01*
X0077375Y0435500D01*
X0077679Y0435580D01*
X0078262Y0435584D01*
X0078642Y0435204D01*
X0079293Y0434934D01*
X0079998Y0434934D01*
X0080649Y0435204D01*
X0081147Y0435702D01*
X0081417Y0436353D01*
X0081417Y0437058D01*
X0081147Y0437709D01*
X0080649Y0438207D01*
X0079998Y0438477D01*
D02*
G37*
G36*
X0072400Y0440748D02*
X0071695Y0440748D01*
X0071044Y0440478D01*
X0070546Y0439980D01*
X0070276Y0439329D01*
X0070276Y0438624D01*
X0070546Y0437973D01*
X0071044Y0437474D01*
X0071695Y0437205D01*
X0072400Y0437205D01*
X0073051Y0437474D01*
X0073550Y0437973D01*
X0073819Y0438624D01*
X0073819Y0439329D01*
X0073550Y0439980D01*
X0073051Y0440478D01*
X0072400Y0440748D01*
D02*
G37*
G36*
X0153453Y0441929D02*
X0152748Y0441929D01*
X0152097Y0441659D01*
X0151599Y0441161D01*
X0151329Y0440510D01*
X0151329Y0439805D01*
X0150613Y0439477D01*
X0150178Y0439297D01*
X0149680Y0438799D01*
X0149410Y0438148D01*
X0149410Y0437443D01*
X0149680Y0436792D01*
X0150178Y0436293D01*
X0150829Y0436024D01*
X0151534Y0436024D01*
X0152185Y0436293D01*
X0152683Y0436792D01*
X0152953Y0437443D01*
X0152953Y0438148D01*
X0153670Y0438476D01*
X0154104Y0438656D01*
X0154603Y0439154D01*
X0154873Y0439805D01*
X0154873Y0440510D01*
X0154603Y0441161D01*
X0154104Y0441659D01*
X0153453Y0441929D01*
D02*
G37*
G36*
X0050746Y0437598D02*
X0050042Y0437598D01*
X0049391Y0437329D01*
X0048892Y0436830D01*
X0048622Y0436179D01*
X0048622Y0435474D01*
X0048892Y0434823D01*
X0049391Y0434325D01*
X0050042Y0434055D01*
X0050746Y0434055D01*
X0051398Y0434325D01*
X0051896Y0434823D01*
X0052166Y0435474D01*
X0052166Y0436179D01*
X0051896Y0436830D01*
X0051398Y0437329D01*
X0050746Y0437598D01*
D02*
G37*
G36*
X0094531Y0440058D02*
X0093826Y0440058D01*
X0093175Y0439788D01*
X0092677Y0439290D01*
X0092407Y0438639D01*
X0092407Y0437934D01*
X0092677Y0437283D01*
X0093058Y0436901D01*
X0092593Y0436437D01*
X0092323Y0435785D01*
X0092323Y0435081D01*
X0092593Y0434430D01*
X0093091Y0433931D01*
X0093742Y0433661D01*
X0094447Y0433661D01*
X0095098Y0433931D01*
X0095597Y0434430D01*
X0095867Y0435081D01*
X0095867Y0435785D01*
X0095597Y0436437D01*
X0095216Y0436818D01*
X0095681Y0437283D01*
X0095950Y0437934D01*
X0095950Y0438639D01*
X0095681Y0439290D01*
X0095182Y0439788D01*
X0094531Y0440058D01*
D02*
G37*
G36*
X0042577Y0437194D02*
X0041872Y0437194D01*
X0041221Y0436924D01*
X0040723Y0436425D01*
X0040453Y0435774D01*
X0040453Y0435069D01*
X0040723Y0434418D01*
X0041221Y0433920D01*
X0041872Y0433650D01*
X0042577Y0433650D01*
X0043228Y0433920D01*
X0043727Y0434418D01*
X0043997Y0435069D01*
X0043997Y0435774D01*
X0043727Y0436425D01*
X0043228Y0436924D01*
X0042577Y0437194D01*
D02*
G37*
G36*
X0181408Y0436946D02*
X0180703Y0436946D01*
X0180052Y0436677D01*
X0179554Y0436178D01*
X0179284Y0435527D01*
X0179284Y0434822D01*
X0179554Y0434171D01*
X0180052Y0433673D01*
X0180703Y0433403D01*
X0181408Y0433403D01*
X0182060Y0433673D01*
X0182558Y0434171D01*
X0182828Y0434822D01*
X0182828Y0435527D01*
X0182558Y0436178D01*
X0182060Y0436677D01*
X0181408Y0436946D01*
D02*
G37*
G36*
X0134708Y0433809D02*
X0134003Y0433809D01*
X0133352Y0433539D01*
X0132854Y0433041D01*
X0132707Y0432685D01*
X0132550Y0432654D01*
X0131899Y0432924D01*
X0131194Y0432924D01*
X0130543Y0432654D01*
X0130044Y0432156D01*
X0129775Y0431505D01*
X0129775Y0430905D01*
X0129176Y0430905D01*
X0128525Y0430636D01*
X0128026Y0430137D01*
X0127756Y0429486D01*
X0127756Y0428781D01*
X0128026Y0428130D01*
X0128525Y0427632D01*
X0129176Y0427362D01*
X0129880Y0427362D01*
X0130532Y0427632D01*
X0131030Y0428130D01*
X0131300Y0428781D01*
X0131300Y0429381D01*
X0131899Y0429381D01*
X0132550Y0429650D01*
X0133048Y0430149D01*
X0133196Y0430504D01*
X0133352Y0430535D01*
X0134003Y0430266D01*
X0134708Y0430266D01*
X0135360Y0430535D01*
X0135858Y0431034D01*
X0136128Y0431685D01*
X0136128Y0432390D01*
X0135858Y0433041D01*
X0135360Y0433539D01*
X0134708Y0433809D01*
D02*
G37*
G36*
X0162164Y0434843D02*
X0161459Y0434843D01*
X0160808Y0434573D01*
X0160309Y0434074D01*
X0160040Y0433423D01*
X0160040Y0432719D01*
X0160309Y0432067D01*
X0160808Y0431569D01*
X0161459Y0431299D01*
X0162164Y0431299D01*
X0162815Y0431569D01*
X0163313Y0432067D01*
X0163583Y0432719D01*
X0163583Y0433423D01*
X0163313Y0434074D01*
X0162815Y0434573D01*
X0162164Y0434843D01*
D02*
G37*
G36*
X0086967Y0435630D02*
X0086262Y0435630D01*
X0085611Y0435360D01*
X0085113Y0434862D01*
X0084843Y0434211D01*
X0084843Y0433506D01*
X0085113Y0432855D01*
X0085536Y0432431D01*
X0085113Y0432008D01*
X0084843Y0431356D01*
X0084843Y0430652D01*
X0085113Y0430000D01*
X0085611Y0429502D01*
X0086262Y0429232D01*
X0086967Y0429232D01*
X0087618Y0429502D01*
X0088117Y0430000D01*
X0088386Y0430652D01*
X0088386Y0431356D01*
X0088117Y0432008D01*
X0087693Y0432431D01*
X0088117Y0432855D01*
X0088386Y0433506D01*
X0088386Y0434211D01*
X0088117Y0434862D01*
X0087618Y0435360D01*
X0086967Y0435630D01*
D02*
G37*
G36*
X0079763Y0432336D02*
X0079059Y0432336D01*
X0078408Y0432066D01*
X0077909Y0431568D01*
X0077640Y0430917D01*
X0077640Y0430212D01*
X0077909Y0429561D01*
X0078408Y0429062D01*
X0079059Y0428793D01*
X0079763Y0428793D01*
X0080415Y0429062D01*
X0080913Y0429561D01*
X0081183Y0430212D01*
X0081183Y0430917D01*
X0080913Y0431568D01*
X0080415Y0432066D01*
X0079763Y0432336D01*
D02*
G37*
G36*
X0070727Y0431242D02*
X0070022Y0431242D01*
X0069371Y0430973D01*
X0068872Y0430474D01*
X0068603Y0429823D01*
X0068603Y0429118D01*
X0068872Y0428467D01*
X0069371Y0427969D01*
X0070022Y0427699D01*
X0070727Y0427699D01*
X0071378Y0427969D01*
X0071876Y0428467D01*
X0072146Y0429118D01*
X0072146Y0429823D01*
X0071876Y0430474D01*
X0071378Y0430973D01*
X0070727Y0431242D01*
D02*
G37*
G36*
X0059310Y0435282D02*
X0058605Y0435282D01*
X0057954Y0435012D01*
X0057455Y0434513D01*
X0057185Y0433862D01*
X0057185Y0433158D01*
X0057455Y0432506D01*
X0057682Y0432279D01*
X0057908Y0431877D01*
X0057695Y0431263D01*
X0057554Y0431122D01*
X0057284Y0430471D01*
X0057284Y0429766D01*
X0057554Y0429114D01*
X0058052Y0428616D01*
X0058703Y0428346D01*
X0059408Y0428346D01*
X0060059Y0428616D01*
X0060434Y0428991D01*
X0061052Y0428853D01*
X0061230Y0428759D01*
X0061491Y0428130D01*
X0061989Y0427632D01*
X0062640Y0427362D01*
X0063345Y0427362D01*
X0063996Y0427632D01*
X0064494Y0428130D01*
X0064764Y0428781D01*
X0064764Y0429486D01*
X0064494Y0430137D01*
X0063996Y0430636D01*
X0063345Y0430905D01*
X0062640Y0430905D01*
X0061989Y0430636D01*
X0061615Y0430261D01*
X0060996Y0430399D01*
X0060818Y0430493D01*
X0060557Y0431122D01*
X0060330Y0431349D01*
X0060105Y0431751D01*
X0060318Y0432365D01*
X0060459Y0432506D01*
X0060729Y0433158D01*
X0060729Y0433862D01*
X0060459Y0434513D01*
X0059961Y0435012D01*
X0059310Y0435282D01*
D02*
G37*
G36*
X0111573Y0430118D02*
X0110868Y0430118D01*
X0110217Y0429848D01*
X0109719Y0429350D01*
X0109449Y0428699D01*
X0109449Y0427994D01*
X0109719Y0427343D01*
X0110217Y0426845D01*
X0110868Y0426575D01*
X0111573Y0426575D01*
X0112224Y0426845D01*
X0112723Y0427343D01*
X0112993Y0427994D01*
X0112993Y0428699D01*
X0112723Y0429350D01*
X0112224Y0429848D01*
X0111573Y0430118D01*
D02*
G37*
G36*
X0186676Y0429607D02*
X0185971Y0429607D01*
X0185320Y0429338D01*
X0184822Y0428839D01*
X0184552Y0428188D01*
X0184552Y0427483D01*
X0184822Y0426832D01*
X0185320Y0426334D01*
X0185971Y0426064D01*
X0186676Y0426064D01*
X0187327Y0426334D01*
X0187825Y0426832D01*
X0188095Y0427483D01*
X0188095Y0428188D01*
X0187825Y0428839D01*
X0187327Y0429338D01*
X0186676Y0429607D01*
D02*
G37*
G36*
X0170552Y0427756D02*
X0169847Y0427756D01*
X0169196Y0427486D01*
X0168698Y0426988D01*
X0168428Y0426337D01*
X0168428Y0425632D01*
X0168698Y0424981D01*
X0169196Y0424482D01*
X0169847Y0424213D01*
X0170552Y0424213D01*
X0171203Y0424482D01*
X0171702Y0424981D01*
X0171971Y0425632D01*
X0171971Y0426337D01*
X0171702Y0426988D01*
X0171203Y0427486D01*
X0170552Y0427756D01*
D02*
G37*
G36*
X0157754Y0429469D02*
X0157050Y0429469D01*
X0156399Y0429199D01*
X0155900Y0428700D01*
X0155630Y0428049D01*
X0155630Y0427863D01*
X0155471Y0427756D01*
X0154766Y0427756D01*
X0154115Y0427486D01*
X0153617Y0426988D01*
X0153347Y0426337D01*
X0153347Y0425632D01*
X0153617Y0424981D01*
X0154115Y0424482D01*
X0154766Y0424213D01*
X0155471Y0424213D01*
X0156122Y0424482D01*
X0156621Y0424981D01*
X0156890Y0425632D01*
X0156890Y0425819D01*
X0157050Y0425925D01*
X0157754Y0425925D01*
X0158406Y0426195D01*
X0158904Y0426693D01*
X0159174Y0427345D01*
X0159174Y0428049D01*
X0158904Y0428700D01*
X0158406Y0429199D01*
X0157754Y0429469D01*
D02*
G37*
G36*
X0147203Y0423819D02*
X0146499Y0423819D01*
X0145847Y0423549D01*
X0145790Y0423492D01*
X0145276Y0423106D01*
X0144762Y0423492D01*
X0144705Y0423549D01*
X0144054Y0423819D01*
X0143349Y0423819D01*
X0142698Y0423549D01*
X0142199Y0423051D01*
X0141930Y0422400D01*
X0141930Y0421695D01*
X0142199Y0421044D01*
X0142698Y0420545D01*
X0143349Y0420276D01*
X0144054Y0420276D01*
X0144705Y0420545D01*
X0144762Y0420602D01*
X0145276Y0420989D01*
X0145790Y0420602D01*
X0145847Y0420545D01*
X0146499Y0420276D01*
X0147203Y0420276D01*
X0147854Y0420545D01*
X0148353Y0421044D01*
X0148623Y0421695D01*
X0148623Y0422400D01*
X0148353Y0423051D01*
X0147854Y0423549D01*
X0147203Y0423819D01*
D02*
G37*
G36*
X0051485Y0424213D02*
X0050780Y0424213D01*
X0050129Y0423943D01*
X0049630Y0423444D01*
X0049442Y0422990D01*
X0049253Y0422900D01*
X0048829Y0422811D01*
X0048584Y0422819D01*
X0048248Y0423155D01*
X0047597Y0423425D01*
X0046892Y0423425D01*
X0046241Y0423155D01*
X0045743Y0422657D01*
X0045473Y0422006D01*
X0045473Y0421301D01*
X0045743Y0420650D01*
X0046241Y0420152D01*
X0046892Y0419882D01*
X0047597Y0419882D01*
X0048248Y0420152D01*
X0048746Y0420650D01*
X0048935Y0421104D01*
X0049124Y0421195D01*
X0049548Y0421283D01*
X0049793Y0421275D01*
X0050129Y0420939D01*
X0050780Y0420669D01*
X0051485Y0420669D01*
X0052136Y0420939D01*
X0052634Y0421437D01*
X0052904Y0422089D01*
X0052904Y0422793D01*
X0052634Y0423444D01*
X0052136Y0423943D01*
X0051485Y0424213D01*
D02*
G37*
G36*
X0071317Y0424604D02*
X0070613Y0424604D01*
X0069961Y0424334D01*
X0069463Y0423836D01*
X0069193Y0423185D01*
X0069193Y0422480D01*
X0069463Y0421829D01*
X0069961Y0421330D01*
X0070613Y0421061D01*
X0071317Y0421061D01*
X0071969Y0421330D01*
X0072467Y0421829D01*
X0072737Y0422480D01*
X0072737Y0423185D01*
X0072467Y0423836D01*
X0071969Y0424334D01*
X0071317Y0424604D01*
D02*
G37*
G36*
X0111770Y0425000D02*
X0111065Y0425000D01*
X0110414Y0424730D01*
X0109916Y0424232D01*
X0109646Y0423581D01*
X0109646Y0422876D01*
X0109916Y0422225D01*
X0110414Y0421726D01*
X0111065Y0421457D01*
X0111770Y0421457D01*
X0112421Y0421726D01*
X0112466Y0421771D01*
X0113371Y0421563D01*
X0113463Y0421342D01*
X0113961Y0420843D01*
X0114612Y0420574D01*
X0115317Y0420574D01*
X0115968Y0420843D01*
X0116467Y0421342D01*
X0116736Y0421993D01*
X0116736Y0422698D01*
X0116467Y0423349D01*
X0115968Y0423847D01*
X0115317Y0424117D01*
X0114612Y0424117D01*
X0113961Y0423847D01*
X0113917Y0423803D01*
X0113011Y0424011D01*
X0112920Y0424232D01*
X0112421Y0424730D01*
X0111770Y0425000D01*
D02*
G37*
G36*
X0037164Y0423349D02*
X0036459Y0423349D01*
X0035808Y0423079D01*
X0035310Y0422581D01*
X0035040Y0421929D01*
X0035040Y0421224D01*
X0035310Y0420573D01*
X0035808Y0420075D01*
X0036459Y0419805D01*
X0037164Y0419805D01*
X0037815Y0420075D01*
X0038313Y0420573D01*
X0038583Y0421224D01*
X0038583Y0421929D01*
X0038313Y0422581D01*
X0037815Y0423079D01*
X0037164Y0423349D01*
D02*
G37*
G36*
X0063624Y0423212D02*
X0062919Y0423212D01*
X0062268Y0422942D01*
X0061769Y0422444D01*
X0061500Y0421793D01*
X0061500Y0421088D01*
X0061769Y0420437D01*
X0062268Y0419938D01*
X0062919Y0419669D01*
X0063624Y0419669D01*
X0064275Y0419938D01*
X0064773Y0420437D01*
X0065043Y0421088D01*
X0065043Y0421793D01*
X0064773Y0422444D01*
X0064275Y0422942D01*
X0063624Y0423212D01*
D02*
G37*
G36*
X0131455Y0421457D02*
X0130750Y0421457D01*
X0130099Y0421187D01*
X0129601Y0420689D01*
X0129331Y0420037D01*
X0129331Y0419333D01*
X0129601Y0418682D01*
X0130099Y0418183D01*
X0130750Y0417913D01*
X0131455Y0417913D01*
X0132106Y0418183D01*
X0132605Y0418682D01*
X0132875Y0419333D01*
X0132875Y0420037D01*
X0132605Y0420689D01*
X0132106Y0421187D01*
X0131455Y0421457D01*
D02*
G37*
G36*
X0135786Y0421211D02*
X0135081Y0421211D01*
X0134430Y0420941D01*
X0133932Y0420443D01*
X0133662Y0419791D01*
X0133662Y0419087D01*
X0133932Y0418435D01*
X0134430Y0417937D01*
X0135081Y0417667D01*
X0135786Y0417667D01*
X0136437Y0417937D01*
X0136935Y0418435D01*
X0137205Y0419087D01*
X0137205Y0419791D01*
X0136935Y0420443D01*
X0136437Y0420941D01*
X0135786Y0421211D01*
D02*
G37*
G36*
X0086828Y0420678D02*
X0086123Y0420678D01*
X0085472Y0420408D01*
X0084973Y0419910D01*
X0084704Y0419258D01*
X0084704Y0418554D01*
X0084795Y0418333D01*
X0084684Y0418101D01*
X0084238Y0417621D01*
X0083751Y0417621D01*
X0083360Y0417459D01*
X0083293Y0417508D01*
X0082835Y0418095D01*
X0083022Y0418545D01*
X0083022Y0419250D01*
X0082752Y0419901D01*
X0082254Y0420399D01*
X0081603Y0420669D01*
X0080898Y0420669D01*
X0080247Y0420399D01*
X0079749Y0419901D01*
X0079479Y0419250D01*
X0079479Y0418545D01*
X0079749Y0417894D01*
X0080172Y0417471D01*
X0079749Y0417047D01*
X0079479Y0416396D01*
X0079479Y0415691D01*
X0079749Y0415040D01*
X0080247Y0414541D01*
X0080898Y0414272D01*
X0081603Y0414272D01*
X0082254Y0414541D01*
X0083091Y0414356D01*
X0083099Y0414348D01*
X0083740Y0414083D01*
X0083767Y0414070D01*
X0084449Y0413738D01*
X0084449Y0413033D01*
X0084719Y0412382D01*
X0084766Y0412336D01*
X0084581Y0411407D01*
X0084430Y0411345D01*
X0083932Y0410846D01*
X0083662Y0410195D01*
X0083662Y0409490D01*
X0083932Y0408839D01*
X0084430Y0408341D01*
X0085081Y0408071D01*
X0085786Y0408071D01*
X0086437Y0408341D01*
X0086935Y0408839D01*
X0087205Y0409490D01*
X0087205Y0410195D01*
X0086935Y0410846D01*
X0086889Y0410893D01*
X0087074Y0411821D01*
X0087224Y0411884D01*
X0087723Y0412382D01*
X0087993Y0413033D01*
X0087993Y0413738D01*
X0087723Y0414389D01*
X0087224Y0414888D01*
X0086584Y0415153D01*
X0086557Y0415166D01*
X0085875Y0415497D01*
X0085875Y0416202D01*
X0085783Y0416423D01*
X0085894Y0416655D01*
X0086341Y0417134D01*
X0086828Y0417134D01*
X0087479Y0417404D01*
X0087977Y0417902D01*
X0088247Y0418554D01*
X0088247Y0419258D01*
X0087977Y0419910D01*
X0087479Y0420408D01*
X0086828Y0420678D01*
D02*
G37*
G36*
X0111770Y0416339D02*
X0111065Y0416339D01*
X0110414Y0416069D01*
X0109916Y0415570D01*
X0109131Y0415734D01*
X0108621Y0415945D01*
X0107916Y0415945D01*
X0107265Y0415675D01*
X0106766Y0415177D01*
X0106496Y0414526D01*
X0106496Y0413821D01*
X0106766Y0413170D01*
X0107265Y0412671D01*
X0107916Y0412402D01*
X0108621Y0412402D01*
X0109272Y0412671D01*
X0109770Y0413170D01*
X0110555Y0413007D01*
X0111065Y0412795D01*
X0111770Y0412795D01*
X0112421Y0413065D01*
X0112920Y0413563D01*
X0113189Y0414215D01*
X0113189Y0414919D01*
X0112920Y0415570D01*
X0112421Y0416069D01*
X0111770Y0416339D01*
D02*
G37*
G36*
X0071317Y0418309D02*
X0070613Y0418309D01*
X0069961Y0418039D01*
X0069463Y0417541D01*
X0069193Y0416890D01*
X0069193Y0416185D01*
X0069463Y0415534D01*
X0069961Y0415036D01*
X0070613Y0414766D01*
X0071317Y0414766D01*
X0071969Y0415036D01*
X0072467Y0415534D01*
X0072737Y0416185D01*
X0072737Y0416890D01*
X0072467Y0417541D01*
X0071969Y0418039D01*
X0071317Y0418309D01*
D02*
G37*
G36*
X0181786Y0422589D02*
X0181081Y0422589D01*
X0180430Y0422319D01*
X0179932Y0421821D01*
X0179662Y0421170D01*
X0179662Y0420465D01*
X0179932Y0419814D01*
X0180430Y0419315D01*
X0181081Y0419045D01*
X0181786Y0419045D01*
X0182437Y0419315D01*
X0182851Y0419729D01*
X0183341Y0419740D01*
X0183728Y0419669D01*
X0183770Y0419567D01*
X0184269Y0419069D01*
X0184920Y0418799D01*
X0185625Y0418799D01*
X0185776Y0418072D01*
X0185217Y0417841D01*
X0184719Y0417342D01*
X0184449Y0416691D01*
X0184449Y0415986D01*
X0184719Y0415335D01*
X0185217Y0414837D01*
X0185869Y0414567D01*
X0186573Y0414567D01*
X0187224Y0414837D01*
X0187723Y0415335D01*
X0187993Y0415986D01*
X0187993Y0416691D01*
X0188014Y0416723D01*
X0188443Y0416723D01*
X0189094Y0416993D01*
X0189593Y0417491D01*
X0189863Y0418143D01*
X0189863Y0418847D01*
X0189593Y0419499D01*
X0189094Y0419997D01*
X0188443Y0420267D01*
X0187739Y0420267D01*
X0187044Y0420831D01*
X0187044Y0420923D01*
X0186774Y0421574D01*
X0186276Y0422073D01*
X0185625Y0422343D01*
X0184920Y0422343D01*
X0184269Y0422073D01*
X0183855Y0421659D01*
X0183365Y0421648D01*
X0182978Y0421719D01*
X0182936Y0421821D01*
X0182437Y0422319D01*
X0181786Y0422589D01*
D02*
G37*
G36*
X0063977Y0417415D02*
X0063272Y0417415D01*
X0062621Y0417146D01*
X0062122Y0416647D01*
X0061853Y0415996D01*
X0061853Y0415291D01*
X0062122Y0414640D01*
X0062621Y0414142D01*
X0063272Y0413872D01*
X0063977Y0413872D01*
X0064628Y0414142D01*
X0065126Y0414640D01*
X0065396Y0415291D01*
X0065396Y0415996D01*
X0065126Y0416647D01*
X0064628Y0417146D01*
X0063977Y0417415D01*
D02*
G37*
G36*
X0168069Y0418307D02*
X0167365Y0418307D01*
X0166713Y0418037D01*
X0166215Y0417539D01*
X0165945Y0416888D01*
X0165945Y0416183D01*
X0166215Y0415532D01*
X0166713Y0415033D01*
X0167365Y0414764D01*
X0167838Y0414764D01*
X0168217Y0414069D01*
X0168224Y0414036D01*
X0168184Y0413996D01*
X0167914Y0413345D01*
X0167914Y0412640D01*
X0168184Y0411989D01*
X0168682Y0411490D01*
X0169333Y0411221D01*
X0170038Y0411221D01*
X0170689Y0411490D01*
X0171187Y0411989D01*
X0171457Y0412640D01*
X0171457Y0413345D01*
X0171187Y0413996D01*
X0170689Y0414494D01*
X0170038Y0414764D01*
X0169564Y0414764D01*
X0169185Y0415458D01*
X0169178Y0415491D01*
X0169219Y0415532D01*
X0169489Y0416183D01*
X0169489Y0416888D01*
X0169219Y0417539D01*
X0168720Y0418037D01*
X0168069Y0418307D01*
D02*
G37*
G36*
X0042319Y0414612D02*
X0041614Y0414612D01*
X0040963Y0414342D01*
X0040464Y0413844D01*
X0040195Y0413193D01*
X0040195Y0412488D01*
X0040464Y0411837D01*
X0040963Y0411339D01*
X0041614Y0411069D01*
X0042319Y0411069D01*
X0042970Y0411339D01*
X0043468Y0411837D01*
X0043738Y0412488D01*
X0043738Y0413193D01*
X0043468Y0413844D01*
X0042970Y0414342D01*
X0042319Y0414612D01*
D02*
G37*
G36*
X0151534Y0410433D02*
X0150829Y0410433D01*
X0150178Y0410163D01*
X0150121Y0410107D01*
X0149607Y0409720D01*
X0149092Y0410107D01*
X0149036Y0410163D01*
X0148384Y0410433D01*
X0147679Y0410433D01*
X0147028Y0410163D01*
X0146530Y0409665D01*
X0146260Y0409014D01*
X0146260Y0408309D01*
X0146530Y0407658D01*
X0147028Y0407160D01*
X0147679Y0406890D01*
X0148384Y0406890D01*
X0149036Y0407160D01*
X0149092Y0407216D01*
X0149607Y0407603D01*
X0150121Y0407216D01*
X0150178Y0407160D01*
X0150829Y0406890D01*
X0151534Y0406890D01*
X0152185Y0407160D01*
X0152683Y0407658D01*
X0152953Y0408309D01*
X0152953Y0409014D01*
X0152683Y0409665D01*
X0152185Y0410163D01*
X0151534Y0410433D01*
D02*
G37*
G36*
X0139814Y0410543D02*
X0139109Y0410543D01*
X0138458Y0410274D01*
X0137960Y0409775D01*
X0137690Y0409124D01*
X0137690Y0408789D01*
X0137607Y0408733D01*
X0136902Y0408733D01*
X0136811Y0408794D01*
X0136811Y0409124D01*
X0136542Y0409775D01*
X0136043Y0410274D01*
X0135392Y0410543D01*
X0134687Y0410543D01*
X0134036Y0410274D01*
X0133538Y0409775D01*
X0133268Y0409124D01*
X0133268Y0408419D01*
X0133538Y0407768D01*
X0134036Y0407270D01*
X0134687Y0407000D01*
X0135392Y0407000D01*
X0135483Y0406940D01*
X0135483Y0406609D01*
X0135753Y0405958D01*
X0136251Y0405460D01*
X0136902Y0405190D01*
X0137607Y0405190D01*
X0138258Y0405460D01*
X0138756Y0405958D01*
X0139586Y0405904D01*
X0139739Y0405536D01*
X0140237Y0405038D01*
X0140888Y0404768D01*
X0141593Y0404768D01*
X0142244Y0405038D01*
X0142743Y0405536D01*
X0143012Y0406187D01*
X0143012Y0406892D01*
X0142743Y0407543D01*
X0142244Y0408042D01*
X0141593Y0408311D01*
X0141535Y0408311D01*
X0141233Y0408419D01*
X0141233Y0409124D01*
X0140963Y0409775D01*
X0140465Y0410274D01*
X0139814Y0410543D01*
D02*
G37*
G36*
X0079880Y0411811D02*
X0079176Y0411811D01*
X0078524Y0411541D01*
X0078026Y0411043D01*
X0077756Y0410392D01*
X0077756Y0409687D01*
X0078026Y0409036D01*
X0078524Y0408537D01*
X0079176Y0408268D01*
X0079880Y0408268D01*
X0080532Y0408537D01*
X0081030Y0409036D01*
X0081300Y0409687D01*
X0081300Y0410392D01*
X0081030Y0411043D01*
X0080532Y0411541D01*
X0079880Y0411811D01*
D02*
G37*
G36*
X0071317Y0411221D02*
X0070613Y0411221D01*
X0069961Y0410951D01*
X0069463Y0410452D01*
X0069193Y0409801D01*
X0069193Y0409096D01*
X0069463Y0408445D01*
X0069961Y0407947D01*
X0070613Y0407677D01*
X0071317Y0407677D01*
X0071969Y0407947D01*
X0072467Y0408445D01*
X0072737Y0409096D01*
X0072737Y0409801D01*
X0072467Y0410452D01*
X0071969Y0410951D01*
X0071317Y0411221D01*
D02*
G37*
G36*
X0105829Y0410970D02*
X0105124Y0410970D01*
X0104473Y0410701D01*
X0103974Y0410202D01*
X0103704Y0409551D01*
X0103704Y0408846D01*
X0103974Y0408195D01*
X0104473Y0407697D01*
X0105124Y0407427D01*
X0105829Y0407427D01*
X0106480Y0407697D01*
X0106978Y0408195D01*
X0107248Y0408846D01*
X0107248Y0409551D01*
X0106978Y0410202D01*
X0106480Y0410701D01*
X0105829Y0410970D01*
D02*
G37*
G36*
X0186947Y0410453D02*
X0186242Y0410453D01*
X0185591Y0410184D01*
X0185092Y0409685D01*
X0184823Y0409034D01*
X0184823Y0408329D01*
X0185092Y0407678D01*
X0185591Y0407180D01*
X0186242Y0406910D01*
X0186947Y0406910D01*
X0187598Y0407180D01*
X0188096Y0407678D01*
X0188366Y0408329D01*
X0188366Y0409034D01*
X0188096Y0409685D01*
X0187598Y0410184D01*
X0186947Y0410453D01*
D02*
G37*
G36*
X0063739Y0412795D02*
X0063034Y0412795D01*
X0062383Y0412525D01*
X0061884Y0412027D01*
X0061615Y0411376D01*
X0061615Y0410671D01*
X0061884Y0410020D01*
X0062383Y0409522D01*
X0062417Y0408655D01*
X0062402Y0408620D01*
X0062402Y0407915D01*
X0062672Y0407264D01*
X0063170Y0406766D01*
X0063821Y0406496D01*
X0064526Y0406496D01*
X0065177Y0406766D01*
X0065676Y0407264D01*
X0065945Y0407915D01*
X0065945Y0408620D01*
X0065676Y0409271D01*
X0065177Y0409770D01*
X0065143Y0410636D01*
X0065158Y0410671D01*
X0065158Y0411376D01*
X0064888Y0412027D01*
X0064390Y0412525D01*
X0063739Y0412795D01*
D02*
G37*
G36*
X0130274Y0409362D02*
X0129569Y0409362D01*
X0128918Y0409092D01*
X0128420Y0408594D01*
X0128150Y0407943D01*
X0128150Y0407238D01*
X0128420Y0406587D01*
X0128918Y0406089D01*
X0129569Y0405819D01*
X0130274Y0405819D01*
X0130925Y0406089D01*
X0131424Y0406587D01*
X0131693Y0407238D01*
X0131693Y0407943D01*
X0131424Y0408594D01*
X0130925Y0409092D01*
X0130274Y0409362D01*
D02*
G37*
G36*
X0095111Y0413991D02*
X0094406Y0413991D01*
X0093755Y0413722D01*
X0093256Y0413223D01*
X0092987Y0412572D01*
X0092987Y0411867D01*
X0093256Y0411216D01*
X0093755Y0410718D01*
X0094406Y0410448D01*
X0095111Y0410448D01*
X0095642Y0409816D01*
X0095473Y0409408D01*
X0095473Y0408703D01*
X0095743Y0408052D01*
X0095847Y0407948D01*
X0095520Y0407160D01*
X0095276Y0407160D01*
X0094624Y0406890D01*
X0094126Y0406392D01*
X0093856Y0405741D01*
X0093856Y0405036D01*
X0094126Y0404385D01*
X0094624Y0403887D01*
X0094916Y0403766D01*
X0094978Y0403740D01*
X0094821Y0402953D01*
X0094766Y0402953D01*
X0094530Y0402953D01*
X0093879Y0402683D01*
X0093380Y0402185D01*
X0093111Y0401534D01*
X0093111Y0400829D01*
X0093380Y0400178D01*
X0093879Y0399679D01*
X0094530Y0399410D01*
X0095235Y0399410D01*
X0095886Y0399679D01*
X0096384Y0400178D01*
X0096654Y0400829D01*
X0096654Y0401534D01*
X0096384Y0402185D01*
X0095886Y0402683D01*
X0095594Y0402804D01*
X0095533Y0402829D01*
X0095689Y0403617D01*
X0095744Y0403617D01*
X0095980Y0403617D01*
X0096632Y0403887D01*
X0097130Y0404385D01*
X0097365Y0404952D01*
X0097454Y0404970D01*
X0098105Y0404700D01*
X0098810Y0404700D01*
X0099206Y0404012D01*
X0099286Y0403819D01*
X0099784Y0403321D01*
X0100435Y0403051D01*
X0101140Y0403051D01*
X0101791Y0403321D01*
X0102290Y0403819D01*
X0102560Y0404470D01*
X0102560Y0405175D01*
X0102290Y0405826D01*
X0101791Y0406325D01*
X0101140Y0406595D01*
X0100435Y0406595D01*
X0100039Y0407283D01*
X0099960Y0407475D01*
X0099461Y0407973D01*
X0098824Y0408238D01*
X0099016Y0408703D01*
X0099016Y0409408D01*
X0098746Y0410059D01*
X0098248Y0410557D01*
X0097597Y0410827D01*
X0096892Y0410827D01*
X0096361Y0411459D01*
X0096530Y0411867D01*
X0096530Y0412572D01*
X0096260Y0413223D01*
X0095762Y0413722D01*
X0095111Y0413991D01*
D02*
G37*
G36*
X0171220Y0406103D02*
X0170515Y0406103D01*
X0169864Y0405833D01*
X0169365Y0405335D01*
X0169095Y0404684D01*
X0169095Y0403979D01*
X0169365Y0403328D01*
X0169864Y0402829D01*
X0170515Y0402560D01*
X0171220Y0402560D01*
X0171871Y0402829D01*
X0172369Y0403328D01*
X0172639Y0403979D01*
X0172639Y0404684D01*
X0172369Y0405335D01*
X0171871Y0405833D01*
X0171220Y0406103D01*
D02*
G37*
G36*
X0162244Y0400939D02*
X0161540Y0400939D01*
X0160888Y0400669D01*
X0160390Y0400171D01*
X0160120Y0399519D01*
X0160120Y0398815D01*
X0160390Y0398163D01*
X0160888Y0397665D01*
X0161540Y0397395D01*
X0162244Y0397395D01*
X0162896Y0397665D01*
X0163394Y0398163D01*
X0163664Y0398815D01*
X0163664Y0399519D01*
X0163394Y0400171D01*
X0162896Y0400669D01*
X0162244Y0400939D01*
D02*
G37*
G36*
X0071098Y0400394D02*
X0070393Y0400394D01*
X0069742Y0400124D01*
X0069243Y0399626D01*
X0068973Y0398974D01*
X0068973Y0398270D01*
X0069243Y0397619D01*
X0069742Y0397120D01*
X0070393Y0396850D01*
X0071098Y0396850D01*
X0071749Y0397120D01*
X0072247Y0397619D01*
X0072517Y0398270D01*
X0072517Y0398974D01*
X0072247Y0399626D01*
X0071749Y0400124D01*
X0071098Y0400394D01*
D02*
G37*
G36*
X0189132Y0399902D02*
X0188428Y0399902D01*
X0187776Y0399632D01*
X0187278Y0399133D01*
X0187008Y0398482D01*
X0187008Y0397777D01*
X0187278Y0397126D01*
X0187776Y0396628D01*
X0188428Y0396358D01*
X0189132Y0396358D01*
X0189784Y0396628D01*
X0190282Y0397126D01*
X0190552Y0397777D01*
X0190552Y0398482D01*
X0190282Y0399133D01*
X0189784Y0399632D01*
X0189132Y0399902D01*
D02*
G37*
G36*
X0155103Y0399849D02*
X0154398Y0399849D01*
X0153747Y0399579D01*
X0153248Y0399081D01*
X0152979Y0398430D01*
X0152979Y0397725D01*
X0153248Y0397074D01*
X0153747Y0396575D01*
X0154398Y0396306D01*
X0155103Y0396306D01*
X0155754Y0396575D01*
X0156252Y0397074D01*
X0156522Y0397725D01*
X0156522Y0398430D01*
X0156252Y0399081D01*
X0155754Y0399579D01*
X0155103Y0399849D01*
D02*
G37*
G36*
X0152321Y0395079D02*
X0151617Y0395079D01*
X0150965Y0394809D01*
X0150467Y0394311D01*
X0150427Y0394213D01*
X0149574Y0394213D01*
X0149534Y0394311D01*
X0149036Y0394809D01*
X0148384Y0395079D01*
X0147679Y0395079D01*
X0147028Y0394809D01*
X0146530Y0394311D01*
X0146260Y0393660D01*
X0146260Y0392955D01*
X0146530Y0392304D01*
X0147028Y0391805D01*
X0147679Y0391536D01*
X0148384Y0391536D01*
X0149036Y0391805D01*
X0149534Y0392304D01*
X0149574Y0392401D01*
X0150427Y0392401D01*
X0150467Y0392304D01*
X0150965Y0391805D01*
X0151617Y0391536D01*
X0152321Y0391536D01*
X0152972Y0391805D01*
X0153471Y0392304D01*
X0153741Y0392955D01*
X0153741Y0393660D01*
X0153471Y0394311D01*
X0152972Y0394809D01*
X0152321Y0395079D01*
D02*
G37*
G36*
X0062951Y0397441D02*
X0062247Y0397441D01*
X0061595Y0397171D01*
X0061097Y0396673D01*
X0060827Y0396022D01*
X0060827Y0395317D01*
X0061097Y0394666D01*
X0061595Y0394167D01*
X0062247Y0393898D01*
X0062951Y0393898D01*
X0063602Y0394167D01*
X0064101Y0394666D01*
X0064371Y0395317D01*
X0064371Y0396022D01*
X0064101Y0396673D01*
X0063602Y0397171D01*
X0062951Y0397441D01*
D02*
G37*
G36*
X0140117Y0396653D02*
X0139412Y0396653D01*
X0138761Y0396384D01*
X0138262Y0395885D01*
X0137993Y0395234D01*
X0137993Y0394529D01*
X0138262Y0393878D01*
X0138761Y0393380D01*
X0139412Y0393110D01*
X0140117Y0393110D01*
X0140768Y0393380D01*
X0141266Y0393878D01*
X0141536Y0394529D01*
X0141536Y0395234D01*
X0141266Y0395885D01*
X0140768Y0396384D01*
X0140117Y0396653D01*
D02*
G37*
G36*
X0087361Y0396653D02*
X0086656Y0396653D01*
X0086005Y0396384D01*
X0085506Y0395885D01*
X0085237Y0395234D01*
X0085237Y0394529D01*
X0085506Y0393878D01*
X0086005Y0393380D01*
X0086656Y0393110D01*
X0087361Y0393110D01*
X0088012Y0393380D01*
X0088510Y0393878D01*
X0088780Y0394529D01*
X0088780Y0395234D01*
X0088510Y0395885D01*
X0088012Y0396384D01*
X0087361Y0396653D01*
D02*
G37*
G36*
X0171426Y0396260D02*
X0170721Y0396260D01*
X0170070Y0395990D01*
X0169571Y0395492D01*
X0169302Y0394841D01*
X0169302Y0394136D01*
X0169571Y0393485D01*
X0169960Y0393096D01*
X0169912Y0392691D01*
X0169697Y0392290D01*
X0169273Y0392261D01*
X0168798Y0392849D01*
X0168720Y0393038D01*
X0168222Y0393536D01*
X0167570Y0393806D01*
X0166866Y0393806D01*
X0166215Y0393536D01*
X0165716Y0393038D01*
X0165446Y0392387D01*
X0165446Y0391682D01*
X0165716Y0391031D01*
X0166215Y0390532D01*
X0166866Y0390263D01*
X0167570Y0390263D01*
X0168086Y0389624D01*
X0168165Y0389435D01*
X0168663Y0388937D01*
X0168603Y0388109D01*
X0168501Y0388067D01*
X0168003Y0387568D01*
X0167733Y0386917D01*
X0167733Y0386212D01*
X0168003Y0385561D01*
X0168501Y0385063D01*
X0169152Y0384793D01*
X0169857Y0384793D01*
X0170508Y0385063D01*
X0171006Y0385561D01*
X0171276Y0386212D01*
X0171276Y0386917D01*
X0171006Y0387568D01*
X0170508Y0388067D01*
X0170568Y0388894D01*
X0170670Y0388937D01*
X0171168Y0389435D01*
X0171438Y0390086D01*
X0171438Y0390791D01*
X0171168Y0391442D01*
X0170699Y0391911D01*
X0170671Y0391940D01*
X0170670Y0391940D01*
X0170630Y0391967D01*
X0170755Y0392716D01*
X0170944Y0392716D01*
X0171426Y0392716D01*
X0172077Y0392986D01*
X0172575Y0393485D01*
X0172845Y0394136D01*
X0172845Y0394841D01*
X0172575Y0395492D01*
X0172077Y0395990D01*
X0171426Y0396260D01*
D02*
G37*
G36*
X0077747Y0391977D02*
X0077043Y0391977D01*
X0076391Y0391707D01*
X0075893Y0391209D01*
X0075623Y0390558D01*
X0075623Y0389853D01*
X0075893Y0389202D01*
X0076391Y0388704D01*
X0077043Y0388434D01*
X0077747Y0388434D01*
X0078399Y0388704D01*
X0078897Y0389202D01*
X0079167Y0389853D01*
X0079167Y0390558D01*
X0078897Y0391209D01*
X0078399Y0391707D01*
X0077747Y0391977D01*
D02*
G37*
G36*
X0114838Y0390788D02*
X0114133Y0390788D01*
X0113482Y0390519D01*
X0112984Y0390020D01*
X0112714Y0389369D01*
X0112714Y0388664D01*
X0112984Y0388013D01*
X0113482Y0387515D01*
X0114133Y0387245D01*
X0114838Y0387245D01*
X0115490Y0387515D01*
X0115988Y0388013D01*
X0116258Y0388664D01*
X0116258Y0389369D01*
X0115988Y0390020D01*
X0115490Y0390519D01*
X0114838Y0390788D01*
D02*
G37*
G36*
X0117479Y0394390D02*
X0116774Y0394390D01*
X0116123Y0394120D01*
X0115625Y0393622D01*
X0115355Y0392971D01*
X0115355Y0392266D01*
X0115625Y0391615D01*
X0116123Y0391116D01*
X0116774Y0390846D01*
X0117479Y0390846D01*
X0117639Y0390913D01*
X0118084Y0390245D01*
X0117819Y0389980D01*
X0117550Y0389329D01*
X0117550Y0388624D01*
X0117819Y0387973D01*
X0118318Y0387475D01*
X0118969Y0387205D01*
X0119674Y0387205D01*
X0120325Y0387475D01*
X0120823Y0387973D01*
X0121093Y0388624D01*
X0121093Y0389329D01*
X0120823Y0389980D01*
X0120325Y0390478D01*
X0119674Y0390748D01*
X0118969Y0390748D01*
X0118809Y0390682D01*
X0118363Y0391350D01*
X0118628Y0391615D01*
X0118898Y0392266D01*
X0118898Y0392971D01*
X0118628Y0393622D01*
X0118130Y0394120D01*
X0117479Y0394390D01*
D02*
G37*
G36*
X0084999Y0390748D02*
X0084294Y0390748D01*
X0083643Y0390478D01*
X0083144Y0389980D01*
X0082875Y0389329D01*
X0082875Y0388624D01*
X0083144Y0387973D01*
X0083643Y0387475D01*
X0084294Y0387205D01*
X0084999Y0387205D01*
X0085650Y0387475D01*
X0086148Y0387973D01*
X0086418Y0388624D01*
X0086418Y0389329D01*
X0086148Y0389980D01*
X0085650Y0390478D01*
X0084999Y0390748D01*
D02*
G37*
G36*
X0160881Y0393361D02*
X0160176Y0393361D01*
X0159525Y0393091D01*
X0159027Y0392593D01*
X0158757Y0391942D01*
X0158757Y0391237D01*
X0159027Y0390586D01*
X0159525Y0390088D01*
X0159561Y0389887D01*
X0159558Y0389222D01*
X0159165Y0388828D01*
X0158895Y0388177D01*
X0158895Y0387472D01*
X0159165Y0386821D01*
X0159663Y0386323D01*
X0160314Y0386053D01*
X0161019Y0386053D01*
X0161670Y0386323D01*
X0162168Y0386821D01*
X0162438Y0387472D01*
X0162438Y0388177D01*
X0162168Y0388828D01*
X0161670Y0389326D01*
X0161634Y0389527D01*
X0161637Y0390192D01*
X0162031Y0390586D01*
X0162300Y0391237D01*
X0162300Y0391942D01*
X0162031Y0392593D01*
X0161532Y0393091D01*
X0160881Y0393361D01*
D02*
G37*
G36*
X0150353Y0388780D02*
X0149648Y0388780D01*
X0148997Y0388510D01*
X0148499Y0388011D01*
X0148229Y0387360D01*
X0148229Y0386655D01*
X0148499Y0386004D01*
X0148997Y0385506D01*
X0149648Y0385236D01*
X0150353Y0385236D01*
X0151004Y0385506D01*
X0151502Y0386004D01*
X0151772Y0386655D01*
X0151772Y0387360D01*
X0151502Y0388011D01*
X0151004Y0388510D01*
X0150353Y0388780D01*
D02*
G37*
G36*
X0128597Y0387818D02*
X0127892Y0387818D01*
X0127241Y0387548D01*
X0126742Y0387050D01*
X0126473Y0386399D01*
X0126473Y0385694D01*
X0126742Y0385043D01*
X0127241Y0384544D01*
X0127892Y0384275D01*
X0128597Y0384275D01*
X0129248Y0384544D01*
X0129746Y0385043D01*
X0130016Y0385694D01*
X0130016Y0386399D01*
X0129746Y0387050D01*
X0129248Y0387548D01*
X0128597Y0387818D01*
D02*
G37*
G36*
X0097597Y0391142D02*
X0096892Y0391142D01*
X0096241Y0390872D01*
X0095743Y0390374D01*
X0095473Y0389723D01*
X0095473Y0389018D01*
X0095694Y0388484D01*
X0095508Y0388012D01*
X0095299Y0387697D01*
X0095022Y0387697D01*
X0094371Y0387427D01*
X0093873Y0386929D01*
X0093603Y0386278D01*
X0093603Y0385573D01*
X0093873Y0384922D01*
X0094371Y0384423D01*
X0095022Y0384153D01*
X0095727Y0384153D01*
X0096378Y0384423D01*
X0096876Y0384922D01*
X0097146Y0385573D01*
X0097146Y0386278D01*
X0096925Y0386811D01*
X0097111Y0387283D01*
X0097320Y0387599D01*
X0097597Y0387599D01*
X0098248Y0387868D01*
X0098746Y0388367D01*
X0099016Y0389018D01*
X0099016Y0389723D01*
X0098746Y0390374D01*
X0098248Y0390872D01*
X0097597Y0391142D01*
D02*
G37*
G36*
X0110589Y0383661D02*
X0109884Y0383661D01*
X0109233Y0383392D01*
X0108989Y0383148D01*
X0108646Y0382921D01*
X0107980Y0383128D01*
X0107871Y0383237D01*
X0107220Y0383507D01*
X0106515Y0383507D01*
X0105864Y0383237D01*
X0105365Y0382739D01*
X0105163Y0382250D01*
X0104571Y0382146D01*
X0104343Y0382172D01*
X0104289Y0382303D01*
X0103790Y0382801D01*
X0103139Y0383071D01*
X0102434Y0383071D01*
X0101783Y0382801D01*
X0101285Y0382303D01*
X0101015Y0381652D01*
X0101015Y0380947D01*
X0101285Y0380296D01*
X0101783Y0379797D01*
X0102434Y0379527D01*
X0103139Y0379527D01*
X0103790Y0379797D01*
X0104289Y0380296D01*
X0104491Y0380785D01*
X0105083Y0380888D01*
X0105311Y0380863D01*
X0105365Y0380732D01*
X0105864Y0380234D01*
X0105760Y0379424D01*
X0105708Y0379300D01*
X0105708Y0378595D01*
X0105978Y0377944D01*
X0106476Y0377446D01*
X0107127Y0377176D01*
X0107832Y0377176D01*
X0108483Y0377446D01*
X0108982Y0377944D01*
X0109251Y0378595D01*
X0109251Y0379300D01*
X0109137Y0379575D01*
X0109740Y0380178D01*
X0109884Y0380118D01*
X0110589Y0380118D01*
X0111240Y0380388D01*
X0111739Y0380886D01*
X0112008Y0381537D01*
X0112008Y0382242D01*
X0111739Y0382893D01*
X0111240Y0383392D01*
X0110589Y0383661D01*
D02*
G37*
G36*
X0062951Y0391929D02*
X0062247Y0391929D01*
X0061595Y0391659D01*
X0061097Y0391161D01*
X0060827Y0390510D01*
X0060827Y0389805D01*
X0061097Y0389154D01*
X0061521Y0388730D01*
X0061097Y0388307D01*
X0060827Y0387656D01*
X0060827Y0386951D01*
X0061097Y0386300D01*
X0061448Y0385949D01*
X0061428Y0385305D01*
X0061343Y0385053D01*
X0061133Y0384966D01*
X0060635Y0384468D01*
X0060365Y0383817D01*
X0060365Y0383112D01*
X0060635Y0382461D01*
X0061133Y0381963D01*
X0061784Y0381693D01*
X0062489Y0381693D01*
X0063140Y0381963D01*
X0063639Y0382461D01*
X0063908Y0383112D01*
X0063908Y0383817D01*
X0063639Y0384468D01*
X0063288Y0384819D01*
X0063308Y0385462D01*
X0063393Y0385714D01*
X0063602Y0385801D01*
X0064101Y0386300D01*
X0064371Y0386951D01*
X0064371Y0387656D01*
X0064101Y0388307D01*
X0063677Y0388730D01*
X0064101Y0389154D01*
X0064371Y0389805D01*
X0064371Y0390510D01*
X0064101Y0391161D01*
X0063602Y0391659D01*
X0062951Y0391929D01*
D02*
G37*
G36*
X0121416Y0384646D02*
X0120711Y0384646D01*
X0120060Y0384376D01*
X0119562Y0383878D01*
X0119292Y0383226D01*
X0119292Y0382522D01*
X0119562Y0381870D01*
X0120060Y0381372D01*
X0120711Y0381102D01*
X0121416Y0381102D01*
X0122067Y0381372D01*
X0122565Y0381870D01*
X0122835Y0382522D01*
X0122835Y0383226D01*
X0122565Y0383878D01*
X0122067Y0384376D01*
X0121416Y0384646D01*
D02*
G37*
G36*
X0154290Y0381693D02*
X0153585Y0381693D01*
X0152934Y0381423D01*
X0152823Y0381313D01*
X0152417Y0380936D01*
X0151794Y0381313D01*
X0151791Y0381316D01*
X0151140Y0381586D01*
X0150435Y0381586D01*
X0149784Y0381316D01*
X0149286Y0380817D01*
X0149016Y0380166D01*
X0149016Y0379461D01*
X0149286Y0378810D01*
X0149784Y0378312D01*
X0150435Y0378042D01*
X0151140Y0378042D01*
X0151791Y0378312D01*
X0151902Y0378422D01*
X0152308Y0378799D01*
X0152931Y0378422D01*
X0152934Y0378419D01*
X0153585Y0378150D01*
X0154290Y0378150D01*
X0154941Y0378419D01*
X0155439Y0378918D01*
X0155709Y0379569D01*
X0155709Y0380274D01*
X0155439Y0380925D01*
X0154941Y0381423D01*
X0154290Y0381693D01*
D02*
G37*
G36*
X0163150Y0384171D02*
X0162445Y0384171D01*
X0161794Y0383901D01*
X0161296Y0383402D01*
X0161026Y0382751D01*
X0161026Y0382047D01*
X0161296Y0381395D01*
X0161794Y0380897D01*
X0162445Y0380627D01*
X0163040Y0380627D01*
X0163379Y0380307D01*
X0163620Y0379970D01*
X0163583Y0379880D01*
X0163583Y0379175D01*
X0163853Y0378524D01*
X0164351Y0378026D01*
X0165002Y0377756D01*
X0165707Y0377756D01*
X0165781Y0377786D01*
X0166107Y0377569D01*
X0166376Y0376918D01*
X0166875Y0376419D01*
X0167526Y0376150D01*
X0168231Y0376150D01*
X0168491Y0376257D01*
X0168937Y0375590D01*
X0168661Y0375314D01*
X0168298Y0374686D01*
X0168111Y0373985D01*
X0168111Y0373259D01*
X0168298Y0372558D01*
X0168661Y0371930D01*
X0169174Y0371417D01*
X0169803Y0371054D01*
X0170504Y0370866D01*
X0171229Y0370866D01*
X0171930Y0371054D01*
X0172559Y0371417D01*
X0173072Y0371930D01*
X0173435Y0372558D01*
X0173623Y0373259D01*
X0173623Y0373985D01*
X0173435Y0374686D01*
X0173072Y0375314D01*
X0172559Y0375827D01*
X0171930Y0376190D01*
X0171229Y0376378D01*
X0170504Y0376378D01*
X0169803Y0376190D01*
X0169716Y0376140D01*
X0169233Y0376770D01*
X0169380Y0376918D01*
X0169650Y0377569D01*
X0169650Y0378274D01*
X0169380Y0378925D01*
X0168882Y0379423D01*
X0168231Y0379693D01*
X0167526Y0379693D01*
X0167452Y0379662D01*
X0167126Y0379880D01*
X0166857Y0380531D01*
X0166885Y0380674D01*
X0167146Y0380782D01*
X0167548Y0381184D01*
X0168073Y0381190D01*
X0168428Y0381116D01*
X0168533Y0380864D01*
X0169031Y0380366D01*
X0169682Y0380096D01*
X0170387Y0380096D01*
X0171038Y0380366D01*
X0171536Y0380864D01*
X0171806Y0381515D01*
X0171806Y0382220D01*
X0171536Y0382871D01*
X0171038Y0383369D01*
X0170387Y0383639D01*
X0169682Y0383639D01*
X0169031Y0383369D01*
X0168629Y0382967D01*
X0168103Y0382961D01*
X0167748Y0383035D01*
X0167644Y0383287D01*
X0167146Y0383785D01*
X0166495Y0384055D01*
X0165790Y0384055D01*
X0165139Y0383785D01*
X0165036Y0383683D01*
X0164400Y0383441D01*
X0164013Y0383689D01*
X0163801Y0383901D01*
X0163150Y0384171D01*
D02*
G37*
G36*
X0176337Y0382874D02*
X0175632Y0382874D01*
X0174981Y0382604D01*
X0174483Y0382106D01*
X0174213Y0381455D01*
X0174213Y0380750D01*
X0174483Y0380099D01*
X0174981Y0379601D01*
X0175632Y0379331D01*
X0176337Y0379331D01*
X0176988Y0379601D01*
X0177487Y0380099D01*
X0177756Y0380750D01*
X0177756Y0381455D01*
X0177487Y0382106D01*
X0176988Y0382604D01*
X0176337Y0382874D01*
D02*
G37*
G36*
X0117085Y0383908D02*
X0116380Y0383908D01*
X0115729Y0383638D01*
X0115231Y0383140D01*
X0114961Y0382489D01*
X0114961Y0381784D01*
X0115231Y0381133D01*
X0115604Y0380759D01*
X0115132Y0380287D01*
X0114863Y0379636D01*
X0114863Y0378931D01*
X0115132Y0378280D01*
X0115631Y0377781D01*
X0116282Y0377512D01*
X0116987Y0377512D01*
X0117638Y0377781D01*
X0118136Y0378280D01*
X0118406Y0378931D01*
X0118406Y0379636D01*
X0118136Y0380287D01*
X0117763Y0380660D01*
X0118235Y0381133D01*
X0118504Y0381784D01*
X0118504Y0382489D01*
X0118235Y0383140D01*
X0117736Y0383638D01*
X0117085Y0383908D01*
D02*
G37*
G36*
X0092873Y0378543D02*
X0092168Y0378543D01*
X0091517Y0378274D01*
X0091018Y0377775D01*
X0090749Y0377124D01*
X0090749Y0376419D01*
X0091018Y0375768D01*
X0091517Y0375270D01*
X0092168Y0375000D01*
X0092873Y0375000D01*
X0093524Y0375270D01*
X0094022Y0375768D01*
X0094292Y0376419D01*
X0094292Y0377124D01*
X0094022Y0377775D01*
X0093524Y0378274D01*
X0092873Y0378543D01*
D02*
G37*
G36*
X0086155Y0380948D02*
X0085450Y0380948D01*
X0084799Y0380678D01*
X0084301Y0380180D01*
X0084031Y0379528D01*
X0084031Y0378824D01*
X0084301Y0378172D01*
X0084799Y0377674D01*
X0084884Y0377639D01*
X0085458Y0376966D01*
X0085458Y0376261D01*
X0085728Y0375610D01*
X0086226Y0375112D01*
X0086877Y0374842D01*
X0087582Y0374842D01*
X0088233Y0375112D01*
X0088731Y0375610D01*
X0089001Y0376261D01*
X0089001Y0376966D01*
X0088731Y0377617D01*
X0088233Y0378116D01*
X0088148Y0378151D01*
X0087574Y0378824D01*
X0087574Y0379528D01*
X0087304Y0380180D01*
X0086806Y0380678D01*
X0086155Y0380948D01*
D02*
G37*
G36*
X0050433Y0378248D02*
X0049728Y0378248D01*
X0049077Y0377978D01*
X0048579Y0377480D01*
X0048309Y0376829D01*
X0048309Y0376124D01*
X0048579Y0375473D01*
X0049077Y0374974D01*
X0049728Y0374705D01*
X0050433Y0374705D01*
X0051084Y0374974D01*
X0051583Y0375473D01*
X0051852Y0376124D01*
X0051852Y0376829D01*
X0051583Y0377480D01*
X0051084Y0377978D01*
X0050433Y0378248D01*
D02*
G37*
G36*
X0071022Y0377756D02*
X0070317Y0377756D01*
X0069666Y0377486D01*
X0069168Y0376988D01*
X0068898Y0376337D01*
X0068898Y0375632D01*
X0069168Y0374981D01*
X0069666Y0374482D01*
X0070317Y0374213D01*
X0071022Y0374213D01*
X0071673Y0374482D01*
X0072172Y0374981D01*
X0072441Y0375632D01*
X0072441Y0376337D01*
X0072172Y0376988D01*
X0071673Y0377486D01*
X0071022Y0377756D01*
D02*
G37*
G36*
X0062164Y0377049D02*
X0061459Y0377049D01*
X0060808Y0376780D01*
X0060309Y0376281D01*
X0060040Y0375630D01*
X0060040Y0374925D01*
X0060309Y0374274D01*
X0060808Y0373776D01*
X0061459Y0373506D01*
X0062164Y0373506D01*
X0062815Y0373776D01*
X0063313Y0374274D01*
X0063583Y0374925D01*
X0063583Y0375630D01*
X0063313Y0376281D01*
X0062815Y0376780D01*
X0062164Y0377049D01*
D02*
G37*
G36*
X0057243Y0376181D02*
X0056538Y0376181D01*
X0055887Y0375911D01*
X0055388Y0375413D01*
X0055119Y0374762D01*
X0055119Y0374057D01*
X0055388Y0373406D01*
X0055887Y0372908D01*
X0056538Y0372638D01*
X0057243Y0372638D01*
X0057894Y0372908D01*
X0058392Y0373406D01*
X0058662Y0374057D01*
X0058662Y0374762D01*
X0058392Y0375413D01*
X0057894Y0375911D01*
X0057243Y0376181D01*
D02*
G37*
G36*
X0042282Y0375197D02*
X0041577Y0375197D01*
X0040926Y0374927D01*
X0040428Y0374429D01*
X0040158Y0373778D01*
X0040158Y0373073D01*
X0040282Y0372774D01*
X0039614Y0372328D01*
X0039472Y0372470D01*
X0038820Y0372740D01*
X0038116Y0372740D01*
X0037465Y0372470D01*
X0036966Y0371972D01*
X0036696Y0371321D01*
X0036696Y0370616D01*
X0036966Y0369965D01*
X0037465Y0369467D01*
X0038116Y0369197D01*
X0038820Y0369197D01*
X0039472Y0369467D01*
X0039970Y0369965D01*
X0040240Y0370616D01*
X0040240Y0371321D01*
X0040116Y0371620D01*
X0040783Y0372066D01*
X0040926Y0371923D01*
X0041577Y0371653D01*
X0042282Y0371653D01*
X0042933Y0371923D01*
X0043432Y0372422D01*
X0043701Y0373073D01*
X0043701Y0373778D01*
X0043432Y0374429D01*
X0042933Y0374927D01*
X0042282Y0375197D01*
D02*
G37*
G36*
X0157046Y0373425D02*
X0156341Y0373425D01*
X0155690Y0373155D01*
X0155191Y0372657D01*
X0154922Y0372006D01*
X0154420Y0371621D01*
X0154300Y0371653D01*
X0153575Y0371653D01*
X0152874Y0371466D01*
X0152776Y0371409D01*
X0151896Y0371476D01*
X0151398Y0371974D01*
X0150747Y0372244D01*
X0150042Y0372244D01*
X0149615Y0372067D01*
X0149391Y0371974D01*
X0148747Y0372263D01*
X0148248Y0372762D01*
X0147597Y0373032D01*
X0146892Y0373032D01*
X0146241Y0372762D01*
X0145743Y0372263D01*
X0145473Y0371612D01*
X0145473Y0370907D01*
X0145528Y0370775D01*
X0144832Y0370432D01*
X0144780Y0370496D01*
X0144725Y0370590D01*
X0144212Y0371103D01*
X0143584Y0371466D01*
X0142883Y0371654D01*
X0142157Y0371654D01*
X0141456Y0371466D01*
X0140828Y0371103D01*
X0140315Y0370590D01*
X0139952Y0369961D01*
X0139764Y0369261D01*
X0139764Y0368535D01*
X0139952Y0367834D01*
X0140315Y0367206D01*
X0140828Y0366692D01*
X0141456Y0366330D01*
X0142157Y0366142D01*
X0142883Y0366142D01*
X0143584Y0366330D01*
X0144212Y0366692D01*
X0144725Y0367206D01*
X0145088Y0367834D01*
X0145276Y0368535D01*
X0145276Y0369261D01*
X0145153Y0369718D01*
X0145117Y0369853D01*
X0145242Y0369933D01*
X0145854Y0370145D01*
X0145902Y0370097D01*
X0146241Y0369758D01*
X0146892Y0369488D01*
X0147597Y0369488D01*
X0148024Y0369665D01*
X0148248Y0369758D01*
X0148892Y0369469D01*
X0149391Y0368971D01*
X0150042Y0368701D01*
X0150747Y0368701D01*
X0151304Y0368079D01*
X0151369Y0367834D01*
X0151732Y0367206D01*
X0152245Y0366692D01*
X0152874Y0366329D01*
X0153575Y0366142D01*
X0154300Y0366142D01*
X0155001Y0366329D01*
X0155630Y0366692D01*
X0156143Y0367206D01*
X0156506Y0367834D01*
X0156693Y0368535D01*
X0156693Y0369108D01*
X0156897Y0369242D01*
X0157652Y0369204D01*
X0158150Y0368705D01*
X0158802Y0368435D01*
X0159506Y0368435D01*
X0160158Y0368705D01*
X0160656Y0369204D01*
X0160926Y0369855D01*
X0160926Y0370559D01*
X0160656Y0371211D01*
X0160158Y0371709D01*
X0159506Y0371979D01*
X0158802Y0371979D01*
X0158223Y0372591D01*
X0158195Y0372657D01*
X0157697Y0373155D01*
X0157046Y0373425D01*
D02*
G37*
G36*
X0061376Y0371063D02*
X0060672Y0371063D01*
X0060020Y0370793D01*
X0059522Y0370295D01*
X0059402Y0370005D01*
X0058764Y0369681D01*
X0058489Y0369702D01*
X0058012Y0369899D01*
X0057308Y0369899D01*
X0056656Y0369630D01*
X0056158Y0369131D01*
X0055888Y0368480D01*
X0055888Y0367775D01*
X0056158Y0367124D01*
X0056656Y0366626D01*
X0057308Y0366356D01*
X0058012Y0366356D01*
X0058664Y0366626D01*
X0059162Y0367124D01*
X0059282Y0367414D01*
X0059920Y0367738D01*
X0060195Y0367717D01*
X0060672Y0367520D01*
X0061376Y0367520D01*
X0062028Y0367789D01*
X0062526Y0368288D01*
X0062796Y0368939D01*
X0062796Y0369644D01*
X0062526Y0370295D01*
X0062028Y0370793D01*
X0061376Y0371063D01*
D02*
G37*
G36*
X0078838Y0375099D02*
X0078133Y0375099D01*
X0077482Y0374829D01*
X0076983Y0374330D01*
X0076714Y0373679D01*
X0076714Y0372974D01*
X0076983Y0372323D01*
X0077482Y0371825D01*
X0078133Y0371555D01*
X0078838Y0371555D01*
X0079489Y0371825D01*
X0079725Y0372061D01*
X0080512Y0371735D01*
X0080512Y0371695D01*
X0080782Y0371044D01*
X0081280Y0370545D01*
X0081931Y0370276D01*
X0082636Y0370276D01*
X0082765Y0370329D01*
X0083431Y0369753D01*
X0083423Y0369718D01*
X0082621Y0369332D01*
X0082243Y0369488D01*
X0081538Y0369488D01*
X0080887Y0369218D01*
X0080388Y0368720D01*
X0080119Y0368069D01*
X0080119Y0367364D01*
X0080388Y0366713D01*
X0080887Y0366215D01*
X0081538Y0365945D01*
X0082243Y0365945D01*
X0082894Y0366215D01*
X0083392Y0366713D01*
X0083662Y0367364D01*
X0084430Y0367691D01*
X0085081Y0367421D01*
X0085786Y0367421D01*
X0086437Y0367691D01*
X0086479Y0367733D01*
X0087006Y0367699D01*
X0087387Y0367514D01*
X0087425Y0367402D01*
X0087430Y0367161D01*
X0087203Y0366613D01*
X0087203Y0365908D01*
X0087472Y0365257D01*
X0087971Y0364759D01*
X0088140Y0363837D01*
X0088006Y0363513D01*
X0088006Y0362809D01*
X0088276Y0362157D01*
X0088774Y0361659D01*
X0089425Y0361389D01*
X0090130Y0361389D01*
X0090781Y0361659D01*
X0091279Y0362157D01*
X0091549Y0362809D01*
X0091549Y0363513D01*
X0091279Y0364165D01*
X0090781Y0364663D01*
X0090612Y0365585D01*
X0090746Y0365908D01*
X0090746Y0366613D01*
X0090677Y0366780D01*
X0090506Y0367296D01*
X0091011Y0367843D01*
X0091063Y0367874D01*
X0091576Y0368387D01*
X0091939Y0369015D01*
X0092126Y0369716D01*
X0092126Y0370442D01*
X0091939Y0371143D01*
X0091576Y0371771D01*
X0091063Y0372284D01*
X0090434Y0372647D01*
X0089733Y0372835D01*
X0089008Y0372835D01*
X0088307Y0372647D01*
X0087678Y0372284D01*
X0087165Y0371771D01*
X0086890Y0371294D01*
X0086768Y0371133D01*
X0085924Y0370907D01*
X0085786Y0370964D01*
X0085081Y0370964D01*
X0084491Y0370720D01*
X0084290Y0370834D01*
X0083871Y0371250D01*
X0084056Y0371695D01*
X0084056Y0372400D01*
X0083786Y0373051D01*
X0083287Y0373549D01*
X0082636Y0373819D01*
X0081931Y0373819D01*
X0081280Y0373549D01*
X0081044Y0373313D01*
X0080257Y0373639D01*
X0080257Y0373679D01*
X0079987Y0374330D01*
X0079489Y0374829D01*
X0078838Y0375099D01*
D02*
G37*
G36*
X0054020Y0372728D02*
X0053315Y0372728D01*
X0052664Y0372458D01*
X0052166Y0371960D01*
X0051896Y0371309D01*
X0051896Y0370604D01*
X0052166Y0369953D01*
X0052664Y0369454D01*
X0053315Y0369185D01*
X0054020Y0369185D01*
X0054671Y0369454D01*
X0055170Y0369953D01*
X0055440Y0370604D01*
X0055440Y0371309D01*
X0055170Y0371960D01*
X0054671Y0372458D01*
X0054020Y0372728D01*
D02*
G37*
G36*
X0101534Y0373268D02*
X0100829Y0373268D01*
X0100178Y0372998D01*
X0099680Y0372500D01*
X0099410Y0371849D01*
X0099410Y0371144D01*
X0099680Y0370493D01*
X0100168Y0370004D01*
X0099810Y0369645D01*
X0099540Y0368994D01*
X0099540Y0368289D01*
X0099810Y0367638D01*
X0100308Y0367140D01*
X0100960Y0366870D01*
X0101664Y0366870D01*
X0102315Y0367140D01*
X0102814Y0367638D01*
X0102908Y0367865D01*
X0103673Y0367836D01*
X0103741Y0367818D01*
X0104094Y0367206D01*
X0104608Y0366692D01*
X0105236Y0366329D01*
X0105937Y0366142D01*
X0106663Y0366142D01*
X0107363Y0366329D01*
X0107779Y0366569D01*
X0108472Y0366452D01*
X0108734Y0366321D01*
X0108735Y0366319D01*
X0109233Y0365821D01*
X0109884Y0365551D01*
X0110589Y0365551D01*
X0111240Y0365821D01*
X0111739Y0366319D01*
X0112008Y0366970D01*
X0112008Y0367675D01*
X0111739Y0368326D01*
X0111662Y0368403D01*
X0112108Y0369070D01*
X0112270Y0369003D01*
X0112975Y0369003D01*
X0113626Y0369273D01*
X0114125Y0369771D01*
X0114394Y0370422D01*
X0114394Y0371127D01*
X0114125Y0371778D01*
X0113626Y0372277D01*
X0112975Y0372546D01*
X0112270Y0372546D01*
X0111619Y0372277D01*
X0111121Y0371778D01*
X0110851Y0371127D01*
X0110851Y0370422D01*
X0111121Y0369771D01*
X0111197Y0369695D01*
X0110751Y0369027D01*
X0110589Y0369095D01*
X0109884Y0369095D01*
X0109843Y0369077D01*
X0109639Y0369125D01*
X0108973Y0369569D01*
X0108868Y0369961D01*
X0108505Y0370590D01*
X0107992Y0371103D01*
X0107363Y0371466D01*
X0106663Y0371653D01*
X0105937Y0371653D01*
X0105236Y0371466D01*
X0104608Y0371103D01*
X0104094Y0370590D01*
X0103732Y0369961D01*
X0103665Y0369714D01*
X0102926Y0369631D01*
X0102423Y0370232D01*
X0102683Y0370493D01*
X0102953Y0371144D01*
X0102953Y0371849D01*
X0102683Y0372500D01*
X0102185Y0372998D01*
X0101534Y0373268D01*
D02*
G37*
G36*
X0177125Y0371063D02*
X0176420Y0371063D01*
X0175769Y0370793D01*
X0175270Y0370295D01*
X0175001Y0369644D01*
X0175001Y0368939D01*
X0175270Y0368288D01*
X0175769Y0367789D01*
X0176420Y0367520D01*
X0177125Y0367520D01*
X0177666Y0367744D01*
X0178406Y0368014D01*
X0178905Y0367516D01*
X0179556Y0367246D01*
X0180261Y0367246D01*
X0180912Y0367516D01*
X0181410Y0368014D01*
X0181680Y0368665D01*
X0181680Y0369370D01*
X0181410Y0370021D01*
X0180912Y0370520D01*
X0180261Y0370789D01*
X0179556Y0370789D01*
X0179014Y0370565D01*
X0178274Y0370295D01*
X0177776Y0370793D01*
X0177125Y0371063D01*
D02*
G37*
G36*
X0120038Y0373425D02*
X0119333Y0373425D01*
X0118682Y0373155D01*
X0118184Y0372657D01*
X0117914Y0372006D01*
X0117914Y0371301D01*
X0118184Y0370650D01*
X0118230Y0370604D01*
X0118045Y0369675D01*
X0117895Y0369612D01*
X0117396Y0369114D01*
X0117127Y0368463D01*
X0117127Y0367758D01*
X0117396Y0367107D01*
X0117895Y0366608D01*
X0118546Y0366339D01*
X0119251Y0366339D01*
X0119902Y0366608D01*
X0120400Y0367107D01*
X0120564Y0367502D01*
X0121374Y0367630D01*
X0121402Y0367625D01*
X0121417Y0367599D01*
X0121930Y0367086D01*
X0122559Y0366723D01*
X0123260Y0366535D01*
X0123985Y0366535D01*
X0124686Y0366723D01*
X0125315Y0367086D01*
X0125379Y0367150D01*
X0125996Y0367468D01*
X0126421Y0367137D01*
X0126556Y0367002D01*
X0127207Y0366732D01*
X0127912Y0366732D01*
X0128563Y0367002D01*
X0129061Y0367500D01*
X0129331Y0368152D01*
X0129331Y0368856D01*
X0129061Y0369507D01*
X0129090Y0369650D01*
X0129350Y0369758D01*
X0129849Y0370256D01*
X0130119Y0370907D01*
X0130119Y0371612D01*
X0129849Y0372263D01*
X0129350Y0372762D01*
X0128699Y0373032D01*
X0127994Y0373032D01*
X0127343Y0372762D01*
X0126845Y0372263D01*
X0126575Y0371612D01*
X0126575Y0371264D01*
X0125969Y0371036D01*
X0125788Y0371023D01*
X0125315Y0371497D01*
X0124686Y0371859D01*
X0123985Y0372047D01*
X0123260Y0372047D01*
X0122559Y0371859D01*
X0122244Y0371678D01*
X0121531Y0371975D01*
X0121478Y0372019D01*
X0121428Y0372076D01*
X0121187Y0372657D01*
X0120689Y0373155D01*
X0120038Y0373425D01*
D02*
G37*
G36*
X0074369Y0370276D02*
X0073664Y0370276D01*
X0073013Y0370006D01*
X0072514Y0369507D01*
X0072245Y0368856D01*
X0072245Y0368151D01*
X0072514Y0367500D01*
X0073013Y0367002D01*
X0073664Y0366732D01*
X0074369Y0366732D01*
X0075020Y0367002D01*
X0075518Y0367500D01*
X0075788Y0368151D01*
X0075788Y0368856D01*
X0075518Y0369507D01*
X0075020Y0370006D01*
X0074369Y0370276D01*
D02*
G37*
G36*
X0166111Y0371653D02*
X0165386Y0371653D01*
X0164685Y0371466D01*
X0164056Y0371103D01*
X0163543Y0370590D01*
X0163180Y0369961D01*
X0162993Y0369260D01*
X0162993Y0368535D01*
X0163180Y0367834D01*
X0163543Y0367206D01*
X0164056Y0366692D01*
X0164685Y0366329D01*
X0165386Y0366142D01*
X0166111Y0366142D01*
X0166812Y0366329D01*
X0167441Y0366692D01*
X0167954Y0367206D01*
X0168317Y0367834D01*
X0168504Y0368535D01*
X0168504Y0369260D01*
X0168317Y0369961D01*
X0167954Y0370590D01*
X0167441Y0371103D01*
X0166812Y0371466D01*
X0166111Y0371653D01*
D02*
G37*
G36*
X0136340Y0372638D02*
X0135635Y0372638D01*
X0134984Y0372368D01*
X0134485Y0371870D01*
X0134216Y0371219D01*
X0134216Y0371003D01*
X0134213Y0370513D01*
X0133506Y0370276D01*
X0132855Y0370006D01*
X0132357Y0369507D01*
X0132087Y0368856D01*
X0132087Y0368152D01*
X0132357Y0367500D01*
X0132855Y0367002D01*
X0133506Y0366732D01*
X0134211Y0366732D01*
X0134862Y0367002D01*
X0134927Y0367067D01*
X0135714Y0366741D01*
X0135714Y0366461D01*
X0135984Y0365810D01*
X0136482Y0365311D01*
X0137134Y0365042D01*
X0137838Y0365042D01*
X0138489Y0365311D01*
X0138988Y0365810D01*
X0139258Y0366461D01*
X0139258Y0367166D01*
X0138988Y0367817D01*
X0138489Y0368315D01*
X0137838Y0368585D01*
X0137134Y0368585D01*
X0136866Y0369312D01*
X0136991Y0369364D01*
X0137489Y0369863D01*
X0137759Y0370514D01*
X0137759Y0371219D01*
X0137489Y0371870D01*
X0136991Y0372368D01*
X0136340Y0372638D01*
D02*
G37*
G36*
X0112164Y0364764D02*
X0111459Y0364764D01*
X0110808Y0364494D01*
X0110335Y0364021D01*
X0109862Y0364494D01*
X0109211Y0364764D01*
X0108506Y0364764D01*
X0107855Y0364494D01*
X0107357Y0363996D01*
X0107087Y0363345D01*
X0107087Y0362640D01*
X0107357Y0361989D01*
X0107855Y0361490D01*
X0108506Y0361221D01*
X0109211Y0361221D01*
X0109862Y0361490D01*
X0110335Y0361963D01*
X0110808Y0361490D01*
X0111459Y0361221D01*
X0112164Y0361221D01*
X0112815Y0361490D01*
X0113313Y0361989D01*
X0113583Y0362640D01*
X0113583Y0363345D01*
X0113313Y0363996D01*
X0112815Y0364494D01*
X0112164Y0364764D01*
D02*
G37*
G36*
X0066318Y0370903D02*
X0065613Y0370903D01*
X0064962Y0370633D01*
X0064464Y0370135D01*
X0064194Y0369483D01*
X0064194Y0368779D01*
X0064464Y0368127D01*
X0064962Y0367629D01*
X0064979Y0367547D01*
X0064717Y0367285D01*
X0064448Y0366634D01*
X0064448Y0365929D01*
X0064717Y0365278D01*
X0065216Y0364780D01*
X0065867Y0364510D01*
X0066572Y0364510D01*
X0067223Y0364780D01*
X0067721Y0365278D01*
X0067863Y0365622D01*
X0068651Y0365465D01*
X0068651Y0364932D01*
X0068921Y0364281D01*
X0069419Y0363783D01*
X0070070Y0363513D01*
X0070775Y0363513D01*
X0071426Y0363783D01*
X0071924Y0364281D01*
X0072194Y0364932D01*
X0072194Y0365637D01*
X0071924Y0366288D01*
X0071426Y0366787D01*
X0070775Y0367056D01*
X0070070Y0367056D01*
X0069419Y0366787D01*
X0068921Y0366288D01*
X0068778Y0365945D01*
X0067991Y0366102D01*
X0067991Y0366634D01*
X0067721Y0367285D01*
X0067223Y0367784D01*
X0067206Y0367866D01*
X0067468Y0368127D01*
X0067737Y0368779D01*
X0067737Y0369483D01*
X0067468Y0370135D01*
X0066969Y0370633D01*
X0066318Y0370903D01*
D02*
G37*
G36*
X0075747Y0365945D02*
X0075042Y0365945D01*
X0074391Y0365675D01*
X0073892Y0365177D01*
X0073622Y0364526D01*
X0073622Y0363821D01*
X0073892Y0363170D01*
X0074391Y0362671D01*
X0075042Y0362402D01*
X0075747Y0362402D01*
X0076398Y0362671D01*
X0076896Y0363170D01*
X0077166Y0363821D01*
X0077166Y0364526D01*
X0076896Y0365177D01*
X0076398Y0365675D01*
X0075747Y0365945D01*
D02*
G37*
G36*
X0038739Y0367913D02*
X0038034Y0367913D01*
X0037383Y0367644D01*
X0036884Y0367145D01*
X0036615Y0366494D01*
X0036615Y0365789D01*
X0036884Y0365138D01*
X0037383Y0364640D01*
X0038034Y0364370D01*
X0038739Y0364370D01*
X0039167Y0364547D01*
X0039371Y0364411D01*
X0039640Y0363760D01*
X0040139Y0363262D01*
X0040790Y0362992D01*
X0041495Y0362992D01*
X0042146Y0363262D01*
X0042637Y0363753D01*
X0042649Y0363761D01*
X0043544Y0363875D01*
X0043756Y0363664D01*
X0044407Y0363394D01*
X0045112Y0363394D01*
X0045731Y0363651D01*
X0045939Y0363148D01*
X0046438Y0362650D01*
X0047089Y0362380D01*
X0047794Y0362380D01*
X0048445Y0362650D01*
X0048943Y0363148D01*
X0049213Y0363800D01*
X0049213Y0364504D01*
X0048943Y0365156D01*
X0048445Y0365654D01*
X0047794Y0365924D01*
X0047089Y0365924D01*
X0046469Y0365667D01*
X0046261Y0366169D01*
X0045763Y0366667D01*
X0045112Y0366937D01*
X0044407Y0366937D01*
X0043756Y0366667D01*
X0043264Y0366176D01*
X0043253Y0366168D01*
X0042357Y0366054D01*
X0042146Y0366266D01*
X0041495Y0366535D01*
X0040790Y0366535D01*
X0040362Y0366358D01*
X0040158Y0366494D01*
X0039888Y0367145D01*
X0039390Y0367644D01*
X0038739Y0367913D01*
D02*
G37*
G36*
X0180342Y0365813D02*
X0179637Y0365813D01*
X0178986Y0365543D01*
X0178487Y0365045D01*
X0178218Y0364394D01*
X0178218Y0363689D01*
X0178487Y0363038D01*
X0178986Y0362539D01*
X0179637Y0362270D01*
X0180342Y0362270D01*
X0180993Y0362539D01*
X0181491Y0363038D01*
X0181761Y0363689D01*
X0181761Y0364394D01*
X0181491Y0365045D01*
X0180993Y0365543D01*
X0180342Y0365813D01*
D02*
G37*
G36*
X0125550Y0362008D02*
X0124845Y0362008D01*
X0124194Y0361738D01*
X0123695Y0361240D01*
X0122921Y0361428D01*
X0122400Y0361644D01*
X0121695Y0361644D01*
X0121044Y0361374D01*
X0120973Y0361302D01*
X0120488Y0360916D01*
X0119944Y0361302D01*
X0119902Y0361344D01*
X0119251Y0361614D01*
X0118546Y0361614D01*
X0117895Y0361344D01*
X0117396Y0360846D01*
X0117127Y0360195D01*
X0117127Y0359490D01*
X0117396Y0358839D01*
X0117895Y0358341D01*
X0118546Y0358071D01*
X0119251Y0358071D01*
X0119902Y0358341D01*
X0119973Y0358412D01*
X0120458Y0358798D01*
X0121002Y0358412D01*
X0121044Y0358370D01*
X0121695Y0358100D01*
X0122400Y0358100D01*
X0123051Y0358370D01*
X0123550Y0358868D01*
X0124324Y0358680D01*
X0124845Y0358465D01*
X0125550Y0358465D01*
X0126201Y0358734D01*
X0126699Y0359233D01*
X0126969Y0359884D01*
X0126969Y0360589D01*
X0126699Y0361240D01*
X0126201Y0361738D01*
X0125550Y0362008D01*
D02*
G37*
G36*
X0154880Y0364764D02*
X0154176Y0364764D01*
X0153524Y0364494D01*
X0153026Y0363996D01*
X0152756Y0363345D01*
X0152756Y0362640D01*
X0153026Y0361989D01*
X0153524Y0361490D01*
X0154176Y0361221D01*
X0154880Y0361221D01*
X0155532Y0361490D01*
X0156030Y0361989D01*
X0156070Y0362086D01*
X0156923Y0362086D01*
X0156963Y0361989D01*
X0157462Y0361490D01*
X0158113Y0361221D01*
X0158817Y0361221D01*
X0159469Y0361490D01*
X0159967Y0361989D01*
X0160237Y0362640D01*
X0160237Y0363345D01*
X0159967Y0363996D01*
X0159469Y0364494D01*
X0158817Y0364764D01*
X0158113Y0364764D01*
X0157462Y0364494D01*
X0156963Y0363996D01*
X0156923Y0363898D01*
X0156070Y0363898D01*
X0156030Y0363996D01*
X0155532Y0364494D01*
X0154880Y0364764D01*
D02*
G37*
G36*
X0102923Y0361766D02*
X0102218Y0361766D01*
X0101567Y0361497D01*
X0101345Y0361275D01*
X0100966Y0361035D01*
X0100326Y0361264D01*
X0100217Y0361374D01*
X0099566Y0361644D01*
X0098861Y0361644D01*
X0098210Y0361374D01*
X0098138Y0361302D01*
X0097654Y0360916D01*
X0097109Y0361302D01*
X0097067Y0361344D01*
X0096416Y0361614D01*
X0095711Y0361614D01*
X0095060Y0361344D01*
X0094562Y0360846D01*
X0094292Y0360195D01*
X0094292Y0359490D01*
X0094562Y0358839D01*
X0095060Y0358341D01*
X0095711Y0358071D01*
X0096416Y0358071D01*
X0097067Y0358341D01*
X0097139Y0358412D01*
X0097623Y0358798D01*
X0098167Y0358412D01*
X0098210Y0358370D01*
X0098861Y0358100D01*
X0099566Y0358100D01*
X0100217Y0358370D01*
X0100439Y0358592D01*
X0100817Y0358832D01*
X0101457Y0358602D01*
X0101567Y0358493D01*
X0102218Y0358223D01*
X0102923Y0358223D01*
X0103574Y0358493D01*
X0104072Y0358991D01*
X0104342Y0359642D01*
X0104342Y0360347D01*
X0104072Y0360998D01*
X0103574Y0361497D01*
X0102923Y0361766D01*
D02*
G37*
G36*
X0168069Y0361644D02*
X0167365Y0361644D01*
X0166713Y0361374D01*
X0166642Y0361302D01*
X0166157Y0360916D01*
X0165613Y0361302D01*
X0165571Y0361344D01*
X0164920Y0361614D01*
X0164215Y0361614D01*
X0163564Y0361344D01*
X0163065Y0360846D01*
X0162796Y0360195D01*
X0162796Y0359490D01*
X0163065Y0358839D01*
X0163564Y0358341D01*
X0164215Y0358071D01*
X0164920Y0358071D01*
X0165571Y0358341D01*
X0165643Y0358412D01*
X0166127Y0358798D01*
X0166671Y0358412D01*
X0166713Y0358370D01*
X0167365Y0358100D01*
X0168069Y0358100D01*
X0168721Y0358370D01*
X0168763Y0358412D01*
X0169307Y0358798D01*
X0169791Y0358412D01*
X0169863Y0358341D01*
X0170514Y0358071D01*
X0171219Y0358071D01*
X0171426Y0358157D01*
X0172224Y0358286D01*
X0172722Y0357788D01*
X0173374Y0357518D01*
X0174079Y0357518D01*
X0174730Y0357788D01*
X0175228Y0358286D01*
X0175498Y0358938D01*
X0175498Y0359642D01*
X0175228Y0360294D01*
X0174730Y0360792D01*
X0174079Y0361062D01*
X0173374Y0361062D01*
X0173167Y0360976D01*
X0172369Y0360846D01*
X0171870Y0361344D01*
X0171219Y0361614D01*
X0170514Y0361614D01*
X0169863Y0361344D01*
X0169821Y0361302D01*
X0169277Y0360916D01*
X0168792Y0361302D01*
X0168721Y0361374D01*
X0168069Y0361644D01*
D02*
G37*
G36*
X0145235Y0361644D02*
X0144530Y0361644D01*
X0143879Y0361374D01*
X0143807Y0361302D01*
X0143323Y0360916D01*
X0142778Y0361302D01*
X0142736Y0361344D01*
X0142085Y0361614D01*
X0141380Y0361614D01*
X0140729Y0361344D01*
X0140231Y0360846D01*
X0139961Y0360195D01*
X0139961Y0359490D01*
X0140231Y0358839D01*
X0140729Y0358341D01*
X0141380Y0358071D01*
X0142085Y0358071D01*
X0142736Y0358341D01*
X0142808Y0358412D01*
X0143292Y0358798D01*
X0143837Y0358412D01*
X0143879Y0358370D01*
X0144530Y0358100D01*
X0145235Y0358100D01*
X0145886Y0358370D01*
X0145928Y0358412D01*
X0146473Y0358798D01*
X0146957Y0358412D01*
X0147028Y0358341D01*
X0147679Y0358071D01*
X0148384Y0358071D01*
X0149036Y0358341D01*
X0149534Y0358839D01*
X0149804Y0359490D01*
X0149804Y0360195D01*
X0149534Y0360846D01*
X0149036Y0361344D01*
X0148384Y0361614D01*
X0147679Y0361614D01*
X0147028Y0361344D01*
X0146986Y0361302D01*
X0146442Y0360916D01*
X0145957Y0361302D01*
X0145886Y0361374D01*
X0145235Y0361644D01*
D02*
G37*
G36*
X0065707Y0363189D02*
X0065002Y0363189D01*
X0064351Y0362919D01*
X0063853Y0362421D01*
X0063583Y0361770D01*
X0063583Y0361065D01*
X0063853Y0360414D01*
X0064351Y0359915D01*
X0065002Y0359646D01*
X0065707Y0359646D01*
X0066358Y0359915D01*
X0066857Y0360414D01*
X0067126Y0361065D01*
X0067126Y0361770D01*
X0066857Y0362421D01*
X0066358Y0362919D01*
X0065707Y0363189D01*
D02*
G37*
G36*
X0133121Y0364864D02*
X0132416Y0364864D01*
X0131765Y0364594D01*
X0131267Y0364096D01*
X0130997Y0363445D01*
X0130997Y0362740D01*
X0131267Y0362089D01*
X0131765Y0361590D01*
X0132416Y0361321D01*
X0133121Y0361321D01*
X0133671Y0360953D01*
X0133671Y0360856D01*
X0133941Y0360205D01*
X0134439Y0359707D01*
X0135090Y0359437D01*
X0135795Y0359437D01*
X0136446Y0359707D01*
X0136945Y0360205D01*
X0137214Y0360856D01*
X0137214Y0361561D01*
X0136945Y0362212D01*
X0136446Y0362711D01*
X0135795Y0362980D01*
X0135090Y0362980D01*
X0134540Y0363348D01*
X0134540Y0363445D01*
X0134271Y0364096D01*
X0133772Y0364594D01*
X0133121Y0364864D01*
D02*
G37*
G36*
X0082338Y0364621D02*
X0081633Y0364621D01*
X0080982Y0364351D01*
X0080483Y0363853D01*
X0080214Y0363201D01*
X0080214Y0362497D01*
X0080483Y0361845D01*
X0080837Y0361492D01*
X0080961Y0361160D01*
X0080891Y0360532D01*
X0080615Y0360255D01*
X0080345Y0359604D01*
X0080345Y0358900D01*
X0080615Y0358248D01*
X0080998Y0357865D01*
X0080985Y0357801D01*
X0080487Y0357303D01*
X0080217Y0356652D01*
X0080217Y0356177D01*
X0079723Y0355723D01*
X0079499Y0355622D01*
X0079290Y0355709D01*
X0078585Y0355709D01*
X0077934Y0355439D01*
X0077436Y0354941D01*
X0077166Y0354289D01*
X0077166Y0353585D01*
X0077436Y0352933D01*
X0077934Y0352435D01*
X0078585Y0352165D01*
X0079290Y0352165D01*
X0079941Y0352435D01*
X0080439Y0352933D01*
X0080709Y0353585D01*
X0080709Y0354059D01*
X0081203Y0354513D01*
X0081427Y0354614D01*
X0081636Y0354528D01*
X0082341Y0354528D01*
X0082992Y0354797D01*
X0083491Y0355296D01*
X0083760Y0355947D01*
X0083760Y0356652D01*
X0083491Y0357303D01*
X0083107Y0357686D01*
X0083120Y0357750D01*
X0083618Y0358248D01*
X0083888Y0358900D01*
X0083888Y0359604D01*
X0083618Y0360255D01*
X0083265Y0360609D01*
X0083141Y0360941D01*
X0083211Y0361569D01*
X0083487Y0361845D01*
X0083757Y0362497D01*
X0083757Y0363201D01*
X0083487Y0363853D01*
X0082989Y0364351D01*
X0082338Y0364621D01*
D02*
G37*
G36*
X0038443Y0358071D02*
X0037739Y0358071D01*
X0037087Y0357801D01*
X0036589Y0357303D01*
X0036319Y0356652D01*
X0036319Y0355947D01*
X0036589Y0355296D01*
X0037087Y0354797D01*
X0037739Y0354528D01*
X0038443Y0354528D01*
X0039095Y0354797D01*
X0039593Y0355296D01*
X0039863Y0355947D01*
X0039863Y0356652D01*
X0039593Y0357303D01*
X0039095Y0357801D01*
X0038443Y0358071D01*
D02*
G37*
G36*
X0181061Y0354921D02*
X0180357Y0354921D01*
X0179706Y0354652D01*
X0179207Y0354153D01*
X0178937Y0353502D01*
X0178937Y0353422D01*
X0178150Y0353096D01*
X0177973Y0353274D01*
X0177321Y0353543D01*
X0176617Y0353543D01*
X0175965Y0353274D01*
X0175467Y0352775D01*
X0175197Y0352124D01*
X0175197Y0351419D01*
X0175467Y0350768D01*
X0175965Y0350270D01*
X0176617Y0350000D01*
X0177321Y0350000D01*
X0177973Y0350270D01*
X0178471Y0350768D01*
X0178741Y0351419D01*
X0178741Y0351499D01*
X0179528Y0351825D01*
X0179706Y0351648D01*
X0180357Y0351378D01*
X0181004Y0351140D01*
X0181004Y0350435D01*
X0181274Y0349784D01*
X0181772Y0349286D01*
X0182424Y0349016D01*
X0183128Y0349016D01*
X0183780Y0349286D01*
X0184278Y0349784D01*
X0184548Y0350435D01*
X0184548Y0351140D01*
X0184278Y0351791D01*
X0183780Y0352289D01*
X0183128Y0352559D01*
X0182481Y0352797D01*
X0182481Y0353502D01*
X0182211Y0354153D01*
X0181713Y0354652D01*
X0181061Y0354921D01*
D02*
G37*
G36*
X0044855Y0356030D02*
X0044150Y0356030D01*
X0043499Y0355760D01*
X0043000Y0355262D01*
X0042731Y0354611D01*
X0042731Y0353906D01*
X0043000Y0353255D01*
X0043499Y0352757D01*
X0044150Y0352487D01*
X0044855Y0352487D01*
X0045506Y0352757D01*
X0046004Y0353255D01*
X0046274Y0353906D01*
X0046274Y0354611D01*
X0046004Y0355262D01*
X0045506Y0355760D01*
X0044855Y0356030D01*
D02*
G37*
G36*
X0049868Y0355960D02*
X0049163Y0355960D01*
X0048512Y0355690D01*
X0048013Y0355192D01*
X0047744Y0354541D01*
X0047744Y0353836D01*
X0048013Y0353185D01*
X0048512Y0352687D01*
X0049163Y0352417D01*
X0049868Y0352417D01*
X0050519Y0352687D01*
X0051017Y0353185D01*
X0051287Y0353836D01*
X0051287Y0354541D01*
X0051017Y0355192D01*
X0050519Y0355690D01*
X0049868Y0355960D01*
D02*
G37*
G36*
X0094644Y0354921D02*
X0093939Y0354921D01*
X0093288Y0354651D01*
X0092790Y0354153D01*
X0092520Y0353502D01*
X0092520Y0352797D01*
X0092790Y0352146D01*
X0093288Y0351648D01*
X0093939Y0351378D01*
X0094644Y0351378D01*
X0095295Y0351648D01*
X0095794Y0352146D01*
X0096064Y0352797D01*
X0096064Y0353502D01*
X0095794Y0354153D01*
X0095295Y0354651D01*
X0094644Y0354921D01*
D02*
G37*
G36*
X0163148Y0354921D02*
X0162443Y0354921D01*
X0161792Y0354651D01*
X0161294Y0354153D01*
X0161024Y0353502D01*
X0161024Y0352797D01*
X0161294Y0352146D01*
X0161792Y0351648D01*
X0162443Y0351378D01*
X0163148Y0351378D01*
X0163799Y0351648D01*
X0164298Y0352146D01*
X0164567Y0352797D01*
X0164567Y0353502D01*
X0164298Y0354153D01*
X0163799Y0354651D01*
X0163148Y0354921D01*
D02*
G37*
G36*
X0140313Y0354921D02*
X0139609Y0354921D01*
X0138958Y0354651D01*
X0138459Y0354153D01*
X0138189Y0353502D01*
X0138189Y0352797D01*
X0138459Y0352146D01*
X0138958Y0351648D01*
X0139609Y0351378D01*
X0140313Y0351378D01*
X0140965Y0351648D01*
X0141463Y0352146D01*
X0141733Y0352797D01*
X0141733Y0353502D01*
X0141463Y0354153D01*
X0140965Y0354651D01*
X0140313Y0354921D01*
D02*
G37*
G36*
X0117479Y0354921D02*
X0116774Y0354921D01*
X0116123Y0354651D01*
X0115625Y0354153D01*
X0115355Y0353502D01*
X0115355Y0352797D01*
X0115625Y0352146D01*
X0116123Y0351648D01*
X0116774Y0351378D01*
X0117479Y0351378D01*
X0118130Y0351648D01*
X0118628Y0352146D01*
X0118898Y0352797D01*
X0118898Y0353502D01*
X0118628Y0354153D01*
X0118130Y0354651D01*
X0117479Y0354921D01*
D02*
G37*
G36*
X0066399Y0357427D02*
X0065695Y0357427D01*
X0065043Y0357157D01*
X0064545Y0356659D01*
X0064275Y0356008D01*
X0064275Y0355303D01*
X0064371Y0355072D01*
X0064630Y0354327D01*
X0064132Y0353828D01*
X0063862Y0353177D01*
X0063862Y0352472D01*
X0064132Y0351821D01*
X0064630Y0351323D01*
X0065281Y0351053D01*
X0065986Y0351053D01*
X0066637Y0351323D01*
X0067136Y0351821D01*
X0067405Y0352472D01*
X0067405Y0353177D01*
X0067310Y0353408D01*
X0067051Y0354153D01*
X0067549Y0354651D01*
X0067819Y0355303D01*
X0067819Y0356008D01*
X0067549Y0356659D01*
X0067051Y0357157D01*
X0066399Y0357427D01*
D02*
G37*
G36*
X0186724Y0355080D02*
X0186019Y0355080D01*
X0185368Y0354810D01*
X0184869Y0354312D01*
X0184600Y0353661D01*
X0184600Y0352956D01*
X0184869Y0352305D01*
X0185368Y0351806D01*
X0186019Y0351537D01*
X0186724Y0351537D01*
X0187375Y0351806D01*
X0187384Y0351815D01*
X0188262Y0351752D01*
X0188761Y0351254D01*
X0189412Y0350984D01*
X0190117Y0350984D01*
X0190768Y0351254D01*
X0191266Y0351752D01*
X0191536Y0352404D01*
X0191536Y0353108D01*
X0191266Y0353760D01*
X0190768Y0354258D01*
X0190117Y0354528D01*
X0189412Y0354528D01*
X0188761Y0354258D01*
X0188752Y0354249D01*
X0187873Y0354312D01*
X0187375Y0354810D01*
X0186724Y0355080D01*
D02*
G37*
G36*
X0054388Y0363875D02*
X0053684Y0363875D01*
X0053032Y0363605D01*
X0052534Y0363107D01*
X0052264Y0362456D01*
X0052264Y0361751D01*
X0052534Y0361100D01*
X0053020Y0360614D01*
X0052662Y0360255D01*
X0052392Y0359604D01*
X0052392Y0358900D01*
X0052662Y0358248D01*
X0052614Y0357382D01*
X0052534Y0357303D01*
X0052264Y0356652D01*
X0052264Y0355947D01*
X0052534Y0355296D01*
X0052935Y0354894D01*
X0053032Y0354738D01*
X0053020Y0353950D01*
X0052829Y0353760D01*
X0052559Y0353108D01*
X0052559Y0352404D01*
X0052829Y0351752D01*
X0053328Y0351254D01*
X0053979Y0350984D01*
X0054684Y0350984D01*
X0055335Y0351254D01*
X0055833Y0351752D01*
X0056103Y0352404D01*
X0056103Y0353108D01*
X0055833Y0353760D01*
X0055432Y0354161D01*
X0055336Y0354317D01*
X0055347Y0355105D01*
X0055538Y0355296D01*
X0055808Y0355947D01*
X0055808Y0356652D01*
X0055538Y0357303D01*
X0055586Y0358169D01*
X0055666Y0358248D01*
X0055936Y0358900D01*
X0055936Y0359604D01*
X0055666Y0360255D01*
X0055180Y0360742D01*
X0055538Y0361100D01*
X0055808Y0361751D01*
X0055808Y0362456D01*
X0055538Y0363107D01*
X0055040Y0363605D01*
X0054388Y0363875D01*
D02*
G37*
G36*
X0135983Y0353543D02*
X0135278Y0353543D01*
X0134627Y0353274D01*
X0134129Y0352775D01*
X0133859Y0352124D01*
X0133859Y0351419D01*
X0134129Y0350768D01*
X0134627Y0350270D01*
X0135278Y0350000D01*
X0135983Y0350000D01*
X0136634Y0350270D01*
X0137132Y0350768D01*
X0137402Y0351419D01*
X0137402Y0352124D01*
X0137132Y0352775D01*
X0136634Y0353274D01*
X0135983Y0353543D01*
D02*
G37*
G36*
X0113148Y0353543D02*
X0112443Y0353543D01*
X0111792Y0353274D01*
X0111294Y0352775D01*
X0111024Y0352124D01*
X0111024Y0351419D01*
X0111294Y0350768D01*
X0111792Y0350270D01*
X0112443Y0350000D01*
X0113148Y0350000D01*
X0113799Y0350270D01*
X0114298Y0350768D01*
X0114567Y0351419D01*
X0114567Y0352124D01*
X0114298Y0352775D01*
X0113799Y0353274D01*
X0113148Y0353543D01*
D02*
G37*
G36*
X0158817Y0353543D02*
X0158113Y0353543D01*
X0157462Y0353274D01*
X0156963Y0352775D01*
X0156693Y0352124D01*
X0156693Y0351419D01*
X0156963Y0350768D01*
X0157462Y0350270D01*
X0158113Y0350000D01*
X0158817Y0350000D01*
X0159469Y0350270D01*
X0159967Y0350768D01*
X0160237Y0351419D01*
X0160237Y0352124D01*
X0159967Y0352775D01*
X0159469Y0353274D01*
X0158817Y0353543D01*
D02*
G37*
G36*
X0090314Y0353543D02*
X0089609Y0353543D01*
X0088958Y0353274D01*
X0088459Y0352775D01*
X0088190Y0352124D01*
X0088190Y0351419D01*
X0088459Y0350768D01*
X0088958Y0350270D01*
X0089609Y0350000D01*
X0090314Y0350000D01*
X0090965Y0350270D01*
X0091463Y0350768D01*
X0091733Y0351419D01*
X0091733Y0352124D01*
X0091463Y0352775D01*
X0090965Y0353274D01*
X0090314Y0353543D01*
D02*
G37*
G36*
X0150501Y0355069D02*
X0149796Y0355069D01*
X0149145Y0354799D01*
X0148646Y0354301D01*
X0148377Y0353650D01*
X0148377Y0352945D01*
X0148646Y0352294D01*
X0149119Y0351821D01*
X0148695Y0351397D01*
X0148426Y0350746D01*
X0148426Y0350041D01*
X0148695Y0349390D01*
X0149194Y0348892D01*
X0149845Y0348622D01*
X0150550Y0348622D01*
X0151201Y0348892D01*
X0151699Y0349390D01*
X0151969Y0350041D01*
X0151969Y0350746D01*
X0151699Y0351397D01*
X0151226Y0351870D01*
X0151650Y0352294D01*
X0151920Y0352945D01*
X0151920Y0353650D01*
X0151650Y0354301D01*
X0151152Y0354799D01*
X0150501Y0355069D01*
D02*
G37*
G36*
X0104831Y0355069D02*
X0104126Y0355069D01*
X0103475Y0354799D01*
X0102977Y0354301D01*
X0102707Y0353650D01*
X0102707Y0352945D01*
X0102977Y0352294D01*
X0103450Y0351821D01*
X0103026Y0351397D01*
X0102756Y0350746D01*
X0102756Y0350041D01*
X0103026Y0349390D01*
X0103525Y0348892D01*
X0104176Y0348622D01*
X0104880Y0348622D01*
X0105532Y0348892D01*
X0106030Y0349390D01*
X0106300Y0350041D01*
X0106300Y0350746D01*
X0106030Y0351397D01*
X0105557Y0351870D01*
X0105981Y0352294D01*
X0106251Y0352945D01*
X0106251Y0353650D01*
X0105981Y0354301D01*
X0105482Y0354799D01*
X0104831Y0355069D01*
D02*
G37*
G36*
X0072991Y0355709D02*
X0072286Y0355709D01*
X0071635Y0355439D01*
X0071136Y0354941D01*
X0070867Y0354289D01*
X0070867Y0353585D01*
X0071136Y0352933D01*
X0071635Y0352435D01*
X0072286Y0352165D01*
X0072647Y0352165D01*
X0072758Y0351964D01*
X0072889Y0351378D01*
X0072514Y0351004D01*
X0072245Y0350352D01*
X0072245Y0349648D01*
X0072514Y0348996D01*
X0073013Y0348498D01*
X0073664Y0348228D01*
X0074369Y0348228D01*
X0075020Y0348498D01*
X0075518Y0348996D01*
X0075788Y0349648D01*
X0075788Y0350352D01*
X0075518Y0351004D01*
X0075020Y0351502D01*
X0074369Y0351772D01*
X0074007Y0351772D01*
X0073896Y0351973D01*
X0073766Y0352559D01*
X0074140Y0352933D01*
X0074410Y0353585D01*
X0074410Y0354289D01*
X0074140Y0354941D01*
X0073642Y0355439D01*
X0072991Y0355709D01*
D02*
G37*
G36*
X0128306Y0357677D02*
X0127601Y0357677D01*
X0126950Y0357408D01*
X0126451Y0356909D01*
X0126182Y0356258D01*
X0126182Y0355553D01*
X0126451Y0354902D01*
X0126508Y0354845D01*
X0126895Y0354331D01*
X0126508Y0353816D01*
X0126451Y0353760D01*
X0126182Y0353108D01*
X0126182Y0352404D01*
X0126451Y0351752D01*
X0126923Y0351280D01*
X0126550Y0350907D01*
X0126280Y0350256D01*
X0126280Y0349551D01*
X0126550Y0348900D01*
X0127048Y0348401D01*
X0127699Y0348132D01*
X0128404Y0348132D01*
X0129055Y0348401D01*
X0129554Y0348900D01*
X0129823Y0349551D01*
X0129823Y0350256D01*
X0129554Y0350907D01*
X0129082Y0351379D01*
X0129455Y0351752D01*
X0129725Y0352404D01*
X0129725Y0353108D01*
X0129455Y0353760D01*
X0129398Y0353816D01*
X0129012Y0354331D01*
X0129398Y0354845D01*
X0129455Y0354902D01*
X0129725Y0355553D01*
X0129725Y0356258D01*
X0129455Y0356909D01*
X0128957Y0357408D01*
X0128306Y0357677D01*
D02*
G37*
G36*
X0035195Y0351378D02*
X0034491Y0351378D01*
X0033839Y0351108D01*
X0033341Y0350610D01*
X0033071Y0349959D01*
X0033071Y0349254D01*
X0033341Y0348603D01*
X0033839Y0348104D01*
X0034491Y0347835D01*
X0035195Y0347835D01*
X0035847Y0348104D01*
X0036345Y0348603D01*
X0036615Y0349254D01*
X0036615Y0349959D01*
X0036345Y0350610D01*
X0035847Y0351108D01*
X0035195Y0351378D01*
D02*
G37*
G36*
X0082526Y0351302D02*
X0081821Y0351302D01*
X0081170Y0351032D01*
X0080671Y0350534D01*
X0080402Y0349883D01*
X0080402Y0349178D01*
X0080671Y0348527D01*
X0081170Y0348028D01*
X0081821Y0347759D01*
X0082526Y0347759D01*
X0083177Y0348028D01*
X0083675Y0348527D01*
X0083945Y0349178D01*
X0083945Y0349883D01*
X0083675Y0350534D01*
X0083177Y0351032D01*
X0082526Y0351302D01*
D02*
G37*
G36*
X0094644Y0348622D02*
X0093939Y0348622D01*
X0093288Y0348352D01*
X0092790Y0347854D01*
X0092520Y0347203D01*
X0092520Y0346532D01*
X0092161Y0346192D01*
X0091864Y0346025D01*
X0091298Y0346260D01*
X0090593Y0346260D01*
X0089942Y0345990D01*
X0089443Y0345492D01*
X0089174Y0344841D01*
X0089174Y0344136D01*
X0089443Y0343485D01*
X0089942Y0342986D01*
X0090593Y0342717D01*
X0091298Y0342717D01*
X0091949Y0342986D01*
X0092447Y0343485D01*
X0092717Y0344136D01*
X0092717Y0344806D01*
X0093076Y0345147D01*
X0093374Y0345313D01*
X0093939Y0345079D01*
X0094644Y0345079D01*
X0095295Y0345349D01*
X0095794Y0345847D01*
X0096064Y0346498D01*
X0096064Y0347203D01*
X0095794Y0347854D01*
X0095295Y0348352D01*
X0094644Y0348622D01*
D02*
G37*
G36*
X0071219Y0348622D02*
X0070514Y0348622D01*
X0069863Y0348352D01*
X0069365Y0347854D01*
X0069095Y0347203D01*
X0069095Y0346498D01*
X0069365Y0345847D01*
X0069863Y0345349D01*
X0070514Y0345079D01*
X0071219Y0345079D01*
X0071870Y0345349D01*
X0072368Y0345847D01*
X0072638Y0346498D01*
X0072638Y0347203D01*
X0072368Y0347854D01*
X0071870Y0348352D01*
X0071219Y0348622D01*
D02*
G37*
G36*
X0060589Y0348622D02*
X0059884Y0348622D01*
X0059233Y0348352D01*
X0058735Y0347854D01*
X0058465Y0347203D01*
X0058465Y0346498D01*
X0058735Y0345847D01*
X0059233Y0345349D01*
X0059884Y0345079D01*
X0060589Y0345079D01*
X0061240Y0345349D01*
X0061739Y0345847D01*
X0062008Y0346498D01*
X0062008Y0347203D01*
X0061739Y0347854D01*
X0061240Y0348352D01*
X0060589Y0348622D01*
D02*
G37*
G36*
X0163148Y0348622D02*
X0162443Y0348622D01*
X0161792Y0348352D01*
X0161294Y0347854D01*
X0161024Y0347203D01*
X0161024Y0346498D01*
X0161294Y0345847D01*
X0161792Y0345349D01*
X0162443Y0345079D01*
X0163148Y0345079D01*
X0163799Y0345349D01*
X0164298Y0345847D01*
X0164567Y0346498D01*
X0164567Y0347203D01*
X0164298Y0347854D01*
X0163799Y0348352D01*
X0163148Y0348622D01*
D02*
G37*
G36*
X0140313Y0348622D02*
X0139609Y0348622D01*
X0138958Y0348352D01*
X0138459Y0347854D01*
X0138189Y0347203D01*
X0138189Y0346498D01*
X0138459Y0345847D01*
X0138958Y0345349D01*
X0139609Y0345079D01*
X0140313Y0345079D01*
X0140965Y0345349D01*
X0141463Y0345847D01*
X0141733Y0346498D01*
X0141733Y0347203D01*
X0141463Y0347854D01*
X0140965Y0348352D01*
X0140313Y0348622D01*
D02*
G37*
G36*
X0117479Y0348622D02*
X0116774Y0348622D01*
X0116123Y0348352D01*
X0115625Y0347854D01*
X0115355Y0347203D01*
X0115355Y0346498D01*
X0115625Y0345847D01*
X0116123Y0345349D01*
X0116774Y0345079D01*
X0117479Y0345079D01*
X0118130Y0345349D01*
X0118628Y0345847D01*
X0118898Y0346498D01*
X0118898Y0347203D01*
X0118628Y0347854D01*
X0118130Y0348352D01*
X0117479Y0348622D01*
D02*
G37*
G36*
X0046416Y0351772D02*
X0045711Y0351772D01*
X0045060Y0351502D01*
X0044561Y0351004D01*
X0044292Y0350352D01*
X0044292Y0349648D01*
X0044450Y0349265D01*
X0044496Y0348901D01*
X0044109Y0348336D01*
X0043893Y0348247D01*
X0043395Y0347748D01*
X0043125Y0347097D01*
X0043125Y0346392D01*
X0043395Y0345741D01*
X0043893Y0345243D01*
X0044545Y0344973D01*
X0044709Y0344973D01*
X0044865Y0344186D01*
X0044469Y0344022D01*
X0043971Y0343523D01*
X0043701Y0342872D01*
X0043701Y0342167D01*
X0043971Y0341516D01*
X0044469Y0341018D01*
X0045121Y0340748D01*
X0045825Y0340748D01*
X0046477Y0341018D01*
X0046975Y0341516D01*
X0047245Y0342167D01*
X0047245Y0342872D01*
X0046975Y0343523D01*
X0046477Y0344022D01*
X0045825Y0344291D01*
X0045661Y0344291D01*
X0045504Y0345079D01*
X0045900Y0345243D01*
X0046339Y0345681D01*
X0046738Y0345698D01*
X0047209Y0345639D01*
X0047280Y0345465D01*
X0047779Y0344967D01*
X0048430Y0344697D01*
X0049135Y0344697D01*
X0049786Y0344967D01*
X0050284Y0345465D01*
X0050554Y0346116D01*
X0050554Y0346821D01*
X0050284Y0347472D01*
X0049786Y0347971D01*
X0049135Y0348240D01*
X0048430Y0348240D01*
X0047779Y0347971D01*
X0047082Y0348012D01*
X0047067Y0348498D01*
X0047565Y0348996D01*
X0047835Y0349648D01*
X0047835Y0350352D01*
X0047565Y0351004D01*
X0047067Y0351502D01*
X0046416Y0351772D01*
D02*
G37*
G36*
X0039723Y0347638D02*
X0039018Y0347638D01*
X0038367Y0347368D01*
X0037869Y0346870D01*
X0037599Y0346218D01*
X0037599Y0345514D01*
X0037869Y0344863D01*
X0038367Y0344364D01*
X0039018Y0344094D01*
X0039723Y0344094D01*
X0040374Y0344364D01*
X0040872Y0344863D01*
X0041142Y0345514D01*
X0041142Y0346218D01*
X0040872Y0346870D01*
X0040374Y0347368D01*
X0039723Y0347638D01*
D02*
G37*
G36*
X0078026Y0347379D02*
X0077321Y0347379D01*
X0076670Y0347109D01*
X0076172Y0346611D01*
X0075902Y0345959D01*
X0075902Y0345255D01*
X0076172Y0344604D01*
X0076670Y0344105D01*
X0077321Y0343835D01*
X0078026Y0343835D01*
X0078677Y0344105D01*
X0079176Y0344604D01*
X0079446Y0345255D01*
X0079446Y0345959D01*
X0079176Y0346611D01*
X0078677Y0347109D01*
X0078026Y0347379D01*
D02*
G37*
G36*
X0159408Y0346260D02*
X0158703Y0346260D01*
X0158052Y0345990D01*
X0157554Y0345492D01*
X0157284Y0344841D01*
X0157284Y0344136D01*
X0157554Y0343485D01*
X0158052Y0342986D01*
X0158703Y0342717D01*
X0159408Y0342717D01*
X0160059Y0342986D01*
X0160557Y0343485D01*
X0160827Y0344136D01*
X0160827Y0344841D01*
X0160557Y0345492D01*
X0160059Y0345990D01*
X0159408Y0346260D01*
D02*
G37*
G36*
X0153503Y0346260D02*
X0152798Y0346260D01*
X0152146Y0345990D01*
X0151648Y0345492D01*
X0151378Y0344841D01*
X0151378Y0344136D01*
X0151648Y0343485D01*
X0152146Y0342986D01*
X0152798Y0342717D01*
X0153503Y0342717D01*
X0154154Y0342986D01*
X0154652Y0343485D01*
X0154922Y0344136D01*
X0154922Y0344841D01*
X0154652Y0345492D01*
X0154154Y0345990D01*
X0153503Y0346260D01*
D02*
G37*
G36*
X0136573Y0346260D02*
X0135869Y0346260D01*
X0135217Y0345990D01*
X0134719Y0345492D01*
X0134449Y0344841D01*
X0134449Y0344136D01*
X0134719Y0343485D01*
X0135217Y0342986D01*
X0135869Y0342717D01*
X0136573Y0342717D01*
X0137224Y0342986D01*
X0137723Y0343485D01*
X0137993Y0344136D01*
X0137993Y0344841D01*
X0137723Y0345492D01*
X0137224Y0345990D01*
X0136573Y0346260D01*
D02*
G37*
G36*
X0130668Y0346260D02*
X0129963Y0346260D01*
X0129312Y0345990D01*
X0128814Y0345492D01*
X0128544Y0344841D01*
X0128544Y0344136D01*
X0128814Y0343485D01*
X0129312Y0342986D01*
X0129963Y0342717D01*
X0130668Y0342717D01*
X0131319Y0342986D01*
X0131817Y0343485D01*
X0132087Y0344136D01*
X0132087Y0344841D01*
X0131817Y0345492D01*
X0131319Y0345990D01*
X0130668Y0346260D01*
D02*
G37*
G36*
X0113739Y0346260D02*
X0113034Y0346260D01*
X0112383Y0345990D01*
X0111884Y0345492D01*
X0111615Y0344841D01*
X0111615Y0344136D01*
X0111884Y0343485D01*
X0112383Y0342986D01*
X0113034Y0342717D01*
X0113739Y0342717D01*
X0114390Y0342986D01*
X0114888Y0343485D01*
X0115158Y0344136D01*
X0115158Y0344841D01*
X0114888Y0345492D01*
X0114390Y0345990D01*
X0113739Y0346260D01*
D02*
G37*
G36*
X0108227Y0346260D02*
X0107522Y0346260D01*
X0106871Y0345990D01*
X0106373Y0345492D01*
X0106103Y0344841D01*
X0106103Y0344136D01*
X0106373Y0343485D01*
X0106871Y0342986D01*
X0107522Y0342717D01*
X0108227Y0342717D01*
X0108878Y0342986D01*
X0109376Y0343485D01*
X0109646Y0344136D01*
X0109646Y0344841D01*
X0109376Y0345492D01*
X0108878Y0345990D01*
X0108227Y0346260D01*
D02*
G37*
G36*
X0083030Y0344291D02*
X0082325Y0344291D01*
X0081674Y0344022D01*
X0081176Y0343523D01*
X0080906Y0342872D01*
X0080906Y0342167D01*
X0081176Y0341516D01*
X0081674Y0341018D01*
X0082325Y0340748D01*
X0083030Y0340748D01*
X0083681Y0341018D01*
X0084180Y0341516D01*
X0084449Y0342167D01*
X0084449Y0342872D01*
X0084180Y0343523D01*
X0083681Y0344022D01*
X0083030Y0344291D01*
D02*
G37*
G36*
X0070628Y0344291D02*
X0069924Y0344291D01*
X0069272Y0344022D01*
X0068774Y0343523D01*
X0068504Y0342872D01*
X0068504Y0342167D01*
X0068774Y0341516D01*
X0069272Y0341018D01*
X0069924Y0340748D01*
X0070628Y0340748D01*
X0071280Y0341018D01*
X0071778Y0341516D01*
X0072048Y0342167D01*
X0072048Y0342872D01*
X0071778Y0343523D01*
X0071280Y0344022D01*
X0070628Y0344291D01*
D02*
G37*
G36*
X0058227Y0344291D02*
X0057522Y0344291D01*
X0056871Y0344022D01*
X0056373Y0343523D01*
X0056103Y0342872D01*
X0056103Y0342167D01*
X0056373Y0341516D01*
X0056871Y0341018D01*
X0057522Y0340748D01*
X0058227Y0340748D01*
X0058878Y0341018D01*
X0059376Y0341516D01*
X0059646Y0342167D01*
X0059646Y0342872D01*
X0059376Y0343523D01*
X0058878Y0344022D01*
X0058227Y0344291D01*
D02*
G37*
G36*
X0033424Y0344291D02*
X0032719Y0344291D01*
X0032068Y0344022D01*
X0031569Y0343523D01*
X0031300Y0342872D01*
X0031300Y0342167D01*
X0031569Y0341516D01*
X0032068Y0341018D01*
X0032719Y0340748D01*
X0033424Y0340748D01*
X0034075Y0341018D01*
X0034573Y0341516D01*
X0034843Y0342167D01*
X0034843Y0342872D01*
X0034573Y0343523D01*
X0034075Y0344022D01*
X0033424Y0344291D01*
D02*
G37*
G36*
X0178336Y0345109D02*
X0177631Y0345109D01*
X0176980Y0344839D01*
X0176481Y0344341D01*
X0176212Y0343690D01*
X0176212Y0342985D01*
X0176261Y0342865D01*
X0176359Y0342053D01*
X0175861Y0341555D01*
X0175591Y0340904D01*
X0175591Y0340199D01*
X0175861Y0339548D01*
X0176359Y0339049D01*
X0177010Y0338780D01*
X0177715Y0338780D01*
X0178366Y0339049D01*
X0178865Y0339548D01*
X0179134Y0340199D01*
X0179134Y0340904D01*
X0179085Y0341023D01*
X0178987Y0341835D01*
X0179485Y0342334D01*
X0179755Y0342985D01*
X0179755Y0343690D01*
X0179485Y0344341D01*
X0178987Y0344839D01*
X0178336Y0345109D01*
D02*
G37*
G36*
X0182735Y0342126D02*
X0182030Y0342126D01*
X0181379Y0341856D01*
X0180880Y0341358D01*
X0180611Y0340707D01*
X0180611Y0340002D01*
X0180880Y0339351D01*
X0181379Y0338852D01*
X0182030Y0338583D01*
X0182735Y0338583D01*
X0183386Y0338852D01*
X0183884Y0339351D01*
X0184154Y0340002D01*
X0184154Y0340707D01*
X0183884Y0341358D01*
X0183386Y0341856D01*
X0182735Y0342126D01*
D02*
G37*
G36*
X0191567Y0341632D02*
X0190862Y0341632D01*
X0190211Y0341362D01*
X0189712Y0340864D01*
X0189443Y0340213D01*
X0189443Y0339508D01*
X0189712Y0338857D01*
X0190211Y0338358D01*
X0190862Y0338089D01*
X0191567Y0338089D01*
X0192218Y0338358D01*
X0192716Y0338857D01*
X0192986Y0339508D01*
X0192986Y0340213D01*
X0192716Y0340864D01*
X0192218Y0341362D01*
X0191567Y0341632D01*
D02*
G37*
G36*
X0089598Y0341356D02*
X0088893Y0341356D01*
X0088242Y0341086D01*
X0087743Y0340587D01*
X0087474Y0339936D01*
X0087474Y0339231D01*
X0087743Y0338580D01*
X0088242Y0338082D01*
X0088893Y0337812D01*
X0089598Y0337812D01*
X0090249Y0338082D01*
X0090747Y0338580D01*
X0091017Y0339231D01*
X0091017Y0339936D01*
X0090747Y0340587D01*
X0090249Y0341086D01*
X0089598Y0341356D01*
D02*
G37*
G36*
X0186967Y0340748D02*
X0186262Y0340748D01*
X0185611Y0340478D01*
X0185113Y0339980D01*
X0184843Y0339329D01*
X0184843Y0338624D01*
X0185113Y0337973D01*
X0185611Y0337475D01*
X0186262Y0337205D01*
X0186967Y0337205D01*
X0187618Y0337475D01*
X0188117Y0337973D01*
X0188386Y0338624D01*
X0188386Y0339329D01*
X0188117Y0339980D01*
X0187618Y0340478D01*
X0186967Y0340748D01*
D02*
G37*
G36*
X0071219Y0338386D02*
X0070514Y0338386D01*
X0069863Y0338116D01*
X0069365Y0337618D01*
X0069128Y0337047D01*
X0068855Y0336967D01*
X0068308Y0336968D01*
X0068284Y0337027D01*
X0067786Y0337525D01*
X0067134Y0337795D01*
X0066430Y0337795D01*
X0065778Y0337525D01*
X0065280Y0337027D01*
X0065010Y0336376D01*
X0065010Y0335671D01*
X0065280Y0335020D01*
X0065778Y0334522D01*
X0066430Y0334252D01*
X0067134Y0334252D01*
X0067786Y0334522D01*
X0068284Y0335020D01*
X0068521Y0335591D01*
X0068794Y0335671D01*
X0069340Y0335669D01*
X0069365Y0335611D01*
X0069863Y0335112D01*
X0070514Y0334843D01*
X0071219Y0334843D01*
X0071870Y0335112D01*
X0072032Y0335274D01*
X0072887Y0335218D01*
X0072968Y0335157D01*
X0073406Y0334719D01*
X0074058Y0334449D01*
X0074762Y0334449D01*
X0075414Y0334719D01*
X0075912Y0335217D01*
X0076182Y0335868D01*
X0076182Y0336573D01*
X0075912Y0337224D01*
X0075414Y0337722D01*
X0074762Y0337992D01*
X0074058Y0337992D01*
X0073406Y0337722D01*
X0073244Y0337561D01*
X0072390Y0337616D01*
X0072309Y0337678D01*
X0071870Y0338116D01*
X0071219Y0338386D01*
D02*
G37*
G36*
X0040965Y0339748D02*
X0040260Y0339748D01*
X0039609Y0339478D01*
X0039110Y0338980D01*
X0038841Y0338329D01*
X0038841Y0337624D01*
X0039110Y0336973D01*
X0039609Y0336474D01*
X0040260Y0336204D01*
X0040965Y0336204D01*
X0041616Y0336474D01*
X0042114Y0336973D01*
X0042384Y0337624D01*
X0042384Y0338329D01*
X0042114Y0338980D01*
X0041616Y0339478D01*
X0040965Y0339748D01*
D02*
G37*
G36*
X0097018Y0338953D02*
X0096313Y0338953D01*
X0095662Y0338683D01*
X0095163Y0338185D01*
X0094894Y0337534D01*
X0094894Y0336829D01*
X0095163Y0336178D01*
X0095662Y0335679D01*
X0096313Y0335410D01*
X0097018Y0335410D01*
X0097669Y0335679D01*
X0098167Y0336178D01*
X0098437Y0336829D01*
X0098437Y0337534D01*
X0098167Y0338185D01*
X0097669Y0338683D01*
X0097018Y0338953D01*
D02*
G37*
G36*
X0147794Y0338780D02*
X0147089Y0338780D01*
X0146438Y0338510D01*
X0145939Y0338012D01*
X0145670Y0337360D01*
X0145670Y0336656D01*
X0145939Y0336004D01*
X0146438Y0335506D01*
X0147089Y0335236D01*
X0147794Y0335236D01*
X0148445Y0335506D01*
X0148943Y0336004D01*
X0149213Y0336656D01*
X0149213Y0337360D01*
X0148943Y0338012D01*
X0148445Y0338510D01*
X0147794Y0338780D01*
D02*
G37*
G36*
X0118240Y0338631D02*
X0117535Y0338631D01*
X0116884Y0338361D01*
X0116386Y0337863D01*
X0116116Y0337212D01*
X0116116Y0336507D01*
X0116386Y0335856D01*
X0116884Y0335357D01*
X0117535Y0335088D01*
X0118240Y0335088D01*
X0118891Y0335357D01*
X0119390Y0335856D01*
X0119659Y0336507D01*
X0119659Y0337212D01*
X0119390Y0337863D01*
X0118891Y0338361D01*
X0118240Y0338631D01*
D02*
G37*
G36*
X0060589Y0338484D02*
X0059884Y0338484D01*
X0059233Y0338215D01*
X0058735Y0337716D01*
X0058465Y0337065D01*
X0058465Y0336360D01*
X0058735Y0335709D01*
X0059233Y0335211D01*
X0059884Y0334941D01*
X0060589Y0334941D01*
X0061240Y0335211D01*
X0061739Y0335709D01*
X0062008Y0336360D01*
X0062008Y0337065D01*
X0061739Y0337716D01*
X0061240Y0338215D01*
X0060589Y0338484D01*
D02*
G37*
G36*
X0055865Y0338484D02*
X0055160Y0338484D01*
X0054509Y0338215D01*
X0054010Y0337716D01*
X0053741Y0337065D01*
X0053741Y0336360D01*
X0054010Y0335709D01*
X0054509Y0335211D01*
X0055160Y0334941D01*
X0055865Y0334941D01*
X0056516Y0335211D01*
X0057014Y0335709D01*
X0057284Y0336360D01*
X0057284Y0337065D01*
X0057014Y0337716D01*
X0056516Y0338215D01*
X0055865Y0338484D01*
D02*
G37*
G36*
X0167676Y0338386D02*
X0166971Y0338386D01*
X0166320Y0338116D01*
X0165821Y0337618D01*
X0165552Y0336967D01*
X0165552Y0336262D01*
X0165821Y0335611D01*
X0166320Y0335112D01*
X0166971Y0334843D01*
X0167676Y0334843D01*
X0168327Y0335112D01*
X0168825Y0335611D01*
X0169095Y0336262D01*
X0169095Y0336967D01*
X0168825Y0337618D01*
X0168327Y0338116D01*
X0167676Y0338386D01*
D02*
G37*
G36*
X0161623Y0337795D02*
X0160918Y0337795D01*
X0160267Y0337525D01*
X0159768Y0337027D01*
X0159499Y0336376D01*
X0159499Y0335671D01*
X0159768Y0335020D01*
X0160267Y0334522D01*
X0160918Y0334252D01*
X0161623Y0334252D01*
X0162274Y0334522D01*
X0162772Y0335020D01*
X0163042Y0335671D01*
X0163042Y0336376D01*
X0162772Y0337027D01*
X0162274Y0337525D01*
X0161623Y0337795D01*
D02*
G37*
G36*
X0142725Y0337795D02*
X0142020Y0337795D01*
X0141369Y0337525D01*
X0140871Y0337027D01*
X0140601Y0336376D01*
X0140601Y0335671D01*
X0140871Y0335020D01*
X0141369Y0334522D01*
X0142020Y0334252D01*
X0142725Y0334252D01*
X0143376Y0334522D01*
X0143875Y0335020D01*
X0144144Y0335671D01*
X0144144Y0336376D01*
X0143875Y0337027D01*
X0143376Y0337525D01*
X0142725Y0337795D01*
D02*
G37*
G36*
X0123827Y0337795D02*
X0123122Y0337795D01*
X0122471Y0337525D01*
X0121973Y0337027D01*
X0121703Y0336376D01*
X0121703Y0335671D01*
X0121973Y0335020D01*
X0122471Y0334522D01*
X0123122Y0334252D01*
X0123827Y0334252D01*
X0124478Y0334522D01*
X0124977Y0335020D01*
X0125247Y0335671D01*
X0125247Y0336376D01*
X0124977Y0337027D01*
X0124478Y0337525D01*
X0123827Y0337795D01*
D02*
G37*
G36*
X0104930Y0337795D02*
X0104225Y0337795D01*
X0103574Y0337525D01*
X0103075Y0337027D01*
X0102806Y0336376D01*
X0102806Y0335671D01*
X0103075Y0335020D01*
X0103574Y0334522D01*
X0104225Y0334252D01*
X0104930Y0334252D01*
X0105581Y0334522D01*
X0106079Y0335020D01*
X0106349Y0335671D01*
X0106349Y0336376D01*
X0106079Y0337027D01*
X0105581Y0337525D01*
X0104930Y0337795D01*
D02*
G37*
G36*
X0086032Y0337795D02*
X0085327Y0337795D01*
X0084676Y0337525D01*
X0084178Y0337027D01*
X0083908Y0336376D01*
X0083908Y0335671D01*
X0084178Y0335020D01*
X0084676Y0334522D01*
X0085327Y0334252D01*
X0086032Y0334252D01*
X0086683Y0334522D01*
X0087181Y0335020D01*
X0087451Y0335671D01*
X0087451Y0336376D01*
X0087181Y0337027D01*
X0086683Y0337525D01*
X0086032Y0337795D01*
D02*
G37*
G36*
X0048237Y0337795D02*
X0047532Y0337795D01*
X0046881Y0337525D01*
X0046382Y0337027D01*
X0046113Y0336376D01*
X0046113Y0335671D01*
X0046382Y0335020D01*
X0046881Y0334522D01*
X0047532Y0334252D01*
X0048237Y0334252D01*
X0048888Y0334522D01*
X0049386Y0335020D01*
X0049656Y0335671D01*
X0049656Y0336376D01*
X0049386Y0337027D01*
X0048888Y0337525D01*
X0048237Y0337795D01*
D02*
G37*
G36*
X0173187Y0336811D02*
X0172483Y0336811D01*
X0171832Y0336541D01*
X0171333Y0336043D01*
X0171063Y0335392D01*
X0171063Y0334687D01*
X0171333Y0334036D01*
X0171832Y0333538D01*
X0172483Y0333268D01*
X0173187Y0333268D01*
X0173839Y0333538D01*
X0174337Y0334036D01*
X0174607Y0334687D01*
X0174607Y0335392D01*
X0174337Y0336043D01*
X0173839Y0336541D01*
X0173187Y0336811D01*
D02*
G37*
G36*
X0036967Y0336417D02*
X0036262Y0336417D01*
X0035611Y0336148D01*
X0035113Y0335649D01*
X0034843Y0334998D01*
X0034843Y0334293D01*
X0035113Y0333642D01*
X0035611Y0333144D01*
X0036262Y0332874D01*
X0036967Y0332874D01*
X0037618Y0333144D01*
X0038117Y0333642D01*
X0038386Y0334293D01*
X0038386Y0334998D01*
X0038117Y0335649D01*
X0037618Y0336148D01*
X0036967Y0336417D01*
D02*
G37*
G36*
X0181849Y0332874D02*
X0181144Y0332874D01*
X0180493Y0332604D01*
X0180216Y0332327D01*
X0179725Y0332184D01*
X0179234Y0332327D01*
X0178957Y0332604D01*
X0178306Y0332874D01*
X0177601Y0332874D01*
X0176950Y0332604D01*
X0176451Y0332106D01*
X0176182Y0331455D01*
X0176182Y0330750D01*
X0176451Y0330099D01*
X0176950Y0329600D01*
X0177601Y0329331D01*
X0178306Y0329331D01*
X0178957Y0329600D01*
X0179234Y0329878D01*
X0179725Y0330020D01*
X0180216Y0329878D01*
X0180493Y0329600D01*
X0181144Y0329331D01*
X0181849Y0329331D01*
X0182500Y0329600D01*
X0182999Y0330099D01*
X0183268Y0330750D01*
X0183268Y0331455D01*
X0182999Y0332106D01*
X0182500Y0332604D01*
X0181849Y0332874D01*
D02*
G37*
G36*
X0034605Y0331594D02*
X0033900Y0331594D01*
X0033249Y0331325D01*
X0032751Y0330826D01*
X0032481Y0330175D01*
X0032481Y0329470D01*
X0032751Y0328819D01*
X0033249Y0328321D01*
X0033900Y0328051D01*
X0034605Y0328051D01*
X0035256Y0328321D01*
X0035754Y0328819D01*
X0036024Y0329470D01*
X0036024Y0330175D01*
X0035754Y0330826D01*
X0035256Y0331325D01*
X0034605Y0331594D01*
D02*
G37*
G36*
X0048621Y0327598D02*
X0047916Y0327598D01*
X0047265Y0327329D01*
X0047220Y0327284D01*
X0046427Y0327092D01*
X0046125Y0327218D01*
X0045776Y0327362D01*
X0045071Y0327362D01*
X0044420Y0327092D01*
X0043922Y0326594D01*
X0043652Y0325943D01*
X0043652Y0325238D01*
X0043922Y0324587D01*
X0044420Y0324089D01*
X0045071Y0323819D01*
X0045776Y0323819D01*
X0046427Y0324089D01*
X0046472Y0324133D01*
X0047265Y0324325D01*
X0047567Y0324200D01*
X0047916Y0324055D01*
X0048621Y0324055D01*
X0049272Y0324325D01*
X0049770Y0324823D01*
X0050040Y0325474D01*
X0050040Y0326179D01*
X0049770Y0326830D01*
X0049272Y0327329D01*
X0048621Y0327598D01*
D02*
G37*
G36*
X0085273Y0327575D02*
X0084568Y0327575D01*
X0083917Y0327305D01*
X0083451Y0326840D01*
X0083071Y0327220D01*
X0082420Y0327490D01*
X0081715Y0327490D01*
X0081064Y0327220D01*
X0080565Y0326722D01*
X0080296Y0326071D01*
X0080296Y0325366D01*
X0080565Y0324715D01*
X0081064Y0324216D01*
X0081715Y0323947D01*
X0082420Y0323947D01*
X0083071Y0324216D01*
X0083536Y0324682D01*
X0083917Y0324302D01*
X0084568Y0324032D01*
X0085273Y0324032D01*
X0085924Y0324302D01*
X0086422Y0324800D01*
X0086692Y0325451D01*
X0086692Y0326156D01*
X0086422Y0326807D01*
X0085924Y0327305D01*
X0085273Y0327575D01*
D02*
G37*
G36*
X0161770Y0327362D02*
X0161065Y0327362D01*
X0160414Y0327092D01*
X0160357Y0327036D01*
X0159843Y0326649D01*
X0159329Y0327036D01*
X0159272Y0327092D01*
X0158621Y0327362D01*
X0157916Y0327362D01*
X0157265Y0327092D01*
X0156766Y0326594D01*
X0156497Y0325943D01*
X0156497Y0325238D01*
X0156766Y0324587D01*
X0157265Y0324089D01*
X0157916Y0323819D01*
X0158621Y0323819D01*
X0159272Y0324089D01*
X0159329Y0324145D01*
X0159843Y0324532D01*
X0160357Y0324145D01*
X0160414Y0324089D01*
X0161065Y0323819D01*
X0161770Y0323819D01*
X0162421Y0324089D01*
X0162920Y0324587D01*
X0163189Y0325238D01*
X0163189Y0325943D01*
X0162920Y0326594D01*
X0162421Y0327092D01*
X0161770Y0327362D01*
D02*
G37*
G36*
X0142873Y0327362D02*
X0142168Y0327362D01*
X0141517Y0327092D01*
X0141460Y0327036D01*
X0140945Y0326649D01*
X0140431Y0327036D01*
X0140374Y0327092D01*
X0139723Y0327362D01*
X0139018Y0327362D01*
X0138367Y0327092D01*
X0137869Y0326594D01*
X0137599Y0325943D01*
X0137599Y0325238D01*
X0137869Y0324587D01*
X0138367Y0324089D01*
X0139018Y0323819D01*
X0139723Y0323819D01*
X0140374Y0324089D01*
X0140431Y0324145D01*
X0140945Y0324532D01*
X0141460Y0324145D01*
X0141517Y0324089D01*
X0142168Y0323819D01*
X0142873Y0323819D01*
X0143524Y0324089D01*
X0144022Y0324587D01*
X0144292Y0325238D01*
X0144292Y0325943D01*
X0144022Y0326594D01*
X0143524Y0327092D01*
X0142873Y0327362D01*
D02*
G37*
G36*
X0191298Y0336024D02*
X0190593Y0336024D01*
X0189942Y0335754D01*
X0189443Y0335256D01*
X0189174Y0334604D01*
X0189174Y0333900D01*
X0189443Y0333248D01*
X0189942Y0332750D01*
X0190093Y0332688D01*
X0190546Y0332191D01*
X0190474Y0331742D01*
X0190355Y0331455D01*
X0190355Y0330750D01*
X0190625Y0330099D01*
X0191123Y0329600D01*
X0191384Y0329493D01*
X0191412Y0329350D01*
X0191142Y0328699D01*
X0191142Y0327994D01*
X0191412Y0327343D01*
X0191910Y0326845D01*
X0192561Y0326575D01*
X0193266Y0326575D01*
X0193917Y0326845D01*
X0194416Y0327343D01*
X0194685Y0327994D01*
X0194685Y0328699D01*
X0194416Y0329350D01*
X0193917Y0329848D01*
X0193657Y0329956D01*
X0193628Y0330099D01*
X0193898Y0330750D01*
X0193898Y0331455D01*
X0193628Y0332106D01*
X0193130Y0332604D01*
X0192979Y0332667D01*
X0192525Y0333163D01*
X0192598Y0333612D01*
X0192717Y0333900D01*
X0192717Y0334604D01*
X0192447Y0335256D01*
X0191949Y0335754D01*
X0191298Y0336024D01*
D02*
G37*
G36*
X0067755Y0327664D02*
X0067050Y0327664D01*
X0066399Y0327394D01*
X0065901Y0326896D01*
X0065663Y0326321D01*
X0065269Y0326281D01*
X0064875Y0326321D01*
X0064637Y0326896D01*
X0064139Y0327394D01*
X0063488Y0327664D01*
X0062783Y0327664D01*
X0062132Y0327394D01*
X0061633Y0326896D01*
X0061364Y0326245D01*
X0061364Y0325540D01*
X0061633Y0324889D01*
X0062132Y0324390D01*
X0062783Y0324121D01*
X0063488Y0324121D01*
X0064139Y0324390D01*
X0064637Y0324889D01*
X0064875Y0325463D01*
X0065269Y0325503D01*
X0065663Y0325463D01*
X0065901Y0324889D01*
X0066399Y0324390D01*
X0067050Y0324121D01*
X0067755Y0324121D01*
X0068406Y0324390D01*
X0068905Y0324889D01*
X0069174Y0325540D01*
X0069174Y0326245D01*
X0068905Y0326896D01*
X0068406Y0327394D01*
X0067755Y0327664D01*
D02*
G37*
G36*
X0124172Y0327362D02*
X0123467Y0327362D01*
X0122816Y0327092D01*
X0122317Y0326594D01*
X0122197Y0326303D01*
X0122004Y0326218D01*
X0121320Y0326150D01*
X0120984Y0326486D01*
X0120333Y0326756D01*
X0119628Y0326756D01*
X0118977Y0326486D01*
X0118479Y0325988D01*
X0118209Y0325337D01*
X0118209Y0324632D01*
X0118479Y0323981D01*
X0118977Y0323482D01*
X0119628Y0323213D01*
X0120333Y0323213D01*
X0120984Y0323482D01*
X0121483Y0323981D01*
X0121603Y0324272D01*
X0121796Y0324357D01*
X0122480Y0324425D01*
X0122816Y0324089D01*
X0123467Y0323819D01*
X0124172Y0323819D01*
X0124823Y0324089D01*
X0125321Y0324587D01*
X0125591Y0325238D01*
X0125591Y0325943D01*
X0125321Y0326594D01*
X0124823Y0327092D01*
X0124172Y0327362D01*
D02*
G37*
G36*
X0114526Y0325787D02*
X0113821Y0325787D01*
X0113170Y0325518D01*
X0113113Y0325461D01*
X0112599Y0325074D01*
X0112084Y0325461D01*
X0112028Y0325518D01*
X0111377Y0325787D01*
X0110672Y0325787D01*
X0110021Y0325518D01*
X0109522Y0325019D01*
X0109253Y0324368D01*
X0109253Y0323663D01*
X0109522Y0323012D01*
X0110021Y0322514D01*
X0110672Y0322244D01*
X0111377Y0322244D01*
X0112028Y0322514D01*
X0112084Y0322571D01*
X0112599Y0322957D01*
X0113113Y0322571D01*
X0113170Y0322514D01*
X0113821Y0322244D01*
X0114526Y0322244D01*
X0115177Y0322514D01*
X0115676Y0323012D01*
X0115945Y0323663D01*
X0115945Y0324368D01*
X0115676Y0325019D01*
X0115177Y0325518D01*
X0114526Y0325787D01*
D02*
G37*
G36*
X0076731Y0325787D02*
X0076026Y0325787D01*
X0075375Y0325518D01*
X0075318Y0325461D01*
X0074804Y0325074D01*
X0074289Y0325461D01*
X0074232Y0325518D01*
X0073581Y0325787D01*
X0072876Y0325787D01*
X0072225Y0325518D01*
X0071727Y0325019D01*
X0071457Y0324368D01*
X0071457Y0323663D01*
X0071727Y0323012D01*
X0072225Y0322514D01*
X0072876Y0322244D01*
X0073581Y0322244D01*
X0074232Y0322514D01*
X0074289Y0322571D01*
X0074804Y0322957D01*
X0075318Y0322571D01*
X0075375Y0322514D01*
X0076026Y0322244D01*
X0076731Y0322244D01*
X0077382Y0322514D01*
X0077880Y0323012D01*
X0078150Y0323663D01*
X0078150Y0324368D01*
X0077880Y0325019D01*
X0077382Y0325518D01*
X0076731Y0325787D01*
D02*
G37*
G36*
X0152321Y0325787D02*
X0151617Y0325787D01*
X0150966Y0325518D01*
X0150909Y0325461D01*
X0150394Y0325074D01*
X0149880Y0325461D01*
X0149823Y0325518D01*
X0149172Y0325787D01*
X0148467Y0325787D01*
X0147816Y0325518D01*
X0147317Y0325019D01*
X0147048Y0324368D01*
X0147048Y0323663D01*
X0147317Y0323012D01*
X0147816Y0322514D01*
X0148467Y0322244D01*
X0149172Y0322244D01*
X0149823Y0322514D01*
X0149880Y0322571D01*
X0150394Y0322957D01*
X0150909Y0322571D01*
X0150966Y0322514D01*
X0151617Y0322244D01*
X0152321Y0322244D01*
X0152973Y0322514D01*
X0153471Y0323012D01*
X0153741Y0323663D01*
X0153741Y0324368D01*
X0153471Y0325019D01*
X0152973Y0325518D01*
X0152321Y0325787D01*
D02*
G37*
G36*
X0133424Y0325787D02*
X0132719Y0325787D01*
X0132068Y0325518D01*
X0132011Y0325461D01*
X0131497Y0325074D01*
X0130982Y0325461D01*
X0130925Y0325518D01*
X0130274Y0325787D01*
X0129569Y0325787D01*
X0128918Y0325518D01*
X0128420Y0325019D01*
X0128150Y0324368D01*
X0128150Y0323663D01*
X0128420Y0323012D01*
X0128918Y0322514D01*
X0129569Y0322244D01*
X0130274Y0322244D01*
X0130925Y0322514D01*
X0130982Y0322571D01*
X0131497Y0322957D01*
X0132011Y0322571D01*
X0132068Y0322514D01*
X0132719Y0322244D01*
X0133424Y0322244D01*
X0134075Y0322514D01*
X0134573Y0323012D01*
X0134843Y0323663D01*
X0134843Y0324368D01*
X0134573Y0325019D01*
X0134075Y0325518D01*
X0133424Y0325787D01*
D02*
G37*
G36*
X0057833Y0325787D02*
X0057128Y0325787D01*
X0056477Y0325518D01*
X0056420Y0325461D01*
X0055906Y0325074D01*
X0055392Y0325461D01*
X0055335Y0325518D01*
X0054684Y0325787D01*
X0053979Y0325787D01*
X0053328Y0325518D01*
X0052829Y0325019D01*
X0052559Y0324368D01*
X0052559Y0323663D01*
X0052829Y0323012D01*
X0053328Y0322514D01*
X0053979Y0322244D01*
X0054684Y0322244D01*
X0055335Y0322514D01*
X0055392Y0322571D01*
X0055906Y0322957D01*
X0056420Y0322571D01*
X0056477Y0322514D01*
X0057128Y0322244D01*
X0057833Y0322244D01*
X0058484Y0322514D01*
X0058983Y0323012D01*
X0059252Y0323663D01*
X0059252Y0324368D01*
X0058983Y0325019D01*
X0058484Y0325518D01*
X0057833Y0325787D01*
D02*
G37*
G36*
X0095987Y0325561D02*
X0095282Y0325561D01*
X0094631Y0325291D01*
X0094133Y0324793D01*
X0093298Y0324793D01*
X0092799Y0325291D01*
X0092148Y0325561D01*
X0091443Y0325561D01*
X0090792Y0325291D01*
X0090294Y0324793D01*
X0090024Y0324142D01*
X0090024Y0323437D01*
X0090294Y0322786D01*
X0090792Y0322287D01*
X0091443Y0322018D01*
X0092148Y0322018D01*
X0092799Y0322287D01*
X0093298Y0322786D01*
X0094133Y0322786D01*
X0094631Y0322287D01*
X0095282Y0322018D01*
X0095987Y0322018D01*
X0096638Y0322287D01*
X0097136Y0322786D01*
X0097406Y0323437D01*
X0097406Y0324142D01*
X0097136Y0324793D01*
X0096638Y0325291D01*
X0095987Y0325561D01*
D02*
G37*
G36*
X0101098Y0327830D02*
X0100393Y0327830D01*
X0099742Y0327561D01*
X0099244Y0327062D01*
X0098974Y0326411D01*
X0098974Y0325706D01*
X0099244Y0325055D01*
X0099742Y0324557D01*
X0100393Y0324287D01*
X0101098Y0324287D01*
X0101749Y0324557D01*
X0102248Y0325055D01*
X0102517Y0325706D01*
X0102517Y0326411D01*
X0102248Y0327062D01*
X0101749Y0327561D01*
X0101098Y0327830D01*
D02*
G37*
G36*
X0105519Y0327661D02*
X0104815Y0327661D01*
X0104163Y0327392D01*
X0103665Y0326893D01*
X0103395Y0326242D01*
X0103395Y0325537D01*
X0103665Y0324886D01*
X0104163Y0324388D01*
X0104815Y0324118D01*
X0105519Y0324118D01*
X0106171Y0324388D01*
X0106669Y0324886D01*
X0106939Y0325537D01*
X0106939Y0326242D01*
X0106669Y0326893D01*
X0106171Y0327392D01*
X0105519Y0327661D01*
D02*
G37*
G36*
X0038640Y0327210D02*
X0037935Y0327210D01*
X0037284Y0326940D01*
X0036786Y0326442D01*
X0036516Y0325791D01*
X0036516Y0325086D01*
X0036786Y0324435D01*
X0037284Y0323937D01*
X0037935Y0323667D01*
X0038640Y0323667D01*
X0039291Y0323937D01*
X0039790Y0324435D01*
X0040059Y0325086D01*
X0040059Y0325791D01*
X0039790Y0326442D01*
X0039291Y0326940D01*
X0038640Y0327210D01*
D02*
G37*
G36*
X0170432Y0328150D02*
X0169727Y0328150D01*
X0169076Y0327880D01*
X0168577Y0327382D01*
X0168307Y0326730D01*
X0168307Y0326515D01*
X0168128Y0325967D01*
X0167580Y0325787D01*
X0167365Y0325787D01*
X0166714Y0325518D01*
X0166215Y0325019D01*
X0165945Y0324368D01*
X0165945Y0323663D01*
X0166215Y0323012D01*
X0166714Y0322514D01*
X0167365Y0322244D01*
X0168069Y0322244D01*
X0168721Y0322514D01*
X0169219Y0323012D01*
X0169489Y0323663D01*
X0169489Y0323879D01*
X0169668Y0324427D01*
X0170216Y0324606D01*
X0170432Y0324606D01*
X0171083Y0324876D01*
X0171581Y0325374D01*
X0171851Y0326026D01*
X0171851Y0326730D01*
X0171581Y0327382D01*
X0171083Y0327880D01*
X0170432Y0328150D01*
D02*
G37*
G36*
X0182747Y0319862D02*
X0182042Y0319862D01*
X0181391Y0319593D01*
X0180893Y0319094D01*
X0180623Y0318443D01*
X0180623Y0317739D01*
X0180893Y0317087D01*
X0181391Y0316589D01*
X0182042Y0316319D01*
X0182747Y0316319D01*
X0183398Y0316589D01*
X0183897Y0317087D01*
X0184166Y0317739D01*
X0184166Y0318443D01*
X0183897Y0319094D01*
X0183398Y0319593D01*
X0182747Y0319862D01*
D02*
G37*
G36*
X0178023Y0319862D02*
X0177318Y0319862D01*
X0176667Y0319593D01*
X0176168Y0319094D01*
X0175899Y0318443D01*
X0175899Y0317739D01*
X0176168Y0317087D01*
X0176667Y0316589D01*
X0177318Y0316319D01*
X0178023Y0316319D01*
X0178674Y0316589D01*
X0179172Y0317087D01*
X0179442Y0317739D01*
X0179442Y0318443D01*
X0179172Y0319094D01*
X0178674Y0319593D01*
X0178023Y0319862D01*
D02*
G37*
G36*
X0187173Y0319799D02*
X0186468Y0319799D01*
X0185817Y0319530D01*
X0185319Y0319031D01*
X0185049Y0318380D01*
X0185049Y0317675D01*
X0185319Y0317024D01*
X0185817Y0316526D01*
X0186468Y0316256D01*
X0187173Y0316256D01*
X0187824Y0316526D01*
X0188323Y0317024D01*
X0188592Y0317675D01*
X0188592Y0318380D01*
X0188323Y0319031D01*
X0187824Y0319530D01*
X0187173Y0319799D01*
D02*
G37*
G36*
X0036969Y0316732D02*
X0036264Y0316732D01*
X0035613Y0316463D01*
X0035115Y0315964D01*
X0034845Y0315313D01*
X0034845Y0314608D01*
X0035115Y0313957D01*
X0035613Y0313459D01*
X0036264Y0313189D01*
X0036969Y0313189D01*
X0037621Y0313459D01*
X0038119Y0313957D01*
X0038389Y0314608D01*
X0038389Y0315313D01*
X0038119Y0315964D01*
X0037621Y0316463D01*
X0036969Y0316732D01*
D02*
G37*
%LPD*%
D12*
X0029922Y0335433D02*
D03*
D11*
X0029922Y0312402D02*
D03*
D14*
X0029922Y0359842D02*
D03*
D21*
X0195670Y0311811D02*
D03*
D16*
X0042520Y0465354D02*
D03*
D17*
X0075985Y0465354D02*
D03*
D18*
X0114764Y0465354D02*
D03*
D20*
X0195670Y0334055D02*
D03*
D19*
X0195670Y0459449D02*
D03*
D15*
X0037008Y0308268D02*
D03*
D13*
X0029922Y0445669D02*
D03*
D10*
X0078643Y0384055D02*
D03*
X0044686Y0409449D02*
D03*
X0050591Y0429921D02*
D03*
X0049213Y0414764D02*
D03*
X0069685Y0445272D02*
D03*
X0086615Y0422797D02*
D03*
X0094882Y0429134D02*
D03*
X0094775Y0424717D02*
D03*
X0033071Y0369291D02*
D03*
X0046368Y0401831D02*
D03*
X0101723Y0335630D02*
D03*
X0059171Y0451742D02*
D03*
X0086123Y0437992D02*
D03*
X0117715Y0419683D02*
D03*
X0125197Y0402362D02*
D03*
X0120473Y0397638D02*
D03*
X0185827Y0398130D02*
D03*
X0148819Y0402998D02*
D03*
X0169901Y0449588D02*
D03*
X0146174Y0454899D02*
D03*
X0185267Y0454993D02*
D03*
X0192144Y0446033D02*
D03*
X0162215Y0435897D02*
D03*
X0175984Y0333858D02*
D03*
X0160630Y0421260D02*
D03*
X0160630Y0411811D02*
D03*
X0154725Y0418897D02*
D03*
X0148819Y0435433D02*
D03*
X0140551Y0433071D02*
D03*
X0134646Y0435433D02*
D03*
X0133465Y0400000D02*
D03*
X0134646Y0392913D02*
D03*
X0122835Y0435433D02*
D03*
X0118110Y0440157D02*
D03*
X0040158Y0449606D02*
D03*
X0178207Y0423020D02*
D03*
X0102461Y0436614D02*
D03*
X0045079Y0337008D02*
D03*
X0031103Y0336614D02*
D03*
X0072616Y0462205D02*
D03*
X0103938Y0429134D02*
D03*
X0115749Y0431102D02*
D03*
X0069974Y0464308D02*
D03*
X0105290Y0444673D02*
D03*
X0037796Y0463780D02*
D03*
X0040552Y0433071D02*
D03*
X0031497Y0446457D02*
D03*
X0031693Y0450394D02*
D03*
X0071381Y0388431D02*
D03*
X0169983Y0422146D02*
D03*
X0105512Y0392913D02*
D03*
X0116142Y0402756D02*
D03*
X0184745Y0389469D02*
D03*
X0102363Y0424016D02*
D03*
X0096457Y0368504D02*
D03*
X0123382Y0380714D02*
D03*
X0145061Y0379069D02*
D03*
X0031520Y0313042D02*
D03*
X0037046Y0309367D02*
D03*
X0116499Y0463252D02*
D03*
X0148292Y0417881D02*
D03*
X0094780Y0445792D02*
D03*
X0125452Y0455567D02*
D03*
X0139518Y0336024D02*
D03*
X0109547Y0454626D02*
D03*
X0071063Y0403740D02*
D03*
X0107173Y0463316D02*
D03*
X0048622Y0463780D02*
D03*
X0194489Y0312205D02*
D03*
X0194095Y0457480D02*
D03*
X0046923Y0378781D02*
D03*
X0162095Y0367720D02*
D03*
X0177166Y0373228D02*
D03*
X0054430Y0394488D02*
D03*
X0096359Y0393363D02*
D03*
X0086563Y0405315D02*
D03*
X0170174Y0401560D02*
D03*
X0186602Y0345997D02*
D03*
X0189764Y0337402D02*
D03*
X0181752Y0355905D02*
D03*
X0081496Y0389567D02*
D03*
X0081692Y0438716D02*
D03*
X0081679Y0446481D02*
D03*
X0038801Y0427293D02*
D03*
X0043308Y0421616D02*
D03*
X0075638Y0373524D02*
D03*
X0070965Y0394488D02*
D03*
X0054430Y0401575D02*
D03*
X0054430Y0387402D02*
D03*
X0054430Y0380315D02*
D03*
X0062478Y0380101D02*
D03*
X0062205Y0403150D02*
D03*
X0192914Y0324409D02*
D03*
X0185433Y0311024D02*
D03*
X0175985Y0311024D02*
D03*
X0180709Y0311024D02*
D03*
X0190158Y0311024D02*
D03*
X0158416Y0336024D02*
D03*
X0120621Y0336024D02*
D03*
X0082825Y0336024D02*
D03*
X0063928Y0336024D02*
D03*
M02*
