M48
; DRILL file {KiCad 8.0.9-8.0.9-0~ubuntu24.04.1} date 2026-07-26T21:53:40+0000
; FORMAT={2:4/ absolute / inch / suppress leading zeros}
; #@! TF.CreationDate,2026-07-26T21:53:40+00:00
; #@! TF.GenerationSoftware,Kicad,Pcbnew,8.0.9-8.0.9-0~ubuntu24.04.1
; #@! TF.FileFunction,MixedPlating,1,2
FMAT,2
INCH,TZ
; #@! TA.AperFunction,Plated,PTH,ComponentDrill
T1C0.0118
%
G90
G05
T1
X3071Y32283
X3071Y31890
X3071Y42677
X3071Y42283
X3071Y41890
X3071Y41496
X3071Y41102
X3071Y40709
X3071Y37165
X3071Y46457
X3071Y40315
X3071Y39921
X3071Y39528
X3071Y39134
X3071Y38740
X3071Y38346
X3071Y37953
X3071Y37559
X3071Y34803
X3228Y30906
X4173Y30906
X4646Y30906
X5118Y30906
X5433Y46457
X5591Y30906
X5748Y46457
X6063Y46457
X6063Y30906
X6535Y30906
X7008Y30906
X7480Y30906
X7953Y30906
X8425Y30906
X8898Y30906
X9134Y46457
X9370Y30906
X9449Y46457
X9764Y46457
X9843Y30906
X10079Y46457
X10315Y30906
X10394Y46457
X10787Y30906
X11260Y30906
X11732Y30906
X12205Y30906
X12559Y46457
X12677Y30906
X12874Y46457
X13150Y30906
X13189Y46457
X13504Y46457
X13622Y30906
X13819Y46457
X14094Y30906
X14134Y46457
X14449Y46457
X14567Y30906
X14764Y46457
X15039Y30906
X15079Y46457
X15394Y46457
X15512Y30906
X15709Y46457
X15984Y30906
X16024Y46457
X16339Y46457
X16457Y30906
X16654Y46457
X16929Y30906
X16969Y46457
X17283Y46457
X17362Y30906
X17598Y46457
X17835Y30906
X17913Y46457
X18228Y46457
X18307Y30906
X18543Y46457
X18780Y30906
X18858Y46457
X19173Y46457
X19252Y30906
X19488Y43858
X19488Y43543
X19488Y41969
X19488Y41654
X19488Y41339
X19488Y40079
X19488Y39764
X19488Y36299
X19488Y32087
X19488Y46457
X19488Y45433
X19488Y45118
X19488Y44803
X19488Y44488
X19488Y44173
X19488Y43228
X19488Y42913
X19488Y42598
X19488Y42283
X19488Y41024
X19488Y40709
X19488Y40394
X19488Y39449
X19488Y39134
X19488Y38819
X19488Y38504
X19488Y38189
X19488Y37874
X19488Y37559
X19488Y37244
X19488Y36929
X19488Y36614
X19488Y35984
X19488Y35669
X19488Y35354
X19488Y35039
X19488Y34724
X19488Y31772
M30
