G04 #@! TF.GenerationSoftware,KiCad,Pcbnew,8.0.9-8.0.9-0~ubuntu24.04.1*
G04 #@! TF.CreationDate,2026-07-26T22:03:52+00:00*
G04 #@! TF.ProjectId,ecumodular,6563756d-6f64-4756-9c61-722e6b696361,rev?*
G04 #@! TF.SameCoordinates,Original*
G04 #@! TF.FileFunction,Copper,L1,Top*
G04 #@! TF.FilePolarity,Positive*
%FSLAX46Y46*%
G04 Gerber Fmt 4.6, Leading zero omitted, Abs format (unit mm)*
G04 Created by KiCad (PCBNEW 8.0.9-8.0.9-0~ubuntu24.04.1) date 2026-07-26 22:03:52*
%MOMM*%
%LPD*%
G01*
G04 APERTURE LIST*
G04 #@! TA.AperFunction,ComponentPad*
%ADD10C,0.600000*%
G04 #@! TD*
G04 #@! TA.AperFunction,SMDPad,CuDef*
%ADD11R,0.200000X2.300000*%
G04 #@! TD*
G04 #@! TA.AperFunction,SMDPad,CuDef*
%ADD12R,0.200000X5.400000*%
G04 #@! TD*
G04 #@! TA.AperFunction,SMDPad,CuDef*
%ADD13R,0.200000X8.600000*%
G04 #@! TD*
G04 #@! TA.AperFunction,SMDPad,CuDef*
%ADD14R,0.200000X5.000000*%
G04 #@! TD*
G04 #@! TA.AperFunction,SMDPad,CuDef*
%ADD15R,1.400000X0.200000*%
G04 #@! TD*
G04 #@! TA.AperFunction,SMDPad,CuDef*
%ADD16R,5.000000X0.200000*%
G04 #@! TD*
G04 #@! TA.AperFunction,SMDPad,CuDef*
%ADD17R,6.800000X0.200000*%
G04 #@! TD*
G04 #@! TA.AperFunction,SMDPad,CuDef*
%ADD18R,4.500000X0.200000*%
G04 #@! TD*
G04 #@! TA.AperFunction,SMDPad,CuDef*
%ADD19R,0.200000X1.600000*%
G04 #@! TD*
G04 #@! TA.AperFunction,SMDPad,CuDef*
%ADD20R,0.200000X5.700000*%
G04 #@! TD*
G04 #@! TA.AperFunction,SMDPad,CuDef*
%ADD21R,0.200000X2.000000*%
G04 #@! TD*
G04 APERTURE END LIST*
D10*
G04 #@! TO.P,M1,E1,SPI2_SCK/CAN2_TX*
G04 #@! TO.N,unconnected-(M1-SPI2_SCK{slash}CAN2_TX-PadE1)*
X44875000Y40474997D03*
G04 #@! TO.P,M1,E2,SPI2_MISO*
G04 #@! TO.N,unconnected-(M1-SPI2_MISO-PadE2)*
X44875000Y39674996D03*
G04 #@! TO.P,M1,E3,SPI2_MOSI*
G04 #@! TO.N,unconnected-(M1-SPI2_MOSI-PadE3)*
X44875000Y38874998D03*
G04 #@! TO.P,M1,E4,SPI2_CS/CAN2_RX*
G04 #@! TO.N,unconnected-(M1-SPI2_CS{slash}CAN2_RX-PadE4)*
X44875000Y38074997D03*
G04 #@! TO.P,M1,E6,OUT_IO3*
G04 #@! TO.N,unconnected-(M1-OUT_IO3-PadE6)*
X44875000Y37274996D03*
G04 #@! TO.P,M1,E7,OUT_IO5*
G04 #@! TO.N,unconnected-(M1-OUT_IO5-PadE7)*
X44874997Y36474998D03*
G04 #@! TO.P,M1,E8,OUT_IO1*
G04 #@! TO.N,unconnected-(M1-OUT_IO1-PadE8)*
X44874997Y35674997D03*
G04 #@! TO.P,M1,E9,OUT_IO6*
G04 #@! TO.N,unconnected-(M1-OUT_IO6-PadE9)*
X44875000Y34874993D03*
G04 #@! TO.P,M1,E10,OUT_IO10*
G04 #@! TO.N,unconnected-(M1-OUT_IO10-PadE10)*
X44875000Y34074997D03*
G04 #@! TO.P,M1,E11,OUT_IO9*
G04 #@! TO.N,unconnected-(M1-OUT_IO9-PadE11)*
X44875000Y33274997D03*
G04 #@! TO.P,M1,E12,OUT_IO2*
G04 #@! TO.N,unconnected-(M1-OUT_IO2-PadE12)*
X44875000Y32474996D03*
G04 #@! TO.P,M1,E13,OUT_IO12*
G04 #@! TO.N,unconnected-(M1-OUT_IO12-PadE13)*
X44874997Y31674997D03*
G04 #@! TO.P,M1,E14,OUT_PWM5*
G04 #@! TO.N,unconnected-(M1-OUT_PWM5-PadE14)*
X44874997Y30874996D03*
G04 #@! TO.P,M1,E15,OUT_PWM4*
G04 #@! TO.N,unconnected-(M1-OUT_PWM4-PadE15)*
X44874997Y30074995D03*
G04 #@! TO.P,M1,E16,OUT_PWM3*
G04 #@! TO.N,unconnected-(M1-OUT_PWM3-PadE16)*
X44875000Y29274997D03*
G04 #@! TO.P,M1,E17,OUT_PWM2*
G04 #@! TO.N,unconnected-(M1-OUT_PWM2-PadE17)*
X44875000Y28474996D03*
G04 #@! TO.P,M1,E18,OUT_INJ2*
G04 #@! TO.N,unconnected-(M1-OUT_INJ2-PadE18)*
X44875000Y27674998D03*
G04 #@! TO.P,M1,E19,OUT_INJ1*
G04 #@! TO.N,unconnected-(M1-OUT_INJ1-PadE19)*
X44874997Y26874997D03*
G04 #@! TO.P,M1,E20,OUT_IO13*
G04 #@! TO.N,unconnected-(M1-OUT_IO13-PadE20)*
X44874997Y26074996D03*
G04 #@! TO.P,M1,E21,OUT_IO4*
G04 #@! TO.N,unconnected-(M1-OUT_IO4-PadE21)*
X44875000Y25274997D03*
G04 #@! TO.P,M1,E22,OUT_IO8*
G04 #@! TO.N,unconnected-(M1-OUT_IO8-PadE22)*
X44875000Y24474996D03*
G04 #@! TO.P,M1,E23,OUT_IO7*
G04 #@! TO.N,unconnected-(M1-OUT_IO7-PadE23)*
X44875000Y23674995D03*
G04 #@! TO.P,M1,E24,OUT_IO11*
G04 #@! TO.N,unconnected-(M1-OUT_IO11-PadE24)*
X44875000Y22874997D03*
G04 #@! TO.P,M1,E25,OUT_PWM7*
G04 #@! TO.N,unconnected-(M1-OUT_PWM7-PadE25)*
X44875000Y22074996D03*
G04 #@! TO.P,M1,E26,OUT_PWM6*
G04 #@! TO.N,unconnected-(M1-OUT_PWM6-PadE26)*
X44875000Y21274998D03*
G04 #@! TO.P,M1,E27,OUT_PWM1*
G04 #@! TO.N,unconnected-(M1-OUT_PWM1-PadE27)*
X44875000Y20474997D03*
G04 #@! TO.P,M1,E28,OUT_PWM8*
G04 #@! TO.N,unconnected-(M1-OUT_PWM8-PadE28)*
X44875000Y19674996D03*
G04 #@! TO.P,M1,E29,OUT_INJ3*
G04 #@! TO.N,unconnected-(M1-OUT_INJ3-PadE29)*
X44875000Y18874997D03*
G04 #@! TO.P,M1,E30,OUT_INJ4*
G04 #@! TO.N,unconnected-(M1-OUT_INJ4-PadE30)*
X44875000Y18074996D03*
G04 #@! TO.P,M1,E31,OUT_INJ5*
G04 #@! TO.N,unconnected-(M1-OUT_INJ5-PadE31)*
X44874997Y17274998D03*
G04 #@! TO.P,M1,E32,OUT_INJ6*
G04 #@! TO.N,unconnected-(M1-OUT_INJ6-PadE32)*
X44875000Y16474995D03*
G04 #@! TO.P,M1,E33,OUT_INJ7*
G04 #@! TO.N,unconnected-(M1-OUT_INJ7-PadE33)*
X44875000Y15674996D03*
G04 #@! TO.P,M1,E34,OUT_INJ8*
G04 #@! TO.N,unconnected-(M1-OUT_INJ8-PadE34)*
X44875000Y14874998D03*
G04 #@! TO.P,M1,E35,IO6*
G04 #@! TO.N,unconnected-(M1-IO6-PadE35)*
X44875000Y14074997D03*
G04 #@! TO.P,M1,E36,IO7*
G04 #@! TO.N,unconnected-(M1-IO7-PadE36)*
X44875000Y13274996D03*
G04 #@! TO.P,M1,E38,V5A_SWITCHABLE*
G04 #@! TO.N,unconnected-(M1-V5A_SWITCHABLE-PadE38)*
X44874997Y6575002D03*
G04 #@! TO.P,M1,E39,GNDA*
G04 #@! TO.N,unconnected-(M1-GNDA-PadE39)*
X44875000Y5775001D03*
D11*
G04 #@! TO.P,M1,G,GND*
G04 #@! TO.N,unconnected-(M1-GND-PadG)*
X2974995Y4425001D03*
D12*
X2974997Y10275004D03*
D13*
X2974998Y38275001D03*
D14*
X2974998Y16475001D03*
D15*
X4775004Y3374998D03*
D16*
X6174999Y43274999D03*
D17*
X14675002Y43274999D03*
D18*
X24525005Y43274999D03*
D19*
X45075000Y41775000D03*
D20*
X45075000Y9924997D03*
D21*
X45075000Y4275004D03*
D10*
G04 #@! TO.P,M1,N1,USBID*
G04 #@! TO.N,unconnected-(M1-USBID-PadN1)*
X44875000Y43075000D03*
G04 #@! TO.P,M1,N2,USBM*
G04 #@! TO.N,unconnected-(M1-USBM-PadN2)*
X44075002Y43075002D03*
G04 #@! TO.P,M1,N3,USBP*
G04 #@! TO.N,unconnected-(M1-USBP-PadN3)*
X43275001Y43075002D03*
G04 #@! TO.P,M1,N4,VBUS*
G04 #@! TO.N,unconnected-(M1-VBUS-PadN4)*
X42475002Y43075000D03*
G04 #@! TO.P,M1,N5,BOOT0*
G04 #@! TO.N,unconnected-(M1-BOOT0-PadN5)*
X41675001Y43075000D03*
G04 #@! TO.P,M1,N6,SWO*
G04 #@! TO.N,unconnected-(M1-SWO-PadN6)*
X40875000Y43075000D03*
G04 #@! TO.P,M1,N7,SWDIO*
G04 #@! TO.N,unconnected-(M1-SWDIO-PadN7)*
X40075002Y43075000D03*
G04 #@! TO.P,M1,N8,SWCLK*
G04 #@! TO.N,unconnected-(M1-SWCLK-PadN8)*
X39275001Y43075002D03*
G04 #@! TO.P,M1,N9,nReset*
G04 #@! TO.N,unconnected-(M1-nReset-PadN9)*
X38475003Y43075000D03*
G04 #@! TO.P,M1,N10,SPI3_CS*
G04 #@! TO.N,unconnected-(M1-SPI3_CS-PadN10)*
X37675002Y43075000D03*
G04 #@! TO.P,M1,N11,SPI3_SCK*
G04 #@! TO.N,unconnected-(M1-SPI3_SCK-PadN11)*
X36875001Y43075000D03*
G04 #@! TO.P,M1,N12,SPI3_MISO*
G04 #@! TO.N,unconnected-(M1-SPI3_MISO-PadN12)*
X36075000Y43075000D03*
G04 #@! TO.P,M1,N13,SPI3_MOSI*
G04 #@! TO.N,unconnected-(M1-SPI3_MOSI-PadN13)*
X35275001Y43075000D03*
G04 #@! TO.P,M1,N14,I2C_SCL*
G04 #@! TO.N,unconnected-(M1-I2C_SCL-PadN14)*
X34475000Y43075000D03*
G04 #@! TO.P,M1,N15,I2C_SDA*
G04 #@! TO.N,unconnected-(M1-I2C_SDA-PadN15)*
X33674999Y43075002D03*
G04 #@! TO.P,M1,N16,IO1*
G04 #@! TO.N,unconnected-(M1-IO1-PadN16)*
X32874999Y43075002D03*
G04 #@! TO.P,M1,N17,UART2_TX*
G04 #@! TO.N,unconnected-(M1-UART2_TX-PadN17)*
X32075000Y43075000D03*
G04 #@! TO.P,M1,N18,UART2_RX*
G04 #@! TO.N,unconnected-(M1-UART2_RX-PadN18)*
X31274999Y43075000D03*
G04 #@! TO.P,M1,N19,IO2*
G04 #@! TO.N,unconnected-(M1-IO2-PadN19)*
X30475001Y43075000D03*
G04 #@! TO.P,M1,N20,IO4*
G04 #@! TO.N,unconnected-(M1-IO4-PadN20)*
X29675000Y43075000D03*
G04 #@! TO.P,M1,N21,IO3*
G04 #@! TO.N,unconnected-(M1-IO3-PadN21)*
X28875001Y43075002D03*
G04 #@! TO.P,M1,N22,V33*
G04 #@! TO.N,unconnected-(M1-V33-PadN22)*
X28075000Y43075000D03*
G04 #@! TO.P,M1,N23,IO5*
G04 #@! TO.N,unconnected-(M1-IO5-PadN23)*
X27275000Y43075000D03*
G04 #@! TO.P,M1,N24,UART8_RX*
G04 #@! TO.N,unconnected-(M1-UART8_RX-PadN24)*
X21775000Y43075000D03*
G04 #@! TO.P,M1,N25,UART8_TX*
G04 #@! TO.N,unconnected-(M1-UART8_TX-PadN25)*
X20974999Y43075000D03*
G04 #@! TO.P,M1,N26,IN_VIGN*
G04 #@! TO.N,unconnected-(M1-IN_VIGN-PadN26)*
X20175001Y43075000D03*
G04 #@! TO.P,M1,N27,VBAT*
G04 #@! TO.N,unconnected-(M1-VBAT-PadN27)*
X19375003Y43075000D03*
G04 #@! TO.P,M1,N28,V33_SWITCHABLE*
G04 #@! TO.N,unconnected-(M1-V33_SWITCHABLE-PadN28)*
X18575004Y43075000D03*
G04 #@! TO.P,M1,N29,OUT_PWR_EN*
G04 #@! TO.N,unconnected-(M1-OUT_PWR_EN-PadN29)*
X10775000Y43075000D03*
G04 #@! TO.P,M1,N30,V5A_SWITCHABLE*
G04 #@! TO.N,unconnected-(M1-V5A_SWITCHABLE-PadN30)*
X9975001Y43075000D03*
G04 #@! TO.P,M1,N31,VCC*
G04 #@! TO.N,unconnected-(M1-VCC-PadN31)*
X9175003Y43075000D03*
G04 #@! TO.P,M1,N32,V33*
G04 #@! TO.N,unconnected-(M1-V33-PadN32)*
X3174999Y43075000D03*
G04 #@! TO.P,M1,S1,IN_D4*
G04 #@! TO.N,unconnected-(M1-IN_D4-PadS1)*
X44274999Y3574995D03*
G04 #@! TO.P,M1,S2,IN_D3*
G04 #@! TO.N,unconnected-(M1-IN_D3-PadS2)*
X43074998Y3574997D03*
G04 #@! TO.P,M1,S3,IN_D2*
G04 #@! TO.N,unconnected-(M1-IN_D2-PadS3)*
X41875001Y3574997D03*
G04 #@! TO.P,M1,S4,IN_D1*
G04 #@! TO.N,unconnected-(M1-IN_D1-PadS4)*
X40675001Y3574995D03*
G04 #@! TO.P,M1,S5,VREF2*
G04 #@! TO.N,unconnected-(M1-VREF2-PadS5)*
X39475001Y3574997D03*
G04 #@! TO.P,M1,S6,IN_SENS4*
G04 #@! TO.N,unconnected-(M1-IN_SENS4-PadS6)*
X38375013Y3574997D03*
G04 #@! TO.P,M1,S7,IN_SENS3*
G04 #@! TO.N,unconnected-(M1-IN_SENS3-PadS7)*
X37175013Y3574997D03*
G04 #@! TO.P,M1,S8,IN_SENS2*
G04 #@! TO.N,unconnected-(M1-IN_SENS2-PadS8)*
X35975015Y3574995D03*
G04 #@! TO.P,M1,S9,IN_SENS1*
G04 #@! TO.N,unconnected-(M1-IN_SENS1-PadS9)*
X34775015Y3574997D03*
G04 #@! TO.P,M1,S10,IN_AUX4*
G04 #@! TO.N,unconnected-(M1-IN_AUX4-PadS10)*
X33575012Y3574997D03*
G04 #@! TO.P,M1,S11,IN_AUX3*
G04 #@! TO.N,unconnected-(M1-IN_AUX3-PadS11)*
X32375010Y3574995D03*
G04 #@! TO.P,M1,S12,IN_AUX2*
G04 #@! TO.N,unconnected-(M1-IN_AUX2-PadS12)*
X31175012Y3574997D03*
G04 #@! TO.P,M1,S13,IN_AUX1*
G04 #@! TO.N,unconnected-(M1-IN_AUX1-PadS13)*
X29975014Y3574997D03*
G04 #@! TO.P,M1,S14,IN_RES2*
G04 #@! TO.N,unconnected-(M1-IN_RES2-PadS14)*
X28775007Y3574997D03*
G04 #@! TO.P,M1,S15,IN_O2S2*
G04 #@! TO.N,unconnected-(M1-IN_O2S2-PadS15)*
X27575007Y3574997D03*
G04 #@! TO.P,M1,S16,IN_O2S*
G04 #@! TO.N,unconnected-(M1-IN_O2S-PadS16)*
X26375009Y3574997D03*
G04 #@! TO.P,M1,S17,IN_RES1*
G04 #@! TO.N,unconnected-(M1-IN_RES1-PadS17)*
X25175009Y3574997D03*
G04 #@! TO.P,M1,S18,IN_RES3*
G04 #@! TO.N,unconnected-(M1-IN_RES3-PadS18)*
X23975004Y3574997D03*
G04 #@! TO.P,M1,S19,IN_MAP3*
G04 #@! TO.N,unconnected-(M1-IN_MAP3-PadS19)*
X22775003Y3574997D03*
G04 #@! TO.P,M1,S20,IN_MAP2*
G04 #@! TO.N,unconnected-(M1-IN_MAP2-PadS20)*
X21575006Y3574995D03*
G04 #@! TO.P,M1,S21,IN_MAP1*
G04 #@! TO.N,unconnected-(M1-IN_MAP1-PadS21)*
X20375006Y3574997D03*
G04 #@! TO.P,M1,S22,IN_CRANK*
G04 #@! TO.N,unconnected-(M1-IN_CRANK-PadS22)*
X19175003Y3574995D03*
G04 #@! TO.P,M1,S23,IN_KNOCK*
G04 #@! TO.N,unconnected-(M1-IN_KNOCK-PadS23)*
X17975003Y3574997D03*
G04 #@! TO.P,M1,S24,IN_CAM*
G04 #@! TO.N,unconnected-(M1-IN_CAM-PadS24)*
X16775008Y3574997D03*
G04 #@! TO.P,M1,S25,IN_VSS*
G04 #@! TO.N,unconnected-(M1-IN_VSS-PadS25)*
X15575005Y3574995D03*
G04 #@! TO.P,M1,S26,IN_IAT*
G04 #@! TO.N,unconnected-(M1-IN_IAT-PadS26)*
X14375000Y3574997D03*
G04 #@! TO.P,M1,S27,IN_AT1*
G04 #@! TO.N,unconnected-(M1-IN_AT1-PadS27)*
X13175000Y3574995D03*
G04 #@! TO.P,M1,S28,IN_CLT*
G04 #@! TO.N,unconnected-(M1-IN_CLT-PadS28)*
X11975002Y3574997D03*
G04 #@! TO.P,M1,S29,IN_AT2*
G04 #@! TO.N,unconnected-(M1-IN_AT2-PadS29)*
X10775002Y3574997D03*
G04 #@! TO.P,M1,S30,IN_TPS*
G04 #@! TO.N,unconnected-(M1-IN_TPS-PadS30)*
X9574997Y3574997D03*
G04 #@! TO.P,M1,S31,IN_PPS*
G04 #@! TO.N,unconnected-(M1-IN_PPS-PadS31)*
X8374997Y3574997D03*
G04 #@! TO.P,M1,S32,IN_TPS2*
G04 #@! TO.N,unconnected-(M1-IN_TPS2-PadS32)*
X7174999Y3574997D03*
G04 #@! TO.P,M1,S33,IN_PPS2*
G04 #@! TO.N,unconnected-(M1-IN_PPS2-PadS33)*
X5974999Y3574997D03*
G04 #@! TO.P,M1,S35,VREF1*
G04 #@! TO.N,unconnected-(M1-VREF1-PadS35)*
X3574999Y3574997D03*
G04 #@! TO.P,M1,W1,GNDA*
G04 #@! TO.N,unconnected-(M1-GNDA-PadW1)*
X3174997Y6075000D03*
G04 #@! TO.P,M1,W2,V5A_SWITCHABLE*
G04 #@! TO.N,unconnected-(M1-V5A_SWITCHABLE-PadW2)*
X3174997Y7075001D03*
G04 #@! TO.P,M1,W3,V33_REF*
G04 #@! TO.N,unconnected-(M1-V33_REF-PadW3)*
X3174999Y13475003D03*
G04 #@! TO.P,M1,W3a,BOOT1*
G04 #@! TO.N,unconnected-(M1-BOOT1-PadW3a)*
X3174998Y19475001D03*
G04 #@! TO.P,M1,W4,IGN8*
G04 #@! TO.N,unconnected-(M1-IGN8-PadW4)*
X3174999Y20474999D03*
G04 #@! TO.P,M1,W5,IGN7*
G04 #@! TO.N,unconnected-(M1-IGN7-PadW5)*
X3174999Y21475000D03*
G04 #@! TO.P,M1,W6,IGN6*
G04 #@! TO.N,unconnected-(M1-IGN6-PadW6)*
X3174999Y22474998D03*
G04 #@! TO.P,M1,W7,IGN5*
G04 #@! TO.N,unconnected-(M1-IGN5-PadW7)*
X3174999Y23474998D03*
G04 #@! TO.P,M1,W8,IGN4*
G04 #@! TO.N,unconnected-(M1-IGN4-PadW8)*
X3174999Y24474999D03*
G04 #@! TO.P,M1,W9,IGN3*
G04 #@! TO.N,unconnected-(M1-IGN3-PadW9)*
X3174999Y25474997D03*
G04 #@! TO.P,M1,W10,IGN2*
G04 #@! TO.N,unconnected-(M1-IGN2-PadW10)*
X3174999Y26474997D03*
G04 #@! TO.P,M1,W11,IGN1*
G04 #@! TO.N,unconnected-(M1-IGN1-PadW11)*
X3174999Y27474995D03*
G04 #@! TO.P,M1,W11a,LED_RED*
G04 #@! TO.N,unconnected-(M1-LED_RED-PadW11a)*
X3174998Y28475001D03*
G04 #@! TO.P,M1,W11b,LED_GREEN*
G04 #@! TO.N,unconnected-(M1-LED_GREEN-PadW11b)*
X3174998Y29475001D03*
G04 #@! TO.P,M1,W11c,LED_BLUE*
G04 #@! TO.N,unconnected-(M1-LED_BLUE-PadW11c)*
X3174998Y30475001D03*
G04 #@! TO.P,M1,W11d,LED_YELLOW*
G04 #@! TO.N,unconnected-(M1-LED_YELLOW-PadW11d)*
X3174998Y31475001D03*
G04 #@! TO.P,M1,W12,CANH*
G04 #@! TO.N,unconnected-(M1-CANH-PadW12)*
X3174998Y32475001D03*
G04 #@! TO.P,M1,W13,CANL*
G04 #@! TO.N,unconnected-(M1-CANL-PadW13)*
X3174998Y33475001D03*
G04 #@! TD*
M02*
