M48
; DRILL file {KiCad 8.0.9-8.0.9-0~ubuntu24.04.1} date 2026-07-26T22:03:52+0000
; FORMAT={2:4/ absolute / inch / suppress leading zeros}
; #@! TF.CreationDate,2026-07-26T22:03:52+00:00
; #@! TF.GenerationSoftware,Kicad,Pcbnew,8.0.9-8.0.9-0~ubuntu24.04.1
; #@! TF.FileFunction,MixedPlating,1,2
FMAT,2
INCH,TZ
; #@! TA.AperFunction,Plated,PTH,ComponentDrill
T1C0.0118
%
G90
G05
T1
X1250Y2785
X1250Y2392
X1250Y13179
X1250Y12785
X1250Y12392
X1250Y11998
X1250Y11604
X1250Y11211
X1250Y7667
X1250Y16959
X1250Y10817
X1250Y10423
X1250Y10030
X1250Y9636
X1250Y9242
X1250Y8848
X1250Y8455
X1250Y8061
X1250Y5305
X1407Y1407
X2352Y1407
X2825Y1407
X3297Y1407
X3612Y16959
X3770Y1407
X3927Y16959
X4242Y16959
X4242Y1407
X4715Y1407
X5187Y1407
X5659Y1407
X6132Y1407
X6604Y1407
X7077Y1407
X7313Y16959
X7549Y1407
X7628Y16959
X7943Y16959
X8022Y1407
X8258Y16959
X8494Y1407
X8573Y16959
X8967Y1407
X9439Y1407
X9911Y1407
X10384Y1407
X10738Y16959
X10856Y1407
X11053Y16959
X11329Y1407
X11368Y16959
X11683Y16959
X11801Y1407
X11998Y16959
X12274Y1407
X12313Y16959
X12628Y16959
X12746Y1407
X12943Y16959
X13219Y1407
X13258Y16959
X13573Y16959
X13691Y1407
X13888Y16959
X14163Y1407
X14203Y16959
X14518Y16959
X14636Y1407
X14833Y16959
X15108Y1407
X15148Y16959
X15463Y16959
X15541Y1407
X15778Y16959
X16014Y1407
X16093Y16959
X16407Y16959
X16486Y1407
X16722Y16959
X16959Y1407
X17037Y16959
X17352Y16959
X17431Y1407
X17667Y14360
X17667Y14045
X17667Y12470
X17667Y12156
X17667Y11841
X17667Y10581
X17667Y10266
X17667Y6801
X17667Y2589
X17667Y16959
X17667Y15935
X17667Y15620
X17667Y15305
X17667Y14990
X17667Y14675
X17667Y13730
X17667Y13415
X17667Y13100
X17667Y12785
X17667Y11526
X17667Y11211
X17667Y10896
X17667Y9951
X17667Y9636
X17667Y9321
X17667Y9006
X17667Y8691
X17667Y8376
X17667Y8061
X17667Y7746
X17667Y7431
X17667Y7116
X17667Y6486
X17667Y6171
X17667Y5856
X17667Y5541
X17667Y5226
X17667Y2274
M30
